<?xml version="1.0" encoding="utf-8"?>
<!-- Generator: Adobe Illustrator 22.0.1, SVG Export Plug-In . SVG Version: 6.00 Build 0)  -->
<svg version="1.1" id="Icon_build" xmlns="http://www.w3.org/2000/svg" xmlns:xlink="http://www.w3.org/1999/xlink" x="0px" y="0px"
	 width="24px" height="24px" viewBox="0 0 24 24" enable-background="new 0 0 24 24" xml:space="preserve">
<rect fill="none" width="24" height="24"/>
<g>
	<path d="M5.9,6.3C5.8,6.1,5.6,6,5.4,6H4.6C4.4,6,4.2,6.1,4.1,6.3L0,16.3c-0.1,0.3,0,0.5,0.3,0.7c0.3,0.1,0.5,0,0.7-0.3L2.5,13
		c0,0,0,0,0,0h5c0,0,0,0,0,0L9,16.7C9.1,16.9,9.3,17,9.5,17c0.1,0,0.1,0,0.2,0c0.3-0.1,0.4-0.4,0.3-0.7L5.9,6.3z M2.9,12l2-5h0.1
		l2,5H2.9z"/>
	<path d="M14.5,12h-3c-0.3,0-0.5,0.2-0.5,0.5s0.2,0.5,0.5,0.5h3c0.3,0,0.5-0.2,0.5-0.5S14.8,12,14.5,12z"/>
	<path d="M23.5,16h-6l6.4-9.2c0.1-0.2,0.1-0.4,0-0.5S23.7,6,23.5,6h-7C16.2,6,16,6.2,16,6.5S16.2,7,16.5,7h6l-6.4,9.2
		c-0.1,0.2-0.1,0.4,0,0.5c0.1,0.2,0.3,0.3,0.4,0.3h7c0.3,0,0.5-0.2,0.5-0.5S23.8,16,23.5,16z"/>
</g>
</svg>
