<?xml version="1.0" encoding="utf-8"?>
<!-- Generator: Adobe Illustrator 21.1.0, SVG Export Plug-In . SVG Version: 6.00 Build 0)  -->
<svg version="1.1" baseProfile="tiny" id="Grid" xmlns="http://www.w3.org/2000/svg" xmlns:xlink="http://www.w3.org/1999/xlink"
	 x="0px" y="0px" width="510.2px" height="226.8px" viewBox="0 0 510.2 226.8" xml:space="preserve">
<g>
	<path fill="#003781" d="M91.9,114.2H78.3l7.3-23.7L91.9,114.2z M71.2,140.4l4.7-15.6h18.4l4.4,15.6h17L98.7,81
		c-1-3.5-3.1-5.1-6.8-5.1H67.8v5.6h2c2.5,0,3.9,1,3.9,2.9c0,1.3-0.3,2.3-1.3,5.2l-16.9,50.8H71.2z"/>
	<path fill="#003781" d="M135.3,140.4V80.8c0-3.1-1.8-4.9-4.8-4.9h-14.9v5.6h1c2.5,0,3.6,1.1,3.6,3.6v55.4H135.3z"/>
	<path fill="#003781" d="M161.1,140.4V80.8c0-3.1-1.8-4.9-4.8-4.9h-14.9v5.6h0.9c2.5,0,3.6,1.1,3.6,3.6v55.4H161.1z"/>
	<path fill="#003781" d="M187.6,81.7c0-4.3-3.2-7-8.7-7c-5.4,0-8.7,2.6-8.7,7c0,4.4,3.3,7,8.7,7C184.4,88.7,187.6,86.1,187.6,81.7
		 M187.3,140.4V96.9c0-3.1-1.8-4.9-4.9-4.9h-14.7v5.5h0.9c2.5,0,3.6,1.2,3.6,3.7v39.2H187.3z"/>
	<path fill="#003781" d="M220.6,117.1v9.4c-2.5,2.6-5.6,4.2-8.2,4.2c-2.7,0-3.7-1.3-3.7-5c0-3.6,0.8-5.2,3.5-6.3
		C214.2,118.6,216.8,117.9,220.6,117.1 M200.2,105.8c5-2.4,10.6-3.8,14.9-3.8c4.1,0,5.5,1.5,5.5,5.7v1.1c-6.2,1-8.1,1.4-11.6,2.1
		c-2,0.5-3.9,1-5.7,1.8c-6.1,2.4-9,7.2-9,14.4c0,9.2,4,13.6,12.2,13.6c3,0,5.7-0.6,8.1-1.5c2.1-0.9,3.4-1.7,6.5-4.2v0.7
		c0,3,1.5,4.5,4.5,4.5h13.8v-5.2h-0.7c-2.6,0-3.6-1.2-3.6-4.3v-23.1c0-12.3-4.3-16.6-16.6-16.6c-4,0-7.8,0.5-11.6,1.4
		c-3.8,0.9-5.7,1.6-10.3,3.9L200.2,105.8z"/>
	<path fill="#003781" d="M261.5,140.4v-32.7c2.5-2.8,5.1-4.1,8.1-4.1c3.2,0,4,1.3,4,6.1v30.7h15.1v-32.9c0-7.7-0.6-10.1-3-12.7
		c-2-2.2-5.1-3.4-9.1-3.4c-5.9,0-10.1,1.8-15.7,7.1v-1.9c0-3-1.6-4.6-4.7-4.6H242v5.5h0.9c2.5,0,3.6,1.2,3.6,3.7v39.2H261.5z"/>
	<path fill="#003781" d="M333.5,130.2h-21.1l20.1-28.3V92H301c-3.6,0-5.2,1.6-5.2,5.2v8.8h5.6v-0.9c0-2.2,1.2-3.3,3.6-3.3h10.9
		l-20.3,28.6v10h38V130.2z"/>
	<path fill="#003781" d="M412.8,139.2V84.4c0-4.4-1.5-5.8-5.8-5.8h-12.8v6.1h0.8c2.9,0,3.5,0.7,3.5,4.2v50.3H412.8z M419.1,139.2
		h14.2V96.5c0-4.3-1.7-5.8-5.8-5.8h-8.4V139.2z M392.2,139.2V90.7h-8.4c-4.2,0-5.8,1.5-5.8,5.8v42.6H392.2z M446.8,111.4
		c0,24.1-17.3,41.6-41.1,41.6c-23.8,0-41.2-17.5-41.2-41.6c0-24.1,17.3-41.6,41.2-41.6C429.5,69.7,446.8,87.3,446.8,111.4
		 M455.2,111.4c0-28.4-21.2-49.6-49.6-49.6c-28.4,0-49.6,21.2-49.6,49.6c0,28.4,21.2,49.6,49.6,49.6
		C434,160.9,455.2,139.7,455.2,111.4"/>
</g>
</svg>
