<?xml version="1.0" encoding="utf-8"?>
<!-- Generator: Adobe Illustrator 22.0.1, SVG Export Plug-In . SVG Version: 6.00 Build 0)  -->
<svg version="1.1" id="Icon_build" xmlns="http://www.w3.org/2000/svg" xmlns:xlink="http://www.w3.org/1999/xlink" x="0px" y="0px"
	 width="24px" height="24px" viewBox="0 0 24 24" enable-background="new 0 0 24 24" xml:space="preserve">
<rect fill="none" width="24" height="24"/>
<path d="M17.7,12.4c-1.3-0.7-1.7-1.2-1.7-1.2c-0.1-0.1-0.1-0.1-0.2-0.2c0,0-0.1-0.1-0.3-0.1c1.9,0.1,3.1-0.7,3.5-1.2
	c0.8-0.7,1.1-1.7,0.9-2.3c-0.1-0.3-0.4-0.5-0.7-0.5c-0.3,0-0.5,0.2-0.5,0.5c0,0.2,0.1,0.4,0.3,0.5c0,0.2-0.2,0.7-0.7,1.2
	c-0.5,0.5-1.7,1.1-3.6,0.8c0.6-0.7,1-0.9,1.2-0.9c0.2,0,0.3,0,0.3,0.1c0.2,0.2,0.5,0.2,0.7,0c0.2-0.2,0.2-0.5,0-0.7
	c0,0-0.4-0.4-1.1-0.3c-0.7,0.1-1.4,0.7-2.2,1.7c-0.4-0.1-0.7-0.3-1.2-0.4c-1-0.4-1.7-0.9-2.4-1.3C8.2,5.6,10.7,3,10.9,2.9
	c0.2-0.2,0.2-0.5,0-0.7s-0.5-0.2-0.7,0C9.3,3,8.3,4.6,8.4,6.3c-0.9-1-1.1-2-1.1-2.8c0-1.5,0.9-2.5,1-2.5c0.3,0,0.5-0.2,0.5-0.5
	S8.7,0,8.4,0c0,0,0,0,0,0C7.7,0,6.7,1.2,6.4,2.6C6.1,4.3,6.3,7.5,12.1,10c0.1,0.1,0.3,0.1,0.4,0.2c-0.3,0-0.5-0.1-0.8-0.1
	C9.4,9.9,9.1,9.8,9,9.8c-0.2,0-0.4,0.1-0.5,0.3c-0.1,0.2,0,0.4,0.1,0.5l1,1.1l-7.5,6.3C2.1,18.2,2,18.3,2,18.5c0,0.1,0,0.3,0.1,0.4
	C2.3,19,6.5,24,10.9,24c3,0,4.3-2,4.4-2.1c0.1-0.1,0.1-0.2,0.1-0.3L15,16.7c0.4-0.1,0.8-0.2,1.2-0.3c0.1,0,0.4,0.1,0.5,0.1
	c0.3,0.1,0.7,0.3,1.1,0.2c0.7-0.1,1-0.5,1.1-0.7c0.2-0.3,0.2-0.6,0.2-0.8l0.3-0.2c0.2-0.1,0.3-0.4,0.2-0.6
	C19.7,14.4,19.3,13.3,17.7,12.4z M18.4,14.5c-0.2,0.1-0.3,0.3-0.2,0.6c0,0,0.1,0.2-0.1,0.4c-0.1,0.1-0.2,0.2-0.5,0.3
	c-0.1,0-0.4-0.1-0.5-0.1c-0.4-0.1-0.8-0.3-1.2-0.2c-2.9,0.9-4.1-0.3-4.1-0.3c-0.1-0.1-0.3-0.2-0.5-0.2c-0.2,0-0.3,0.2-0.4,0.3
	c-0.1,0.2-0.1,0.5,0.2,0.8c0.4,0.6,1.4,0.8,2.9,0.9l0.3,4.5C14,21.9,12.9,23,10.9,23c-3.2,0-6.6-3.3-7.7-4.4l7.5-6.3
	c0.1-0.1,0.2-0.2,0.2-0.4c0-0.1,0-0.3-0.1-0.4l-0.5-0.6c0.3,0,0.8,0.1,1.3,0.1c1.9,0.2,3.3,0.6,3.7,0.8c0.2,0.2,0.7,0.7,1.9,1.4
	c0.7,0.4,1.2,0.9,1.4,1.2L18.4,14.5z"/>
</svg>
