<?xml version="1.0" encoding="utf-8"?>
<!-- Generator: Adobe Illustrator 22.0.1, SVG Export Plug-In . SVG Version: 6.00 Build 0)  -->
<svg version="1.1" id="Icon_build" xmlns="http://www.w3.org/2000/svg" xmlns:xlink="http://www.w3.org/1999/xlink" x="0px" y="0px"
	 width="24px" height="24px" viewBox="0 0 24 24" enable-background="new 0 0 24 24" xml:space="preserve">
<rect fill="none" width="24" height="24"/>
<g>
	<path d="M4.9,10C4.3,9,3.4,8.3,2.5,8.1C1.9,7.9,1.4,8,0.9,8.3c-1.2,0.7-1.3,2.6-0.2,4.3c0.6,1,1.5,1.7,2.5,1.9
		c0.2,0,0.4,0.1,0.5,0.1c0.4,0,0.7-0.1,1-0.3C5.9,13.6,6,11.7,4.9,10z M4.2,13.5L4.2,13.5c-0.3,0.2-0.6,0.1-0.8,0.1
		c-0.6-0.2-1.4-0.7-1.8-1.5c-0.7-1.2-0.8-2.5-0.1-3C1.6,9,1.8,9,1.9,9C2,9,2.1,9,2.2,9c0.6,0.1,1.4,0.7,1.8,1.5
		C4.8,11.7,4.9,13.1,4.2,13.5z"/>
	<path d="M7.5,10.1c0.4,0.3,0.9,0.4,1.4,0.4c0.2,0,0.3,0,0.5-0.1c1.6-0.4,2.5-2.4,2-4.6c-0.2-1-0.7-1.9-1.4-2.5
		C9.2,2.7,8.4,2.4,7.6,2.6C6,3,5.1,5,5.6,7.2C5.9,8.5,6.6,9.6,7.5,10.1z M7.8,3.6c0.1,0,0.2,0,0.3,0c0.4,0,0.8,0.2,1.2,0.5
		c0.5,0.5,0.9,1.2,1.1,2c0.4,1.6-0.2,3.2-1.2,3.4C8.7,9.6,8.3,9.5,8,9.3C7.3,8.9,6.8,8,6.6,7C6.2,5.4,6.8,3.8,7.8,3.6z"/>
	<path d="M12.4,11.5l-0.2-0.1l-0.1,0c0,0-0.1,0-0.4,0c-0.3,0-3.4,0.1-5.5,2.9c-1.5,2.4-1.6,4.1-0.3,6.1c0.4,0.5,1,0.9,1.9,0.9
		c0.8,0,1.8-0.3,3.3-1.2c0.1-0.1,0.2-0.1,0.3-0.1l0,0c0,0,0.1,0,0.1,0c0.1,0,0.2,0,0.3,0c0.3,0,0.7,0.1,0.8,0.2
		c1.5,0.8,2.5,1.1,3.3,1.1c0.9,0,1.5-0.4,1.9-0.9c1.3-1.9,1.2-3.7-0.4-6.1C15.8,12,13.3,11.6,12.4,11.5z M17.2,19.9
		c-0.4,0.4-1,1.2-4-0.5c-0.2-0.1-0.7-0.3-1.2-0.3v0c0,0,0,0,0,0c0,0,0,0,0,0c-0.2,0-0.4,0-0.6,0.1c-0.1,0-0.1,0-0.1,0c0,0,0,0-0.1,0
		l0,0c-0.2,0-0.3,0.1-0.4,0.2c-2.9,1.6-3.6,0.9-3.9,0.5c-0.9-1.3-1.1-2.6,0.4-4.9c1.6-2.2,3.9-2.5,4.5-2.5l0,0c0.1,0,0.1,0,0.1,0
		c0.1,0,0.2,0,0.4,0c0,0,0.1,0,0.1,0c0,0,0,0,0,0l0,0c0.6,0,2.9,0.3,4.5,2.5C18.3,17.3,18,18.6,17.2,19.9z"/>
	<path d="M23.1,8.3c-0.6-0.4-1.4-0.4-2.1,0c-0.7,0.3-1.4,1-1.9,1.7c-1.1,1.7-1,3.6,0.2,4.3c0.3,0.2,0.6,0.3,1,0.3
		c0.2,0,0.3,0,0.5-0.1c0.9-0.2,1.8-0.9,2.5-1.9C24.3,10.9,24.2,9,23.1,8.3z M22.4,12.1c-0.5,0.8-1.2,1.4-1.8,1.5
		c-0.2,0-0.5,0.1-0.8-0.1h0c-0.7-0.4-0.6-1.8,0.1-3c0.4-0.6,0.9-1.1,1.4-1.4C21.5,9.1,21.8,9,22.1,9c0.2,0,0.3,0,0.5,0.1
		C23.2,9.5,23.1,10.9,22.4,12.1z"/>
	<path d="M14.6,10.5c0.2,0,0.3,0.1,0.5,0.1c0.5,0,0.9-0.1,1.4-0.4c0.9-0.6,1.6-1.7,1.9-2.9c0.5-2.2-0.4-4.3-2-4.6
		c-0.8-0.2-1.7,0.1-2.4,0.7c-0.7,0.6-1.2,1.5-1.4,2.5C12.1,8.1,13,10.1,14.6,10.5z M13.6,6.1c0.2-0.8,0.6-1.5,1.1-2
		c0.4-0.4,0.8-0.5,1.2-0.5c0.1,0,0.2,0,0.3,0c1,0.2,1.6,1.8,1.2,3.4c-0.2,1-0.8,1.9-1.5,2.3c-0.3,0.2-0.7,0.3-1.1,0.2
		C13.8,9.3,13.2,7.7,13.6,6.1z"/>
</g>
</svg>
