<?xml version="1.0" encoding="utf-8"?>
<!-- Generator: Adobe Illustrator 22.0.1, SVG Export Plug-In . SVG Version: 6.00 Build 0)  -->
<svg version="1.1" id="Icon_build" xmlns="http://www.w3.org/2000/svg" xmlns:xlink="http://www.w3.org/1999/xlink" x="0px" y="0px"
	 width="24px" height="24px" viewBox="0 0 24 24" enable-background="new 0 0 24 24" xml:space="preserve">
<rect fill="none" width="24" height="24"/>
<g>
	<path d="M22.6,14.2c-1.6-0.6-3-1.2-4.5-1.7c-0.8-0.3-1.4-0.7-1.8-1.4c-0.7-1-1.7-1.9-3.2-2.7l-0.7-0.4c-0.1-0.1-0.2-0.1-0.4-0.2
		C12.1,7,12,6,12,4.9c0-1.2-0.1-2.4-0.2-3.5c0-0.2-0.1-0.4-0.3-0.4c-0.2-0.1-0.4,0-0.5,0.1L9.8,2.2C9.8,2.3,9.7,2.3,9.5,2.4
		C9.4,2.5,9.3,2.6,9.1,2.7C8.6,1.6,7.7,0.9,6.8,0.4c-0.1-0.1-0.3-0.1-0.5,0C6.2,0.5,6.1,0.6,6,0.8L4.9,6.6c-0.1,0.3-0.1,0.7-0.2,1
		C4.6,8.4,4.4,9.2,4.3,10c0,0.7-0.3,1.2-0.7,1.8l-0.6,1c-0.7,1.1-1.3,2.3-1.9,3.4l-0.3,0.5c-0.2,0.4-0.5,0.9-0.8,1.6
		c-0.1,0.2,0,0.3,0,0.5C0.2,18.9,0.3,19,0.5,19c1,0,2.1,0.1,3.1,0.2c0.1,0.1,0.1,0.1,0.2,0.2c1.3,0.5,2.6,1.3,4,2
		c1.4,0.8,2.8,1.6,4.3,2.2c0.1,0,0.1,0,0.2,0c0.2,0,0.4-0.1,0.5-0.3c0.1-0.3,0.3-0.8,0.5-1.2c0.1-0.3,0.2-0.6,0.3-0.9
		c1.6,0.4,3.3,0.5,5.2,0.3c1-0.1,1.7-0.5,2.3-1.1l0.5-0.5c0.5-0.5,0.9-1,1.4-1.5c0.2-0.2,0.4-0.4,0.5-0.7l0.2-0.3
		c0.1-0.1,0.1-0.3,0.1-0.4c0-0.1,0-0.1-0.1-0.2c0.2-0.1,0.3-0.2,0.3-0.4C24.1,15.3,23.7,14.7,22.6,14.2z M10.1,3.3
		c0.2-0.1,0.4-0.2,0.4-0.3l0.4-0.4C11,3.3,11,4.1,11,4.9c0,0.8,0,1.6,0.1,2.3c-0.1,0-0.1-0.1-0.2-0.1c-0.2-0.1-0.3-0.3-0.4-0.5
		C10.4,6,10.1,5.2,9.8,4.5C9.7,4.3,9.7,4.1,9.6,4c0-0.1-0.1-0.2-0.1-0.3C9.6,3.6,9.9,3.4,10.1,3.3z M12.2,21.8
		c-0.1,0.2-0.2,0.5-0.2,0.7c-1.2-0.5-2.5-1.3-3.7-1.9c-0.6-0.4-1.3-0.7-1.9-1.1c1.1,0.1,2.5,0.3,4.1,0.8c0.7,0.2,1.4,0.5,2.1,0.7
		C12.4,21.2,12.3,21.5,12.2,21.8z M21.8,15.7c-0.2,0-0.4,0.1-0.5,0.3l0,0.1c-0.1,0.2,0,0.5,0.2,0.6l1,0.5c-0.1,0.2-0.3,0.3-0.4,0.5
		c-0.5,0.5-0.9,1-1.4,1.5l-0.5,0.5c-0.4,0.4-0.9,0.7-1.7,0.8c-1.9,0.2-3.6,0.1-5.2-0.3c-0.8-0.3-1.7-0.6-2.5-0.8
		c-1.4-0.4-2.8-0.8-4.4-0.9c-0.4,0-0.9-0.1-1.4-0.1c-1.2-0.1-2.6-0.2-3.8-0.3c0.1-0.3,0.3-0.5,0.4-0.8L2,16.7
		c0.6-1.1,1.3-2.3,1.9-3.4l0.6-1.1c0.4-0.6,0.7-1.3,0.8-2.2c0-0.7,0.2-1.5,0.4-2.2c0.1-0.3,0.2-0.7,0.2-1l1-5.1C7.5,2,8,2.5,8.3,3.2
		c0.1,0.2,0.2,0.4,0.2,0.6c0,0,0,0,0,0c0,0.1,0.1,0.3,0.2,0.5C8.8,4.6,8.9,4.9,9,5.3c0.2,0.5,0.4,1.1,0.5,1.6
		c0.2,0.9,1.3,1.6,1.9,1.8c0.2,0.1,0.4,0.2,0.6,0.3l0.7,0.4c1.3,0.7,2.2,1.5,2.8,2.4c0.6,0.8,1.3,1.4,2.3,1.7c1.5,0.5,2.9,1,4.4,1.7
		c0.4,0.2,0.6,0.3,0.7,0.6L21.8,15.7z"/>
	<path d="M15,12.2c-0.2-0.1-0.4-0.3-0.5-0.4c-0.9-0.9-3.2,0.1-3.2,0.1c-0.1,0.1-0.5,0.2-0.4,0.6c0.1,0.8,0.5,1.2,0.9,1.4
		c0.3,0.2,0.7,0.2,1.1,0.2c0.9,0,1.7-0.3,1.8-0.4c0.1,0,0.1-0.1,0.2-0.1c0.2-0.1,0.3-0.1,0.5-0.3c0.1-0.1,0.2-0.3,0.2-0.4
		C15.6,12.6,15.4,12.5,15,12.2z M12.1,13c-0.1,0-0.2-0.1-0.2-0.2c0.6-0.2,1.7-0.5,1.9-0.2c0.1,0.1,0.3,0.2,0.4,0.4
		C13.8,13,12.7,13.3,12.1,13z"/>
</g>
</svg>
