<?xml version="1.0" encoding="utf-8"?>
<!-- Generator: Adobe Illustrator 22.0.1, SVG Export Plug-In . SVG Version: 6.00 Build 0)  -->
<svg version="1.1" id="Icon_build" xmlns="http://www.w3.org/2000/svg" xmlns:xlink="http://www.w3.org/1999/xlink" x="0px" y="0px"
	 width="24px" height="24px" viewBox="0 0 24 24" enable-background="new 0 0 24 24" xml:space="preserve">
<rect fill="none" width="24" height="24"/>
<g>
	<path d="M17.2,10.2c-0.6-0.1-1-0.1-1.3-0.1c0,0,0,0,0,0c-0.6,0-0.8,0.4-0.9,0.7c-0.1,0.9,1.5,2.3,3.1,2.5c0,0,0,0,0.1,0
		c0.1,0,0.2,0,0.3-0.1c0.1-0.1,0.2-0.2,0.2-0.3l0-0.2c0.1-0.6,0.2-1.3-0.3-1.9C18.1,10.4,17.7,10.2,17.2,10.2z M17.7,12.2
		c-0.7-0.2-1.3-0.8-1.6-1.1c0.2,0,0.5,0,1,0.1c0.3,0,0.4,0.1,0.5,0.2C17.7,11.6,17.7,11.9,17.7,12.2z"/>
	<path d="M22.4,15.9c0.1-0.1,0.1-0.3,0-0.5L22.2,15c-0.1-0.2-0.2-0.4-0.3-0.6c-0.1-0.2-0.2-0.4-0.4-0.6c-0.2-0.3-0.4-0.6-0.6-1
		c-0.4-0.9-0.8-1.8-1.1-2.7L19.8,10c-0.7-1.8-1.8-3-3.1-3.8c0-0.1,0.1-0.1,0.1-0.2c0-0.6,0-1.4,0-2.2c0-0.7,0-1.5,0-2.1
		c0-0.2-0.1-0.3-0.2-0.4c-0.1-0.1-0.3-0.1-0.5-0.1c-0.3,0.1-0.5,0.2-0.7,0.2c-0.4,0.1-0.6,0.2-0.9,0.4c0-0.2,0-0.3,0-0.5
		c0-0.3,0-0.6,0.1-0.9c0-0.2-0.1-0.4-0.2-0.5c-0.2-0.1-0.4-0.1-0.5,0l-0.6,0.3c-0.4,0.2-0.8,0.5-1.1,0.7C9.9,2.6,7.9,4.6,5.6,7.2
		c-1.7,2-2.9,3.8-3.9,5.7c-0.3,0.6-0.1,0.9,0.1,1.2l0.1,0.1c1,1.5,3.2,2.9,4.2,2.9c0.1,0,0.2,0,0.3,0c0.8,0.9,1.7,2.1,2.7,3.3
		c1,1.2,2,2.5,2.8,3.4c0.1,0.1,0.2,0.2,0.4,0.2c0,0,0.1,0,0.1,0c0.2,0,0.3-0.1,0.4-0.3c0.1-0.2,0.2-0.4,0.3-0.7
		c0.6-1.5,1.3-3.1,2.9-3.6c0.2,0.1,0.4,0.1,0.7,0.2c0.5,0.1,0.9,0.2,1.3,0.2c0.7,0,1.2-0.2,1.8-0.5c0.6-0.4,1.2-0.8,1.8-1.3
		c0.3-0.3,0.5-0.7,0.7-1c0.1-0.1,0.1-0.2,0.2-0.4c0.1-0.2,0.1-0.4-0.1-0.6C22.3,15.9,22.3,15.9,22.4,15.9z M15.6,2.5
		C15.6,2.5,15.7,2.5,15.6,2.5c0.1,0.4,0.1,0.9,0.1,1.4c0,0.7,0,1.3,0,1.9c-0.3-0.1-0.5-0.2-0.8-0.2c-0.1,0-0.2-0.1-0.2-0.1
		c-0.2-0.8-0.3-1.5-0.3-2.2C15.1,2.6,15.2,2.6,15.6,2.5z M12.2,22.6c-0.7-0.8-1.5-1.8-2.2-2.8c-0.7-0.9-1.4-1.8-2.1-2.6
		c2,0.2,4.4,1,6.4,1.6c0.1,0,0.1,0,0.2,0.1c0.1,0,0.1,0,0.2,0.1C13.3,19.9,12.6,21.4,12.2,22.6z M21.3,16.5
		c-0.1,0.3-0.3,0.6-0.5,0.7c-0.5,0.5-1,0.8-1.6,1.2c-0.6,0.4-1.3,0.5-2.3,0.2c-0.6-0.2-1.2-0.3-1.7-0.5c-0.2-0.1-0.3-0.1-0.5-0.2
		c-0.6-0.2-1.2-0.4-1.8-0.6l-0.2-0.1c-1.7-0.5-3.8-1.2-6.1-1.2c-0.1,0-0.2,0-0.3,0c-0.5,0-2.4-1.1-3.4-2.5l-0.1-0.1
		c0-0.1-0.1-0.1-0.1-0.2c0.9-1.8,2.1-3.5,3.8-5.5c2.2-2.6,4.2-4.5,6.3-5.9c0.3-0.2,0.5-0.3,0.8-0.5c0,0.6-0.1,1.1,0,1.6c0,0,0,0,0,0
		c0,0,0,0,0,0c0,0.8,0.1,1.6,0.3,2.5c0.1,0.4,0.5,0.8,1,0.9c2,0.4,3.3,1.6,4.2,3.8l0.1,0.1c0.4,0.9,0.7,1.9,1.2,2.8
		c0.2,0.4,0.4,0.7,0.6,1.1c0.1,0.2,0.2,0.4,0.3,0.5c0,0,0,0.1,0.1,0.1l-0.2,0c-0.2,0-0.4,0.1-0.5,0.2l-0.1,0.1
		c-0.1,0.2-0.1,0.5,0.1,0.7L21.3,16.5C21.3,16.5,21.3,16.5,21.3,16.5z"/>
</g>
</svg>
