<?xml version="1.0" encoding="utf-8"?>
<!-- Generator: Adobe Illustrator 22.0.1, SVG Export Plug-In . SVG Version: 6.00 Build 0)  -->
<svg version="1.1" id="Icon_build" xmlns="http://www.w3.org/2000/svg" xmlns:xlink="http://www.w3.org/1999/xlink" x="0px" y="0px"
	 width="24px" height="24px" viewBox="0 0 24 24" enable-background="new 0 0 24 24" xml:space="preserve">
<rect fill="none" width="24" height="24"/>
<g>
	<path d="M23.4,10.8l-0.2-0.2c-0.2-0.2-0.3-0.4-0.4-0.6c-0.1-0.4-0.3-0.8-0.4-1.2C22,8,21.6,7.1,21.2,6.2c-0.4-0.8-0.8-1.4-1.2-1.8
		c-0.1-0.8-0.3-1.7-0.1-2.5c0-0.2,0-0.4-0.2-0.6c-0.2-0.2-0.3-0.2-0.7,0c0-0.2,0-0.4,0.1-0.6c0-0.2,0-0.4-0.2-0.5
		c-0.2-0.1-0.4-0.1-0.6,0c-0.6,0.4-1.1,0.8-1.6,1.2c-0.3,0.3-0.7,0.6-1,1C12.1,1.7,10.9,2.1,6.7,4C6.5,4.1,6.3,4.4,6.4,4.6
		C6.5,4.9,6.7,5,6.9,5C7,5,7.1,5.1,7.2,5.1C7,5.2,6.7,5.2,6.5,5.3C5.1,5.6,3.3,6,1.2,8.1C1.1,8.3,1,8.5,1.1,8.7C1.2,8.9,1.4,9,1.6,9
		c0.3,0,0.6,0,0.8,0C1.6,9.6,0.6,10.6,0,12.3c0,0.1,0,0.2,0,0.2h0c0.1,1.1,0.5,5.1,3.8,8.1c2.5,2.2,6,3.4,10.4,3.4
		c0.6,0,1.2,0,1.8-0.1c0.2,0,0.4-0.2,0.5-0.4c0,0,0-0.1,0-0.1c0.3-0.9,0.4-1.9,0.4-2.8c0-1.2-0.3-2.2-1-3c-0.9-1.1-1.4-2.3-1.6-3.5
		c-0.2-0.9-0.1-1.6,0.3-2.3c0.2-0.3,0.4-0.6,0.8-0.8c0.4,0.5,0.8,0.9,1.3,1.2c0.9,0.7,1.7,1.1,2.5,1.3c0,0.1,0.1,0.2,0.1,0.3
		c0.3,0.9,1,1.3,2,1.3c0.6,0,1.2-0.2,1.8-0.6c0.2-0.2,0.5-0.4,0.6-0.7C24.2,12.8,24.1,11.8,23.4,10.8z M22.8,13.5
		c0,0.1-0.1,0.2-0.2,0.2c-0.4,0.3-0.8,0.4-1.3,0.4c-0.5,0-0.9-0.2-1-0.7c0-0.1-0.1-0.2-0.1-0.3c0-0.2-0.2-0.5-0.6-0.6
		c-0.7-0.1-1.4-0.4-2.2-1.1c-0.5-0.4-0.9-0.9-1.4-1.4c0,0,0,0,0,0c0,0,0,0,0,0c0,0-0.1-0.1-0.1-0.1c0,0,0,0,0,0c0,0-1.3-0.6-1.9-1.7
		c-0.7-1.5,0.6-2.2,0.8-2.3c0.2-0.1,0.3-0.4,0.2-0.7c-0.1-0.2-0.4-0.3-0.7-0.2c-0.8,0.4-2.2,1.7-1.2,3.7c0.4,0.8,1.1,1.3,1.6,1.7
		c-0.3,0.3-0.6,0.6-0.8,0.9c-0.5,0.8-0.6,1.8-0.4,2.9c0.2,1.4,0.8,2.8,1.8,4c0.5,0.6,0.7,1.4,0.8,2.4c0,0.8-0.1,1.5-0.3,2.3
		c-4.9,0.2-8.6-0.8-11.2-3.1c-3-2.7-3.4-6.2-3.5-7.4c0.7-1.9,1.9-2.8,2.5-3.2C3.9,9,4.2,8.8,4.2,8.5c0-0.1-0.1-0.3-0.2-0.4
		C3.9,7.9,3.7,7.9,3.4,7.9c-0.1,0-0.3,0-0.5,0c1.5-1.2,2.7-1.5,3.8-1.7C7.3,6.1,7.9,6,8.4,5.7c0.1,0,0.1-0.1,0.2-0.1
		c0,0,0.1-0.1,0.2-0.2c0.1-0.1,0.1-0.3,0-0.4S8.6,4.7,8.4,4.7c-0.1,0-0.2-0.1-0.3-0.2c3.4-1.6,4.5-1.7,7.7-1.2
		c0.2,0,0.5-0.1,0.6-0.3c0.1-0.4,0.5-0.7,0.9-0.9c0.2-0.2,0.4-0.3,0.7-0.5c0,0.1,0,0.2-0.1,0.3c0,0.2,0,0.4,0.2,0.5
		c0.1,0.1,0.3,0.1,0.5,0.1c0.1,0,0.2-0.1,0.2-0.1c0,0.8,0.1,1.5,0.2,2.2c0,0.2,0.1,0.3,0.2,0.4c0.4,0.4,0.7,0.9,1.1,1.6
		c0.4,0.9,0.8,1.8,1.2,2.7c0.2,0.3,0.3,0.7,0.4,1.1c0.1,0.4,0.3,0.7,0.5,0.9l0.1,0.2C23,12.1,23.1,12.8,22.8,13.5z"/>
	<circle cx="18.5" cy="7.5" r="0.5"/>
</g>
</svg>
