<?xml version="1.0" encoding="utf-8"?>
<!-- Generator: Adobe Illustrator 22.0.1, SVG Export Plug-In . SVG Version: 6.00 Build 0)  -->
<svg version="1.1" id="Icon_build" xmlns="http://www.w3.org/2000/svg" xmlns:xlink="http://www.w3.org/1999/xlink" x="0px" y="0px"
	 width="24px" height="24px" viewBox="0 0 24 24" enable-background="new 0 0 24 24" xml:space="preserve">
<rect fill="none" width="24" height="24"/>
<path d="M23.9,11.7C23.9,11.7,23.9,11.7,23.9,11.7c0.1-0.1,0.1-0.2,0.1-0.2s0-0.1,0-0.2c0,0,0,0,0,0c0,0-0.1-0.1-0.1-0.1
	c0,0,0,0,0,0l-4-3.5c-0.2-0.2-0.5-0.2-0.7,0c-0.2,0.2-0.2,0.5,0,0.7l3,2.6h-4.7c-2.1,0-3.9,1.1-5,2.7V1.8l2.6,3
	C15.2,4.9,15.4,5,15.5,5c0.1,0,0.2,0,0.3-0.1c0.2-0.2,0.2-0.5,0-0.7l-3.5-4c0,0,0,0,0,0C12.3,0.1,12.1,0,12,0s-0.3,0.1-0.4,0.2
	c0,0,0,0,0,0l-3.5,4C7.9,4.4,8,4.7,8.2,4.9c0.2,0.2,0.5,0.2,0.7,0l2.6-3v11.9c-1.1-1.6-2.9-2.7-5-2.7H1.8l3-2.6
	c0.2-0.2,0.2-0.5,0-0.7c-0.2-0.2-0.5-0.2-0.7,0l-4,3.5c0,0,0,0,0,0c0,0-0.1,0.1-0.1,0.1c0,0,0,0,0,0c0,0.1,0,0.1,0,0.2s0,0.1,0,0.2
	c0,0,0,0,0,0c0,0,0.1,0.1,0.1,0.1c0,0,0,0,0,0l4,3.5c0.1,0.1,0.2,0.1,0.3,0.1c0.1,0,0.3-0.1,0.4-0.2c0.2-0.2,0.2-0.5,0-0.7l-3-2.6
	h4.7c2.8,0,5,2.2,5,5v6.5c0,0.3,0.2,0.5,0.5,0.5s0.5-0.2,0.5-0.5V17c0-2.8,2.2-5,5-5h4.7l-3,2.6c-0.2,0.2-0.2,0.5,0,0.7
	c0.1,0.1,0.2,0.2,0.4,0.2c0.1,0,0.2,0,0.3-0.1l4-3.5c0,0,0,0,0,0C23.9,11.8,23.9,11.8,23.9,11.7z"/>
</svg>
