<?xml version="1.0" encoding="utf-8"?>
<!-- Generator: Adobe Illustrator 22.0.1, SVG Export Plug-In . SVG Version: 6.00 Build 0)  -->
<svg version="1.1" id="Icon_build" xmlns="http://www.w3.org/2000/svg" xmlns:xlink="http://www.w3.org/1999/xlink" x="0px" y="0px"
	 width="24px" height="24px" viewBox="0 0 24 24" enable-background="new 0 0 24 24" xml:space="preserve">
<rect fill="none" width="24" height="24"/>
<path d="M20.6,3.1c-2.2-2-5.2-3.1-8.5-3.1C8.7,0,5.6,1.2,3.4,3.3S0,8.5,0,11.9c0,3.4,1.2,6.5,3.4,8.7c2.2,2.2,5.3,3.4,8.7,3.4
	c2.3,0,4.8-0.5,6.7-1.3c0.3-0.1,0.4-0.4,0.3-0.7c-0.1-0.3-0.4-0.4-0.7-0.3c-1.8,0.8-4.1,1.2-6.3,1.2c-3.2,0-6-1.1-8-3.1
	c-2-2-3.1-4.9-3.1-8C1,8.8,2.1,6,4.1,4c2-2,4.9-3,8-3c3.1,0,5.8,1,7.8,2.8c2,1.8,3.1,4.3,3.1,7.1c0,3.7-1.4,6.1-3.5,6.1
	c-0.9,0-2.4-0.8-2.5-2.9V6.4c0-0.3-0.2-0.5-0.5-0.5S16,6.1,16,6.4v2.1C15,7,13.4,6,11.5,6C8.5,6,6,8.7,6,12s2.5,6,5.5,6
	c2,0,3.7-1.1,4.7-2.8c0.5,1.8,2,2.8,3.3,2.8c2.1,0,4.5-1.9,4.5-7.1C24,7.8,22.8,5,20.6,3.1z M11.5,17C9,17,7,14.8,7,12s2-5,4.5-5
	S16,9.2,16,12S14,17,11.5,17z"/>
</svg>
