<?xml version="1.0" encoding="utf-8"?>
<!-- Generator: Adobe Illustrator 22.0.1, SVG Export Plug-In . SVG Version: 6.00 Build 0)  -->
<svg version="1.1" id="Icon_build" xmlns="http://www.w3.org/2000/svg" xmlns:xlink="http://www.w3.org/1999/xlink" x="0px" y="0px"
	 width="24px" height="24px" viewBox="0 0 24 24" enable-background="new 0 0 24 24" xml:space="preserve">
<rect fill="none" width="24" height="24"/>
<path d="M23.9,13.3L19.6,4h2C21.8,4,22,3.8,22,3.5S21.8,3,21.5,3h-7.6c-0.2-0.9-1-1.5-1.9-1.5S10.3,2.1,10.1,3H2.5
	C2.2,3,2,3.2,2,3.5S2.2,4,2.5,4h2l-4.4,9.3C0,13.3,0,13.4,0,13.5c0,2.8,2.3,5.1,5.2,5.1c2.8,0,5.1-2.3,5.2-5.1c0,0,0,0,0,0
	c0,0,0,0,0,0c0-0.1,0-0.1,0-0.2c0,0,0,0,0,0L5.9,4h4.2c0.2,0.7,0.7,1.2,1.4,1.4V22H8.6c-0.3,0-0.5,0.2-0.5,0.5S8.3,23,8.6,23h6.9
	c0.3,0,0.5-0.2,0.5-0.5S15.7,22,15.4,22h-2.9V5.4c0.7-0.2,1.2-0.7,1.4-1.4h4.2l-4.4,9.3c0,0,0,0,0,0c0,0.1,0,0.1,0,0.2c0,0,0,0,0,0
	c0,0,0,0,0,0c0,2.8,2.3,5.1,5.2,5.1c2.8,0,5.2-2.3,5.2-5.1C24,13.4,24,13.3,23.9,13.3z M5.2,17.6C3,17.6,1.3,16,1,14
	c0.8,0,2,0,3.1,0h2.3c1.1,0,2.1,0,2.9,0C9,16,7.3,17.6,5.2,17.6z M7.6,13c-1.3,0-3,0-4.4,0H1.3l3.9-8.2L9,13H7.6z M12,4.4
	c-0.5,0-1-0.4-1-1c0-0.5,0.4-1,1-1s1,0.4,1,1C13,4,12.5,4.4,12,4.4z M18.8,4.8l3.9,8.2h-1.9c-1.4,0-3.1,0-4.4,0H15L18.8,4.8z
	 M18.8,17.6c-2.1,0-3.9-1.6-4.1-3.6c1.9,0,6,0,8.3,0C22.7,16,21,17.6,18.8,17.6z"/>
</svg>
