<?xml version="1.0" encoding="utf-8"?>
<!-- Generator: Adobe Illustrator 22.0.1, SVG Export Plug-In . SVG Version: 6.00 Build 0)  -->
<svg version="1.1" id="Icon_build" xmlns="http://www.w3.org/2000/svg" xmlns:xlink="http://www.w3.org/1999/xlink" x="0px" y="0px"
	 width="24px" height="24px" viewBox="0 0 24 24" enable-background="new 0 0 24 24" xml:space="preserve">
<rect fill="none" width="24" height="24"/>
<g>
	<path d="M3.5,8.1h17c0.2,0,0.4-0.1,0.5-0.3s0-0.4-0.2-0.6l-8.5-7c-0.2-0.2-0.5-0.2-0.6,0l-8.5,7C3,7.3,3,7.5,3,7.7S3.3,8.1,3.5,8.1
		z M12,1.2l7.1,5.9H4.9L12,1.2z"/>
	<path d="M4,9.5v9C4,18.8,4.2,19,4.5,19S5,18.8,5,18.5v-9C5,9.2,4.8,9,4.5,9S4,9.2,4,9.5z"/>
	<path d="M8,9.5v9C8,18.8,8.2,19,8.5,19S9,18.8,9,18.5v-9C9,9.2,8.8,9,8.5,9S8,9.2,8,9.5z"/>
	<path d="M15,9.5v9c0,0.3,0.2,0.5,0.5,0.5s0.5-0.2,0.5-0.5v-9C16,9.2,15.8,9,15.5,9S15,9.2,15,9.5z"/>
	<path d="M19,9.5v9c0,0.3,0.2,0.5,0.5,0.5s0.5-0.2,0.5-0.5v-9C20,9.2,19.8,9,19.5,9S19,9.2,19,9.5z"/>
	<path d="M12,11.5c-0.3,0-0.5,0.2-0.5,0.5v6.5c0,0.3,0.2,0.5,0.5,0.5s0.5-0.2,0.5-0.5V12C12.5,11.7,12.3,11.5,12,11.5z"/>
	<path d="M12.5,9.3c0-0.1-0.1-0.1-0.1-0.2c0-0.1-0.1-0.1-0.2-0.1C12,9,11.8,9,11.6,9.1c0,0-0.1,0.1-0.1,0.2c0,0.1,0,0.1,0,0.2
		c0,0.1,0.1,0.3,0.1,0.3c0,0.1,0.1,0.1,0.2,0.1c0.1,0,0.1,0,0.2,0c0.1,0,0.1,0,0.2,0c0.1,0,0.1-0.1,0.2-0.1c0.1-0.1,0.1-0.2,0.1-0.3
		C12.5,9.4,12.5,9.4,12.5,9.3z"/>
	<path d="M20.5,20h-17C3.2,20,3,20.2,3,20.5v2C3,22.8,3.2,23,3.5,23h17c0.3,0,0.5-0.2,0.5-0.5v-2C21,20.2,20.8,20,20.5,20z M20,22H4
		v-1h16V22z"/>
</g>
</svg>
