<?xml version="1.0" encoding="utf-8"?>
<!-- Generator: Adobe Illustrator 22.0.1, SVG Export Plug-In . SVG Version: 6.00 Build 0)  -->
<svg version="1.1" id="Ebene_5" xmlns="http://www.w3.org/2000/svg" xmlns:xlink="http://www.w3.org/1999/xlink" x="0px" y="0px"
	 width="24px" height="24px" viewBox="0 0 24 24" enable-background="new 0 0 24 24" xml:space="preserve">
<rect fill="none" width="24" height="24"/>
<g>
	<path d="M17.5,2H15V0.5C15,0.2,14.8,0,14.5,0h-5C9.2,0,9,0.2,9,0.5V2H6.5C5.7,2,5,2.7,5,3.5v19C5,23.3,5.7,24,6.5,24h11
		c0.8,0,1.5-0.7,1.5-1.5v-19C19,2.7,18.3,2,17.5,2z M10,1h4v1h-4V1z M18,22.5c0,0.3-0.2,0.5-0.5,0.5h-11C6.2,23,6,22.8,6,22.5v-19
		C6,3.2,6.2,3,6.5,3h3h5h3C17.8,3,18,3.2,18,3.5V22.5z"/>
	<path d="M15.5,11h-7C8.2,11,8,11.2,8,11.5S8.2,12,8.5,12h7c0.3,0,0.5-0.2,0.5-0.5S15.8,11,15.5,11z"/>
	<path d="M15.5,8h-7C8.2,8,8,8.2,8,8.5S8.2,9,8.5,9h7C15.8,9,16,8.8,16,8.5S15.8,8,15.5,8z"/>
	<path d="M15.5,14h-7C8.2,14,8,14.2,8,14.5S8.2,15,8.5,15h7c0.3,0,0.5-0.2,0.5-0.5S15.8,14,15.5,14z"/>
	<path d="M15.5,17h-7C8.2,17,8,17.2,8,17.5S8.2,18,8.5,18h7c0.3,0,0.5-0.2,0.5-0.5S15.8,17,15.5,17z"/>
	<path d="M15.5,20h-7C8.2,20,8,20.2,8,20.5S8.2,21,8.5,21h7c0.3,0,0.5-0.2,0.5-0.5S15.8,20,15.5,20z"/>
</g>
</svg>
