<?xml version="1.0" encoding="utf-8"?>
<!-- Generator: Adobe Illustrator 22.0.1, SVG Export Plug-In . SVG Version: 6.00 Build 0)  -->
<svg version="1.1" id="Icon_build" xmlns="http://www.w3.org/2000/svg" xmlns:xlink="http://www.w3.org/1999/xlink" x="0px" y="0px"
	 width="24px" height="24px" viewBox="0 0 24 24" enable-background="new 0 0 24 24" xml:space="preserve">
<rect fill="none" width="24" height="24"/>
<path d="M22.5,11H22V5.4C22,5.2,21.9,5,21.7,5c-2.5-1.1-6-1.8-9.7-1.8S4.8,3.8,2.3,5C2.1,5,2,5.2,2,5.4V11H1.5C1.2,11,1,11.2,1,11.5
	v5v4C1,20.8,1.2,21,1.5,21S2,20.8,2,20.5V17h20v3.5c0,0.3,0.2,0.5,0.5,0.5s0.5-0.2,0.5-0.5v-4v-5C23,11.2,22.8,11,22.5,11z M3,5.7
	c2.3-1,5.6-1.6,9-1.6s6.7,0.6,9,1.6V11h-1.2c0.1-0.3,0.2-0.6,0.2-0.9V9.9c0-1-0.8-1.9-1.9-1.9h-3.2c-1,0-1.9,0.8-1.9,1.9v0.2
	c0,0.3,0.1,0.6,0.2,0.9h-2.5c0.1-0.3,0.2-0.6,0.2-0.9V9.9c0-1-0.8-1.9-1.9-1.9H5.9C4.8,8,4,8.8,4,9.9v0.2c0,0.3,0.1,0.6,0.2,0.9H3
	V5.7z M14,10.1V9.9C14,9.4,14.4,9,14.9,9h3.2C18.6,9,19,9.4,19,9.9v0.2c0,0.5-0.4,0.9-0.9,0.9h-3.2C14.4,11,14,10.6,14,10.1z
	 M5,10.1V9.9C5,9.4,5.4,9,5.9,9h3.2C9.6,9,10,9.4,10,9.9v0.2c0,0.5-0.4,0.9-0.9,0.9H5.9C5.4,11,5,10.6,5,10.1z M2,12h3.9h3.2h5.8
	h3.2H22v4H2V12z"/>
</svg>
