<?xml version="1.0" encoding="utf-8"?>
<!-- Generator: Adobe Illustrator 22.0.1, SVG Export Plug-In . SVG Version: 6.00 Build 0)  -->
<svg version="1.1" id="Icon_build" xmlns="http://www.w3.org/2000/svg" xmlns:xlink="http://www.w3.org/1999/xlink" x="0px" y="0px"
	 width="24px" height="24px" viewBox="0 0 24 24" enable-background="new 0 0 24 24" xml:space="preserve">
<rect fill="none" width="24" height="24"/>
<path d="M19,9c-0.4,0-0.8,0.1-1.2,0.2l-2.8-6.9C14.8,2.1,14.6,2,14.4,2h-2.9C11.2,2,11,2.2,11,2.5S11.2,3,11.5,3h2.6l1.7,4H9.6
	L9,5.3c0,0,0,0,0,0c0.5-0.2,0.8-0.3,0.8-0.4c0.2-0.1,0.3-0.5,0.2-0.7C9.8,4,9.5,3.9,9.2,4.1c-0.1,0-1.4,0.8-2.9,0
	C6.1,4,5.8,4.1,5.6,4.3C5.5,4.6,5.6,4.9,5.9,5c0.7,0.3,1.3,0.5,1.9,0.5c0.1,0,0.2,0,0.3,0c0,0.1,0,0.1,0,0.2l0.7,2l-1.5,2
	C6.6,9.2,5.8,9,5,9c-2.8,0-5,2.2-5,5c0,2.8,2.2,5,5,5s5-2.2,5-5c0,0,0,0,0,0h1.5c0.1,0,0.1,0,0.2,0c0,0,0,0,0,0c0,0,0,0,0.1,0
	c0,0,0.1,0,0.1-0.1c0,0,0,0,0,0l4.5-5.4l0.5,1.1C15.2,10.3,14,12,14,14c0,2.8,2.2,5,5,5s5-2.2,5-5C24,11.2,21.8,9,19,9z M9,14
	c0,2.2-1.8,4-4,4s-4-1.8-4-4s1.8-4,4-4c0.6,0,1.2,0.1,1.7,0.4l-2.1,2.8c-0.1,0.2-0.1,0.4,0,0.5C4.6,13.9,4.8,14,5,14L9,14
	C9,14,9,14,9,14z M8.9,13H6l1.5-2.1C8.2,11.5,8.6,12.2,8.9,13z M8.1,10.1l1-1.4l1.6,4.2H9.9C9.7,11.9,9,10.9,8.1,10.1z M11.7,12.5
	L10,8h5.5L11.7,12.5z M19,18c-2.2,0-4-1.8-4-4c0-1.6,0.9-2.9,2.2-3.6l1.3,3.2c0.1,0.2,0.3,0.3,0.5,0.3c0.1,0,0.1,0,0.2,0
	c0.3-0.1,0.4-0.4,0.3-0.7l-1.3-3.2C18.4,10,18.7,10,19,10c2.2,0,4,1.8,4,4S21.2,18,19,18z"/>
</svg>
