<?xml version="1.0" encoding="utf-8"?>
<!-- Generator: Adobe Illustrator 22.0.1, SVG Export Plug-In . SVG Version: 6.00 Build 0)  -->
<svg version="1.1" id="Icon_build" xmlns="http://www.w3.org/2000/svg" xmlns:xlink="http://www.w3.org/1999/xlink" x="0px" y="0px"
	 width="24px" height="24px" viewBox="0 0 24 24" enable-background="new 0 0 24 24" xml:space="preserve">
<rect fill="none" width="24" height="24"/>
<g>
	<path d="M19.5,3H17V2.5C17,2.2,16.8,2,16.5,2h-2.7l-0.9-1.7C12.9,0.1,12.7,0,12.5,0h-1c-0.2,0-0.4,0.1-0.4,0.3L10.2,2H7.5
		C7.2,2,7,2.2,7,2.5V3H4.5C4.2,3,4,3.2,4,3.5v19C4,22.8,4.2,23,4.5,23h15c0.3,0,0.5-0.2,0.5-0.5v-19C20,3.2,19.8,3,19.5,3z M8,3h2.5
		c0.2,0,0.4-0.1,0.4-0.3L11.8,1h0.4l0.9,1.7C13.1,2.9,13.3,3,13.5,3H16v1H8V3z M19,22H5V4h2v0.5C7,4.8,7.2,5,7.5,5h9
		C16.8,5,17,4.8,17,4.5V4h2V22z"/>
	<path d="M16.5,7h-9C7.2,7,7,7.2,7,7.5S7.2,8,7.5,8h9C16.8,8,17,7.8,17,7.5S16.8,7,16.5,7z"/>
	<path d="M16.5,10h-9C7.2,10,7,10.2,7,10.5S7.2,11,7.5,11h9c0.3,0,0.5-0.2,0.5-0.5S16.8,10,16.5,10z"/>
	<path d="M16.5,13h-9C7.2,13,7,13.2,7,13.5S7.2,14,7.5,14h9c0.3,0,0.5-0.2,0.5-0.5S16.8,13,16.5,13z"/>
	<path d="M16.5,16h-9C7.2,16,7,16.2,7,16.5S7.2,17,7.5,17h9c0.3,0,0.5-0.2,0.5-0.5S16.8,16,16.5,16z"/>
</g>
</svg>
