<?xml version="1.0" encoding="utf-8"?>
<!-- Generator: Adobe Illustrator 22.0.1, SVG Export Plug-In . SVG Version: 6.00 Build 0)  -->
<svg version="1.1" id="Ebene_5" xmlns="http://www.w3.org/2000/svg" xmlns:xlink="http://www.w3.org/1999/xlink" x="0px" y="0px"
	 width="24px" height="24px" viewBox="0 0 24 24" enable-background="new 0 0 24 24" xml:space="preserve">
<rect fill="none" width="24" height="24"/>
<g>
	<path d="M8.5,0C6.4,0,3.5,2.4,3,5.1C1.5,5.5,0,6.8,0,8.7C0,10,0.5,11.2,1.2,12C0.5,12.8,0,14,0,15.3c0,1.9,1.5,3.3,3,3.6
		C3.5,21.6,6.4,24,8.5,24c1.1,0,1.9-0.6,2.2-1.7c0.3-0.9,0.3-2.1,0.3-3.5V5.2c0-1.4,0-2.5-0.3-3.5C10.4,0.6,9.6,0,8.5,0z M10,18.8
		c0,1.2,0,2.4-0.2,3.2c-0.2,0.7-0.6,1-1.3,1c-1.7,0-4.4-2.3-4.5-4.5C4,18.2,3.8,18,3.6,18C2.3,17.8,1,16.9,1,15.3
		c0-1.2,0.5-2.3,1.3-2.9c0.1-0.1,0.2-0.2,0.2-0.4s-0.1-0.3-0.2-0.4C1.5,11,1,9.9,1,8.7C1,7.1,2.3,6.2,3.6,6C3.8,6,4,5.8,4,5.5
		C4.1,3.3,6.8,1,8.5,1c0.7,0,1.1,0.3,1.3,1C10,2.8,10,3.9,10,5.2V18.8z"/>
	<path d="M8,14.5C8,14.2,7.8,14,7.5,14S7,14.2,7,14.5C7,15.9,5.7,16,5.5,16c0,0,0,0,0,0c0,0,0,0,0,0h0c0,0,0,0,0,0h0c0,0,0,0,0,0
		C5.2,16,5,16.2,5,16.5C5,16.8,5.2,17,5.5,17C5.7,17,7,17.1,7,18.5C7,18.8,7.2,19,7.5,19S8,18.8,8,18.5c0-1-0.4-1.6-0.9-2
		C7.6,16.1,8,15.5,8,14.5z"/>
	<path d="M7.5,9C7.3,9,6,8.9,6,7.5C6,7.2,5.8,7,5.5,7S5,7.2,5,7.5c0,1,0.4,1.6,0.9,2c-0.5,0.4-0.9,1-0.9,2C5,11.8,5.2,12,5.5,12
		S6,11.8,6,11.5C6,10.1,7.3,10,7.5,10c0,0,0,0,0,0c0,0,0,0,0,0h0c0,0,0,0,0,0h0c0,0,0,0,0,0C7.8,10,8,9.8,8,9.5C8,9.2,7.8,9,7.5,9z"
		/>
	<path d="M24,8.7c0-1.9-1.5-3.3-3-3.6C20.5,2.4,17.6,0,15.5,0c-1.1,0-1.9,0.6-2.2,1.7C13,2.6,13,3.8,13,5.2v13.6
		c0,1.4,0,2.5,0.3,3.5c0.3,1.1,1.1,1.7,2.2,1.7c2.1,0,5-2.4,5.5-5.1c1.6-0.4,3-1.7,3-3.6c0-1.3-0.5-2.5-1.2-3.3
		C23.5,11.2,24,10,24,8.7z M23,15.3c0,1.6-1.3,2.5-2.6,2.7c-0.2,0-0.4,0.2-0.4,0.5c-0.1,2.2-2.8,4.5-4.5,4.5c-0.7,0-1.1-0.3-1.3-1
		C14,21.2,14,20.1,14,18.8V5.2c0-1.2,0-2.4,0.2-3.2c0.2-0.7,0.6-1,1.3-1c1.7,0,4.4,2.3,4.5,4.5C20,5.8,20.2,6,20.4,6
		C21.7,6.2,23,7.1,23,8.7c0,1.2-0.5,2.3-1.3,2.9c-0.1,0.1-0.2,0.2-0.2,0.4s0.1,0.3,0.2,0.4C22.5,13,23,14.1,23,15.3z"/>
	<path d="M18.5,16c-0.3,0-1.5-0.1-1.5-1.5c0-0.3-0.2-0.5-0.5-0.5S16,14.2,16,14.5c0,1,0.4,1.6,0.9,2c-0.5,0.4-0.9,1-0.9,2
		c0,0.3,0.2,0.5,0.5,0.5s0.5-0.2,0.5-0.5c0-1.4,1.3-1.5,1.5-1.5c0,0,0,0,0,0c0,0,0,0,0,0h0c0,0,0,0,0,0h0c0,0,0,0,0,0
		c0.3,0,0.5-0.2,0.5-0.5C19,16.2,18.8,16,18.5,16z"/>
	<path d="M19,7.5C19,7.2,18.8,7,18.5,7S18,7.2,18,7.5C18,8.9,16.7,9,16.5,9c0,0,0,0,0,0c0,0,0,0,0,0h0c0,0,0,0,0,0h0c0,0,0,0,0,0
		C16.2,9,16,9.2,16,9.5c0,0.3,0.2,0.5,0.5,0.5c0.3,0,1.5,0.1,1.5,1.5c0,0.3,0.2,0.5,0.5,0.5s0.5-0.2,0.5-0.5c0-1-0.4-1.6-0.9-2
		C18.6,9.1,19,8.5,19,7.5z"/>
</g>
</svg>
