<?xml version="1.0" encoding="utf-8"?>
<!-- Generator: Adobe Illustrator 22.0.1, SVG Export Plug-In . SVG Version: 6.00 Build 0)  -->
<svg version="1.1" id="Icon_build" xmlns="http://www.w3.org/2000/svg" xmlns:xlink="http://www.w3.org/1999/xlink" x="0px" y="0px"
	 width="24px" height="24px" viewBox="0 0 24 24" enable-background="new 0 0 24 24" xml:space="preserve">
<rect fill="none" width="24" height="24"/>
<path d="M17.2,21.6c-0.5-0.1-3.5-0.5-4.7-0.7l0-6.5c3.7-0.2,6.5-3.2,6.5-7c0-0.1,0-0.1,0-0.2l-1-5.5C18,0.6,17.3,0,16.2,0H14h-0.1
	h-0.4c0,0,0,0,0,0H7.8C6.6,0,6,0.7,6,1.8L5,7.4c0,0,0,0,0,0c0,0,0,0,0,0c0,3.7,2.8,6.7,6.5,7l0,6.5c-1.1,0.2-4.2,0.6-4.7,0.7
	c-0.8,0.2-1,1.1-0.8,1.9C6,23.8,6.2,24,6.4,24H12h0h5.5c0.3,0,0.5-0.2,0.5-0.4C18.1,22.8,18,21.8,17.2,21.6z M6,7.5l1-5.6
	C7,1.2,7.2,1,7.8,1h5L11,5.3c-0.1,0.2,0,0.4,0.1,0.5C11.3,6,11.5,6,11.7,6l2-0.7l-1.6,4c-0.1,0.3,0,0.5,0.3,0.6c0.1,0,0.1,0,0.2,0
	c0.2,0,0.4-0.1,0.5-0.3l2-5c0.1-0.2,0-0.4-0.1-0.5C14.7,4,14.5,4,14.3,4l-2,0.7L13.8,1h0H14h2.2C16.8,1,17,1.2,17,1.8l1,5.7
	c-0.1,3.3-2.6,5.9-6,5.9C8.7,13.4,6,10.8,6,7.5z M12,23L12,23H6.9c0-0.2,0-0.4,0.1-0.4c0.6-0.1,4.4-0.7,5-0.7c0.6,0.1,4.5,0.6,5,0.7
	C17,22.6,17,22.8,17,23H12z"/>
</svg>
