<?xml version="1.0" encoding="utf-8"?>
<!-- Generator: Adobe Illustrator 22.0.1, SVG Export Plug-In . SVG Version: 6.00 Build 0)  -->
<svg version="1.1" id="Icon_build" xmlns="http://www.w3.org/2000/svg" xmlns:xlink="http://www.w3.org/1999/xlink" x="0px" y="0px"
	 width="24px" height="24px" viewBox="0 0 24 24" enable-background="new 0 0 24 24" xml:space="preserve">
<rect fill="none" width="24" height="24"/>
<g>
	<path d="M22.5,18H21V1.5C21,1.2,20.8,1,20.5,1h-17C3.2,1,3,1.2,3,1.5V18H1.5C1.2,18,1,18.2,1,18.5v2C1,20.8,1.2,21,1.5,21h21
		c0.3,0,0.5-0.2,0.5-0.5v-2C23,18.2,22.8,18,22.5,18z M4,2h16v16H4V2z M22,20H2v-1h1.5h17H22V20z"/>
	<path d="M18.5,3H12H5.5C5.2,3,5,3.2,5,3.5v13C5,16.8,5.2,17,5.5,17H12h6.5c0.3,0,0.5-0.2,0.5-0.5v-13C19,3.2,18.8,3,18.5,3z
		 M18,5.3l-1.6,2.4l-1.6-1.6C14.7,6,14.5,6,14.3,6C14.1,6.1,14,6.3,14,6.5v2.7l-1.5,0.6V4H18V5.3z M12.5,12h1.2l-0.5,1h-0.7V12z
		 M6,4h5.5v12H6V4z M12.5,16v-2h1c0.2,0,0.4-0.1,0.4-0.3l1-2c0.1-0.2,0.1-0.3,0-0.5c-0.1-0.1-0.3-0.2-0.4-0.2h-2v-0.2l2.2-0.9
		C14.9,9.9,15,9.7,15,9.5V7.7l1.1,1.1C16.3,9,16.4,9,16.5,9c0.1,0,0.3-0.1,0.4-0.2L18,7.2V16H12.5z"/>
</g>
</svg>
