<?xml version="1.0" encoding="utf-8"?>
<!-- Generator: Adobe Illustrator 22.0.1, SVG Export Plug-In . SVG Version: 6.00 Build 0)  -->
<svg version="1.1" id="Ebene_5" xmlns="http://www.w3.org/2000/svg" xmlns:xlink="http://www.w3.org/1999/xlink" x="0px" y="0px"
	 width="24px" height="24px" viewBox="0 0 24 24" enable-background="new 0 0 24 24" xml:space="preserve">
<rect fill="none" width="24" height="24"/>
<path d="M17,15.4c0-2-1.3-3.7-3-4.5V1.5C14,0.7,13.3,0,12.5,0h-1C10.7,0,10,0.7,10,1.5v9.4c-1.7,0.8-2.9,2.5-3,4.5L4.9,24h14.3
	L17,15.4z M11,1.5C11,1.2,11.2,1,11.5,1h1C12.8,1,13,1.2,13,1.5v9.1c-0.3-0.1-0.7-0.1-1-0.1s-0.7,0-1,0.1V1.5z M12,11.5
	c2,0,3.7,1.5,3.9,3.5H8.1C8.3,13,10,11.5,12,11.5z M7.9,16h8.2l1.8,7h-1.9L15,17.4c0-0.3-0.3-0.5-0.6-0.4c-0.3,0-0.5,0.3-0.4,0.6
	l0.9,5.4h-2.4v-5.5c0-0.3-0.2-0.5-0.5-0.5s-0.5,0.2-0.5,0.5V23H9.1l0.9-5.4c0-0.3-0.1-0.5-0.4-0.6c-0.3,0-0.5,0.1-0.6,0.4L8.1,23
	H6.1L7.9,16z"/>
</svg>
