<?xml version="1.0" encoding="utf-8"?>
<!-- Generator: Adobe Illustrator 22.0.1, SVG Export Plug-In . SVG Version: 6.00 Build 0)  -->
<svg version="1.1" id="Icon_build" xmlns="http://www.w3.org/2000/svg" xmlns:xlink="http://www.w3.org/1999/xlink" x="0px" y="0px"
	 width="24px" height="24px" viewBox="0 0 24 24" enable-background="new 0 0 24 24" xml:space="preserve">
<rect fill="none" width="24" height="24"/>
<g>
	<circle cx="6" cy="20" r="0.5"/>
	<circle cx="18" cy="20" r="0.5"/>
	<path d="M22.5,5c-1.7,0-3,1.3-3,3h-7V0.5C12.5,0.2,12.3,0,12,0C7.3,0,3.5,3.8,3.5,8.5c0,3.1,1.7,5.9,4.3,7.4l-0.7,1.4
		C6.7,17.1,6.4,17,6,17c-1.7,0-3,1.3-3,3s1.3,3,3,3s3-1.3,3-3c0-0.9-0.4-1.7-1.1-2.3c0,0,0,0,0,0l0.7-1.4c1,0.4,2.2,0.7,3.3,0.7
		s2.3-0.2,3.3-0.7l0.7,1.4c0,0,0,0,0,0C15.4,18.3,15,19.1,15,20c0,1.7,1.3,3,3,3s3-1.3,3-3s-1.3-3-3-3c-0.4,0-0.7,0.1-1.1,0.2
		l-0.7-1.4c2.5-1.5,4.3-4.2,4.3-7.4V8c0-1.1,0.9-2,2-2C22.8,6,23,5.8,23,5.5S22.8,5,22.5,5z M6,22c-1.1,0-2-0.9-2-2s0.9-2,2-2
		s2,0.9,2,2S7.1,22,6,22z M20,20c0,1.1-0.9,2-2,2s-2-0.9-2-2s0.9-2,2-2S20,18.9,20,20z M11.5,1v7h-7C4.8,4.3,7.8,1.3,11.5,1z M12,16
		c-4,0-7.2-3.1-7.5-7h14.9C19.2,12.9,16,16,12,16z"/>
</g>
</svg>
