<?xml version="1.0" encoding="utf-8"?>
<!-- Generator: Adobe Illustrator 22.0.1, SVG Export Plug-In . SVG Version: 6.00 Build 0)  -->
<svg version="1.1" id="Ebene_5" xmlns="http://www.w3.org/2000/svg" xmlns:xlink="http://www.w3.org/1999/xlink" x="0px" y="0px"
	 width="24px" height="24px" viewBox="0 0 24 24" enable-background="new 0 0 24 24" xml:space="preserve">
<rect fill="none" width="24" height="24"/>
<g>
	<path d="M22.8,9.1c-0.1-0.1-0.3-0.1-0.5,0L17,11.7V9.5c0-0.2-0.1-0.3-0.2-0.4c-0.1-0.1-0.3-0.1-0.5,0L11,11.7V9.5
		c0-0.2-0.1-0.3-0.2-0.4c-0.1-0.1-0.3-0.1-0.5,0L5,11.7V3.5C5,3.2,4.8,3,4.5,3h-3C1.2,3,1,3.2,1,3.5v17C1,20.8,1.2,21,1.5,21h21
		c0.3,0,0.5-0.2,0.5-0.5v-11C23,9.3,22.9,9.2,22.8,9.1z M4,4v2H2V4H4z M22,20H2V7h2v5.5c0,0.2,0.1,0.3,0.2,0.4
		c0.1,0.1,0.3,0.1,0.5,0l5.3-2.6v2.2c0,0.2,0.1,0.3,0.2,0.4c0.1,0.1,0.3,0.1,0.5,0l5.3-2.6v2.2c0,0.2,0.1,0.3,0.2,0.4
		c0.1,0.1,0.3,0.1,0.5,0l5.3-2.6V20z"/>
	<path d="M9.5,15h-2C7.2,15,7,15.2,7,15.5S7.2,16,7.5,16h2c0.3,0,0.5-0.2,0.5-0.5S9.8,15,9.5,15z"/>
	<path d="M14.5,15h-2c-0.3,0-0.5,0.2-0.5,0.5s0.2,0.5,0.5,0.5h2c0.3,0,0.5-0.2,0.5-0.5S14.8,15,14.5,15z"/>
	<path d="M17.5,16h2c0.3,0,0.5-0.2,0.5-0.5S19.8,15,19.5,15h-2c-0.3,0-0.5,0.2-0.5,0.5S17.2,16,17.5,16z"/>
	<path d="M9.5,17h-2C7.2,17,7,17.2,7,17.5S7.2,18,7.5,18h2c0.3,0,0.5-0.2,0.5-0.5S9.8,17,9.5,17z"/>
	<path d="M14.5,17h-2c-0.3,0-0.5,0.2-0.5,0.5s0.2,0.5,0.5,0.5h2c0.3,0,0.5-0.2,0.5-0.5S14.8,17,14.5,17z"/>
	<path d="M17.5,18h2c0.3,0,0.5-0.2,0.5-0.5S19.8,17,19.5,17h-2c-0.3,0-0.5,0.2-0.5,0.5S17.2,18,17.5,18z"/>
	<path d="M7.5,7h6C13.8,7,14,6.8,14,6.5v-2C14,3.1,12.9,2,11.5,2c-0.9,0-1.7,0.5-2.2,1.3C9.1,3.1,8.8,3,8.5,3C7.7,3,7,3.7,7,4.5v2
		C7,6.8,7.2,7,7.5,7z M8,4.5C8,4.2,8.2,4,8.5,4S9,4.2,9,4.5C9,4.8,9.2,5,9.5,5S10,4.8,10,4.5C10,3.7,10.7,3,11.5,3S13,3.7,13,4.5V6
		H8V4.5z"/>
</g>
</svg>
