<?xml version="1.0" encoding="utf-8"?>
<!-- Generator: Adobe Illustrator 22.0.1, SVG Export Plug-In . SVG Version: 6.00 Build 0)  -->
<svg version="1.1" id="Icon_build" xmlns="http://www.w3.org/2000/svg" xmlns:xlink="http://www.w3.org/1999/xlink" x="0px" y="0px"
	 width="24px" height="24px" viewBox="0 0 24 24" enable-background="new 0 0 24 24" xml:space="preserve">
<rect fill="none" width="24" height="24"/>
<g>
	<path d="M22.3,6.4c-0.2-0.2-0.5-0.3-0.7-0.1c-0.2,0.2-0.3,0.5-0.1,0.7c1,1.4,1.5,3.2,1.5,5c0,1.9-0.5,3.6-1.5,5.1
		c-0.2,0.2-0.1,0.5,0.1,0.7c0.1,0.1,0.2,0.1,0.3,0.1c0.2,0,0.3-0.1,0.4-0.2C23.4,16,24,14,24,11.9C24,9.9,23.4,8,22.3,6.4z"/>
	<path d="M20.9,8.3C20.7,8,20.4,8,20.2,8.1c-0.2,0.2-0.3,0.5-0.1,0.7c0.6,0.9,0.9,2,0.9,3.1c0,1.2-0.3,2.2-1,3.1
		c-0.2,0.2-0.1,0.5,0.1,0.7c0.1,0.1,0.2,0.1,0.3,0.1c0.2,0,0.3-0.1,0.4-0.2c0.7-1.1,1.1-2.4,1.1-3.7C22,10.6,21.6,9.3,20.9,8.3z"/>
	<path d="M18.7,2c-0.2-0.1-0.4,0-0.5,0.1C17.4,3,9.5,6.6,7,7.7V7.5C7,7.2,6.8,7,6.5,7h-4C2.2,7,2,7.2,2,7.5V9H0.5C0.2,9,0,9.2,0,9.5
		v3C0,12.8,0.2,13,0.5,13H2v1.5C2,14.8,2.2,15,2.5,15h0.3l1.6,6c0.1,0.3,0.5,1,1.1,1c0.7,0,1.1,0,1.5,0c0.8,0,0.8-0.1,0.9-0.2
		C8,21.7,8,21.5,8,21.4c0,0,0,0,0,0L6.3,15h0.2C6.8,15,7,14.8,7,14.5v-0.2c2.5,1.1,10.4,4.8,11.1,5.6c0.1,0.1,0.4,0.2,0.5,0.1
		c0.2-0.1,0.3-0.3,0.3-0.5v-17C19,2.3,18.9,2.1,18.7,2z M2,12H1v-2h1V12z M3,8h3v6H3V8z M6.9,21c-0.4,0-0.9,0-1.3,0
		c-0.1,0-0.2-0.2-0.2-0.3l-1.4-5.5h1.4L6.9,21z M18,18.5c-2.5-1.5-9.4-4.7-11-5.4V8.8C8.6,8.1,15.5,5,18,3.5V18.5z"/>
</g>
</svg>
