<?xml version="1.0" encoding="utf-8"?>
<!-- Generator: Adobe Illustrator 22.0.1, SVG Export Plug-In . SVG Version: 6.00 Build 0)  -->
<svg version="1.1" id="Icon_build" xmlns="http://www.w3.org/2000/svg" xmlns:xlink="http://www.w3.org/1999/xlink" x="0px" y="0px"
	 width="24px" height="24px" viewBox="0 0 24 24" enable-background="new 0 0 24 24" xml:space="preserve">
<rect fill="none" width="24" height="24"/>
<g>
	<path d="M8.7,9H6.5C6.2,9,6,9.2,6,9.5v2.2c0,0.3,0.2,0.5,0.5,0.5h2.2c0.3,0,0.5-0.2,0.5-0.5V9.5C9.2,9.2,9,9,8.7,9z M8.2,11.2H7V10
		h1.2V11.2z"/>
	<path d="M8.7,17.3H6.5c-0.3,0-0.5,0.2-0.5,0.5V20c0,0.3,0.2,0.5,0.5,0.5h2.2c0.3,0,0.5-0.2,0.5-0.5v-2.2C9.2,17.5,9,17.3,8.7,17.3z
		 M8.2,19.5H7v-1.2h1.2V19.5z"/>
	<path d="M6.5,8h11C17.8,8,18,7.8,18,7.5v-4C18,3.2,17.8,3,17.5,3h-11C6.2,3,6,3.2,6,3.5v4C6,7.8,6.2,8,6.5,8z M7,4h10v3H7V4z"/>
	<path d="M8.7,13.2H6.5c-0.3,0-0.5,0.2-0.5,0.5v2.2c0,0.3,0.2,0.5,0.5,0.5h2.2c0.3,0,0.5-0.2,0.5-0.5v-2.2C9.2,13.4,9,13.2,8.7,13.2
		z M8.2,15.4H7v-1.2h1.2V15.4z"/>
	<path d="M17.5,9h-2.2c-0.3,0-0.5,0.2-0.5,0.5v2.2c0,0.3,0.2,0.5,0.5,0.5h2.2c0.3,0,0.5-0.2,0.5-0.5V9.5C18,9.2,17.8,9,17.5,9z
		 M17,11.2h-1.2V10H17V11.2z"/>
	<path d="M17.6,1H6.4C5.6,1,4,1.4,4,3.1v17.8C4,21.5,4.4,23,6.4,23h11.2c0.8,0,2.4-0.4,2.4-2.1V3.1C20,2.5,19.6,1,17.6,1z M19,20.9
		c0,1.1-1.2,1.1-1.4,1.1H6.4C5.1,22,5,21.1,5,20.9V3.1C5,2,6.2,2,6.4,2h11.2C18.9,2,19,2.9,19,3.1V20.9z"/>
	<path d="M17.5,13.2h-2.2c-0.3,0-0.5,0.2-0.5,0.5v2.2c0,0.3,0.2,0.5,0.5,0.5h2.2c0.3,0,0.5-0.2,0.5-0.5v-2.2
		C18,13.4,17.8,13.2,17.5,13.2z M17,15.4h-1.2v-1.2H17V15.4z"/>
	<path d="M13.1,13.2h-2.2c-0.3,0-0.5,0.2-0.5,0.5v2.2c0,0.3,0.2,0.5,0.5,0.5h2.2c0.3,0,0.5-0.2,0.5-0.5v-2.2
		C13.6,13.4,13.4,13.2,13.1,13.2z M12.6,15.4h-1.2v-1.2h1.2V15.4z"/>
	<path d="M13.1,17.3h-2.2c-0.3,0-0.5,0.2-0.5,0.5V20c0,0.3,0.2,0.5,0.5,0.5h2.2c0.3,0,0.5-0.2,0.5-0.5v-2.2
		C13.6,17.5,13.4,17.3,13.1,17.3z M12.6,19.5h-1.2v-1.2h1.2V19.5z"/>
	<path d="M13.1,9h-2.2c-0.3,0-0.5,0.2-0.5,0.5v2.2c0,0.3,0.2,0.5,0.5,0.5h2.2c0.3,0,0.5-0.2,0.5-0.5V9.5C13.6,9.2,13.4,9,13.1,9z
		 M12.6,11.2h-1.2V10h1.2V11.2z"/>
	<path d="M17.5,17.3h-2.2c-0.3,0-0.5,0.2-0.5,0.5V20c0,0.3,0.2,0.5,0.5,0.5h2.2c0.3,0,0.5-0.2,0.5-0.5v-2.2
		C18,17.5,17.8,17.3,17.5,17.3z M17,19.5h-1.2v-1.2H17V19.5z"/>
</g>
</svg>
