<?xml version="1.0" encoding="utf-8"?>
<!-- Generator: Adobe Illustrator 22.0.1, SVG Export Plug-In . SVG Version: 6.00 Build 0)  -->
<svg version="1.1" id="Icon_build" xmlns="http://www.w3.org/2000/svg" xmlns:xlink="http://www.w3.org/1999/xlink" x="0px" y="0px"
	 width="24px" height="24px" viewBox="0 0 24 24" enable-background="new 0 0 24 24" xml:space="preserve">
<rect fill="none" width="24" height="24"/>
<g>
	<path d="M22.5,3H19V2.5C19,2.2,18.8,2,18.5,2h-2C16.2,2,16,2.2,16,2.5V3H8V2.5C8,2.2,7.8,2,7.5,2h-2C5.2,2,5,2.2,5,2.5V3H1.5
		C1.2,3,1,3.2,1,3.5v17C1,20.8,1.2,21,1.5,21h21c0.3,0,0.5-0.2,0.5-0.5v-17C23,3.2,22.8,3,22.5,3z M17,3h1v1h-1V3z M6,3h1v1H6V3z
		 M5,4v0.5C5,4.8,5.2,5,5.5,5h2C7.8,5,8,4.8,8,4.5V4h8v0.5C16,4.8,16.2,5,16.5,5h2C18.8,5,19,4.8,19,4.5V4h3v1.9H2V4H5z M2,20V6.9
		h20V20H2z"/>
	<path d="M7.5,9h-3C4.2,9,4,9.2,4,9.5v3C4,12.8,4.2,13,4.5,13h3C7.8,13,8,12.8,8,12.5v-3C8,9.2,7.8,9,7.5,9z M7,12H5v-2h2V12z"/>
	<path d="M7.5,14h-3C4.2,14,4,14.2,4,14.5v3C4,17.8,4.2,18,4.5,18h3C7.8,18,8,17.8,8,17.5v-3C8,14.2,7.8,14,7.5,14z M7,17H5v-2h2V17
		z"/>
	<path d="M13.5,9h-3C10.2,9,10,9.2,10,9.5v3c0,0.3,0.2,0.5,0.5,0.5h3c0.3,0,0.5-0.2,0.5-0.5v-3C14,9.2,13.8,9,13.5,9z M13,12h-2v-2
		h2V12z"/>
	<path d="M13.5,14h-3c-0.3,0-0.5,0.2-0.5,0.5v3c0,0.3,0.2,0.5,0.5,0.5h3c0.3,0,0.5-0.2,0.5-0.5v-3C14,14.2,13.8,14,13.5,14z M13,17
		h-2v-2h2V17z"/>
	<path d="M19.5,9h-3C16.2,9,16,9.2,16,9.5v3c0,0.3,0.2,0.5,0.5,0.5h3c0.3,0,0.5-0.2,0.5-0.5v-3C20,9.2,19.8,9,19.5,9z M19,12h-2v-2
		h2V12z"/>
	<path d="M19.5,14h-3c-0.3,0-0.5,0.2-0.5,0.5v3c0,0.3,0.2,0.5,0.5,0.5h3c0.3,0,0.5-0.2,0.5-0.5v-3C20,14.2,19.8,14,19.5,14z M19,17
		h-2v-2h2V17z"/>
</g>
</svg>
