<?xml version="1.0" encoding="utf-8"?>
<!-- Generator: Adobe Illustrator 22.0.1, SVG Export Plug-In . SVG Version: 6.00 Build 0)  -->
<svg version="1.1" id="Icon_build" xmlns="http://www.w3.org/2000/svg" xmlns:xlink="http://www.w3.org/1999/xlink" x="0px" y="0px"
	 width="24px" height="24px" viewBox="0 0 24 24" enable-background="new 0 0 24 24" xml:space="preserve">
<rect fill="none" width="24" height="24"/>
<g>
	<path d="M20,5h-3c-0.2-1.2-1.2-2-2.6-2H9.7C8.2,3,7.2,3.8,7,5H4C2.4,5,1,6.4,1,8v10c0,1.6,1.4,3,3,3h16c1.6,0,3-1.4,3-3V8
		C23,6.4,21.6,5,20,5z M22,18c0,1-1,2-2,2H4c-1,0-2-1-2-2V8c0-1,1-2,2-2h4V5.5C8,4.3,8.9,4,9.7,4h4.7C15.1,4,16,4.3,16,5.5V6h4
		c1,0,2,1,2,2V18z"/>
	<circle cx="19.5" cy="7.5" r="0.5"/>
	<path d="M12,7c-3.3,0-6,2.7-6,6s2.7,6,6,6s6-2.7,6-6S15.3,7,12,7z M12,18c-2.8,0-5-2.2-5-5s2.2-5,5-5s5,2.2,5,5S14.8,18,12,18z"/>
	<path d="M12,10c-1.7,0-3,1.3-3,3s1.3,3,3,3s3-1.3,3-3S13.7,10,12,10z M12,15c-1.1,0-2-0.9-2-2c0-1.1,0.9-2,2-2s2,0.9,2,2
		C14,14.1,13.1,15,12,15z"/>
</g>
</svg>
