<?xml version="1.0" encoding="utf-8"?>
<!-- Generator: Adobe Illustrator 22.0.1, SVG Export Plug-In . SVG Version: 6.00 Build 0)  -->
<svg version="1.1" id="Icon_build" xmlns="http://www.w3.org/2000/svg" xmlns:xlink="http://www.w3.org/1999/xlink" x="0px" y="0px"
	 width="24px" height="24px" viewBox="0 0 24 24" enable-background="new 0 0 24 24" xml:space="preserve">
<rect fill="none" width="24" height="24"/>
<path d="M15.5,10h-3V8.9C13.9,8.7,15,7.5,15,6c0-0.2,0-0.4-0.1-0.6l0-0.1c-0.1-0.5-1.9-3.9-2.4-4.9c0,0,0,0,0,0c0,0,0-0.1-0.1-0.1
	c0,0-0.1,0-0.1-0.1c0,0,0,0,0,0c0,0,0,0,0,0c0,0-0.1,0-0.1,0c0,0-0.1,0-0.1,0c0,0-0.1,0-0.1,0c0,0-0.1,0-0.1,0c0,0,0,0,0,0
	c0,0,0,0,0,0c0,0-0.1,0-0.1,0.1c0,0,0,0.1-0.1,0.1c0,0,0,0,0,0c-0.5,1-2.3,4.5-2.4,4.9L9.1,5.4C9,5.6,9,5.8,9,6
	c0,1.5,1.1,2.7,2.5,2.9V10h-3C8.2,10,8,10.2,8,10.5v13C8,23.8,8.2,24,8.5,24h7c0.3,0,0.5-0.2,0.5-0.5v-13C16,10.2,15.8,10,15.5,10z
	 M10,6c0-0.1,0-0.3,0-0.4l0.1-0.2c0.1-0.3,1-2.1,1.9-3.9c0.9,1.7,1.8,3.6,1.9,3.9l0,0.1c0,0.1,0,0.3,0,0.4c0,0.9-0.6,1.7-1.5,1.9
	V7.5C12.5,7.2,12.3,7,12,7s-0.5,0.2-0.5,0.5v0.4C10.6,7.7,10,6.9,10,6z M15,23H9V11h6V23z"/>
</svg>
