<?xml version="1.0" encoding="utf-8"?>
<!-- Generator: Adobe Illustrator 22.0.1, SVG Export Plug-In . SVG Version: 6.00 Build 0)  -->
<svg version="1.1" id="Icon_build" xmlns="http://www.w3.org/2000/svg" xmlns:xlink="http://www.w3.org/1999/xlink" x="0px" y="0px"
	 width="24px" height="24px" viewBox="0 0 24 24" enable-background="new 0 0 24 24" xml:space="preserve">
<rect fill="none" width="24" height="24"/>
<path d="M22.5,13.3c-0.1-1-0.6-1.8-1.4-2.5c-0.1,0-0.1-0.1-0.2-0.1c-0.7-0.2-1.6-0.3-2.4-0.4c-0.3,0-0.7-0.1-1-0.1
	c-0.7-0.1-1-0.3-1-0.3C15.8,9.2,13.7,7,12.5,7l-1.3,0C9.6,7,7.3,7,6.5,7C4.3,7,1,10.7,1,11.5v2c0,0.6,0.2,1.4,2.3,2.4
	C3.3,16,3.4,16,3.5,16c0,0,0,0,0,0c0.5,0.6,1.2,1,2,1c0.8,0,1.5-0.4,2-1c0,0,0,0,0,0h8c0,0,0,0,0,0c0.5,0.6,1.2,1,2,1
	c0.8,0,1.6-0.4,2-1c0,0,0.1,0,0.1,0h0.9c0.5,0,1-0.5,1.2-0.8C22,14.9,22.6,14.1,22.5,13.3z M5.5,16C4.7,16,4,15.3,4,14.5
	S4.7,13,5.5,13S7,13.7,7,14.5S6.3,16,5.5,16z M17.5,16c-0.8,0-1.5-0.7-1.5-1.5s0.7-1.5,1.5-1.5s1.5,0.7,1.5,1.5S18.3,16,17.5,16z
	 M20.5,15h-0.6c0-0.2,0.1-0.3,0.1-0.5c0-1.4-1.1-2.5-2.5-2.5S15,13.1,15,14.5c0,0.2,0,0.3,0.1,0.5H7.9C8,14.8,8,14.7,8,14.5
	C8,13.1,6.9,12,5.5,12S3,13.1,3,14.5c0,0.1,0,0.1,0,0.2c-1-0.6-1-1-1-1.2l0-1.9C2.2,11.1,4.8,8,6.5,8c0.8,0,3.1,0,4.7,0l1.3,0
	c0.5,0,2.1,1.3,3.2,2.6c0.1,0,0.5,0.4,1.5,0.6c0.3,0,0.7,0.1,1,0.1c0.8,0.1,1.6,0.2,2.2,0.4c0.4,0.3,0.9,0.9,1,1.8
	C21.6,14,20.7,14.9,20.5,15z"/>
</svg>
