<?xml version="1.0" encoding="utf-8"?>
<!-- Generator: Adobe Illustrator 22.0.1, SVG Export Plug-In . SVG Version: 6.00 Build 0)  -->
<svg version="1.1" id="Icon_build" xmlns="http://www.w3.org/2000/svg" xmlns:xlink="http://www.w3.org/1999/xlink" x="0px" y="0px"
	 width="24px" height="24px" viewBox="0 0 24 24" enable-background="new 0 0 24 24" xml:space="preserve">
<rect fill="none" width="24" height="24"/>
<g>
	<path d="M12,0C5.4,0,0,5.4,0,12c0,6.6,5.4,12,12,12s12-5.4,12-12C24,5.4,18.6,0,12,0z M12,23C5.9,23,1,18.1,1,12S5.9,1,12,1
		s11,4.9,11,11S18.1,23,12,23z"/>
	<path d="M12,14c1.1,0,2-0.9,2-2c0-0.7-0.4-1.3-0.9-1.7l3-6.9c0.1-0.3,0-0.5-0.3-0.7c-0.3-0.1-0.5,0-0.7,0.3l-3,7
		c-0.1,0-0.1,0-0.2,0c-1.1,0-2,0.9-2,2C10,13.1,10.9,14,12,14z M12,11c0.6,0,1,0.4,1,1s-0.4,1-1,1s-1-0.4-1-1S11.4,11,12,11z"/>
	<path d="M4.9,12.2c0-0.3-0.2-0.5-0.5-0.5h-2c-0.3,0-0.5,0.2-0.5,0.5s0.2,0.5,0.5,0.5h2C4.7,12.7,4.9,12.5,4.9,12.2z"/>
	<path d="M4.9,14.4L3,15.2c-0.3,0.1-0.4,0.4-0.3,0.7C2.8,16,3,16.1,3.2,16.1c0.1,0,0.1,0,0.2,0l1.8-0.8c0.3-0.1,0.4-0.4,0.3-0.7
		S5.1,14.3,4.9,14.4z"/>
	<path d="M21,15.2l-1.8-0.8c-0.3-0.1-0.5,0-0.7,0.3c-0.1,0.3,0,0.5,0.3,0.7l1.8,0.8c0.1,0,0.1,0,0.2,0c0.2,0,0.4-0.1,0.5-0.3
		C21.3,15.6,21.2,15.3,21,15.2z"/>
	<path d="M21.5,11.5l-2,0c-0.3,0-0.5,0.2-0.5,0.5c0,0.3,0.2,0.5,0.5,0.5l2,0c0.3,0,0.5-0.2,0.5-0.5C22,11.7,21.8,11.5,21.5,11.5z"/>
	<path d="M18.5,9.3c0.1,0.2,0.3,0.3,0.5,0.3c0.1,0,0.1,0,0.2,0L21,8.8c0.3-0.1,0.4-0.4,0.3-0.7c-0.1-0.3-0.4-0.4-0.7-0.3l-1.8,0.8
		C18.5,8.8,18.4,9.1,18.5,9.3z"/>
	<path d="M11.9,5.2c0.3,0,0.5-0.2,0.5-0.5v-2c0-0.3-0.2-0.5-0.5-0.5s-0.5,0.2-0.5,0.5v2C11.4,5,11.7,5.2,11.9,5.2z"/>
	<path d="M8.7,5.3c0.1,0.2,0.3,0.3,0.5,0.3c0.1,0,0.1,0,0.2,0c0.3-0.1,0.4-0.4,0.3-0.7L8.8,3C8.7,2.8,8.4,2.7,8.2,2.8
		C7.9,2.9,7.8,3.2,7.9,3.4L8.7,5.3z"/>
	<path d="M7,6.3L5.6,4.9c-0.2-0.2-0.5-0.2-0.7,0c-0.2,0.2-0.2,0.5,0,0.7L6.3,7c0.1,0.1,0.2,0.1,0.4,0.1S7,7.1,7,7
		C7.2,6.9,7.2,6.5,7,6.3z"/>
	<path d="M5.3,8.7L3.4,7.9c-0.3-0.1-0.5,0-0.7,0.3C2.7,8.4,2.8,8.7,3,8.8l1.8,0.8c0.1,0,0.1,0,0.2,0c0.2,0,0.4-0.1,0.5-0.3
		C5.6,9.1,5.5,8.8,5.3,8.7z"/>
	<path d="M16.5,16h-9C7.2,16,7,16.2,7,16.5v3C7,19.8,7.2,20,7.5,20h9c0.3,0,0.5-0.2,0.5-0.5v-3C17,16.2,16.8,16,16.5,16z M16,19H8
		v-2h8V19z"/>
	<path d="M19.1,5c-0.2-0.2-0.5-0.2-0.7,0L17,6.4c-0.2,0.2-0.2,0.5,0,0.7c0.1,0.1,0.2,0.1,0.4,0.1s0.3,0,0.4-0.1l1.4-1.4
		C19.3,5.5,19.3,5.2,19.1,5z"/>
</g>
</svg>
