<?xml version="1.0" encoding="utf-8"?>
<!-- Generator: Adobe Illustrator 22.0.1, SVG Export Plug-In . SVG Version: 6.00 Build 0)  -->
<svg version="1.1" id="Icon_build" xmlns="http://www.w3.org/2000/svg" xmlns:xlink="http://www.w3.org/1999/xlink" x="0px" y="0px"
	 width="24px" height="24px" viewBox="0 0 24 24" enable-background="new 0 0 24 24" xml:space="preserve">
<rect fill="none" width="24" height="24"/>
<g>
	<path d="M24,15.5c0-0.3-0.2-0.5-0.5-0.5S23,15.2,23,15.5v2.3l-4-1.6V5.5C19,5.2,18.8,5,18.5,5h-18C0.2,5,0,5.2,0,5.5v13
		C0,18.8,0.2,19,0.5,19H3c0,2.8,2.2,5,5,5s5-2.2,5-5h5.5h5c0.1,0,0.2,0,0.2-0.1c0,0,0,0,0,0c0.1-0.1,0.1-0.1,0.2-0.2c0,0,0,0,0,0
		c0,0,0,0,0-0.1c0,0,0-0.1,0-0.1V15.5z M20.9,18H19v-0.8L20.9,18z M8,23c-2.2,0-4-1.8-4-4s1.8-4,4-4s4,1.8,4,4S10.2,23,8,23z M13,18
		C12.9,18,12.9,18,13,18c-0.5-2.3-2.6-4-5-4c-2.4,0-4.4,1.7-4.9,4c0,0-0.1,0-0.1,0H1V6h17v12H13z"/>
	<path d="M8,17c-1.1,0-2,0.9-2,2s0.9,2,2,2s2-0.9,2-2S9.1,17,8,17z M8,20c-0.6,0-1-0.4-1-1s0.4-1,1-1s1,0.4,1,1S8.6,20,8,20z"/>
</g>
</svg>
