<?xml version="1.0" encoding="utf-8"?>
<!-- Generator: Adobe Illustrator 22.0.1, SVG Export Plug-In . SVG Version: 6.00 Build 0)  -->
<svg version="1.1" id="Icon_build" xmlns="http://www.w3.org/2000/svg" xmlns:xlink="http://www.w3.org/1999/xlink" x="0px" y="0px"
	 width="24px" height="24px" viewBox="0 0 24 24" enable-background="new 0 0 24 24" xml:space="preserve">
<rect fill="none" width="24" height="24"/>
<g>
	<path d="M6,11c-1.1,0-2,0.9-2,2c0,1.1,0.9,2,2,2s2-0.9,2-2C8,11.9,7.1,11,6,11z M6,14c-0.6,0-1-0.4-1-1c0-0.6,0.4-1,1-1s1,0.4,1,1
		C7,13.6,6.6,14,6,14z"/>
	<path d="M18,11c-1.1,0-2,0.9-2,2c0,1.1,0.9,2,2,2s2-0.9,2-2C20,11.9,19.1,11,18,11z M18,14c-0.6,0-1-0.4-1-1c0-0.6,0.4-1,1-1
		s1,0.4,1,1C19,13.6,18.6,14,18,14z"/>
	<path d="M24,10.4c0-0.9-0.7-1.6-1.5-1.6l-1.8-4.7C20.4,3,19.2,2.1,18,2L6,2C4.8,2.1,3.7,3,3.4,4.1L1.5,8.8h0C0.7,8.8,0,9.5,0,10.4
		c0,0.7,0.4,1.3,1,1.5l0,0L1,19c0,0,0,0.1,0,0.1C1.1,20.2,2,21,3,21c1.1,0,2-0.9,2-2v-1h14v1c0,1.1,0.9,2,2,2s2-0.9,2-2
		c0-0.1,0-0.2,0-0.2l0-6.9l0,0C23.6,11.7,24,11.1,24,10.4z M22.7,10.9l-0.3,0.1c-0.2,0.1-0.3,0.3-0.3,0.5l0,7.3c0,0,0,0.1,0,0.1
		c0,0.6-0.4,1-1,1s-1-0.4-1-1v-1.5c0-0.3-0.2-0.5-0.5-0.5h-15C4.2,17,4,17.2,4,17.5V19c0,0.6-0.4,1-1,1s-1-0.4-1-1c0,0,0-0.1,0-0.1
		l0-7.3c0-0.2-0.1-0.4-0.3-0.5l-0.3-0.1C1.1,10.9,1,10.6,1,10.4c0-0.3,0.2-0.6,0.5-0.6l0.4,0c0.2,0,0.4-0.1,0.5-0.3l2-5.1
		C4.5,3.7,5.3,3.1,6,3l12,0c0.7,0.1,1.5,0.7,1.8,1.4l1.9,5.1c0.1,0.2,0.3,0.3,0.5,0.3l0.4,0c0.3,0,0.5,0.3,0.5,0.6
		C23,10.7,22.9,10.9,22.7,10.9z"/>
	<path d="M4.5,10h15c0.2,0,0.3-0.1,0.4-0.2s0.1-0.3,0-0.5l-2-5C17.9,4.1,17.7,4,17.5,4h-11C6.3,4,6.1,4.1,6,4.3l-2,5
		C4,9.5,4,9.6,4.1,9.8C4.2,9.9,4.3,10,4.5,10z M6.8,5h10.3l1.6,4H5.2L6.8,5z"/>
</g>
</svg>
