<?xml version="1.0" encoding="utf-8"?>
<!-- Generator: Adobe Illustrator 22.0.1, SVG Export Plug-In . SVG Version: 6.00 Build 0)  -->
<svg version="1.1" id="Icon_build" xmlns="http://www.w3.org/2000/svg" xmlns:xlink="http://www.w3.org/1999/xlink" x="0px" y="0px"
	 width="24px" height="24px" viewBox="0 0 24 24" enable-background="new 0 0 24 24" xml:space="preserve">
<rect fill="none" width="24" height="24"/>
<path d="M24,11.5c0-0.4-0.9-2.3-1.2-2.5c-0.3-0.2-1.6-0.4-4.4-0.8C17.7,8.2,17,8.1,16.7,8c-0.1-0.1-0.3-0.2-0.4-0.4
	C14.5,6,13.3,5,12.5,5C11.9,5,10.3,5,9,5C8.3,5,7.7,5,7.5,5C7.3,5,7.3,5,6.2,5.9C5.3,6.6,3.8,7.8,3.3,8.1C3.2,8.1,2.6,8.3,2.1,8.4
	C0.3,9,0.2,9,0.1,9.3c-0.2,0.3,0,0.5,0.1,0.7c0.2,0.3,0.6,0.9-0.1,2.1c-0.3,0.6,0.3,1.8,0.3,1.8c0.3,0.5,0.5,0.8,0.9,0.8
	C1.8,14.8,4.1,15,4.5,15c0,0,0,0,0,0c0,0,0,0,0,0c0.5,0.6,1.2,1,2,1c0.8,0,1.5-0.4,2-1c0,0,0,0,0,0c0.9,0,1.7,0,2.4,0
	c0.7,0,1.5,0,2.2,0l3.3,0c0,0,0,0,0,0c0.5,0.6,1.2,1,2,1c0.8,0,1.5-0.4,2-1c0,0,0,0,0,0h0c1.2,0,2.2,0,3.3-1.1
	c0.1-0.1,0.1-0.2,0.1-0.4C24,13.5,24,12,24,11.5z M6.5,15C5.7,15,5,14.3,5,13.5S5.7,12,6.5,12S8,12.7,8,13.5S7.3,15,6.5,15z
	 M18.5,15c-0.8,0-1.5-0.7-1.5-1.5s0.7-1.5,1.5-1.5s1.5,0.7,1.5,1.5S19.3,15,18.5,15z M20.9,14c0-0.2,0.1-0.3,0.1-0.5
	c0-1.4-1.1-2.5-2.5-2.5S16,12.1,16,13.5c0,0.2,0,0.3,0.1,0.5l-2.9,0c-1.4,0-2.7,0-4.2,0C9,13.8,9,13.7,9,13.5C9,12.1,7.9,11,6.5,11
	S4,12.1,4,13.5c0,0.2,0,0.3,0,0.5c-0.7-0.1-2.1-0.2-2.6-0.2c-0.2-0.2-0.5-1-0.5-1.3c0.7-1.3,0.5-2.2,0.2-2.7C1.5,9.6,2,9.5,2.4,9.4
	C3.2,9.1,3.6,9,3.7,8.9c0.6-0.3,1.7-1.2,3.1-2.3C7.1,6.4,7.5,6.1,7.6,6C7.9,6,8.4,6,9,6c1.2,0,2.8,0,3.4,0c0.4,0,1.4,0.8,3.1,2.4
	c0.3,0.2,0.5,0.4,0.6,0.5c0.1,0.1,0.1,0.1,2,0.4c1.2,0.2,3.5,0.5,4,0.6c0.2,0.3,0.7,1.4,0.8,1.6c0,0.3,0,1.3,0,1.7
	C22.3,13.9,21.8,14,20.9,14z"/>
</svg>
