<?xml version="1.0" encoding="utf-8"?>
<!-- Generator: Adobe Illustrator 22.0.1, SVG Export Plug-In . SVG Version: 6.00 Build 0)  -->
<svg version="1.1" id="Icon_build" xmlns="http://www.w3.org/2000/svg" xmlns:xlink="http://www.w3.org/1999/xlink" x="0px" y="0px"
	 width="24px" height="24px" viewBox="0 0 24 24" enable-background="new 0 0 24 24" xml:space="preserve">
<rect fill="none" width="24" height="24"/>
<g>
	<path d="M22.5,5h-21C0.7,5,0,5.7,0,6.5v10v1C0,18.3,0.7,19,1.5,19h1c0,0,0,0,0,0c0.2,1.1,1.2,2,2.5,2s2.2-0.9,2.5-2c0,0,0,0,0,0h2
		h5h1c0,0,0,0,0,0c0.2,1.1,1.2,2,2.5,2s2.2-0.9,2.5-2c0,0,0,0,0,0h1c0.8,0,1.5-0.7,1.5-1.5v-3c0-0.3-0.2-0.5-0.5-0.5h-0.6l-1.7-5
		h2.3C23.3,9,24,8.3,24,7.5v-1C24,5.7,23.3,5,22.5,5z M5,20c-0.8,0-1.5-0.7-1.5-1.5S4.2,17,5,17s1.5,0.7,1.5,1.5S5.8,20,5,20z
		 M10,18V9h4v9H10z M18,20c-0.8,0-1.5-0.7-1.5-1.5S17.2,17,18,17s1.5,0.7,1.5,1.5S18.8,20,18,20z M20.8,14H18V9h1.1L20.8,14z
		 M23,7.5C23,7.8,22.8,8,22.5,8h-5C17.2,8,17,8.2,17,8.5v6c0,0.3,0.2,0.5,0.5,0.5h4H22v2.5c0,0.3-0.2,0.5-0.5,0.5h-1c0,0,0,0,0,0
		c-0.2-1.1-1.2-2-2.5-2s-2.2,0.9-2.5,2c0,0,0,0,0,0H15V8.5C15,8.2,14.8,8,14.5,8h-5C9.2,8,9,8.2,9,8.5V18H7.5c0,0,0,0,0,0
		c-0.2-1.1-1.2-2-2.5-2s-2.2,0.9-2.5,2c0,0,0,0,0,0h-1C1.2,18,1,17.8,1,17.5v-1v-10C1,6.2,1.2,6,1.5,6h21C22.8,6,23,6.2,23,6.5V7.5z
		"/>
	<path d="M6.5,8h-4C2.2,8,2,8.2,2,8.5v4C2,12.8,2.2,13,2.5,13h4C6.8,13,7,12.8,7,12.5v-4C7,8.2,6.8,8,6.5,8z M6,12H3V9h3V12z"/>
</g>
</svg>
