<?xml version="1.0" encoding="utf-8"?>
<!-- Generator: Adobe Illustrator 22.0.1, SVG Export Plug-In . SVG Version: 6.00 Build 0)  -->
<svg version="1.1" id="Icon_build" xmlns="http://www.w3.org/2000/svg" xmlns:xlink="http://www.w3.org/1999/xlink" x="0px" y="0px"
	 width="24px" height="24px" viewBox="0 0 24 24" enable-background="new 0 0 24 24" xml:space="preserve">
<rect fill="none" width="24" height="24"/>
<g>
	<path d="M23.6,10.9l-0.8-1c-0.3-0.3-0.4-1-0.4-1.4l0.2-1.3c0.1-0.8-0.4-1.6-1.1-1.9l-1.2-0.5c-0.4-0.2-0.9-0.6-1-1l-0.5-1.2
		c-0.3-0.8-1.1-1.2-1.9-1.1l-1.3,0.2c-0.4,0.1-1.1-0.1-1.4-0.4l-1-0.8c-0.6-0.5-1.6-0.5-2.2,0c0,0,0,0,0,0l-1,0.8
		c-0.3,0.3-1,0.4-1.4,0.4L7.2,1.4C6.4,1.2,5.5,1.7,5.2,2.5L4.8,3.7c-0.2,0.4-0.6,0.9-1,1L2.5,5.2C1.7,5.5,1.2,6.4,1.4,7.2l0.2,1.3
		c0.1,0.4-0.1,1.1-0.4,1.4l-0.8,1c-0.5,0.6-0.5,1.6,0,2.2l0.8,1c0.3,0.3,0.4,1,0.4,1.4l-0.2,1.3c-0.1,0.8,0.4,1.6,1.1,1.9l1.2,0.5
		c0.4,0.2,0.9,0.6,1,1l0.5,1.2c0.3,0.8,1.1,1.3,1.9,1.1l1.3-0.2c0.4-0.1,1.1,0.1,1.4,0.4l1,0.8c0.3,0.3,0.7,0.4,1.1,0.4
		c0.4,0,0.8-0.1,1.1-0.4l1-0.8c0.3-0.3,1-0.4,1.4-0.4l1.3,0.2c0.8,0.1,1.6-0.4,1.9-1.1l0.5-1.2c0.2-0.4,0.6-0.9,1-1l1.2-0.5
		c0.8-0.3,1.2-1.1,1.1-1.9l-0.2-1.3c-0.1-0.4,0.1-1.1,0.4-1.4l0.8-1C24.1,12.5,24.1,11.5,23.6,10.9z M22.8,12.5l-0.8,1
		c-0.5,0.6-0.7,1.5-0.6,2.2l0.2,1.3c0.1,0.3-0.2,0.7-0.5,0.8l-1.2,0.5c-0.7,0.3-1.4,1-1.6,1.6l-0.5,1.2c-0.1,0.3-0.5,0.5-0.8,0.5
		l-1.3-0.2c-0.7-0.1-1.7,0.1-2.2,0.6l-1,0.8c-0.3,0.2-0.7,0.2-1,0l-1-0.8c-0.5-0.4-1.2-0.6-1.9-0.6c-0.1,0-0.2,0-0.4,0L7,21.6
		c-0.3,0.1-0.7-0.2-0.8-0.5l-0.5-1.2c-0.3-0.7-1-1.4-1.6-1.6l-1.2-0.5c-0.3-0.1-0.5-0.5-0.5-0.8l0.2-1.3C2.7,15,2.4,14.1,2,13.5
		l-0.8-1c-0.2-0.3-0.2-0.7,0-1l0.8-1C2.4,10,2.7,9,2.6,8.3L2.4,7C2.3,6.7,2.5,6.3,2.9,6.2l1.2-0.5c0.7-0.3,1.4-1,1.6-1.6l0.5-1.2
		C6.3,2.5,6.7,2.3,7,2.4l1.3,0.2C9,2.7,9.9,2.4,10.5,2l1-0.8c0.3-0.2,0.7-0.2,1,0l1,0.8c0.6,0.5,1.5,0.7,2.2,0.6L17,2.4
		c0.3-0.1,0.7,0.2,0.8,0.5l0.5,1.2c0.3,0.7,1,1.4,1.6,1.6l1.2,0.5c0.3,0.1,0.5,0.5,0.5,0.8l-0.2,1.3C21.3,9,21.6,10,22,10.5l0.8,1
		C23.1,11.8,23.1,12.2,22.8,12.5z"/>
	<path d="M12,4c-4.4,0-8,3.6-8,8s3.6,8,8,8s8-3.6,8-8S16.4,4,12,4z M12,19c-3.9,0-7-3.1-7-7c0-3.9,3.1-7,7-7s7,3.1,7,7
		C19,15.9,15.9,19,12,19z"/>
	<path d="M8.5,9h7C15.8,9,16,8.8,16,8.5S15.8,8,15.5,8h-7C8.2,8,8,8.2,8,8.5S8.2,9,8.5,9z"/>
	<path d="M16.5,11h-9C7.2,11,7,11.2,7,11.5S7.2,12,7.5,12h9c0.3,0,0.5-0.2,0.5-0.5S16.8,11,16.5,11z"/>
	<path d="M15.5,14h-7C8.2,14,8,14.2,8,14.5S8.2,15,8.5,15h7c0.3,0,0.5-0.2,0.5-0.5S15.8,14,15.5,14z"/>
</g>
</svg>
