<?xml version="1.0" encoding="utf-8"?>
<!-- Generator: Adobe Illustrator 22.0.1, SVG Export Plug-In . SVG Version: 6.00 Build 0)  -->
<svg version="1.1" id="Ebene_5" xmlns="http://www.w3.org/2000/svg" xmlns:xlink="http://www.w3.org/1999/xlink" x="0px" y="0px"
	 width="24px" height="24px" viewBox="0 0 24 24" enable-background="new 0 0 24 24" xml:space="preserve">
<rect fill="none" width="24" height="24"/>
<g>
	<path d="M19.5,23h-15C3.7,23,3,22.3,3,21.5v-19C3,1.7,3.7,1,4.5,1h15C20.3,1,21,1.7,21,2.5v19C21,22.3,20.3,23,19.5,23z M4.5,2
		C4.2,2,4,2.2,4,2.5v19C4,21.8,4.2,22,4.5,22h15c0.3,0,0.5-0.2,0.5-0.5v-19C20,2.2,19.8,2,19.5,2H4.5z"/>
</g>
<g>
	<path d="M17.5,5h-11C6.2,5,6,4.8,6,4.5S6.2,4,6.5,4h11C17.8,4,18,4.2,18,4.5S17.8,5,17.5,5z"/>
</g>
<g>
	<path d="M17.5,8h-11C6.2,8,6,7.8,6,7.5S6.2,7,6.5,7h11C17.8,7,18,7.2,18,7.5S17.8,8,17.5,8z"/>
</g>
<g>
	<path d="M10.5,19c-0.1,0-0.3,0-0.4-0.1l-4-4c-0.2-0.2-0.2-0.5,0-0.7s0.5-0.2,0.7,0l3.6,3.6l6.6-6.6c0.2-0.2,0.5-0.2,0.7,0
		s0.2,0.5,0,0.7l-7,7C10.8,19,10.6,19,10.5,19z"/>
</g>
</svg>
