<?xml version="1.0" encoding="utf-8"?>
<!-- Generator: Adobe Illustrator 22.0.1, SVG Export Plug-In . SVG Version: 6.00 Build 0)  -->
<svg version="1.1" id="Ebene_5" xmlns="http://www.w3.org/2000/svg" xmlns:xlink="http://www.w3.org/1999/xlink" x="0px" y="0px"
	 width="24px" height="24px" viewBox="0 0 24 24" enable-background="new 0 0 24 24" xml:space="preserve">
<rect fill="none" width="24" height="24"/>
<g>
	<path d="M23.5,13H22V4.5c0-0.2-0.1-0.4-0.3-0.5C21.5,4,21.3,4,21.2,4.1L18,6.6V5.5c0-0.2-0.1-0.4-0.3-0.5l-2.5-1
		c-0.1,0-0.3,0-0.4,0l-2.5,1C12.1,5.1,12,5.3,12,5.5v7l-3.2-2.4c-0.2-0.1-0.4-0.1-0.6,0L5,12.5v-3v-2v-2C5,5.2,4.8,5,4.5,5h-4
		C0.2,5,0,5.2,0,5.5v2v2v9C0,18.8,0.2,19,0.5,19h4h8h5h6c0.3,0,0.5-0.2,0.5-0.5v-5C24,13.2,23.8,13,23.5,13z M18,14h3v1h-3V14z
		 M18,7.9l3-2.4V13h-3L18,7.9z M1,8h3v1H1V8z M4,6v1H1V6H4z M1,10h3v3.5V18H1V10z M5,13.8l3.5-2.6l3.5,2.6V18H5V13.8z M13,13.5V5.8
		L15,5l2,0.8v7.7v2V18h-4V13.5z M23,18h-5v-2h3.5c0.3,0,0.5-0.2,0.5-0.5V14h1V18z"/>
	<path d="M9.5,13h-2C7.2,13,7,13.2,7,13.5v2C7,15.8,7.2,16,7.5,16h2c0.3,0,0.5-0.2,0.5-0.5v-2C10,13.2,9.8,13,9.5,13z M9,15H8v-1h1
		V15z"/>
</g>
</svg>
