<?xml version="1.0" encoding="utf-8"?>
<!-- Generator: Adobe Illustrator 22.0.1, SVG Export Plug-In . SVG Version: 6.00 Build 0)  -->
<svg version="1.1" id="Icon_build" xmlns="http://www.w3.org/2000/svg" xmlns:xlink="http://www.w3.org/1999/xlink" x="0px" y="0px"
	 width="24px" height="24px" viewBox="0 0 24 24" enable-background="new 0 0 24 24" xml:space="preserve">
<rect fill="none" width="24" height="24"/>
<g>
	<path d="M22.5,3h-2h-3.7l-0.9-1.7C15.9,1.1,15.7,1,15.5,1h-7C8.3,1,8.1,1.1,8.1,1.3L7.2,3H3.5h-2C1.2,3,1,3.2,1,3.5S1.2,4,1.5,4
		h1.6l2,18.6C5,22.8,5.2,23,5.5,23h13c0.3,0,0.5-0.2,0.5-0.4l2-18.6h1.6C22.8,4,23,3.8,23,3.5S22.8,3,22.5,3z M8.8,2h6.4l0.5,1H8.3
		L8.8,2z M18,22H6L4.1,4h3.4h9h3.4L18,22z"/>
	<path d="M7.5,7C7.2,7,7,7.3,7,7.5l1,11C8,18.8,8.2,19,8.5,19c0,0,0,0,0,0C8.8,19,9,18.7,9,18.5l-1-11C8,7.2,7.7,7,7.5,7z"/>
	<path d="M12,7c-0.3,0-0.5,0.2-0.5,0.5v11c0,0.3,0.2,0.5,0.5,0.5s0.5-0.2,0.5-0.5v-11C12.5,7.2,12.3,7,12,7z"/>
	<path d="M16,7.5l-1,11c0,0.3,0.2,0.5,0.5,0.5c0,0,0,0,0,0c0.3,0,0.5-0.2,0.5-0.5l1-11C17,7.3,16.8,7,16.5,7C16.3,7,16,7.2,16,7.5z"
		/>
</g>
</svg>
