<?xml version="1.0" encoding="utf-8"?>
<!-- Generator: Adobe Illustrator 22.0.1, SVG Export Plug-In . SVG Version: 6.00 Build 0)  -->
<svg version="1.1" id="Icon_build" xmlns="http://www.w3.org/2000/svg" xmlns:xlink="http://www.w3.org/1999/xlink" x="0px" y="0px"
	 width="24px" height="24px" viewBox="0 0 24 24" enable-background="new 0 0 24 24" xml:space="preserve">
<rect fill="none" width="24" height="24"/>
<g>
	<path d="M15,15.7c0.1,0.1,0.2,0.1,0.4,0.1s0.3,0,0.4-0.1c0.2-0.2,0.2-0.5,0-0.7l-3.2-3.2V4.6c0-0.3-0.2-0.5-0.5-0.5
		s-0.5,0.2-0.5,0.5V12c0,0.1,0.1,0.3,0.1,0.4L15,15.7z"/>
	<path d="M12,0c-0.3,0-0.5,0.2-0.5,0.5S11.7,1,12,1c5.9,0,10.7,4.7,11,10.5h-2.1c-0.3,0-0.5,0.2-0.5,0.5s0.2,0.5,0.5,0.5H23
		c-0.3,5.7-4.8,10.2-10.5,10.5v-2.1c0-0.3-0.2-0.5-0.5-0.5s-0.5,0.2-0.5,0.5V23C5.8,22.7,1.3,18.2,1,12.5h2.1c0.3,0,0.5-0.2,0.5-0.5
		s-0.2-0.5-0.5-0.5H1c0.1-2.1,0.8-4.1,2-5.8l1-1v1.8C4,6.8,4.2,7,4.5,7S5,6.8,5,6.5v-3c0,0,0,0,0-0.1c0,0,0-0.1,0-0.1
		c0,0,0-0.1-0.1-0.1c0,0,0,0,0,0c0,0,0,0,0,0C4.8,3.1,4.7,3.1,4.6,3c0,0-0.1,0-0.1,0c0,0,0,0,0,0h-3C1.2,3,1,3.2,1,3.5S1.2,4,1.5,4
		h1.8l-1,1C0.8,7.1,0,9.5,0,12c0,6.6,5.4,12,12,12s12-5.4,12-12C24,5.4,18.6,0,12,0z"/>
</g>
</svg>
