<?xml version="1.0" encoding="utf-8"?>
<!-- Generator: Adobe Illustrator 22.0.1, SVG Export Plug-In . SVG Version: 6.00 Build 0)  -->
<svg version="1.1" id="Icon_build" xmlns="http://www.w3.org/2000/svg" xmlns:xlink="http://www.w3.org/1999/xlink" x="0px" y="0px"
	 width="24px" height="24px" viewBox="0 0 24 24" enable-background="new 0 0 24 24" xml:space="preserve">
<rect fill="none" width="24" height="24"/>
<path d="M20.8,11.3c-0.8-1.7-2.5-2.9-4.5-2.9c-0.6,0-1.1,0.1-1.6,0.3C13.5,7,11.6,6,9.5,6c-3.1,0-5.7,2.3-6.1,5.3
	c-1.9,0-3.4,1.5-3.4,3.4C0,16.6,1.4,18,3.3,18h17c2,0,3.7-1.5,3.7-3.3C24,12.9,22.6,11.4,20.8,11.3z M3.5,12.2l0.3,0
	c0.3,0,0.5-0.2,0.5-0.5l0-0.2C4.6,9,6.8,7,9.5,7c1.8,0,3.5,0.9,4.4,2.4L14,9.5c0.1,0.2,0.4,0.3,0.6,0.2l0.1-0.1
	c0.5-0.2,1-0.3,1.5-0.3c1.6,0,3.1,1,3.7,2.4l0,0.1c0.1,0.2,0.3,0.3,0.5,0.3l0.1,0c1.4,0,2.5,1.1,2.5,2.4c0,1.4-1.4,2.3-2.7,2.3h-17
	C1.9,17,1,16,1,14.7C1,13.3,2.1,12.3,3.5,12.2L3.5,12.2z"/>
</svg>
