<?xml version="1.0" encoding="utf-8"?>
<!-- Generator: Adobe Illustrator 22.0.1, SVG Export Plug-In . SVG Version: 6.00 Build 0)  -->
<svg version="1.1" id="Ebene_5" xmlns="http://www.w3.org/2000/svg" xmlns:xlink="http://www.w3.org/1999/xlink" x="0px" y="0px"
	 width="24px" height="24px" viewBox="0 0 24 24" enable-background="new 0 0 24 24" xml:space="preserve">
<rect fill="none" width="24" height="24"/>
<g>
	<path d="M13.1,12.1c0.1,0.1,0.2,0.1,0.4,0.1c0.1,0,0.3-0.1,0.3-0.2c0.6-0.8,1-1.8,1.2-2.8c0-0.1,0-0.3-0.1-0.4
		c-0.1-0.1-0.2-0.2-0.4-0.2c-0.4,0-0.6-0.3-0.6-0.7s0.3-0.6,0.6-0.7c0.1,0,0.3-0.1,0.4-0.2C15,7,15,6.9,15,6.7
		c-0.2-1-0.6-1.9-1.2-2.8c-0.1-0.1-0.2-0.2-0.3-0.2c-0.1,0-0.3,0-0.4,0.1c-0.3,0.2-0.7,0.2-0.9,0c-0.2-0.2-0.3-0.7,0-0.9
		c0.1-0.1,0.1-0.2,0.1-0.4c0-0.1-0.1-0.3-0.2-0.3c-0.8-0.6-1.8-1-2.8-1.2C9.1,1,9,1,8.9,1.1C8.8,1.2,8.7,1.3,8.7,1.5
		c0,0.4-0.3,0.6-0.7,0.6S7.4,1.8,7.3,1.5c0-0.1-0.1-0.3-0.2-0.4C7,1,6.9,1,6.7,1C5.7,1.2,4.8,1.6,4,2.2C3.8,2.2,3.8,2.4,3.7,2.5
		c0,0.1,0,0.3,0.1,0.4c0.2,0.3,0.2,0.7,0,0.9c-0.3,0.2-0.7,0.3-0.9,0C2.8,3.8,2.6,3.7,2.5,3.7C2.4,3.8,2.2,3.8,2.2,4
		C1.6,4.8,1.2,5.7,1,6.7C1,6.9,1,7,1.1,7.1c0.1,0.1,0.2,0.2,0.4,0.2c0.4,0,0.6,0.3,0.6,0.7S1.8,8.6,1.5,8.7c-0.1,0-0.3,0.1-0.4,0.2
		C1,9,1,9.1,1,9.3c0.2,1,0.6,1.9,1.2,2.8c0.1,0.1,0.2,0.2,0.3,0.2c0.1,0,0.3,0,0.4-0.1c0.3-0.2,0.7-0.2,0.9,0c0.3,0.2,0.3,0.7,0,0.9
		c-0.1,0.1-0.1,0.2-0.1,0.4c0,0.1,0.1,0.3,0.2,0.3c0.8,0.6,1.8,1,2.8,1.2c0.1,0,0.3,0,0.4-0.1c0.1-0.1,0.2-0.2,0.2-0.4
		c0-0.4,0.3-0.6,0.7-0.6s0.6,0.3,0.7,0.6c0,0.1,0.1,0.3,0.2,0.4C9,15,9.1,15,9.2,15c0,0,0.1,0,0.1,0c1-0.2,1.9-0.6,2.8-1.2
		c0.1-0.1,0.2-0.2,0.2-0.3c0-0.1,0-0.3-0.1-0.4c-0.2-0.3-0.2-0.7,0-0.9C12.4,11.9,12.8,11.9,13.1,12.1z M11.5,11.5
		c-0.5,0.5-0.6,1.2-0.4,1.8c-0.5,0.3-1,0.5-1.6,0.6c-0.3-0.6-0.9-1-1.5-1s-1.3,0.4-1.5,1c-0.5-0.1-1.1-0.4-1.6-0.6
		C5.1,12.7,5,12,4.5,11.5C4,11,3.3,10.9,2.7,11.1c-0.3-0.5-0.5-1-0.6-1.6c0.6-0.3,1-0.9,1-1.5s-0.4-1.3-1-1.5
		c0.1-0.5,0.4-1.1,0.6-1.6C3.3,5.1,4,5,4.5,4.5C5,4,5.1,3.3,4.9,2.7c0.5-0.3,1-0.5,1.6-0.6c0.3,0.6,0.9,1,1.5,1s1.3-0.4,1.5-1
		c0.5,0.1,1.1,0.4,1.6,0.6C10.9,3.3,11,4,11.5,4.5v0C12,5,12.7,5.1,13.3,4.9c0.3,0.5,0.5,1,0.6,1.6c-0.6,0.3-1,0.9-1,1.5
		s0.4,1.3,1,1.5c-0.1,0.5-0.4,1.1-0.6,1.6C12.7,10.9,12,11,11.5,11.5z"/>
	<path d="M5.9,5.9C5.3,6.4,5,7.2,5,8s0.3,1.6,0.9,2.1C6.4,10.7,7.2,11,8,11c0.8,0,1.6-0.3,2.1-0.9C10.7,9.6,11,8.8,11,8
		s-0.3-1.6-0.9-2.1C9,4.7,7,4.7,5.9,5.9z M9.4,9.4c-0.8,0.8-2.1,0.8-2.8,0C6.2,9,6,8.5,6,8s0.2-1,0.6-1.4C7,6.2,7.5,6,8,6
		s1,0.2,1.4,0.6C9.8,7,10,7.5,10,8S9.8,9,9.4,9.4z"/>
	<path d="M22.5,17.3c-0.2,0-0.3-0.2-0.3-0.3s0.1-0.3,0.3-0.3c0.1,0,0.3-0.1,0.4-0.2c0.1-0.1,0.1-0.3,0.1-0.4c-0.1-0.7-0.4-1.4-0.8-2
		c-0.1-0.1-0.2-0.2-0.3-0.2c-0.1,0-0.3,0-0.4,0.1c-0.1,0.1-0.3,0.1-0.4,0c-0.1-0.1-0.1-0.3,0-0.4c0.1-0.1,0.1-0.2,0.1-0.4
		c0-0.1-0.1-0.3-0.2-0.3c-0.6-0.4-1.3-0.7-2-0.8c-0.1,0-0.3,0-0.4,0.1c-0.1,0.1-0.2,0.2-0.2,0.4c0,0.3-0.6,0.3-0.6,0
		c0-0.1-0.1-0.3-0.2-0.4C17.4,12,17.2,12,17.1,12c-0.7,0.1-1.4,0.4-2,0.8c-0.1,0.1-0.2,0.2-0.2,0.3c0,0.1,0,0.3,0.1,0.4
		c0.1,0.1,0.1,0.3,0,0.4c-0.1,0.1-0.3,0.1-0.4,0c-0.1-0.1-0.2-0.1-0.4-0.1c-0.1,0-0.3,0.1-0.3,0.2c-0.4,0.6-0.7,1.3-0.8,2
		c0,0.1,0,0.3,0.1,0.4c0.1,0.1,0.2,0.2,0.4,0.2c0.2,0,0.3,0.2,0.3,0.3s-0.1,0.3-0.3,0.3c-0.1,0-0.3,0.1-0.4,0.2
		C13,17.6,13,17.8,13,17.9c0.1,0.7,0.4,1.4,0.8,2c0.1,0.1,0.2,0.2,0.3,0.2c0.1,0,0.3,0,0.4-0.1c0.1-0.1,0.3-0.1,0.4,0
		c0.1,0.1,0.1,0.3,0,0.4c-0.1,0.1-0.1,0.2-0.1,0.4c0,0.1,0.1,0.3,0.2,0.3c0.6,0.4,1.3,0.7,2,0.8c0.1,0,0.3,0,0.4-0.1
		c0.1-0.1,0.2-0.2,0.2-0.4c0-0.3,0.6-0.3,0.6,0c0,0.1,0.1,0.3,0.2,0.4c0.1,0.1,0.2,0.1,0.3,0.1c0,0,0.1,0,0.1,0
		c0.7-0.1,1.4-0.4,2-0.8c0.1-0.1,0.2-0.2,0.2-0.3c0-0.1,0-0.3-0.1-0.4c-0.1-0.1-0.1-0.3,0-0.4c0.1-0.1,0.3-0.1,0.4,0
		c0.1,0.1,0.2,0.1,0.4,0.1c0.1,0,0.3-0.1,0.3-0.2c0.4-0.6,0.7-1.3,0.8-2c0-0.1,0-0.3-0.1-0.4C22.8,17.4,22.7,17.3,22.5,17.3z
		 M21.9,18.1c-0.1,0.3-0.2,0.6-0.3,0.8c-0.4-0.1-0.9,0-1.3,0.3c-0.3,0.3-0.5,0.8-0.3,1.3c-0.3,0.1-0.5,0.3-0.8,0.3
		c-0.2-0.4-0.7-0.7-1.1-0.7s-0.9,0.3-1.1,0.7c-0.3-0.1-0.6-0.2-0.8-0.3c0.1-0.4,0-0.9-0.3-1.3c-0.3-0.3-0.8-0.5-1.3-0.3
		c-0.1-0.3-0.3-0.5-0.3-0.8c0.4-0.2,0.7-0.7,0.7-1.1s-0.3-0.9-0.7-1.1c0.1-0.3,0.2-0.6,0.3-0.8c0.4,0.1,0.9,0,1.3-0.3
		c0.3-0.3,0.5-0.8,0.3-1.3c0.3-0.1,0.5-0.3,0.8-0.3c0.2,0.4,0.7,0.7,1.1,0.7s0.9-0.3,1.1-0.7c0.3,0.1,0.6,0.2,0.8,0.3
		c-0.1,0.4,0,0.9,0.3,1.3c0.3,0.3,0.8,0.5,1.3,0.3c0.1,0.3,0.3,0.5,0.3,0.8c-0.4,0.2-0.7,0.7-0.7,1.1S21.5,17.9,21.9,18.1z"/>
	<path d="M18,15c-1.1,0-2,0.9-2,2s0.9,2,2,2s2-0.9,2-2S19.1,15,18,15z M18,18c-0.6,0-1-0.4-1-1s0.4-1,1-1s1,0.4,1,1S18.6,18,18,18z"
		/>
</g>
</svg>
