<?xml version="1.0" encoding="utf-8"?>
<!-- Generator: Adobe Illustrator 22.0.1, SVG Export Plug-In . SVG Version: 6.00 Build 0)  -->
<svg version="1.1" id="Ebene_5" xmlns="http://www.w3.org/2000/svg" xmlns:xlink="http://www.w3.org/1999/xlink" x="0px" y="0px"
	 width="24px" height="24px" viewBox="0 0 24 24" enable-background="new 0 0 24 24" xml:space="preserve">
<rect fill="none" width="24" height="24"/>
<g>
	<path d="M23.7,9.5c0-0.1-0.1-0.3-0.2-0.3c-0.1-0.1-0.3-0.1-0.4,0c-0.8,0.2-1.6-0.1-1.9-0.9c-0.3-0.7,0-1.6,0.7-2
		C22,6.1,22.1,6,22.2,5.9c0-0.1,0-0.3-0.1-0.4c-0.9-1.4-2.1-2.7-3.6-3.6c-0.1-0.1-0.3-0.1-0.4-0.1c-0.1,0-0.2,0.1-0.3,0.2
		c-0.4,0.7-1.2,1-2,0.7c-0.7-0.3-1.1-1.1-0.9-1.9c0-0.1,0-0.3,0-0.4c-0.1-0.1-0.2-0.2-0.3-0.2c-1.7-0.4-3.4-0.4-5.1,0
		c-0.1,0-0.3,0.1-0.3,0.2S9,0.8,9.1,0.9C9.3,1.7,9,2.5,8.2,2.8c-0.7,0.3-1.6,0-2-0.7C6.1,2,6,1.9,5.9,1.8c-0.1,0-0.3,0-0.4,0.1
		C4.1,2.8,2.8,4,1.9,5.5C1.8,5.6,1.8,5.8,1.9,5.9C1.9,6,2,6.1,2.1,6.2c0.7,0.4,1.1,1.2,0.7,2C2.5,9,1.7,9.3,0.9,9.1
		c-0.1,0-0.3,0-0.4,0C0.4,9.2,0.3,9.3,0.3,9.5c-0.4,1.7-0.4,3.4,0,5.1c0,0.1,0.1,0.3,0.2,0.3s0.3,0.1,0.4,0c0.8-0.2,1.6,0.1,1.9,0.9
		c0.3,0.7,0,1.6-0.7,2C2,17.9,1.9,18,1.8,18.1c0,0.1,0,0.3,0.1,0.4c0.9,1.4,2.1,2.7,3.6,3.6c0.1,0.1,0.3,0.1,0.4,0.1
		c0.1,0,0.2-0.1,0.3-0.2c0.4-0.7,1.2-1,2-0.7c0.7,0.3,1.1,1.1,0.9,1.9c0,0.1,0,0.3,0,0.4c0.1,0.1,0.2,0.2,0.3,0.2
		c0.8,0.2,1.7,0.3,2.6,0.3c0.8,0,1.7-0.1,2.5-0.3c0.1,0,0.3-0.1,0.3-0.2c0.1-0.1,0.1-0.3,0-0.4c-0.2-0.8,0.1-1.6,0.9-1.9
		c0.7-0.3,1.6,0,2,0.7c0.1,0.1,0.2,0.2,0.3,0.2c0.1,0,0.3,0,0.4-0.1c1.4-0.9,2.7-2.1,3.6-3.6c0.1-0.1,0.1-0.3,0.1-0.4
		c0-0.1-0.1-0.2-0.2-0.3c-0.7-0.4-1-1.2-0.7-2c0.3-0.7,1.1-1.1,1.9-0.9c0.1,0,0.3,0,0.4,0c0.1-0.1,0.2-0.2,0.2-0.3
		C24.1,12.9,24.1,11.1,23.7,9.5z M22.8,13.8c-1.1-0.1-2.2,0.5-2.6,1.6c-0.4,1.1-0.1,2.2,0.7,2.9c-0.7,1-1.6,1.9-2.6,2.6
		c-0.7-0.9-1.9-1.2-3-0.7s-1.7,1.5-1.6,2.6c-1.2,0.2-2.5,0.2-3.7,0c0.1-1.1-0.5-2.2-1.6-2.6c-1.1-0.4-2.2-0.1-2.9,0.7
		c-1-0.7-1.9-1.6-2.6-2.6c0.9-0.7,1.2-1.9,0.7-3c-0.4-1.1-1.5-1.7-2.6-1.6c-0.2-1.2-0.2-2.5,0-3.7c1.1,0.1,2.2-0.5,2.6-1.6
		C4.2,7.5,3.9,6.4,3,5.6c0.7-1,1.6-1.9,2.6-2.6c0.7,0.9,1.9,1.2,3,0.7c1.1-0.4,1.7-1.5,1.6-2.6c1.2-0.2,2.5-0.2,3.7,0
		c-0.1,1.1,0.5,2.2,1.6,2.6c1.1,0.4,2.2,0.1,2.9-0.7c1,0.7,1.9,1.6,2.6,2.6c-0.9,0.7-1.2,1.9-0.7,3c0.4,1.1,1.5,1.7,2.6,1.6
		C23.1,11.4,23.1,12.6,22.8,13.8z"/>
	<path d="M14.3,6.5c-1.5-0.6-3.1-0.6-4.6,0C8.2,7.1,7.1,8.2,6.5,9.7s-0.6,3.1,0,4.6s1.8,2.6,3.2,3.2c0.7,0.3,1.5,0.5,2.3,0.5
		c0.8,0,1.6-0.2,2.3-0.5c1.5-0.6,2.6-1.8,3.2-3.2s0.6-3.1,0-4.6S15.8,7.1,14.3,6.5z M16.6,13.9c-0.5,1.2-1.5,2.2-2.7,2.7
		c-1.2,0.5-2.6,0.5-3.8,0c-1.2-0.5-2.2-1.5-2.7-2.7s-0.5-2.6,0-3.8s1.5-2.2,2.7-2.7C10.7,7.1,11.4,7,12,7c0.6,0,1.3,0.1,1.9,0.4
		c1.2,0.5,2.2,1.5,2.7,2.7C17.1,11.3,17.1,12.7,16.6,13.9z"/>
</g>
</svg>
