<?xml version="1.0" encoding="utf-8"?>
<!-- Generator: Adobe Illustrator 22.0.1, SVG Export Plug-In . SVG Version: 6.00 Build 0)  -->
<svg version="1.1" id="Ebene_5" xmlns="http://www.w3.org/2000/svg" xmlns:xlink="http://www.w3.org/1999/xlink" x="0px" y="0px"
	 width="24px" height="24px" viewBox="0 0 24 24" enable-background="new 0 0 24 24" xml:space="preserve">
<rect fill="none" width="24" height="24"/>
<g>
	<path d="M14.3,11.4c-0.6-0.2-1.1-0.4-1.8-0.4c-2,0-3.6,1.3-4.2,3H7.5C7.2,14,7,14.2,7,14.5S7.2,15,7.5,15h0.5C8,15.2,8,15.3,8,15.5
		s0,0.3,0.1,0.5H7.5C7.2,16,7,16.2,7,16.5S7.2,17,7.5,17h0.8c0.6,1.7,2.3,3,4.2,3c0.6,0,1.1-0.1,1.6-0.3c0.3-0.1,0.4-0.4,0.3-0.6
		c-0.1-0.3-0.4-0.4-0.6-0.3c-0.4,0.2-0.8,0.2-1.3,0.2c-1.4,0-2.6-0.8-3.1-2h2.1c0.3,0,0.5-0.2,0.5-0.5S11.8,16,11.5,16H9.1
		C9,15.8,9,15.7,9,15.5s0-0.3,0.1-0.5h3.4c0.3,0,0.5-0.2,0.5-0.5S12.8,14,12.5,14H9.4c0.6-1.2,1.8-2,3.1-2c0.5,0,0.9,0.1,1.4,0.3
		c0.3,0.1,0.5,0,0.7-0.3C14.6,11.8,14.5,11.5,14.3,11.4z"/>
	<path d="M16.5,2c-2,0-3.8,0.8-5.2,2.1C10.1,2.8,8.3,2,6.5,2C2.9,2,0,4.9,0,8.5c0,2.3,1.2,4.4,3.1,5.5C3.1,14.5,3,15,3,15.5
		c0,4.7,3.8,8.5,8.5,8.5c4.5,0,8.1-3.5,8.5-7.9c2.5-1.3,4-3.9,4-6.6C24,5.4,20.6,2,16.5,2z M1,8.5C1,5.5,3.5,3,6.5,3
		c1.6,0,3.1,0.7,4.1,1.9c-0.6,0.7-1,1.5-1.3,2.4C6.5,8,4.2,10.2,3.4,13C1.9,12,1,10.3,1,8.5z M11.5,23C7.4,23,4,19.6,4,15.5
		S7.4,8,11.5,8s7.5,3.4,7.5,7.5S15.6,23,11.5,23z M20,15c-0.3-4.4-4-8-8.5-8c-0.3,0-0.7,0-1,0.1c1-2.4,3.3-4.1,6-4.1
		C20.1,3,23,5.9,23,9.5C23,11.7,21.8,13.8,20,15z"/>
</g>
</svg>
