<?xml version="1.0" encoding="utf-8"?>
<!-- Generator: Adobe Illustrator 22.0.1, SVG Export Plug-In . SVG Version: 6.00 Build 0)  -->
<svg version="1.1" id="Icon_build" xmlns="http://www.w3.org/2000/svg" xmlns:xlink="http://www.w3.org/1999/xlink" x="0px" y="0px"
	 width="24px" height="24px" viewBox="0 0 24 24" enable-background="new 0 0 24 24" xml:space="preserve">
<rect fill="none" width="24" height="24"/>
<g>
	<path d="M13.6,22.1c-0.1-0.1-0.2-0.2-0.3-0.3c0.5-0.6,0.7-1.4,0.7-2.1c0-2.3-2.6-4.2-5.7-4.2c-3.2,0-5.7,1.9-5.7,4.2S5.1,24,8.2,24
		c0.7,0,1.7-0.1,2.5-0.3c1.3,0.4,3.3,0.4,3.7-0.2c0.1-0.2,0.1-0.5-0.1-0.7C14.1,22.5,13.8,22.3,13.6,22.1z M10.9,22.7
		c-0.1,0-0.2,0-0.3,0C9.9,22.8,8.9,23,8.2,23c-2.6,0-4.7-1.5-4.7-3.2s2.1-3.2,4.7-3.2c2.6,0,4.7,1.5,4.7,3.2c0,0.6-0.2,1.1-0.6,1.6
		c-0.2,0.2-0.2,0.4-0.2,0.6c0,0.4,0.4,0.7,0.8,1c0,0,0,0,0,0C12.4,23,11.6,22.9,10.9,22.7z"/>
	<path d="M14.1,0C9.3,0,5.5,3.2,5.5,7c0,3.8,3.8,6.9,8.5,7c0,0,0,0,0,0c0.1,0,0.2,0,0.3,0c0.1,0.4,0.1,1.2-0.2,2
		c-0.1,0.2-0.1,0.4,0,0.5c0.1,0.1,0.2,0.2,0.4,0.2c0,0,0,0,0.1,0c1.6-0.2,3-1.5,3.4-3.2c0.7-0.3,1.7-1.1,1.9-1.2
		c1-0.8,1.5-1.7,1.7-2c0.6-1,1-2.1,1-3.3C22.6,3.2,18.8,0,14.1,0z M20.8,9.8c0,0-0.1,0.1-0.1,0.1c-0.1,0.3-0.5,1-1.4,1.7
		c-0.5,0.4-1.4,1-1.9,1.2c-0.2,0.1-0.3,0.2-0.3,0.4c-0.2,1.1-0.9,2-1.8,2.4c0.2-1.2-0.1-2.1-0.1-2.1c-0.1-0.2-0.3-0.3-0.5-0.3
		c0,0-0.4,0-0.7,0C9.8,13,6.5,10.3,6.5,7c0-3.3,3.4-6,7.6-6s7.6,2.7,7.6,6C21.6,8,21.3,8.9,20.8,9.8z"/>
	<path d="M18.5,5h-4C14.2,5,14,5.2,14,5.5S14.2,6,14.5,6h4C18.8,6,19,5.8,19,5.5S18.8,5,18.5,5z"/>
	<path d="M9.5,6H12c0.3,0,0.5-0.2,0.5-0.5S12.3,5,12,5H9.5C9.2,5,9,5.2,9,5.5S9.2,6,9.5,6z"/>
	<path d="M14.5,7h-5C9.2,7,9,7.2,9,7.5S9.2,8,9.5,8h5C14.8,8,15,7.8,15,7.5S14.8,7,14.5,7z"/>
	<path d="M18.5,7h-2C16.2,7,16,7.2,16,7.5S16.2,8,16.5,8h2C18.8,8,19,7.8,19,7.5S18.8,7,18.5,7z"/>
</g>
</svg>
