<?xml version="1.0" encoding="utf-8"?>
<!-- Generator: Adobe Illustrator 22.0.1, SVG Export Plug-In . SVG Version: 6.00 Build 0)  -->
<svg version="1.1" id="Icon_build" xmlns="http://www.w3.org/2000/svg" xmlns:xlink="http://www.w3.org/1999/xlink" x="0px" y="0px"
	 width="24px" height="24px" viewBox="0 0 24 24" enable-background="new 0 0 24 24" xml:space="preserve">
<rect fill="none" width="24" height="24"/>
<path d="M22.2,3H1.8C1.4,3,1,3.4,1,3.8v10.7c0,0,0,0,0,0s0,0,0,0v2.7C1,17.6,1.4,18,1.8,18h7.5v1c0,0,0,1.1-0.9,1.1
	C8.2,20,8,20.2,8,20.5S8.2,21,8.5,21h7c0.3,0,0.5-0.2,0.5-0.5S15.8,20,15.5,20c-0.4,0-0.9-0.8-0.9-1.1v-1h7.5c0.5,0,0.8-0.4,0.8-0.8
	v-2.7c0,0,0,0,0,0s0,0,0,0V3.8C23,3.4,22.6,3,22.2,3z M10.1,20c0.2-0.3,0.3-0.7,0.3-1.1v-1h3.3v1c0,0.3,0.1,0.7,0.4,1.1H10.1z
	 M22,17H2v-2h20V17z M22,14H2V4h20V14z"/>
</svg>
