<?xml version="1.0" encoding="utf-8"?>
<!-- Generator: Adobe Illustrator 22.0.1, SVG Export Plug-In . SVG Version: 6.00 Build 0)  -->
<svg version="1.1" id="Icon_build" xmlns="http://www.w3.org/2000/svg" xmlns:xlink="http://www.w3.org/1999/xlink" x="0px" y="0px"
	 width="24px" height="24px" viewBox="0 0 24 24" enable-background="new 0 0 24 24" xml:space="preserve">
<rect fill="none" width="24" height="24"/>
<path d="M20.6,8.6c-0.1,0-0.1,0-0.2,0l-1.2-4c-0.3-1.4-1.3-1.6-2-1.6H7C6.2,3,5.4,3.1,5,4.5L3.7,8.6c-0.2,0-0.3,0-0.4,0
	C1.5,8.6,0,10.1,0,11.8c0,1.7,1.2,2.9,3,3.1v2.4c0,1,0.5,1.6,1.5,1.7H5v0.7c0,0.1,0,0.3,0,0.3c0,0.2,0,0.5,0.2,0.7
	C5.4,21,5.6,21,6.1,21h0.8c0.5,0,0.7,0,0.9-0.2C8,20.6,8,20.3,8,20.1c0-0.1,0-0.2,0-0.3V19h8l0,1c0,0.3,0,0.6,0.2,0.8
	c0.2,0.2,0.5,0.2,1,0.2h0.8c0.5,0,0.7,0,0.9-0.2c0.2-0.2,0.2-0.5,0.2-0.7c0-0.1,0-0.2,0-0.4V19l0.6,0c0.9-0.1,1.4-0.7,1.4-1.6v-2.4
	c1.8-0.2,3-1.5,3-3.1C24,10.1,22.5,8.6,20.6,8.6z M5.9,4.8C6.2,4,6.3,4,7,4h10.3c0.5,0,0.8,0,1,0.8l1.2,3.9C18.9,8.8,18.3,9,18,9.3
	c-0.3,0.3-0.5,0.8-0.5,1.3v1.2c0,0.4,0,1.1-0.3,1.8c-0.1,0.3-0.5,0.5-0.7,0.5H7.7c-0.3,0-0.7-0.3-0.8-0.5c-0.3-0.7-0.3-1.4-0.3-1.8
	v-1.2c0-0.5-0.2-1-0.5-1.3C5.7,9,5.2,8.8,4.7,8.7L5.9,4.8z M20.5,14c-0.3,0-0.5,0.2-0.5,0.5v2.9c0,0.5-0.2,0.6-0.5,0.7h-0.8
	c-0.1,0-0.1,0-0.2,0c-0.3,0-0.5,0.2-0.5,0.5v1.2c0,0.1,0,0.2,0,0.3c0,0,0,0-0.1,0h-0.8c-0.1,0-0.1,0-0.2,0l0-1.5
	c0-0.3-0.2-0.5-0.4-0.5c-0.1,0-0.1,0-0.2,0H7.6c-0.1,0-0.1,0-0.2,0c-0.2,0-0.4,0.2-0.4,0.5v1.2c0,0.1,0,0.2,0,0.3c0,0-0.1,0-0.1,0
	H6.1c0,0-0.1,0-0.1,0c0-0.1,0-0.2,0-0.3v-1.2c0,0,0,0,0,0c0,0,0,0,0,0C6,18.2,5.8,18,5.5,18l-1,0C4.2,18,4,17.9,4,17.3v-2.9
	C4,14.2,3.8,14,3.5,14C2,13.9,1,13.1,1,11.8c0-1.2,1.1-2.2,2.4-2.2c0.5,0,1.5,0,2,0.4c0.1,0.1,0.2,0.3,0.2,0.6v1.2
	c0,0.4,0,1.3,0.4,2.2c0.3,0.6,1.1,1.1,1.7,1.1h8.7c0.6,0,1.3-0.4,1.6-1.1c0.4-0.9,0.4-1.8,0.4-2.2v-1.2c0-0.2,0.1-0.4,0.2-0.6
	c0.5-0.5,1.5-0.4,2.1-0.4c1.2,0,2.3,1,2.3,2.2C23,13.1,22,13.9,20.5,14z"/>
</svg>
