<?xml version="1.0" encoding="utf-8"?>
<!-- Generator: Adobe Illustrator 22.0.1, SVG Export Plug-In . SVG Version: 6.00 Build 0)  -->
<svg version="1.1" id="Ebene_5" xmlns="http://www.w3.org/2000/svg" xmlns:xlink="http://www.w3.org/1999/xlink" x="0px" y="0px"
	 width="24px" height="24px" viewBox="0 0 24 24" enable-background="new 0 0 24 24" xml:space="preserve">
<rect fill="none" width="24" height="24"/>
<g>
	<path d="M20.5,3h-17C2.1,3,1,4.1,1,5.5v11C1,17.9,2.1,19,3.5,19h17c1.4,0,2.5-1.1,2.5-2.5v-11C23,4.1,21.9,3,20.5,3z M2,7h20v2H2V7
		z M3.5,4h17C21.3,4,22,4.7,22,5.5V6H2V5.5C2,4.7,2.7,4,3.5,4z M20.5,18h-17C2.7,18,2,17.3,2,16.5V10h20v6.5
		C22,17.3,21.3,18,20.5,18z"/>
	<path d="M10.5,12h-6C4.2,12,4,12.2,4,12.5S4.2,13,4.5,13h6c0.3,0,0.5-0.2,0.5-0.5S10.8,12,10.5,12z"/>
	<path d="M8.5,14h-4C4.2,14,4,14.2,4,14.5S4.2,15,4.5,15h4C8.8,15,9,14.8,9,14.5S8.8,14,8.5,14z"/>
</g>
</svg>
