<?xml version="1.0" encoding="utf-8"?>
<!-- Generator: Adobe Illustrator 22.0.1, SVG Export Plug-In . SVG Version: 6.00 Build 0)  -->
<svg version="1.1" id="Ebene_5" xmlns="http://www.w3.org/2000/svg" xmlns:xlink="http://www.w3.org/1999/xlink" x="0px" y="0px"
	 width="24px" height="24px" viewBox="0 0 24 24" enable-background="new 0 0 24 24" xml:space="preserve">
<rect fill="none" width="24" height="24"/>
<g>
	<path d="M22.7,17.1L13.5,1c-0.7-1.3-2.2-1.3-2.9,0L1.3,17.1c-0.4,0.8-0.5,1.6-0.1,2.2C1.4,19.7,1.9,20,2.5,20h19
		c0.6,0,1.1-0.3,1.3-0.7C23.2,18.7,23.1,17.8,22.7,17.1z M22,18.8c0,0.1-0.1,0.2-0.5,0.2h-19c-0.4,0-0.4-0.2-0.5-0.2
		c-0.2-0.3-0.1-0.8,0.2-1.2l9.2-16.1c0.4-0.6,0.8-0.6,1.2,0l9.2,16.1C22.1,18,22.1,18.5,22,18.8z"/>
	<path d="M14.9,10.1c-0.2-0.2-0.5-0.2-0.7,0L12,12.3l-2.1-2.1c-0.2-0.2-0.5-0.2-0.7,0s-0.2,0.5,0,0.7l2.1,2.1l-2.1,2.1
		c-0.2,0.2-0.2,0.5,0,0.7C9.2,16,9.4,16,9.5,16s0.3,0,0.4-0.1l2.1-2.1l2.1,2.1c0.1,0.1,0.2,0.1,0.4,0.1s0.3,0,0.4-0.1
		c0.2-0.2,0.2-0.5,0-0.7L12.7,13l2.1-2.1C15,10.7,15,10.3,14.9,10.1z"/>
</g>
</svg>
