<?xml version="1.0" encoding="utf-8"?>
<!-- Generator: Adobe Illustrator 22.0.1, SVG Export Plug-In . SVG Version: 6.00 Build 0)  -->
<svg version="1.1" id="Ebene_5" xmlns="http://www.w3.org/2000/svg" xmlns:xlink="http://www.w3.org/1999/xlink" x="0px" y="0px"
	 width="24px" height="24px" viewBox="0 0 24 24" enable-background="new 0 0 24 24" xml:space="preserve">
<rect fill="none" width="24" height="24"/>
<g>
	<path d="M22.7,17.1L13.5,1c-0.7-1.3-2.2-1.3-2.9,0L1.3,17.1c-0.4,0.8-0.5,1.6-0.1,2.2C1.4,19.7,1.9,20,2.5,20h19
		c0.6,0,1.1-0.3,1.3-0.7C23.2,18.7,23.1,17.8,22.7,17.1z M22,18.8c0,0.1-0.1,0.2-0.5,0.2h-19c-0.4,0-0.4-0.2-0.5-0.2
		c-0.2-0.3-0.1-0.8,0.2-1.2l9.2-16.1c0.4-0.6,0.8-0.6,1.2,0l9.2,16.1C22.1,18,22.1,18.5,22,18.8z"/>
	<path d="M12,7c-0.3,0-0.5,0.2-0.5,0.5v6c0,0.3,0.2,0.5,0.5,0.5s0.5-0.2,0.5-0.5v-6C12.5,7.2,12.3,7,12,7z"/>
	<circle cx="12" cy="16.5" r="0.5"/>
</g>
</svg>
