<?xml version="1.0" encoding="utf-8"?>
<!-- Generator: Adobe Illustrator 22.0.1, SVG Export Plug-In . SVG Version: 6.00 Build 0)  -->
<svg version="1.1" id="Ebene_5" xmlns="http://www.w3.org/2000/svg" xmlns:xlink="http://www.w3.org/1999/xlink" x="0px" y="0px"
	 width="24px" height="24px" viewBox="0 0 24 24" enable-background="new 0 0 24 24" xml:space="preserve">
<rect fill="none" width="24" height="24"/>
<g>
	<path d="M7,14.5v-5C7,9.2,6.8,9,6.5,9h-6C0.2,9,0,9.2,0,9.5v5C0,14.8,0.2,15,0.5,15h6C6.8,15,7,14.8,7,14.5z M6,14H1v-4h5V14z"/>
	<path d="M9,9C8.7,9,8.5,9.2,8.5,9.5v5C8.5,14.8,8.7,15,9,15h6c0.3,0,0.5-0.2,0.5-0.5v-5C15.5,9.2,15.3,9,15,9H9z M14.5,14h-5v-4h5
		V14z"/>
	<path d="M23.5,9h-6C17.2,9,17,9.2,17,9.5v5c0,0.3,0.2,0.5,0.5,0.5h6c0.3,0,0.5-0.2,0.5-0.5v-5C24,9.2,23.8,9,23.5,9z M23,14h-5v-4
		h5V14z"/>
	<path d="M3.1,6.9c0,0,0.1,0.1,0.2,0.1c0.1,0,0.1,0,0.2,0s0.1,0,0.2,0c0.1,0,0.1-0.1,0.2-0.1l2-2C6,4.7,6,4.3,5.9,4.1S5.3,4,5.1,4.1
		L4,5.3V2h16v4.5C20,6.8,20.2,7,20.5,7S21,6.8,21,6.5v-5C21,1.2,20.8,1,20.5,1h-17C3.2,1,3,1.2,3,1.5v3.8L1.9,4.1
		C1.7,4,1.3,4,1.1,4.1S1,4.7,1.1,4.9L3.1,6.9z"/>
	<path d="M20.9,17.1c-0.2-0.2-0.5-0.2-0.7,0l-2,2c-0.2,0.2-0.2,0.5,0,0.7s0.5,0.2,0.7,0l1.1-1.1V22H4v-4.5C4,17.2,3.8,17,3.5,17
		S3,17.2,3,17.5v5C3,22.8,3.2,23,3.5,23h17c0.3,0,0.5-0.2,0.5-0.5v-3.8l1.1,1.1c0.1,0.1,0.2,0.1,0.4,0.1s0.3,0,0.4-0.1
		c0.2-0.2,0.2-0.5,0-0.7L20.9,17.1z"/>
</g>
</svg>
