<?xml version="1.0" encoding="utf-8"?>
<!-- Generator: Adobe Illustrator 22.0.1, SVG Export Plug-In . SVG Version: 6.00 Build 0)  -->
<svg version="1.1" id="Ebene_5" xmlns="http://www.w3.org/2000/svg" xmlns:xlink="http://www.w3.org/1999/xlink" x="0px" y="0px"
	 width="24px" height="24px" viewBox="0 0 24 24" enable-background="new 0 0 24 24" xml:space="preserve">
<rect fill="none" width="24" height="24"/>
<g>
	<path d="M17,5c0-2.8-2.2-5-5-5S7,2.2,7,5s2.2,5,5,5S17,7.8,17,5z M12,9C9.8,9,8,7.2,8,5s1.8-4,4-4s4,1.8,4,4S14.2,9,12,9z"/>
	<path d="M22.5,12h-8c-0.3,0-0.5,0.2-0.5,0.5v8c0,0.3,0.2,0.5,0.5,0.5h8c0.3,0,0.5-0.2,0.5-0.5v-8C23,12.2,22.8,12,22.5,12z M22,20
		h-7v-7h7V20z"/>
	<path d="M6.7,12.1c-0.2-0.3-0.7-0.3-0.9,0l-4.8,8.1c-0.1,0.2-0.1,0.3,0,0.5S1.3,21,1.5,21H11c0.2,0,0.3-0.1,0.4-0.3s0.1-0.3,0-0.5
		L6.7,12.1z M2.4,20l3.9-6.7l3.9,6.7H2.4z"/>
</g>
</svg>
