<?xml version="1.0" encoding="utf-8"?>
<!-- Generator: Adobe Illustrator 22.0.1, SVG Export Plug-In . SVG Version: 6.00 Build 0)  -->
<svg version="1.1" id="Ebene_5" xmlns="http://www.w3.org/2000/svg" xmlns:xlink="http://www.w3.org/1999/xlink" x="0px" y="0px"
	 width="24px" height="24px" viewBox="0 0 24 24" enable-background="new 0 0 24 24" xml:space="preserve">
<rect fill="none" width="24" height="24"/>
<path d="M16,13.3c-1-0.7-2.3-1.1-3.7-1.6C9.5,10.7,7,9.9,7,7.1C7,4.5,8.9,3,12.1,3c1.6,0,3.1,0.3,4.4,0.9c0.2,0.1,0.5,0,0.7-0.2
	c0.1-0.2,0-0.5-0.2-0.7c-1.4-0.6-3.1-1-4.8-1c0,0-0.1,0-0.1,0V0.5C12,0.2,11.8,0,11.5,0S11,0.2,11,0.5v1.6c-3.1,0.4-5,2.2-5,5
	c0,3.5,3,4.5,5.9,5.5c1.3,0.4,2.5,0.9,3.4,1.5c1.1,0.7,1.6,1.6,1.6,2.8c0,1.2-0.6,2.2-1.6,3c-1,0.8-2.5,1.2-4.3,1.2
	c-1.6,0-3.1-0.3-4.5-0.9c-0.3-0.1-0.5,0-0.7,0.2c-0.1,0.3,0,0.5,0.2,0.7c1.4,0.6,3,1,4.7,1v1.5c0,0.3,0.2,0.5,0.5,0.5
	s0.5-0.2,0.5-0.5V22c1.6-0.1,3-0.5,4-1.3c1.3-0.9,2-2.3,2-3.8C18,15.4,17.3,14.2,16,13.3z"/>
</svg>
