<?xml version="1.0" encoding="utf-8"?>
<!-- Generator: Adobe Illustrator 22.0.1, SVG Export Plug-In . SVG Version: 6.00 Build 0)  -->
<svg version="1.1" id="Ebene_5" xmlns="http://www.w3.org/2000/svg" xmlns:xlink="http://www.w3.org/1999/xlink" x="0px" y="0px"
	 width="24px" height="24px" viewBox="0 0 24 24" enable-background="new 0 0 24 24" xml:space="preserve">
<rect fill="none" width="24" height="24"/>
<path d="M20.6,22H19V0.5C19,0.2,18.8,0,18.5,0h-13C5.2,0,5,0.2,5,0.5V22H3.5C3.2,22,3,22.2,3,22.5S3.2,23,3.5,23h2
	C5.8,23,6,22.8,6,22.5V1h10.1l-4.8,2.1C11.1,3.2,11,3.4,11,3.6V20c0,0.2,0.1,0.4,0.3,0.4l6.9,2.5c0,0,0,0,0,0c0.1,0,0.1,0,0.2,0h2.1
	c0.3,0,0.5-0.2,0.5-0.5S20.8,22,20.6,22z M12,12h0.8c0.3,0,0.5-0.2,0.5-0.5S13,11,12.7,11H12V3.9l6-2.7v20.6l-6-2.1V12z"/>
</svg>
