<?xml version="1.0" encoding="utf-8"?>
<!-- Generator: Adobe Illustrator 22.0.1, SVG Export Plug-In . SVG Version: 6.00 Build 0)  -->
<svg version="1.1" id="Icon_build" xmlns="http://www.w3.org/2000/svg" xmlns:xlink="http://www.w3.org/1999/xlink" x="0px" y="0px"
	 width="24px" height="24px" viewBox="0 0 24 24" enable-background="new 0 0 24 24" xml:space="preserve">
<rect fill="none" width="24" height="24"/>
<path d="M12,0C5.4,0,0,5.4,0,12c0,4.5,2.5,8.6,6.5,10.7c0.1,0,0.2,0.1,0.2,0.1c0.2,0,0.4-0.1,0.4-0.3c0.1-0.2,0-0.5-0.2-0.7
	c-3.7-1.9-6-5.6-6-9.8C1,5.9,5.9,1,12,1s11,4.9,11,11c0,2.8-1,5.4-2.9,7.4l-0.3,0.3c-0.8,0.8-1.9,1.3-3,1.3c-1.9,0-3.5-1.3-4.1-3.1
	c1.9-0.3,3.3-2,3.3-3.9v-3.5c0-0.3-0.2-0.5-0.5-0.5H14V7.5C14,7.2,13.8,7,13.5,7S13,7.2,13,7.5V10h-2V7.5C11,7.2,10.8,7,10.5,7
	S10,7.2,10,7.5V10H8.5C8.2,10,8,10.2,8,10.5V14c0,2.1,1.6,3.8,3.7,4c0.6,2.3,2.7,4,5.1,4c1.4,0,2.8-0.6,3.7-1.6l0.3-0.3
	C22.9,17.9,24,15,24,12C24,5.4,18.6,0,12,0z M9,14v-3h6v3c0,1.7-1.3,3-3,3S9,15.7,9,14z"/>
</svg>
