<?xml version="1.0" encoding="utf-8"?>
<!-- Generator: Adobe Illustrator 22.0.1, SVG Export Plug-In . SVG Version: 6.00 Build 0)  -->
<svg version="1.1" id="Ebene_5" xmlns="http://www.w3.org/2000/svg" xmlns:xlink="http://www.w3.org/1999/xlink" x="0px" y="0px"
	 width="24px" height="24px" viewBox="0 0 24 24" enable-background="new 0 0 24 24" xml:space="preserve">
<rect fill="none" width="24" height="24"/>
<path d="M24,10.3C24,10.3,24,10.3,24,10.3L24,10.3C23.9,10.3,23.9,10.3,24,10.3C23.9,10.3,23.9,10.3,24,10.3
	C23.9,10.3,23.9,10.3,24,10.3L24,10.3C23.9,10.3,23.9,10.3,24,10.3C23.9,10.3,23.9,10.3,24,10.3C23.9,10.3,23.9,10.3,24,10.3l-5-9
	C18.9,1.1,18.7,1,18.6,1c-0.1,0-0.3,0-0.4,0.1l-5.6,4.7l-0.7-0.7C11.8,5.1,11.6,5,11.5,5h-3C8.4,5,8.2,5.1,8.1,5.1l-1,1
	C7.1,6.2,7,6.4,7,6.5V8H3.5C2.7,8,2,8.7,2,9.5v4C2,14.3,2.7,15,3.5,15H5v1H3.5C2.1,16,1,17.1,1,18.5S2.1,21,3.5,21h12
	c1.4,0,2.5-1.1,2.5-2.5S16.9,16,15.5,16H12v-1h1.5c0.8,0,1.5-0.7,1.5-1.5v-3v-1v-1c0-0.1-0.1-0.3-0.1-0.4l-1.6-1.6l5.1-4.3l4.5,8
	l-5.5,2.8c-0.1,0.1-0.2,0.2-0.3,0.3c0,0.1,0,0.3,0.1,0.4c0.5,0.8,1.6,2.2,2.4,2.2h4c0.3,0,0.5-0.2,0.5-0.5v-5
	C24,10.4,24,10.4,24,10.3z M8,6.7L8.7,6h2.6l2,2H8V6.7z M8,9h5.5C13.8,9,14,9.2,14,9.5V10H8.7L8,9.3V9z M2,18.5
	C2,17.7,2.7,17,3.5,17S5,17.7,5,18.5S4.3,20,3.5,20S2,19.3,2,18.5z M17,18.5c0,0.8-0.7,1.5-1.5,1.5S14,19.3,14,18.5s0.7-1.5,1.5-1.5
	S17,17.7,17,18.5z M13.5,17c-0.3,0.4-0.5,0.9-0.5,1.5s0.2,1.1,0.5,1.5h-8C5.8,19.6,6,19.1,6,18.5S5.8,17.4,5.5,17H13.5z M11,16H6v-1
	h5V16z M13.5,14h-10C3.2,14,3,13.8,3,13.5v-4C3,9.2,3.2,9,3.5,9H7v0.5c0,0.1,0.1,0.3,0.1,0.4l1,1C8.2,10.9,8.4,11,8.5,11H14v2.5
	C14,13.8,13.8,14,13.5,14z M23,15l-3.5,0c-0.2,0-0.8-0.6-1.3-1.3l4.8-2.4V15z"/>
</svg>
