<?xml version="1.0" encoding="utf-8"?>
<!-- Generator: Adobe Illustrator 22.0.1, SVG Export Plug-In . SVG Version: 6.00 Build 0)  -->
<svg version="1.1" id="Icon_build" xmlns="http://www.w3.org/2000/svg" xmlns:xlink="http://www.w3.org/1999/xlink" x="0px" y="0px"
	 width="24px" height="24px" viewBox="0 0 24 24" enable-background="new 0 0 24 24" xml:space="preserve">
<rect fill="none" width="24" height="24"/>
<path d="M24,9.5C24,9.5,24,9.5,24,9.5C24,9.5,24,9.5,24,9.5c0-0.1,0-0.1,0-0.2c0,0,0-0.1-0.1-0.1c0,0,0,0,0-0.1l-6.3-7
	C17.5,2.1,17.3,2,17.2,2H6.8C6.7,2,6.5,2.1,6.4,2.2l-6.3,7c0,0,0,0,0,0.1c0,0,0,0.1-0.1,0.1c0,0,0,0.1,0,0.1c0,0,0,0,0,0
	c0,0,0,0,0,0c0,0.1,0,0.1,0,0.2c0,0,0,0,0,0.1c0,0,0,0.1,0.1,0.1l11.5,12c0.1,0.1,0.2,0.2,0.4,0.2s0.3-0.1,0.4-0.2l11.5-12
	c0,0,0-0.1,0.1-0.1c0,0,0,0,0-0.1C24,9.6,24,9.6,24,9.5z M6.2,10l4.4,9.3L1.7,10H6.2z M7.3,10h4.2v8.9L7.3,10z M12.5,10h4.2
	l-4.2,8.9V10z M17.8,10h4.5l-8.9,9.3L17.8,10z M22.4,9h-4.5l-2.2-6H17L22.4,9z M14.6,3l2.2,6h-4.3V3H14.6z M11.5,9H7.2l2.2-6h2.1V9z
	 M7,3h1.3L6.1,9H1.6L7,3z"/>
</svg>
