<?xml version="1.0" encoding="utf-8"?>
<!-- Generator: Adobe Illustrator 22.0.1, SVG Export Plug-In . SVG Version: 6.00 Build 0)  -->
<svg version="1.1" id="Icon_build" xmlns="http://www.w3.org/2000/svg" xmlns:xlink="http://www.w3.org/1999/xlink" x="0px" y="0px"
	 width="24px" height="24px" viewBox="0 0 24 24" enable-background="new 0 0 24 24" xml:space="preserve">
<rect fill="none" width="24" height="24"/>
<g>
	<path d="M23.9,11.7C19,4.4,12.2,5.1,12,5.1C4.9,5.3,0.6,10.5,0.1,11.5c0,0.1-0.2,0.3,0,0.6c4.3,6.6,11.6,6.8,11.9,6.8
		c8.2-0.1,11.8-6.4,11.9-6.7C24,12.1,24,11.9,23.9,11.7z M12,17.9c-0.1,0-6.9-0.2-10.9-6.1c0.7-0.9,4.4-5.6,11-5.8
		c0.1,0,6.3-0.6,10.8,6C22.1,13.2,18.7,17.9,12,17.9z"/>
	<path d="M12,7c-2.8,0-5,2.2-5,5s2.2,5,5,5s5-2.2,5-5S14.8,7,12,7z M12,16c-2.2,0-4-1.8-4-4c0-2.2,1.8-4,4-4s4,1.8,4,4
		C16,14.2,14.2,16,12,16z"/>
</g>
</svg>
