<?xml version="1.0" encoding="utf-8"?>
<!-- Generator: Adobe Illustrator 22.0.1, SVG Export Plug-In . SVG Version: 6.00 Build 0)  -->
<svg version="1.1" id="Icon_build" xmlns="http://www.w3.org/2000/svg" xmlns:xlink="http://www.w3.org/1999/xlink" x="0px" y="0px"
	 width="24px" height="24px" viewBox="0 0 24 24" enable-background="new 0 0 24 24" xml:space="preserve">
<rect fill="none" width="24" height="24"/>
<g>
	<path d="M6,9c1.9,0,3.5-1.6,3.5-3.5C9.5,3.6,7.9,2,6,2S2.5,3.6,2.5,5.5C2.5,7.4,4.1,9,6,9z M6,3c1.4,0,2.5,1.1,2.5,2.5
		C8.5,6.9,7.4,8,6,8S3.5,6.9,3.5,5.5C3.5,4.1,4.6,3,6,3z"/>
	<path d="M18,9c1.9,0,3.5-1.6,3.5-3.5C21.5,3.6,19.9,2,18,2s-3.5,1.6-3.5,3.5C14.5,7.4,16.1,9,18,9z M18,3c1.4,0,2.5,1.1,2.5,2.5
		C20.5,6.9,19.4,8,18,8s-2.5-1.1-2.5-2.5C15.5,4.1,16.6,3,18,3z"/>
	<path d="M12,19c1.4,0,2.5-1.1,2.5-2.5S13.4,14,12,14s-2.5,1.1-2.5,2.5S10.6,19,12,19z M12,15c0.8,0,1.5,0.7,1.5,1.5S12.8,18,12,18
		s-1.5-0.7-1.5-1.5S11.2,15,12,15z"/>
	<path d="M21.3,10h-7.1c-0.9,0-1.7,0.4-2.2,1c-0.5-0.6-1.3-1-2.2-1H2.7C1.2,10,0,11.2,0,12.7l0,4.8C0,17.8,0.2,18,0.5,18
		c0,0,0,0,0,0C0.8,18,1,17.8,1,17.5l0-4.8C1,11.8,1.8,11,2.7,11h7.1c0.8,0,1.7,0.5,1.7,1.5c0,0.3,0.2,0.5,0.5,0.5c0,0,0,0,0,0
		c0,0,0,0,0,0c0.3,0,0.5-0.2,0.5-0.5c0-1,0.8-1.5,1.7-1.5h7.1c0.9,0,1.7,0.8,1.7,1.7l0,4.8c0,0.3,0.2,0.5,0.5,0.5c0,0,0,0,0,0
		c0.3,0,0.5-0.2,0.5-0.5l0-4.8C24,11.2,22.8,10,21.3,10z"/>
	<path d="M13.9,20h-1.9h0h-1.9C9.3,20,8,20,8,21.5C8,21.8,8.2,22,8.5,22S9,21.8,9,21.5c0-0.3,0-0.5,1.2-0.5h1.9h0h1.9
		c1.1,0,1.1,0.1,1.1,0.5c0,0.3,0.2,0.5,0.5,0.5s0.5-0.2,0.5-0.5C16,20,14.7,20,13.9,20z"/>
</g>
</svg>
