<?xml version="1.0" encoding="utf-8"?>
<!-- Generator: Adobe Illustrator 22.0.1, SVG Export Plug-In . SVG Version: 6.00 Build 0)  -->
<svg version="1.1" id="Ebene_5" xmlns="http://www.w3.org/2000/svg" xmlns:xlink="http://www.w3.org/1999/xlink" x="0px" y="0px"
	 width="24px" height="24px" viewBox="0 0 24 24" enable-background="new 0 0 24 24" xml:space="preserve">
<rect fill="none" width="24" height="24"/>
<g>
	<path d="M21.5,5L12,5c-0.1,0-0.4-0.3-0.6-0.6C11.2,4.2,10.4,3,9.5,3h-7C1.7,3,1,3.7,1,4.5v4v11C1,20.3,1.7,21,2.5,21h19
		c0.8,0,1.5-0.7,1.5-1.5v-11v-2C23,5.7,22.3,5,21.5,5z M2.5,4h7c0.3,0,0.8,0.5,1,0.9C10.9,5.4,11.5,6,12,6h9.5C21.8,6,22,6.2,22,6.5
		V8H2V4.5C2,4.2,2.2,4,2.5,4z M21.5,20h-19C2.2,20,2,19.8,2,19.5V9h20v10.5C22,19.8,21.8,20,21.5,20z"/>
	<path d="M19.5,11h-3c-0.3,0-0.5,0.2-0.5,0.5s0.2,0.5,0.5,0.5h3c0.3,0,0.5-0.2,0.5-0.5S19.8,11,19.5,11z"/>
	<path d="M19.5,14h-3c-0.3,0-0.5,0.2-0.5,0.5s0.2,0.5,0.5,0.5h3c0.3,0,0.5-0.2,0.5-0.5S19.8,14,19.5,14z"/>
</g>
</svg>
