<?xml version="1.0" encoding="utf-8"?>
<!-- Generator: Adobe Illustrator 22.0.1, SVG Export Plug-In . SVG Version: 6.00 Build 0)  -->
<svg version="1.1" id="Icon_build" xmlns="http://www.w3.org/2000/svg" xmlns:xlink="http://www.w3.org/1999/xlink" x="0px" y="0px"
	 width="24px" height="24px" viewBox="0 0 24 24" enable-background="new 0 0 24 24" xml:space="preserve">
<rect fill="none" width="24" height="24"/>
<path d="M21.6,6.8c0.1,0,0.2-0.1,0.3-0.2l1-1.6C23,4.8,23,4.5,22.8,4.3l-1.7-1.2C21,3.1,20.8,3,20.7,3l-5.7,1V0.5
	C15,0.2,14.8,0,14.5,0h-5C9.2,0,9,0.2,9,0.5v4.2L4.6,3C4.5,3,4.4,3,4.3,3l-2,0.7C2.1,3.8,2,3.9,2,4.1c0,0.2,0,0.3,0.1,0.4l1.2,1.6
	c0.1,0.1,0.1,0.1,0.2,0.2L9,8.6v2.8l-3.4-0.6c-0.1,0-0.3,0-0.4,0.1l-1.6,1.2c-0.2,0.2-0.3,0.5-0.1,0.7l1.1,1.5
	c0.1,0.1,0.2,0.2,0.3,0.2l4,0.6v8.3C9,23.8,9.2,24,9.5,24h5c0.3,0,0.5-0.2,0.5-0.5v-9.7l4.5,1.8c0.1,0,0.2,0,0.4,0l2-0.7
	c0.1-0.1,0.3-0.2,0.3-0.3c0-0.2,0-0.3-0.1-0.4l-1.2-1.6c-0.1-0.1-0.1-0.1-0.2-0.2L15,10.1V8.3L21.6,6.8z M14.3,10.9l5.8,2.3l0.7,1
	l-1.2,0.4l-5.1-2c-0.2-0.1-0.3,0-0.5,0.1c-0.1,0.1-0.2,0.2-0.2,0.4V23h-4v-8.2c0-0.2-0.2-0.5-0.4-0.5l-4.2-0.7l-0.7-1l1-0.8l3.7,0.7
	c0.1,0,0.3,0,0.4-0.1S10,12.1,10,12V8.3c0-0.2-0.1-0.4-0.3-0.5L4,5.4l-0.7-1L4.4,4l4.9,1.9C9.5,6,9.6,6,9.8,5.9
	C9.9,5.8,10,5.7,10,5.5V1h4v3.7c0,0.1,0.1,0.3,0.2,0.4c0.1,0.1,0.3,0.1,0.4,0.1l6.1-1.1l1.1,0.8l-0.6,1l-6.8,1.5
	C14.2,7.4,14,7.6,14,7.9v2.5C14,10.6,14.1,10.8,14.3,10.9z"/>
</svg>
