<?xml version="1.0" encoding="utf-8"?>
<!-- Generator: Adobe Illustrator 22.0.1, SVG Export Plug-In . SVG Version: 6.00 Build 0)  -->
<svg version="1.1" id="Icon_build" xmlns="http://www.w3.org/2000/svg" xmlns:xlink="http://www.w3.org/1999/xlink" x="0px" y="0px"
	 width="24px" height="24px" viewBox="0 0 24 24" enable-background="new 0 0 24 24" xml:space="preserve">
<rect fill="none" width="24" height="24"/>
<g>
	<path d="M19,6c1.1,0,2-0.9,2-2s-0.9-2-2-2s-2,0.9-2,2S17.9,6,19,6z M19,3c0.6,0,1,0.4,1,1s-0.4,1-1,1s-1-0.4-1-1S18.4,3,19,3z"/>
	<path d="M15.5,11c1.4,0,2.5-1.1,2.5-2.5S16.9,6,15.5,6S13,7.1,13,8.5S14.1,11,15.5,11z M15.5,7C16.3,7,17,7.7,17,8.5
		S16.3,10,15.5,10S14,9.3,14,8.5S14.7,7,15.5,7z"/>
	<path d="M23.9,12.4c0-0.1-0.3-0.6-0.9-1c-0.1,0-0.1-0.1-0.2-0.1c-1-0.2-2.1,0.3-2.2,0.3l-3.8,1.8c0-0.2-0.1-0.4-0.3-0.5
		c-0.8-0.4-6.5-1.7-6.7-1.8c-0.1,0-0.2,0-0.3,0c-1.9,0.6-3.2,1-3.9,1.3c-0.1-0.4-0.2-0.7-0.3-1c-0.1-0.2-0.2-0.3-0.3-0.3
		c-1.8-0.5-4.6,0.3-4.7,0.3C0.1,11.6,0,11.8,0,12.1l2.1,8.5C2.1,20.8,2.3,21,2.6,21c0,0,0,0,0.1,0c2.9-0.4,3-0.9,3.1-1.1
		c0.1-0.3,0.2-0.8,0.2-1.2l1-0.2c0.8,0.1,7.1,0.8,7.9,0.8c0,0,0,0,0,0c0.9,0,2-0.6,2.1-0.7l6.8-5.5C24,12.9,24.1,12.6,23.9,12.4z
		 M3,19.9l-1.8-7.6c0.8-0.2,2.4-0.5,3.5-0.3c0.5,1.8,0.6,4.2,0.4,6c0,0.1,0,0.1,0,0.2c-0.1,0.5-0.1,0.9-0.2,1.2
		C4.5,19.6,3.7,19.8,3,19.9z M16.5,17.7c-0.2,0.1-1,0.6-1.6,0.6c-0.6,0-5.9-0.6-7.9-0.8c0,0-0.1,0-0.1,0L6,17.6
		c0.1-1.3,0.1-2.7-0.1-4.1c0.6-0.2,1.9-0.6,3.9-1.3c2.1,0.5,4.9,1.2,6,1.5c-0.1,0.1-0.2,0.3-0.5,0.4l0,0c0,0,0,0-0.1,0
		c-1.7,0-3.7-0.1-3.7-0.1l-0.1,1c0,0,2.2,0.1,3.9,0.1c0.1,0,0.2,0,0.3-0.1c0.1,0,0.1-0.1,0.2-0.1l5.3-2.5c0,0,0.8-0.4,1.5-0.3
		c0.1,0.1,0.2,0.1,0.2,0.2L16.5,17.7z"/>
</g>
</svg>
