<?xml version="1.0" encoding="utf-8"?>
<!-- Generator: Adobe Illustrator 22.0.1, SVG Export Plug-In . SVG Version: 6.00 Build 0)  -->
<svg version="1.1" id="Icon_build" xmlns="http://www.w3.org/2000/svg" xmlns:xlink="http://www.w3.org/1999/xlink" x="0px" y="0px"
	 width="24px" height="24px" viewBox="0 0 24 24" enable-background="new 0 0 24 24" xml:space="preserve">
<rect fill="none" width="24" height="24"/>
<path d="M22.3,7.1C22,7,21.8,7,21.6,7l-8.8,0c-0.3,0-0.6,0-0.9,0c0.9-0.4,1.6-1,2.2-1.6c0.6-0.7,0.8-1.5,0.6-2.2
	c-0.3-1-1.2-1.7-2.2-1.7c-0.4,0-0.8,0.1-1.1,0.3L9,2.9c-1.3,0.6-2.7,1.3-4.1,2C3.8,5.4,2.8,6.1,1.9,7C0.6,8.3,0,9.7,0,11.3l0,1.4
	c0,1.1,0,2.2,0,3.4c0,0.8,0.1,1.5,0.3,2.1c0.5,1.3,1.3,2.4,2.4,3.2c1.1,0.8,2.4,1.2,3.9,1.2l1.4,0l2.6,0l0.7,0c0.3,0,0.5,0,0.7,0
	c1.3,0,2.3-1,2.2-2.2c0-0.5-0.2-1-0.4-1.4H14c0.7,0,1.3-0.3,1.7-0.8c0.4-0.5,0.6-1.1,0.5-1.8c-0.1-0.4-0.2-0.8-0.4-1.1
	c0.1,0,0.2,0,0.3,0c0.6-0.1,1.2-0.5,1.6-1c0.4-0.6,0.5-1.2,0.3-1.9c-0.1-0.3-0.2-0.6-0.4-0.8l3.9,0c0.1,0,0.3,0,0.5,0
	c1.1-0.1,1.9-0.9,2-2C24.1,8.3,23.4,7.3,22.3,7.1z M21.9,10.5c-0.1,0-0.3,0-0.4,0l-8.4,0l-1.2,0v0c-0.3,0-0.5,0.2-0.5,0.5
	c0,0.3,0.2,0.5,0.5,0.5l1.9,0l1.8,0c0.8,0,1.2,0.6,1.4,1.1c0.1,0.3,0.1,0.7-0.2,1c-0.2,0.3-0.5,0.5-0.9,0.6c-0.2,0-0.3,0-0.4,0
	l-1.4,0c-0.1,0-0.2,0-0.3,0l-2.3,0c-0.3,0-0.5,0.2-0.5,0.5s0.2,0.5,0.5,0.5h2.5c0.6,0.1,1.1,0.7,1.1,1.2c0.1,0.4-0.1,0.7-0.3,1
	c-0.2,0.3-0.6,0.4-1,0.4l-2,0c0,0-0.1,0-0.1,0c-0.5,0-0.9,0-1.1,0h-0.1v0c-0.2,0-0.3,0.1-0.4,0.1c-0.1,0.1-0.2,0.4-0.1,0.5
	c0.1,0.2,0.3,0.3,0.5,0.3l1.2,0c0.7,0,1.2,0.7,1.2,1.4c0,0.7-0.6,1.2-1.3,1.2c-0.2,0-0.4,0-0.7,0l-0.7,0l-2.6,0l-1.4,0
	c-1.2,0-2.4-0.4-3.3-1c-0.9-0.7-1.6-1.6-2-2.7C1.1,17.3,1,16.7,1,16c0-1.1,0-2.2,0-3.3l0-1.4C1,10,1.5,8.8,2.6,7.7
	c0.8-0.8,1.7-1.5,2.8-2c1.4-0.7,2.7-1.3,4.1-2l2.2-1.1c0.2-0.1,0.5-0.2,0.7-0.2c0.6,0,1.1,0.4,1.3,1c0.2,0.6-0.1,1-0.4,1.3
	c-0.5,0.6-1.1,1-2,1.4c-0.5,0.2-1,0.4-1.6,0.6C9.5,6.9,9.3,7.2,9.4,7.4l0.1,0.2C9.6,7.9,9.8,8,10,8c0.9,0,1.8,0,2.7,0l8.8,0
	c0.2,0,0.3,0,0.5,0c0.6,0.1,1,0.7,0.9,1.3C22.9,9.9,22.5,10.4,21.9,10.5z"/>
</svg>
