<?xml version="1.0" encoding="utf-8"?>
<!-- Generator: Adobe Illustrator 22.0.1, SVG Export Plug-In . SVG Version: 6.00 Build 0)  -->
<svg version="1.1" id="Icon_build" xmlns="http://www.w3.org/2000/svg" xmlns:xlink="http://www.w3.org/1999/xlink" x="0px" y="0px"
	 width="24px" height="24px" viewBox="0 0 24 24" enable-background="new 0 0 24 24" xml:space="preserve">
<rect fill="none" width="24" height="24"/>
<g>
	<g>
		<g>
			<path d="M11.2,24l-1.4,0c-1.4,0-2.8-0.4-3.9-1.2c-1.1-0.8-2-1.9-2.4-3.2c0-0.1-0.1-0.2-0.1-0.4C3.2,18.8,3,18.4,3,17.5l0-1.1
				c0-0.6,0-1.2,0-1.9v-2c0-1.6,0.9-2.6,2-3.9c2-2.3,3-8.1,3-8.2C8.1,0.1,8.3,0,8.6,0c0.2,0,2,0.1,2.8,1.1c1,1.3,0.9,3.8-0.2,7.4
				l4.7,0c2.8,0,4.3,0,4.5,0.1c1.1,0.3,1.8,1.3,1.7,2.4c-0.1,0.8-0.7,1.6-1.4,1.9c0.2,0.3,0.4,0.6,0.5,1c0.2,0.6,0.1,1.3-0.3,1.9
				c-0.4,0.6-0.9,0.9-1.6,1c-0.1,0-0.2,0-0.3,0c0.2,0.3,0.4,0.7,0.4,1.1c0.1,0.7-0.1,1.3-0.5,1.8c-0.4,0.5-1.1,0.8-1.7,0.8
				c-0.1,0-0.1,0-0.2,0c0.3,0.4,0.4,0.9,0.4,1.4c0,1.2-1,2.2-2.2,2.2c-0.2,0-0.4,0-0.7,0l-0.7,0L11.2,24z M8.9,1
				C8.6,2.5,7.6,7.1,5.8,9.2C4.7,10.5,4,11.3,4,12.5v2c0,0.7,0,1.3,0,1.9l0,1.1c0,0.7,0.1,1,0.3,1.4c0.1,0.1,0.1,0.3,0.2,0.4
				c0.4,1.1,1.1,2.1,2,2.7c0.9,0.7,2.1,1,3.3,1l2.1,0l1.8,0l0.7,0c0.3,0,0.5,0,0.7,0c0.7,0,1.3-0.6,1.3-1.2c0-0.7-0.5-1.4-1.3-1.4
				l-1.2,0c-0.2,0-0.4-0.1-0.5-0.3c-0.1-0.2,0-0.4,0.1-0.5c0.2-0.2,0.2-0.2,1.5-0.1c0,0,0,0,0.1,0h0.4c0.6,0,1.2,0,1.6,0
				c0.4,0,0.7-0.2,1-0.4c0.2-0.3,0.3-0.6,0.3-1c-0.1-0.5-0.5-1.1-1.1-1.2h-2.5c-0.3,0-0.5-0.2-0.5-0.5s0.2-0.5,0.5-0.5h2.3
				c0.1,0,0.2,0,0.3,0l1.4,0c0.1,0,0.3,0,0.4,0c0.4-0.1,0.7-0.3,0.9-0.6c0.2-0.3,0.3-0.7,0.2-1C20,13.6,19.6,13,18.8,13L17,13
				l-1.9,0c-0.3,0-0.5-0.2-0.5-0.5c0-0.3,0.2-0.5,0.5-0.5v0l1.2,0l1,0c2.4,0,2.5,0,2.6,0c0.6-0.1,1.1-0.5,1.1-1.1
				c0.1-0.6-0.3-1.2-0.9-1.3c-0.2,0-2.4,0-4.2,0l-5.4,0c-0.2,0-0.4-0.1-0.5-0.3C10,9,10,8.9,10.1,8.6c1.4-4.3,1-6.1,0.4-6.8
				C10.2,1.3,9.5,1.1,8.9,1z"/>
		</g>
	</g>
</g>
</svg>
