<?xml version="1.0" encoding="utf-8"?>
<!-- Generator: Adobe Illustrator 22.0.1, SVG Export Plug-In . SVG Version: 6.00 Build 0)  -->
<svg version="1.1" id="Icon_build" xmlns="http://www.w3.org/2000/svg" xmlns:xlink="http://www.w3.org/1999/xlink" x="0px" y="0px"
	 width="24px" height="24px" viewBox="0 0 24 24" enable-background="new 0 0 24 24" xml:space="preserve">
<rect fill="none" width="24" height="24"/>
<g>
	<g>
		<g>
			<path d="M12.9,24c-0.4,0-0.9,0-1.3,0l-1.4,0c0,0,0,0,0,0c-1.6,0-3-0.6-4.3-1.9c-0.9-0.9-1.6-1.9-2.2-3c-0.7-1.4-1.3-2.8-2-4.1
				l-1.1-2.2c-0.2-0.4-0.3-0.7-0.3-1.1c0-1,0.7-1.9,1.7-2.2c0.8-0.2,1.5,0,2.2,0.6c0.6,0.6,1.2,1.3,1.6,2.2l0-9.7
				c0-0.2,0-0.5,0.1-0.8C6.2,0.6,7.2-0.1,8.3,0c1.1,0.1,1.9,1,2,2c0,0.2,0,0.3,0,0.5v3.9c0.2-0.2,0.5-0.3,0.8-0.4
				c0.6-0.2,1.3-0.1,1.9,0.3c0.6,0.4,0.9,0.9,1,1.6c0,0.1,0,0.2,0,0.3c0.3-0.2,0.7-0.4,1.1-0.4c0.7-0.1,1.3,0.1,1.8,0.5
				c0.5,0.4,0.8,1.1,0.8,1.7v0.2c0.4-0.3,0.9-0.4,1.4-0.4c0,0,0,0,0,0c1.2,0,2.2,1,2.2,2.2c0,0.2,0,0.4,0,0.7l0,0.7l0,2.6l0,1.4
				c0,1.4-0.4,2.8-1.2,3.9c-0.8,1.1-1.9,2-3.2,2.4c-0.6,0.2-1.3,0.3-2.1,0.3C14.2,24,13.6,24,12.9,24z M5.6,14.2
				c-0.2-0.5-0.4-1-0.6-1.4c-0.4-0.9-0.9-1.5-1.4-2c-0.3-0.3-0.7-0.6-1.3-0.4c-0.6,0.2-1,0.7-1,1.3c0,0.2,0.1,0.5,0.2,0.7l1.1,2.2
				c0.7,1.3,1.3,2.7,2,4.1c0.5,1,1.2,2,2,2.8c1.1,1.1,2.3,1.6,3.6,1.6c0,0,0,0,0,0l1.4,0c1.1,0,2.2,0,3.3,0c0.7,0,1.3-0.1,1.8-0.3
				c1.1-0.4,2.1-1.1,2.7-2c0.7-0.9,1-2.1,1-3.3l0-1.4l0-2.6l0-0.7c0-0.3,0-0.5,0-0.7c0-0.7-0.6-1.3-1.2-1.3c-0.6,0-1.3,0.5-1.4,1.2
				l0,1.2c0,0.2-0.1,0.4-0.3,0.5c-0.2,0.1-0.4,0-0.5-0.1c-0.2-0.2-0.2-0.2-0.1-1.5c0,0,0-0.1,0-0.1l0-2c0-0.4-0.2-0.7-0.4-1
				c-0.3-0.2-0.6-0.3-1-0.3c-0.5,0.1-1.1,0.5-1.2,1.1v2.5c0,0.3-0.2,0.5-0.5,0.5s-0.5-0.2-0.5-0.5l0-2.3c0-0.1,0-0.2,0-0.3V8.4
				c0-0.1,0-0.3,0-0.4c-0.1-0.4-0.3-0.7-0.6-0.9c-0.3-0.2-0.7-0.3-1-0.2c-0.5,0.2-1.1,0.6-1.1,1.4l0,1.8l0,1.9
				c0,0.1-0.1,0.3-0.1,0.4c-0.3,0.3-0.9,0.1-0.9-0.4V2.5c0-0.1,0-0.2,0-0.4C9.3,1.5,8.8,1.1,8.2,1C7.6,0.9,7.1,1.3,6.9,1.9
				c0,0.2,0,0.4,0,0.5l0,11.6c0,0.2-0.1,0.4-0.3,0.5l-0.2,0.1c-0.1,0-0.3,0-0.4,0c-0.1-0.1-0.2-0.2-0.3-0.3L5.6,14.2z"/>
		</g>
	</g>
</g>
</svg>
