<?xml version="1.0" encoding="utf-8"?>
<!-- Generator: Adobe Illustrator 22.0.1, SVG Export Plug-In . SVG Version: 6.00 Build 0)  -->
<svg version="1.1" id="Icon_build" xmlns="http://www.w3.org/2000/svg" xmlns:xlink="http://www.w3.org/1999/xlink" x="0px" y="0px"
	 width="24px" height="24px" viewBox="0 0 24 24" enable-background="new 0 0 24 24" xml:space="preserve">
<rect fill="none" width="24" height="24"/>
<path d="M21.3,6.6h-1.4c-0.1-1.8-0.9-3.4-2.2-4.7c-1.3-1.2-3-1.9-4.9-1.9h-1.6C9.4,0,7.7,0.7,6.3,1.9C5,3.1,4.2,4.8,4.1,6.6H2.7
	C1.2,6.6,0,7.8,0,9.2v4.6c0,1.5,1.2,2.7,2.7,2.7h1.9C4.8,16.5,5,16.3,5,16V7.1l0-0.4c0.1-1.5,0.8-3,1.9-4C8.2,1.6,9.6,1,11.2,1h1.6
	c1.6,0,3,0.6,4.2,1.6c1.1,1.1,1.8,2.5,1.9,4l0,0.4l0,8.9l0,0.4c-0.2,2.5-1.8,4.6-4.1,5.3L14,21.9c-0.1-1.1-0.9-1.9-2-1.9
	c-1.1,0-2,0.9-2,2s0.9,2,2,2c0.8,0,1.4-0.4,1.7-1l1.3-0.3c2.7-0.9,4.7-3.3,4.9-6.2h1.4c1.5,0,2.7-1.2,2.7-2.7V9.2
	C24,7.8,22.8,6.6,21.3,6.6z M4,15.5H2.7c-0.9,0-1.7-0.7-1.7-1.7V9.2c0-0.9,0.7-1.7,1.7-1.7H4V15.5z M12,23c-0.6,0-1-0.4-1-1
	s0.4-1,1-1s1,0.4,1,1S12.6,23,12,23z M23,13.9c0,0.9-0.7,1.7-1.7,1.7H20V7.6h1.4c0.9,0,1.7,0.7,1.7,1.7V13.9z"/>
</svg>
