<?xml version="1.0" encoding="utf-8"?>
<!-- Generator: Adobe Illustrator 22.0.1, SVG Export Plug-In . SVG Version: 6.00 Build 0)  -->
<svg version="1.1" id="Icon_build" xmlns="http://www.w3.org/2000/svg" xmlns:xlink="http://www.w3.org/1999/xlink" x="0px" y="0px"
	 width="24px" height="24px" viewBox="0 0 24 24" enable-background="new 0 0 24 24" xml:space="preserve">
<rect fill="none" width="24" height="24"/>
<g>
	<path d="M15.5,11H14V9.5C14,9.2,13.8,9,13.5,9h-3C10.2,9,10,9.2,10,9.5V11H8.5C8.2,11,8,11.2,8,11.5v3C8,14.8,8.2,15,8.5,15H10v1.5
		c0,0.3,0.2,0.5,0.5,0.5h3c0.3,0,0.5-0.2,0.5-0.5V15h1.5c0.3,0,0.5-0.2,0.5-0.5v-3C16,11.2,15.8,11,15.5,11z M15,14h-1.5
		c-0.3,0-0.5,0.2-0.5,0.5V16h-2v-1.5c0-0.3-0.2-0.5-0.5-0.5H9v-2h1.5c0.3,0,0.5-0.2,0.5-0.5V10h2v1.5c0,0.3,0.2,0.5,0.5,0.5H15V14z"
		/>
	<path d="M20.5,6H16V5.5C16,4.1,14.9,3,13.5,3h-3C9.1,3,8,4.1,8,5.5V6H3.5C2.1,6,1,7.1,1,8.5v10C1,19.9,2.1,21,3.5,21h17
		c1.4,0,2.5-1.1,2.5-2.5v-10C23,7.1,21.9,6,20.5,6z M9,5.5C9,4.7,9.7,4,10.5,4h3C14.3,4,15,4.7,15,5.5V6H9V5.5z M22,18.5
		c0,0.8-0.7,1.5-1.5,1.5h-17C2.7,20,2,19.3,2,18.5v-10C2,7.7,2.7,7,3.5,7h17C21.3,7,22,7.7,22,8.5V18.5z"/>
</g>
</svg>
