<?xml version="1.0" encoding="utf-8"?>
<!-- Generator: Adobe Illustrator 22.0.1, SVG Export Plug-In . SVG Version: 6.00 Build 0)  -->
<svg version="1.1" id="Ebene_5" xmlns="http://www.w3.org/2000/svg" xmlns:xlink="http://www.w3.org/1999/xlink" x="0px" y="0px"
	 width="24px" height="24px" viewBox="0 0 24 24" enable-background="new 0 0 24 24" xml:space="preserve">
<rect fill="none" width="24" height="24"/>
<g>
	<g>
		<path d="M12.1,13c-1.3,0-2.4-0.7-2.9-1.8L5.4,4.8C4.9,3.8,4.9,2.7,5.4,1.7C6,0.6,7.1,0,8.3,0c0.3,0,0.5,0.2,0.5,0.5S8.6,1,8.3,1
			c-0.8,0-1.6,0.4-2,1.2C5.9,2.9,5.9,3.6,6.2,4.3l3.8,6.4c0.4,0.8,1.2,1.3,2,1.3c0.9,0,1.7-0.5,2-1.3l3.7-6.4
			c0.3-0.7,0.3-1.5-0.1-2.1c-0.4-0.7-1.2-1.2-2-1.2c-0.3,0-0.5-0.2-0.5-0.5S15.4,0,15.7,0c1.2,0,2.3,0.6,2.9,1.7
			c0.5,1,0.6,2.1,0.1,3.1L15,11.2C14.4,12.3,13.3,13,12.1,13z"/>
	</g>
	<g>
		<path d="M11.8,24.1C5.2,24,2.2,17,2,16.7c-0.1-0.3,0-0.5,0.3-0.7c0.3-0.1,0.5,0,0.7,0.3c0,0.1,3,6.7,8.9,6.8
			c0.2,0,0.5-0.1,0.5-0.1c1.3-0.3,2.1-0.8,2.3-1.6c0.5-1.7-1.2-4.3-2.5-5.6c-0.9-0.9-1.3-1.7-1.2-2.5c0.1-0.8,0.7-1.3,0.8-1.3
			c0.2-0.2,0.5-0.1,0.7,0.1c0.2,0.2,0.1,0.5-0.1,0.7c0,0-0.3,0.2-0.3,0.6c0,0.5,0.3,1,0.9,1.6c1.2,1.2,3.4,4.2,2.7,6.6
			c-0.4,1.2-1.4,2-3.1,2.3C12.5,24,12.1,24.1,11.8,24.1z"/>
	</g>
	<g>
		<path d="M2,17c-1.1,0-2-0.9-2-2c0-1.1,0.9-2,2-2s2,0.9,2,2S3.1,17,2,17z M2,14c-0.6,0-1,0.4-1,1c0,0.5,0.4,1,1,1c0.6,0,1-0.4,1-1
			S2.6,14,2,14z"/>
	</g>
</g>
</svg>
