<?xml version="1.0" encoding="utf-8"?>
<!-- Generator: Adobe Illustrator 22.0.1, SVG Export Plug-In . SVG Version: 6.00 Build 0)  -->
<svg version="1.1" id="Icon_build" xmlns="http://www.w3.org/2000/svg" xmlns:xlink="http://www.w3.org/1999/xlink" x="0px" y="0px"
	 width="24px" height="24px" viewBox="0 0 24 24" enable-background="new 0 0 24 24" xml:space="preserve">
<rect fill="none" width="24" height="24"/>
<path d="M22,4.1C20.7,2.7,19,2,17.1,2s-3.6,0.7-4.9,2.1L12,4.4l-0.3-0.3C10.4,2.7,8.7,2,6.9,2C5,2,3.3,2.7,2,4.1C0.7,5.4,0,7.2,0,9
	c0,1.9,0.7,3.6,2,5l9.2,9.4c0.1,0.1,0.5,0.5,0.5,0.5C11.7,24,11.9,24,12,24c0.1,0,0.3,0,0.3-0.1c0,0,0.3-0.3,0.5-0.5L22,14
	c1.3-1.3,2-3.1,2-5C24,7.2,23.3,5.4,22,4.1z M21.3,13.3l-9.2,9.4c0,0-0.1,0.1-0.1,0.1c0,0-0.1-0.1-0.1-0.1l-9.2-9.4
	C1.6,12.2,1,10.6,1,9c0-1.6,0.6-3.1,1.7-4.3C3.8,3.6,5.3,3,6.9,3c1.6,0,3,0.6,4.2,1.8l0.6,0.7c0.1,0.1,0.2,0.2,0.4,0.2
	s0.3-0.1,0.4-0.2L13,4.8C14.1,3.6,15.6,3,17.1,3c1.6,0,3,0.6,4.1,1.8C22.4,5.9,23,7.4,23,9C23,10.7,22.4,12.2,21.3,13.3z"/>
</svg>
