<?xml version="1.0" encoding="utf-8"?>
<!-- Generator: Adobe Illustrator 22.0.1, SVG Export Plug-In . SVG Version: 6.00 Build 0)  -->
<svg version="1.1" id="Ebene_5" xmlns="http://www.w3.org/2000/svg" xmlns:xlink="http://www.w3.org/1999/xlink" x="0px" y="0px"
	 width="24px" height="24px" viewBox="0 0 24 24" enable-background="new 0 0 24 24" xml:space="preserve">
<rect fill="none" width="24" height="24"/>
<path d="M22,4.1C20.7,2.7,19,2,17.1,2s-3.6,0.7-4.9,2.1L12,4.4l-0.3-0.3C10.4,2.7,8.7,2,6.9,2C5,2,3.3,2.7,2,4.1C0.7,5.4,0,7.2,0,9
	c0,1.9,0.7,3.6,2,5l9.2,9.4c0.1,0.1,0.5,0.5,0.5,0.5C11.7,24,11.9,24,12,24c0.1,0,0.3,0,0.3-0.1c0,0,0.3-0.3,0.5-0.5L22,14
	c1.3-1.3,2-3.1,2-5C24,7.2,23.3,5.4,22,4.1z M2.7,4.8C3.8,3.6,5.3,3,6.9,3c1.6,0,3,0.6,4.2,1.8l0.6,0.7c0.1,0.1,0.2,0.2,0.4,0.2
	s0.3-0.1,0.4-0.2L13,4.8C14.1,3.6,15.6,3,17.1,3c1.6,0,3,0.6,4.1,1.8C22.4,5.9,23,7.4,23,9c0,1.1-0.3,2.1-0.8,3h-8.5l-1.9-2.8
	C11.8,9.1,11.6,9,11.4,9c-0.2,0-0.3,0.2-0.4,0.4l-1.6,5.4L7,7.3C6.9,7.1,6.7,7,6.5,7C6.2,7,6.1,7.2,6,7.4L5.1,12H1.8
	C1.3,11.1,1,10.1,1,9C1,7.4,1.6,5.9,2.7,4.8z M12.1,22.7c0,0-0.1,0.1-0.1,0.1c0,0-0.1-0.1-0.1-0.1l-9.2-9.4
	c-0.1-0.1-0.2-0.2-0.3-0.3h3c0.2,0,0.4-0.2,0.5-0.4l0.6-3.2L9,16.7C9.1,16.9,9.3,17,9.5,17c0,0,0,0,0,0c0.2,0,0.4-0.2,0.5-0.4l1.7-6
	l1.4,2.1c0.1,0.1,0.2,0.2,0.4,0.2h8.1c-0.1,0.1-0.2,0.2-0.3,0.3L12.1,22.7z"/>
</svg>
