<?xml version="1.0" encoding="utf-8"?>
<!-- Generator: Adobe Illustrator 22.0.1, SVG Export Plug-In . SVG Version: 6.00 Build 0)  -->
<svg version="1.1" id="Icon_build" xmlns="http://www.w3.org/2000/svg" xmlns:xlink="http://www.w3.org/1999/xlink" x="0px" y="0px"
	 width="24px" height="24px" viewBox="0 0 24 24" enable-background="new 0 0 24 24" xml:space="preserve">
<rect fill="none" width="24" height="24"/>
<g>
	<path d="M6,14c1.1,0,2-0.9,2-2c0-1.1-0.9-2-2-2s-2,0.9-2,2C4,13.1,4.9,14,6,14z M6,11c0.6,0,1,0.4,1,1s-0.4,1-1,1s-1-0.4-1-1
		S5.4,11,6,11z"/>
	<path d="M23.1,18.9c1-1.1,1.5-2.4,0-5c-1.8-3.2-4.2-8.3-4.2-8.4c0,0-0.5-1.1-1.7-1.8L17,3.7C16.1,3.2,14,2,11.2,2
		C7.9,2,4.9,3.1,2.9,5.2c-2,2.1-3,4.9-2.9,8.2c0.1,2.9,2.3,5.1,4.1,6.9L4.7,21h16.1l0.1-0.2c0.3-0.4,0.7-0.7,1.1-1
		C22.4,19.6,22.7,19.3,23.1,18.9L23.1,18.9L23.1,18.9z M22.2,14.4c0.1,0.2,0.1,0.3,0.2,0.4c-1,0.2-4,0.6-5,0.6
		c-1.9,0-3.6-0.4-4.8-1.1c-1.2-0.8-1.9-1.8-1.9-3.2c0-1,0.3-1.8,1-2.5c1.1-1.1,5.2-1.7,6.7-1.8C19.2,8.5,20.9,12,22.2,14.4z
		 M3.6,5.9C5.5,4,8.1,3,11.2,3c2.6,0,4.5,1.1,5.4,1.6l0.1,0.1c0.8,0.4,1.1,1,1.3,1.2c-1.8,0.1-5.6,0.7-7,2c-0.9,0.9-1.3,2-1.3,3.2
		c0,1.7,0.8,3.1,2.4,4c1.3,0.8,3.3,1.3,5.3,1.3c1.1,0,4.4-0.4,5.4-0.6c0.3,1,0.2,1.6-0.3,2.2H3.2C2,16.6,1.1,15.1,1,13.4
		C0.9,10.4,1.8,7.8,3.6,5.9z M21.4,19.1c-0.3,0.3-0.7,0.6-1,0.9H5.1l-0.3-0.3c-0.2-0.2-0.4-0.4-0.7-0.7h17.4
		C21.5,19,21.4,19.1,21.4,19.1z"/>
</g>
</svg>
