<?xml version="1.0" encoding="utf-8"?>
<!-- Generator: Adobe Illustrator 22.0.1, SVG Export Plug-In . SVG Version: 6.00 Build 0)  -->
<svg version="1.1" id="Icon_build" xmlns="http://www.w3.org/2000/svg" xmlns:xlink="http://www.w3.org/1999/xlink" x="0px" y="0px"
	 width="24px" height="24px" viewBox="0 0 24 24" enable-background="new 0 0 24 24" xml:space="preserve">
<rect fill="none" width="24" height="24"/>
<g>
	<path d="M4.2,17h15.5c0.7,0,1.3-0.3,1.6-0.8s0.2-1.1-0.1-1.7L13.4,1c-0.7-1.2-2.2-1.2-2.9,0v0L2.8,14.5c-0.4,0.6-0.4,1.2-0.1,1.7
		S3.5,17,4.2,17z M3.7,15l7.8-13.5c0.3-0.6,0.8-0.6,1.1,0L20.3,15c0.2,0.3,0.2,0.6,0.1,0.7c-0.1,0.2-0.3,0.3-0.7,0.3H4.2
		c-0.3,0-0.6-0.1-0.7-0.3C3.5,15.6,3.5,15.3,3.7,15z"/>
	<path d="M22.9,19.2l-0.6-1c-0.1-0.2-0.3-0.2-0.4-0.2H2.1c-0.2,0-0.3,0.1-0.4,0.2l-0.6,1c-0.1,0.2-0.1,0.5,0.2,0.7
		c0.2,0.1,0.5,0.1,0.7-0.2L2.4,19h19.2l0.4,0.8c0.1,0.2,0.3,0.2,0.4,0.2c0.1,0,0.2,0,0.3-0.1C23,19.8,23.1,19.5,22.9,19.2z"/>
	<path d="M12,11.6c0.3,0,0.5-0.2,0.5-0.5V6.5C12.5,6.2,12.3,6,12,6s-0.5,0.2-0.5,0.5v4.6C11.5,11.4,11.7,11.6,12,11.6z"/>
	<path d="M12,14.6c0.1,0,0.1,0,0.2,0c0.1,0,0.1-0.1,0.2-0.1c0.1-0.1,0.2-0.2,0.2-0.4c0-0.1-0.1-0.3-0.2-0.3c0,0-0.1-0.1-0.2-0.1
		c-0.1,0-0.3,0-0.4,0c-0.1,0-0.1,0.1-0.2,0.1c-0.1,0.1-0.1,0.2-0.1,0.3c0,0.1,0,0.3,0.1,0.4C11.7,14.5,11.9,14.6,12,14.6z"/>
</g>
</svg>
