<?xml version="1.0" encoding="utf-8"?>
<!-- Generator: Adobe Illustrator 22.0.1, SVG Export Plug-In . SVG Version: 6.00 Build 0)  -->
<svg version="1.1" id="Ebene_5" xmlns="http://www.w3.org/2000/svg" xmlns:xlink="http://www.w3.org/1999/xlink" x="0px" y="0px"
	 width="24px" height="24px" viewBox="0 0 24 24" enable-background="new 0 0 24 24" xml:space="preserve">
<rect fill="none" width="24" height="24"/>
<g>
	<path d="M11.9,0C9.4,0,7.1,0.7,5.4,2.1C5.3,2.2,5.2,2.4,5.3,2.6l1.1,3.2C6.4,6,6.5,6.1,6.7,6.2c0.2,0,0.3,0,0.5-0.1
		c1.2-1,2.7-1.5,4.4-1.5c2.2,0,3.6,1,3.6,2.5c0,1.3-1.1,2.2-2.5,3.1c-1.7,1.2-3.8,2.7-3.8,5.9v0.3c0,0.3,0.2,0.5,0.5,0.5h3.6
		c0.3,0,0.5-0.2,0.5-0.5V16c0-1.3,1.1-2.1,2.5-3c1.8-1.2,4-2.7,4-6.2C19.8,2.7,16.6,0,11.9,0z M15.3,12.2c-1.4,0.9-2.8,1.9-2.9,3.7
		H9.8c0.1-2.5,1.8-3.7,3.4-4.9c1.4-1,2.9-2.1,2.9-3.9c0-2.1-1.8-3.5-4.6-3.5C9.9,3.5,8.3,4,7.1,4.8L6.3,2.6C7.8,1.6,9.7,1,11.9,1
		c4.2,0,6.9,2.3,6.9,5.8C18.8,9.8,17,11,15.3,12.2z"/>
	<path d="M11,18.1c-1.7,0-3,1.3-3,3c0,1.7,1.3,3,3,3s3-1.3,3-3C14,19.4,12.7,18.1,11,18.1z M11,23.1c-1.2,0-2-0.8-2-2
		c0-1.2,0.8-2,2-2s2,0.8,2,2C13,22.3,12.2,23.1,11,23.1z"/>
</g>
</svg>
