<?xml version="1.0" encoding="utf-8"?>
<!-- Generator: Adobe Illustrator 22.0.1, SVG Export Plug-In . SVG Version: 6.00 Build 0)  -->
<svg version="1.1" id="Icon_build" xmlns="http://www.w3.org/2000/svg" xmlns:xlink="http://www.w3.org/1999/xlink" x="0px" y="0px"
	 width="24px" height="24px" viewBox="0 0 24 24" enable-background="new 0 0 24 24" xml:space="preserve">
<rect fill="none" width="24" height="24"/>
<path d="M16.1,9.6C16.1,9.6,16.1,9.6,16.1,9.6c0.2-0.2,0.3-0.3,0.5-0.5C17.7,8.1,19,6.8,19,4.6V1.5C19,1.2,18.8,1,18.5,1h-13
	C5.2,1,5,1.2,5,1.5v3.1c0,2.2,1.3,3.4,2.4,4.5c0.2,0.1,0.3,0.3,0.5,0.5c0.2,0.2,1.2,1.2,1.8,1.8c0,0,0.1,0.1,0.1,0.1
	C9.8,11.6,10,11.8,10,12c0,0.2-0.2,0.4-0.3,0.5c-0.6,0.6-1.6,1.6-1.8,1.8c-0.2,0.2-0.3,0.3-0.5,0.5C6.3,15.9,5,17.2,5,19.4v3.1
	C5,22.8,5.2,23,5.5,23h13c0.3,0,0.5-0.2,0.5-0.5v-3.1c0-2.2-1.3-3.4-2.4-4.5c-0.2-0.1-0.3-0.3-0.5-0.5c-0.2-0.2-1.2-1.2-1.8-1.8
	c0,0-0.1-0.1-0.1-0.1C14.2,12.4,14,12.2,14,12c0-0.2,0.2-0.4,0.3-0.5C14.9,10.8,15.9,9.9,16.1,9.6z M13.5,13.2
	c0.6,0.7,1.6,1.7,1.9,1.9c0.2,0.2,0.3,0.3,0.5,0.5c1.1,1.1,2.1,2.1,2.1,3.8V22H6v-2.6c0-1.8,1-2.8,2.1-3.8c0.2-0.2,0.3-0.3,0.5-0.4
	c0.3-0.2,1.3-1.3,1.9-1.9C10.6,13,11,12.6,11,12c0-0.6-0.4-1-0.5-1.2c-0.6-0.6-1.6-1.6-1.9-1.9C8.5,8.8,8.3,8.6,8.1,8.5
	C7,7.4,6,6.4,6,4.6V2h12v2.6c0,1.8-1,2.8-2.1,3.8c-0.2,0.2-0.3,0.3-0.5,0.5c-0.3,0.3-1.3,1.3-1.9,1.9C13.4,11,13,11.4,13,12
	C13,12.6,13.4,13,13.5,13.2z"/>
</svg>
