<?xml version="1.0" encoding="utf-8"?>
<!-- Generator: Adobe Illustrator 22.0.1, SVG Export Plug-In . SVG Version: 6.00 Build 0)  -->
<svg version="1.1" id="Ebene_5" xmlns="http://www.w3.org/2000/svg" xmlns:xlink="http://www.w3.org/1999/xlink" x="0px" y="0px"
	 width="24px" height="24px" viewBox="0 0 24 24" enable-background="new 0 0 24 24" xml:space="preserve">
<rect fill="none" width="24" height="24"/>
<g>
	<path d="M23.5,18c-0.8,0-1.6-0.2-2.3-0.7c-0.1,0-0.1-0.1-0.2-0.1V13h1.5c0.2,0,0.4-0.1,0.5-0.3s0.1-0.4-0.1-0.5l-10.5-12
		C12.3,0.1,12.1,0,12,0c0,0,0,0,0,0c-0.1,0-0.3,0.1-0.4,0.2L8,4.2V3.5C8,3.2,7.8,3,7.5,3h-3C4.2,3,4,3.2,4,3.5v4.8l-2.9,3.9
		c-0.1,0.2-0.1,0.4,0,0.5S1.3,13,1.5,13H3v4.2c-0.1,0-0.1,0.1-0.2,0.1C2.1,17.8,1.3,18,0.5,18C0.2,18,0,18.2,0,18.5S0.2,19,0.5,19
		c1,0,2-0.3,2.9-0.9c1.7,1.2,4,1.2,5.8,0c1.7,1.2,4,1.2,5.8,0c1.7,1.2,4,1.2,5.8,0c0.9,0.6,1.8,0.9,2.9,0.9c0.3,0,0.5-0.2,0.5-0.5
		S23.8,18,23.5,18z M15.4,17.3c-0.1-0.1-0.2-0.1-0.2-0.2c-0.2-0.1-0.4-0.1-0.6,0c-0.1,0.1-0.2,0.1-0.2,0.2c-1.4,0.9-3.3,0.9-4.6,0
		c-0.1-0.1-0.2-0.1-0.2-0.2C9.3,17,9,17,8.8,17.1c-0.1,0.1-0.2,0.1-0.2,0.2c-1.4,0.9-3.2,0.9-4.6,0v-4.8C4,12.2,3.8,12,3.5,12h-1
		l2.4-3.2C5,8.7,5,8.6,5,8.5V4h2v1.5C7,5.7,7.1,5.9,7.3,6C7.5,6,7.7,6,7.9,5.8L12,1.3L21.4,12h-0.9c-0.3,0-0.5,0.2-0.5,0.5v4.8
		C18.6,18.2,16.8,18.2,15.4,17.3z"/>
	<path d="M20.3,20.1c-0.1,0.1-0.2,0.1-0.2,0.2c-1.4,0.9-3.3,0.9-4.6,0c-0.1-0.1-0.2-0.1-0.2-0.2c-0.2-0.1-0.4-0.1-0.6,0
		c-0.1,0.1-0.2,0.1-0.2,0.2c-1.4,0.9-3.3,0.9-4.6,0c-0.1-0.1-0.2-0.1-0.2-0.2C9.3,20,9,20,8.8,20.1c-0.1,0.1-0.2,0.1-0.2,0.2
		c-1.4,0.9-3.3,0.9-4.6,0c-0.1-0.1-0.2-0.1-0.2-0.2C3.5,19.9,3.2,20,3,20.2c-0.2,0.2-0.1,0.5,0.1,0.7c0.1,0.1,0.2,0.2,0.3,0.2
		c1.7,1.2,4,1.2,5.8,0c1.7,1.2,4,1.2,5.8,0c0.9,0.6,1.8,0.9,2.9,0.9c1,0,2-0.3,2.9-0.9c0.1-0.1,0.2-0.1,0.3-0.2
		c0.2-0.2,0.3-0.5,0.1-0.7C20.8,20,20.5,19.9,20.3,20.1z"/>
</g>
</svg>
