<?xml version="1.0" encoding="utf-8"?>
<!-- Generator: Adobe Illustrator 22.0.1, SVG Export Plug-In . SVG Version: 6.00 Build 0)  -->
<svg version="1.1" id="Ebene_5" xmlns="http://www.w3.org/2000/svg" xmlns:xlink="http://www.w3.org/1999/xlink" x="0px" y="0px"
	 width="24px" height="24px" viewBox="0 0 24 24" enable-background="new 0 0 24 24" xml:space="preserve">
<rect fill="none" width="24" height="24"/>
<g>
	<path d="M22.9,12.2l-10.5-12C12.3,0.1,12.1,0,12,0c-0.1,0-0.3,0.1-0.4,0.2L8,4.2V3.5C8,3.2,7.8,3,7.5,3h-3C4.2,3,4,3.2,4,3.5v4.8
		l-2.9,3.9c-0.1,0.2-0.1,0.4,0,0.5S1.3,13,1.5,13H3v9.5C3,22.8,3.2,23,3.5,23h17c0.3,0,0.5-0.2,0.5-0.5V13h1.5
		c0.2,0,0.4-0.1,0.5-0.3S23,12.3,22.9,12.2z M20.5,12c-0.3,0-0.5,0.2-0.5,0.5V22H4v-9.5C4,12.2,3.8,12,3.5,12h-1l2.4-3.2
		C5,8.7,5,8.6,5,8.5V4h2v1.5C7,5.7,7.1,5.9,7.3,6C7.5,6,7.7,6,7.9,5.8L12,1.3L21.4,12H20.5z"/>
	<path d="M8.3,14H7.5C7.2,14,7,14.2,7,14.5S7.2,15,7.5,15h0.5C8,15.2,8,15.3,8,15.5s0,0.3,0.1,0.5H7.5C7.2,16,7,16.2,7,16.5
		S7.2,17,7.5,17h0.8c0.6,1.7,2.3,3,4.2,3c0.6,0,1.1-0.1,1.6-0.3c0.3-0.1,0.4-0.4,0.3-0.6c-0.1-0.3-0.4-0.4-0.6-0.3
		c-0.4,0.2-0.8,0.2-1.3,0.2c-1.4,0-2.6-0.8-3.1-2h2.1c0.3,0,0.5-0.2,0.5-0.5S11.8,16,11.5,16H9.1C9,15.8,9,15.7,9,15.5
		s0-0.3,0.1-0.5h3.4c0.3,0,0.5-0.2,0.5-0.5S12.8,14,12.5,14H9.4c0.6-1.2,1.8-2,3.1-2c0.5,0,0.9,0.1,1.4,0.3c0.3,0.1,0.5,0,0.7-0.3
		c0.1-0.3,0-0.5-0.3-0.7c-0.6-0.2-1.1-0.4-1.8-0.4C10.5,11,8.9,12.3,8.3,14z"/>
</g>
</svg>
