<?xml version="1.0" encoding="utf-8"?>
<!-- Generator: Adobe Illustrator 22.0.1, SVG Export Plug-In . SVG Version: 6.00 Build 0)  -->
<svg version="1.1" id="Icon_build" xmlns="http://www.w3.org/2000/svg" xmlns:xlink="http://www.w3.org/1999/xlink" x="0px" y="0px"
	 width="24px" height="24px" viewBox="0 0 24 24" enable-background="new 0 0 24 24" xml:space="preserve">
<rect fill="none" width="24" height="24"/>
<g>
	<g>
		<path d="M20.5,23h-6c-0.3,0-0.5-0.2-0.5-0.5V16h-4v6.5c0,0.3-0.2,0.5-0.5,0.5h-6C3.2,23,3,22.8,3,22.5V13H1.5
			c-0.2,0-0.4-0.1-0.4-0.3s-0.1-0.4,0-0.5L4,8.3V3.5C4,3.2,4.2,3,4.5,3h3C7.8,3,8,3.2,8,3.5v0.7l3.6-4C11.7,0.1,11.9,0,12,0
			c0.1,0,0.3,0.1,0.4,0.2l10.5,12c0.1,0.1,0.2,0.4,0.1,0.5S22.7,13,22.5,13H21v9.5C21,22.8,20.8,23,20.5,23z M15,22h5v-9.5
			c0-0.3,0.2-0.5,0.5-0.5h0.9L12,1.3L7.9,5.8C7.7,6,7.5,6,7.3,6C7.1,5.9,7,5.7,7,5.5V4H5v4.5c0,0.1,0,0.2-0.1,0.3L2.5,12h1
			C3.8,12,4,12.2,4,12.5V22h5v-6.5C9,15.2,9.2,15,9.5,15h5c0.3,0,0.5,0.2,0.5,0.5V22z"/>
	</g>
</g>
</svg>
