<?xml version="1.0" encoding="utf-8"?>
<!-- Generator: Adobe Illustrator 22.0.1, SVG Export Plug-In . SVG Version: 6.00 Build 0)  -->
<svg version="1.1" id="Ebene_5" xmlns="http://www.w3.org/2000/svg" xmlns:xlink="http://www.w3.org/1999/xlink" x="0px" y="0px"
	 width="24px" height="24px" viewBox="0 0 24 24" enable-background="new 0 0 24 24" xml:space="preserve">
<rect fill="none" width="24" height="24"/>
<g>
	<path d="M6.1,19.2c-0.1,0.2-0.1,0.3,0,0.5C6.2,19.9,6.3,20,6.5,20h11c0.2,0,0.3-0.1,0.4-0.3c0.1-0.2,0.1-0.4,0-0.5l-5.5-9
		c-0.2-0.3-0.7-0.3-0.9,0L6.1,19.2z M16.6,19H7.4l4.6-7.5L16.6,19z"/>
	<path d="M12,16c0.3,0,0.5-0.2,0.5-0.5V14c0-0.3-0.2-0.5-0.5-0.5s-0.5,0.2-0.5,0.5v1.5C11.5,15.8,11.7,16,12,16z"/>
	<circle cx="12" cy="17.5" r="0.5"/>
	<path d="M22.9,12.2l-10.5-12C12.3,0.1,12.1,0,12,0c0,0,0,0,0,0c-0.1,0-0.3,0.1-0.4,0.2L8,4.2V3.5C8,3.2,7.8,3,7.5,3h-3
		C4.2,3,4,3.2,4,3.5v4.8l-2.9,3.9c-0.1,0.2-0.1,0.4,0,0.5S1.3,13,1.5,13H3v9.5C3,22.8,3.2,23,3.5,23h17c0.3,0,0.5-0.2,0.5-0.5V13
		h1.5c0.2,0,0.4-0.1,0.5-0.3S23,12.3,22.9,12.2z M20.5,12c-0.3,0-0.5,0.2-0.5,0.5V22H4v-9.5C4,12.2,3.8,12,3.5,12h-1l2.4-3.2
		C5,8.7,5,8.6,5,8.5V4h2v1.5C7,5.7,7.1,5.9,7.3,6C7.5,6,7.7,6,7.9,5.8L12,1.3L21.4,12H20.5z"/>
</g>
</svg>
