<?xml version="1.0" encoding="utf-8"?>
<!-- Generator: Adobe Illustrator 22.0.1, SVG Export Plug-In . SVG Version: 6.00 Build 0)  -->
<svg version="1.1" id="Icon_build" xmlns="http://www.w3.org/2000/svg" xmlns:xlink="http://www.w3.org/1999/xlink" x="0px" y="0px"
	 width="24px" height="24px" viewBox="0 0 24 24" enable-background="new 0 0 24 24" xml:space="preserve">
<rect fill="none" width="24" height="24"/>
<path d="M22.9,12.2l-10.5-12C12.3,0.1,12.1,0,12,0c0,0,0,0,0,0c-0.1,0-0.3,0.1-0.4,0.2L8,4.2V3.5C8,3.2,7.8,3,7.5,3h-3
	C4.2,3,4,3.2,4,3.5v4.8l-2.9,3.9c-0.1,0.2-0.1,0.4,0,0.5S1.3,13,1.5,13H3v9.5C3,22.8,3.2,23,3.5,23h17c0.3,0,0.5-0.2,0.5-0.5V13h1.5
	c0.2,0,0.4-0.1,0.5-0.3S23,12.3,22.9,12.2z M12.7,13.2c0.1,0.1,0.2,0.3,0.4,0.5c0.1,0.2,0.2,0.5,0.3,0.8c0.1,0.5,0.3,1.2,0.9,1.2
	c0,0,0,0,0,0c0.6,0,0.7-0.6,0.7-0.9c0-0.1,0-0.2,0-0.2c0-0.1,0.1-0.1,0.1-0.2c0,0.2,0,0.5,0,0.8c0,0.6,0.3,1.2,0.6,1.8
	c0.3,0.7,0.7,1.4,0.7,2.2c0,1.9-1.4,2.5-2.2,2.6c0.2-0.5,0.5-1.4,0.5-2.1c0-0.1,0-0.3,0-0.4c0.1-0.9,0.1-1.4-0.2-1.8
	c-0.1-0.2-0.3-0.2-0.5-0.3c0,0,0,0,0,0c-0.3,0-0.5,0.3-0.6,0.8c0,0,0,0.1,0,0.1c0-0.4-0.1-0.8-0.2-1.2c-0.2-1-0.6-1.6-0.9-1.8
	c-0.2-0.1-0.4-0.1-0.6,0c-0.5,0.2-0.5,0.7-0.5,1.1c0,0.2,0,0.4,0,0.6c-0.1,0.4-0.4,0.7-0.8,1.1c-0.5,0.5-1.1,1-1.3,1.9
	c-0.2,0.8,0,1.5,0.2,2c-0.8-0.2-2-1-2-3c0-1.4,0.5-2.6,0.8-3.3c0,0,0.1,0.1,0.1,0.1c0.6,0.8,1,0.7,1.2,0.5c0.4-0.3,0.5-0.9,0.6-1.7
	c0.1-0.7,0.2-1.5,0.5-2.1c0.3-0.7,0.8-1.3,1.2-1.7c0,0.3,0,0.6,0,0.8C11.9,12.2,12.2,12.6,12.7,13.2z M10.7,21.9
	c0,0-0.7-0.7-0.5-1.8c0.1-0.6,0.6-1,1-1.4c0.5-0.4,1-0.9,1.1-1.6c0,0.1,0,0.1,0.1,0.2c0.2,0.8,0.2,2,0.2,2.1c0,0.2,0.1,0.4,0.2,0.5
	c0.2,0.2,0.5,0.2,0.7,0c0,0,0.2-0.1,0.4-0.3c0,0,0,0.1,0,0.1c-0.1,0.9-0.5,2-0.6,2.2h-2.5C10.7,22,10.7,21.9,10.7,21.9z M20.5,12
	c-0.3,0-0.5,0.2-0.5,0.5V22h-3.6c0.6-0.6,1.1-1.4,1.1-2.7c0-1.1-0.4-1.9-0.8-2.7c-0.3-0.5-0.5-1-0.5-1.4c0-0.7,0-1.2,0-1.5
	c0-0.3,0-0.5-0.2-0.7c-0.1-0.1-0.3-0.1-0.5,0c-0.1,0-0.8,0.4-1.2,1c-0.1-0.3-0.2-0.6-0.4-0.9c-0.1-0.2-0.3-0.4-0.4-0.6
	c-0.4-0.5-0.5-0.7-0.6-1.2c0-0.5,0-1.1,0.1-1.4c0-0.4,0-0.5,0-0.6C12.9,9.1,12.7,9,12.5,9c0,0,0,0,0,0c-0.5,0-2,1.4-2.7,2.9
	c-0.4,0.8-0.5,1.7-0.6,2.5c0,0.2,0,0.4-0.1,0.6c-0.1-0.1-0.2-0.3-0.2-0.5C8.8,14.2,8.7,14,8.4,14C8.2,14,8.1,14,8,14.2
	c-0.1,0.1-1.5,2.1-1.5,4.7c0,1.6,0.5,2.5,1.2,3.2H4v-9.5C4,12.2,3.8,12,3.5,12h-1l2.4-3.2C5,8.7,5,8.6,5,8.5V4h2v1.5
	C7,5.7,7.1,5.9,7.3,6C7.5,6,7.7,6,7.9,5.8L12,1.3L21.4,12H20.5z"/>
</svg>
