<?xml version="1.0" encoding="utf-8"?>
<!-- Generator: Adobe Illustrator 22.0.1, SVG Export Plug-In . SVG Version: 6.00 Build 0)  -->
<svg version="1.1" id="Icon_build" xmlns="http://www.w3.org/2000/svg" xmlns:xlink="http://www.w3.org/1999/xlink" x="0px" y="0px"
	 width="24px" height="24px" viewBox="0 0 24 24" enable-background="new 0 0 24 24" xml:space="preserve">
<rect fill="none" width="24" height="24"/>
<g>
	<path d="M10.8,14h2.5c0.3,0,0.5-0.2,0.5-0.5l0.2-8c0-0.1,0-0.3-0.1-0.4C13.8,5.1,13.6,5,13.5,5h-3c-0.1,0-0.3,0.1-0.4,0.2
		C10,5.2,10,5.4,10,5.5l0.2,8C10.3,13.8,10.5,14,10.8,14z M13,6l-0.2,7h-1.5L11,6H13z"/>
	<path d="M12,15c-1.1,0-2,0.9-2,2s0.9,2,2,2s2-0.9,2-2S13.1,15,12,15z M12,18c-0.6,0-1-0.4-1-1s0.4-1,1-1s1,0.4,1,1S12.6,18,12,18z"
		/>
	<path d="M24,12c0-0.2-0.1-0.3-0.2-0.4l-2.4-1.8l1.4-2.7c0.1-0.1,0.1-0.3,0-0.5c-0.1-0.1-0.2-0.2-0.4-0.3l-2.9-0.5l0.1-3.1
		c0-0.2-0.1-0.3-0.2-0.4c-0.1-0.1-0.3-0.1-0.4-0.1l-2.9,0.8L15,0.3C15,0.2,14.8,0,14.7,0c-0.2,0-0.3,0-0.4,0.1l-2.2,2l-2.2-2
		C9.7,0,9.5,0,9.3,0C9.2,0,9,0.2,9,0.3L7.8,3.1L5,2.3c-0.2,0-0.3,0-0.4,0.1C4.4,2.5,4.3,2.6,4.3,2.8l0.1,3.1L1.5,6.4
		c-0.2,0-0.3,0.1-0.4,0.3C1.1,6.8,1.1,7,1.2,7.1l1.4,2.7l-2.4,1.8C0.1,11.7,0,11.8,0,12s0.1,0.3,0.2,0.4l2.4,1.8l-1.4,2.7
		c-0.1,0.1-0.1,0.3,0,0.5c0.1,0.1,0.2,0.2,0.4,0.3l2.9,0.5l-0.1,3.1c0,0.2,0.1,0.3,0.2,0.4c0.1,0.1,0.3,0.1,0.4,0.1l2.8-0.8L9,23.7
		C9,23.8,9.2,24,9.3,24c0.2,0,0.3,0,0.4-0.1l2.2-2l2.2,2c0.1,0.1,0.2,0.1,0.3,0.1c0,0,0.1,0,0.1,0c0.2,0,0.3-0.1,0.4-0.3l1.2-2.8
		l2.9,0.8c0.2,0,0.3,0,0.4-0.1c0.1-0.1,0.2-0.3,0.2-0.4l-0.1-3.1l2.9-0.5c0.2,0,0.3-0.1,0.4-0.3c0.1-0.1,0.1-0.3,0-0.5l-1.4-2.7
		l2.4-1.8C23.9,12.3,24,12.2,24,12z M20.4,13.6c-0.2,0.1-0.3,0.4-0.1,0.6l1.3,2.5l-2.7,0.5c-0.2,0-0.4,0.3-0.4,0.5l0.1,2.8L16,19.8
		c-0.2-0.1-0.5,0.1-0.6,0.3l-1.1,2.6l-2-1.8c-0.2-0.2-0.5-0.2-0.7,0l-2,1.8l-1.1-2.6c-0.1-0.2-0.3-0.3-0.5-0.3c0,0-0.1,0-0.1,0
		l-2.6,0.7l0.1-2.8c0-0.2-0.2-0.5-0.4-0.5l-2.7-0.5l1.3-2.5c0.1-0.2,0.1-0.5-0.1-0.6L1.3,12l2.2-1.6c0.2-0.1,0.3-0.4,0.1-0.6
		L2.4,7.2l2.7-0.5c0.2,0,0.4-0.3,0.4-0.5L5.4,3.4L8,4.2c0.2,0.1,0.5-0.1,0.6-0.3l1.1-2.6l2,1.8c0.2,0.2,0.5,0.2,0.7,0l2-1.8l1.1,2.6
		c0.1,0.2,0.4,0.4,0.6,0.3l2.6-0.7l-0.1,2.8c0,0.2,0.2,0.5,0.4,0.5l2.7,0.5l-1.3,2.5c-0.1,0.2-0.1,0.5,0.1,0.6l2.2,1.6L20.4,13.6z"
		/>
</g>
</svg>
