<?xml version="1.0" encoding="utf-8"?>
<!-- Generator: Adobe Illustrator 22.0.1, SVG Export Plug-In . SVG Version: 6.00 Build 0)  -->
<svg version="1.1" id="Icon_build" xmlns="http://www.w3.org/2000/svg" xmlns:xlink="http://www.w3.org/1999/xlink" x="0px" y="0px"
	 width="24px" height="24px" viewBox="0 0 24 24" enable-background="new 0 0 24 24" xml:space="preserve">
<rect fill="none" width="24" height="24"/>
<g>
	<path d="M18.1,12L21,9.1c0.8-0.8,1.3-1.9,1.3-3c0-1.2-0.4-2.2-1.3-3c-0.8-0.8-1.9-1.3-3-1.3s-2.2,0.4-3,1.3L12,5.9L9.1,3
		c-0.8-0.8-1.9-1.3-3-1.3C4.9,1.8,3.8,2.2,3,3c-0.8,0.8-1.3,1.9-1.3,3c0,1.1,0.4,2.2,1.3,3L5.9,12L3,14.9c-0.8,0.8-1.3,1.9-1.3,3
		s0.4,2.2,1.3,3c0.8,0.8,1.9,1.3,3,1.3s2.2-0.4,3-1.3l2.9-2.9l2.9,2.9c0.8,0.8,1.9,1.3,3,1.3c1.1,0,2.2-0.4,3-1.3
		c1.7-1.7,1.7-4.4,0-6.1L18.1,12z M15.6,3.7c1.2-1.2,3.4-1.2,4.7,0c0.6,0.6,1,1.5,1,2.3c0,0.9-0.3,1.7-1,2.3l-2.9,2.9l-4.7-4.7
		L15.6,3.7z M3.7,8.4c-0.6-0.6-1-1.5-1-2.3c0-0.9,0.3-1.7,1-2.3c0.6-0.6,1.5-1,2.3-1c0.9,0,1.7,0.3,2.3,1l2.9,2.9l-4.7,4.7L3.7,8.4z
		 M8.4,20.3c-1.2,1.2-3.4,1.2-4.7,0c-0.6-0.6-1-1.5-1-2.3s0.3-1.7,1-2.3l2.9-2.9l4.7,4.7L8.4,20.3z M7.3,12L12,7.3l4.7,4.7L12,16.7
		L7.3,12z M20.3,20.3c-1.2,1.2-3.4,1.2-4.7,0l-2.9-2.9l4.7-4.7l2.9,2.9C21.6,16.9,21.6,19,20.3,20.3z"/>
	<path d="M9.9,11.6c-0.2,0.2-0.2,0.6,0,0.8c0.2,0.2,0.6,0.2,0.8,0c0.2-0.2,0.2-0.6,0-0.8C10.4,11.4,10.1,11.4,9.9,11.6z"/>
	<path d="M11.6,13.3c-0.2,0.2-0.2,0.6,0,0.8c0.2,0.2,0.6,0.2,0.8,0c0.2-0.2,0.2-0.6,0-0.8C12.2,13.1,11.9,13.1,11.6,13.3z"/>
	<path d="M12.4,10.7c0.2-0.2,0.2-0.6,0-0.8c-0.2-0.2-0.6-0.2-0.8,0c-0.2,0.2-0.2,0.6,0,0.8C11.8,10.9,12.2,10.9,12.4,10.7z"/>
	<path d="M14.1,11.7c-0.2-0.2-0.6-0.2-0.8,0c-0.2,0.2-0.2,0.6,0,0.8c0.2,0.2,0.6,0.2,0.8,0C14.3,12.2,14.3,11.9,14.1,11.7z"/>
</g>
</svg>
