<?xml version="1.0" encoding="utf-8"?>
<!-- Generator: Adobe Illustrator 22.0.1, SVG Export Plug-In . SVG Version: 6.00 Build 0)  -->
<svg version="1.1" id="Ebene_5" xmlns="http://www.w3.org/2000/svg" xmlns:xlink="http://www.w3.org/1999/xlink" x="0px" y="0px"
	 width="24px" height="24px" viewBox="0 0 24 24" enable-background="new 0 0 24 24" xml:space="preserve">
<rect fill="none" width="24" height="24"/>
<path d="M23.9,17.2c0,0-0.1-0.1-0.1-0.1c0,0,0,0,0,0l-4-3c-0.2-0.2-0.5-0.1-0.7,0.1c-0.2,0.2-0.1,0.5,0.1,0.7L22,17
	c-1.3,0-3.2,0-5.5,0c-1.8,0-3-0.7-3.6-1.7c-0.2-0.4-0.2-0.8-0.3-1.2c-0.1-0.6-0.1-1.2-0.8-1.9c-0.1-0.1-0.1-0.1-0.2-0.1
	c0.1,0,0.1-0.1,0.2-0.1c0.7-0.7,0.8-1.4,0.8-1.9c0-0.4,0.1-0.8,0.3-1.2C13.5,7.7,14.7,7,16.5,7c2.3-0.1,4.2,0,5.5,0l-2.8,2.1
	c-0.2,0.2-0.3,0.5-0.1,0.7c0.1,0.1,0.2,0.2,0.4,0.2c0.1,0,0.2,0,0.3-0.1l4-3c0,0,0,0,0,0c0,0,0.1-0.1,0.1-0.1c0,0,0,0,0,0
	c0-0.1,0-0.1,0-0.2s0-0.1,0-0.2c0,0,0,0,0,0c0,0-0.1-0.1-0.1-0.1c0,0,0,0,0,0l-4-3c-0.2-0.2-0.5-0.1-0.7,0.1
	c-0.2,0.2-0.1,0.5,0.1,0.7L22,6c-1.3,0-3.2,0-5.5,0c-2.9,0.1-4,1.5-4.4,2.3c-0.3,0.6-0.3,1.1-0.4,1.5c0,0.5-0.1,0.9-0.5,1.3
	c-0.2,0.2-0.5,0.3-0.7,0.4H7.9C7.7,9.5,6,8,4,8c-2.2,0-4,1.8-4,4c0,2.2,1.8,4,4,4c2,0,3.7-1.5,3.9-3.5h2.5c0.2,0.1,0.6,0.2,0.7,0.4
	c0.4,0.4,0.5,0.8,0.5,1.3c0,0.4,0.1,0.9,0.4,1.5c0.4,0.8,1.5,2.2,4.4,2.3c1.1,0,2.1,0,3,0c1,0,1.8,0,2.5,0l-2.8,2.1
	c-0.2,0.2-0.3,0.5-0.1,0.7c0.1,0.1,0.2,0.2,0.4,0.2c0.1,0,0.2,0,0.3-0.1l4-3c0,0,0,0,0,0c0,0,0.1-0.1,0.1-0.1c0,0,0,0,0-0.1
	c0-0.1,0-0.1,0-0.2S24,17.4,23.9,17.2C23.9,17.3,23.9,17.3,23.9,17.2z M4,15c-1.7,0-3-1.3-3-3s1.3-3,3-3s3,1.3,3,3S5.7,15,4,15z"/>
</svg>
