<?xml version="1.0" encoding="utf-8"?>
<!-- Generator: Adobe Illustrator 22.0.1, SVG Export Plug-In . SVG Version: 6.00 Build 0)  -->
<svg version="1.1" id="Icon_build" xmlns="http://www.w3.org/2000/svg" xmlns:xlink="http://www.w3.org/1999/xlink" x="0px" y="0px"
	 width="24px" height="24px" viewBox="0 0 24 24" enable-background="new 0 0 24 24" xml:space="preserve">
<rect fill="none" width="24" height="24"/>
<path d="M13.3,16.4c2-0.6,3-2.3,3-4c0-2.9-2.1-4-4-5.1c-1.6-0.9-3.2-1.7-3.2-3.5c0-1.6,1.3-2.9,3-2.9c1.1,0,2.1,0.4,2.8,1.1
	c0.2,0.2,0.5,0.2,0.7,0c0.2-0.2,0.2-0.5,0-0.7C14.8,0.5,13.6,0,12.1,0c-2.3,0-4,1.7-4,3.9c0,1.9,1.2,2.9,2.5,3.7c-2,0.6-3,2.3-3,4
	c0,2.9,2.1,4,4,5.1c1.6,0.9,3.2,1.7,3.2,3.5c0,1.6-1.3,2.9-3,2.9c-1.2,0-2.1-0.4-2.8-1.1c-0.2-0.2-0.5-0.2-0.7,0
	c-0.2,0.2-0.2,0.5,0,0.7c0.9,0.9,2.1,1.4,3.5,1.4c2.3,0,4-1.7,4-3.9C15.9,18.3,14.7,17.2,13.3,16.4z M8.7,11.6
	c0-1.5,0.9-3.2,3.4-3.2c1.7,0.9,3.2,1.8,3.2,4c0,1.5-0.9,3.2-3.4,3.2C10.2,14.7,8.7,13.8,8.7,11.6z"/>
</svg>
