<?xml version="1.0" encoding="utf-8"?>
<!-- Generator: Adobe Illustrator 22.0.1, SVG Export Plug-In . SVG Version: 6.00 Build 0)  -->
<svg version="1.1" id="Icon_build" xmlns="http://www.w3.org/2000/svg" xmlns:xlink="http://www.w3.org/1999/xlink" x="0px" y="0px"
	 width="24px" height="24px" viewBox="0 0 24 24" enable-background="new 0 0 24 24" xml:space="preserve">
<rect fill="none" width="24" height="24"/>
<g>
	<path d="M12,0C7.3,0,3.5,3.8,3.5,8.5c0,2.8,1.4,5.4,3.6,7c0,0,0,0,0,0c0.8,0.8,0.9,2,0.9,2C8,17.8,8.2,18,8.5,18h7
		c0.3,0,0.5-0.2,0.5-0.5c0,0,0-1.2,0.9-2c0,0,0,0,0,0c2.3-1.6,3.6-4.2,3.6-7C20.5,3.8,16.7,0,12,0z M16.2,14.7
		c-0.1,0-0.1,0.1-0.2,0.2c-0.7,0.7-0.9,1.6-1,2.1H9c-0.1-0.5-0.3-1.4-1-2.1c0-0.1-0.1-0.1-0.2-0.2C5.7,13.3,4.5,11,4.5,8.5
		C4.5,4.4,7.9,1,12,1s7.5,3.4,7.5,7.5C19.5,11,18.3,13.3,16.2,14.7z"/>
	<path d="M15.5,19h-7C8.2,19,8,19.2,8,19.5S8.2,20,8.5,20h7c0.3,0,0.5-0.2,0.5-0.5S15.8,19,15.5,19z"/>
	<path d="M15.5,21h-7C8.2,21,8,21.2,8,21.5S8.2,22,8.5,22h7c0.3,0,0.5-0.2,0.5-0.5S15.8,21,15.5,21z"/>
	<path d="M13.5,23h-3c-0.3,0-0.5,0.2-0.5,0.5s0.2,0.5,0.5,0.5h3c0.3,0,0.5-0.2,0.5-0.5S13.8,23,13.5,23z"/>
</g>
</svg>
