<?xml version="1.0" encoding="utf-8"?>
<!-- Generator: Adobe Illustrator 22.0.1, SVG Export Plug-In . SVG Version: 6.00 Build 0)  -->
<svg version="1.1" id="Icon_build" xmlns="http://www.w3.org/2000/svg" xmlns:xlink="http://www.w3.org/1999/xlink" x="0px" y="0px"
	 width="24px" height="24px" viewBox="0 0 24 24" enable-background="new 0 0 24 24" xml:space="preserve">
<rect fill="none" width="24" height="24"/>
<g>
	<path d="M12,4C9.2,4,7,6.2,7,9s2.2,5,5,5s5-2.2,5-5S14.8,4,12,4z M12,13c-2.2,0-4-1.8-4-4s1.8-4,4-4s4,1.8,4,4S14.2,13,12,13z"/>
	<path d="M12,0C7,0,3,4,3,9c0,4.7,7.5,13.7,8.4,14.7c0.2,0.2,0.4,0.3,0.6,0.3c0.2,0,0.5-0.1,0.6-0.3C13.5,22.7,21,13.6,21,9
		C21,4,17,0,12,0z M12,22.9C9.2,19.5,4,12.4,4,9c0-4.4,3.6-8,8-8s8,3.6,8,8C20,13.1,13,21.7,12,22.9z"/>
</g>
</svg>
