<?xml version="1.0" encoding="utf-8"?>
<!-- Generator: Adobe Illustrator 22.0.1, SVG Export Plug-In . SVG Version: 6.00 Build 0)  -->
<svg version="1.1" id="Icon_build" xmlns="http://www.w3.org/2000/svg" xmlns:xlink="http://www.w3.org/1999/xlink" x="0px" y="0px"
	 width="24px" height="24px" viewBox="0 0 24 24" enable-background="new 0 0 24 24" xml:space="preserve">
<rect fill="none" width="24" height="24"/>
<g>
	<path d="M18.5,8H18V5.5C18,2.3,15.5,0,12,0C8.5,0,6,2.3,6,5.5V8H5.5C4.1,8,3,9.1,3,10.5v10C3,21.9,4.1,23,5.5,23h13
		c1.4,0,2.5-1.1,2.5-2.5v-10C21,9.1,19.9,8,18.5,8z M7,5.5C7,2.8,9,1,12,1c3,0,5,1.8,5,4.5V8H7V5.5z M20,20.5c0,0.8-0.7,1.5-1.5,1.5
		h-13C4.7,22,4,21.3,4,20.5v-10C4,9.7,4.7,9,5.5,9h13c0.8,0,1.5,0.7,1.5,1.5V20.5z"/>
	<path d="M12,11c-1.7,0-3,1.3-3,3c0,1.1,0.6,2.1,1.5,2.6c0,0.6,0,1.9,0,1.9c0,0.8,0.7,1.5,1.5,1.5s1.5-0.7,1.5-1.5c0,0,0-1.3,0-1.9
		c0.9-0.5,1.5-1.5,1.5-2.6C15,12.3,13.7,11,12,11z M12.8,15.8c-0.3,0.1-0.3,0.1-0.3,2.7c0,0.3-0.2,0.5-0.5,0.5s-0.5-0.2-0.5-0.5
		c0-2.5,0-2.5-0.3-2.7c-0.7-0.3-1.2-1-1.2-1.8c0-1.1,0.9-2,2-2s2,0.9,2,2C14,14.8,13.5,15.5,12.8,15.8z"/>
</g>
</svg>
