<?xml version="1.0" encoding="utf-8"?>
<!-- Generator: Adobe Illustrator 22.0.1, SVG Export Plug-In . SVG Version: 6.00 Build 0)  -->
<svg version="1.1" id="Ebene_5" xmlns="http://www.w3.org/2000/svg" xmlns:xlink="http://www.w3.org/1999/xlink" x="0px" y="0px"
	 width="24px" height="24px" viewBox="0 0 24 24" enable-background="new 0 0 24 24" xml:space="preserve">
<rect fill="none" width="24" height="24"/>
<path d="M21.5,4h-19C1.7,4,1,4.7,1,5.5v13C1,19.3,1.7,20,2.5,20h19c0.8,0,1.5-0.7,1.5-1.5v-13C23,4.7,22.3,4,21.5,4z M2.5,5h19
	C21.8,5,22,5.2,22,5.5v1.7l-10,5.7L2,7.2V5.5C2,5.2,2.2,5,2.5,5z M21.5,19h-19C2.2,19,2,18.8,2,18.5V8.4l9.8,5.6
	c0.1,0,0.2,0.1,0.2,0.1s0.2,0,0.2-0.1L22,8.4v10.1C22,18.8,21.8,19,21.5,19z"/>
</svg>
