<?xml version="1.0" encoding="utf-8"?>
<!-- Generator: Adobe Illustrator 22.0.1, SVG Export Plug-In . SVG Version: 6.00 Build 0)  -->
<svg version="1.1" id="Ebene_5" xmlns="http://www.w3.org/2000/svg" xmlns:xlink="http://www.w3.org/1999/xlink" x="0px" y="0px"
	 width="24px" height="24px" viewBox="0 0 24 24" enable-background="new 0 0 24 24" xml:space="preserve">
<rect fill="none" width="24" height="24"/>
<g>
	<path d="M20.5,6H16V5.5C16,4.1,14.9,3,13.5,3h-3C9.1,3,8,4.1,8,5.5V6H3.5C2.1,6,1,7.1,1,8.5v10C1,19.9,2.1,21,3.5,21h17
		c1.4,0,2.5-1.1,2.5-2.5v-10C23,7.1,21.9,6,20.5,6z M9,5.5C9,4.7,9.7,4,10.5,4h3C14.3,4,15,4.7,15,5.5V6H9V5.5z M22,18.5
		c0,0.8-0.7,1.5-1.5,1.5h-17C2.7,20,2,19.3,2,18.5v-10C2,7.7,2.7,7,3.5,7h17C21.3,7,22,7.7,22,8.5V18.5z"/>
	<path d="M14.3,9.4C13.7,9.1,13.1,9,12.5,9c-2,0-3.6,1.3-4.2,3H7.5C7.2,12,7,12.2,7,12.5S7.2,13,7.5,13h0.5C8,13.2,8,13.3,8,13.5
		s0,0.3,0.1,0.5H7.5C7.2,14,7,14.2,7,14.5S7.2,15,7.5,15h0.8c0.6,1.7,2.3,3,4.2,3c0.6,0,1.1-0.1,1.6-0.3c0.3-0.1,0.4-0.4,0.3-0.6
		c-0.1-0.3-0.4-0.4-0.6-0.3c-0.4,0.2-0.8,0.2-1.3,0.2c-1.4,0-2.6-0.8-3.1-2h2.1c0.3,0,0.5-0.2,0.5-0.5S11.8,14,11.5,14H9.1
		C9,13.8,9,13.7,9,13.5s0-0.3,0.1-0.5h3.4c0.3,0,0.5-0.2,0.5-0.5S12.8,12,12.5,12H9.4c0.6-1.2,1.8-2,3.1-2c0.5,0,0.9,0.1,1.4,0.3
		c0.3,0.1,0.5,0,0.7-0.3C14.6,9.8,14.5,9.5,14.3,9.4z"/>
</g>
</svg>
