<?xml version="1.0" encoding="utf-8"?>
<!-- Generator: Adobe Illustrator 22.0.1, SVG Export Plug-In . SVG Version: 6.00 Build 0)  -->
<svg version="1.1" id="Ebene_5" xmlns="http://www.w3.org/2000/svg" xmlns:xlink="http://www.w3.org/1999/xlink" x="0px" y="0px"
	 width="24px" height="24px" viewBox="0 0 24 24" enable-background="new 0 0 24 24" xml:space="preserve">
<rect fill="none" width="24" height="24"/>
<g>
	<path d="M7,10c2,0,4-0.7,4-2c0-2.6-8-2.6-8,0C3,9.3,5,10,7,10z M7,7c1.9,0,3,0.6,3,1S8.9,9,7,9S4,8.4,4,8S5.1,7,7,7z"/>
	<path d="M7,12c2,0,4-0.7,4-2c0-0.3-0.2-0.5-0.5-0.5S10,9.7,10,10c0,0.4-1.1,1-3,1s-3-0.6-3-1c0-0.3-0.2-0.5-0.5-0.5S3,9.7,3,10
		C3,11.3,5,12,7,12z"/>
	<path d="M7,14c2,0,4-0.7,4-2c0-0.3-0.2-0.5-0.5-0.5S10,11.7,10,12c0,0.4-1.1,1-3,1s-3-0.6-3-1c0-0.3-0.2-0.5-0.5-0.5S3,11.7,3,12
		C3,13.3,5,14,7,14z"/>
	<path d="M7,16c2,0,4-0.7,4-2c0-0.3-0.2-0.5-0.5-0.5S10,13.7,10,14c0,0.4-1.1,1-3,1s-3-0.6-3-1c0-0.3-0.2-0.5-0.5-0.5S3,13.7,3,14
		C3,15.3,5,16,7,16z"/>
	<path d="M11,16c0-0.3-0.2-0.5-0.5-0.5S10,15.7,10,16c0,0.4-1.1,1-3,1s-3-0.6-3-1c0-0.3-0.2-0.5-0.5-0.5S3,15.7,3,16c0,1.3,2,2,4,2
		S11,17.3,11,16z"/>
	<path d="M13,12c0,1.3,2,2,4,2s4-0.7,4-2C21,9.4,13,9.4,13,12z M17,11c1.9,0,3,0.6,3,1s-1.1,1-3,1s-3-0.6-3-1S15.1,11,17,11z"/>
	<path d="M20.5,13.5c-0.3,0-0.5,0.2-0.5,0.5c0,0.4-1.1,1-3,1s-3-0.6-3-1c0-0.3-0.2-0.5-0.5-0.5S13,13.7,13,14c0,1.3,2,2,4,2
		s4-0.7,4-2C21,13.7,20.8,13.5,20.5,13.5z"/>
	<path d="M20.5,15.5c-0.3,0-0.5,0.2-0.5,0.5c0,0.4-1.1,1-3,1s-3-0.6-3-1c0-0.3-0.2-0.5-0.5-0.5S13,15.7,13,16c0,1.3,2,2,4,2
		s4-0.7,4-2C21,15.7,20.8,15.5,20.5,15.5z"/>
	<path d="M9.5,3h3.8l-1.1,1.1c-0.2,0.2-0.2,0.5,0,0.7C12.2,5,12.4,5,12.5,5s0.3,0,0.4-0.1l2-2c0.2-0.2,0.2-0.5,0-0.7l-2-2
		c-0.2-0.2-0.5-0.2-0.7,0s-0.2,0.5,0,0.7L13.3,2H9.5C9.2,2,9,2.2,9,2.5S9.2,3,9.5,3z"/>
	<path d="M14.5,21h-3.8l1.1-1.1c0.2-0.2,0.2-0.5,0-0.7s-0.5-0.2-0.7,0l-2,2c-0.2,0.2-0.2,0.5,0,0.7l2,2c0.1,0.1,0.2,0.1,0.4,0.1
		s0.3,0,0.4-0.1c0.2-0.2,0.2-0.5,0-0.7L10.7,22h3.8c0.3,0,0.5-0.2,0.5-0.5S14.8,21,14.5,21z"/>
</g>
</svg>
