<?xml version="1.0" encoding="utf-8"?>
<!-- Generator: Adobe Illustrator 22.0.1, SVG Export Plug-In . SVG Version: 6.00 Build 0)  -->
<svg version="1.1" id="Icon_build" xmlns="http://www.w3.org/2000/svg" xmlns:xlink="http://www.w3.org/1999/xlink" x="0px" y="0px"
	 width="24px" height="24px" viewBox="0 0 24 24" enable-background="new 0 0 24 24" xml:space="preserve">
<rect fill="none" width="24" height="24"/>
<g>
	<path d="M9.5,17c1.7,0,3-1.3,3-3s-1.3-3-3-3s-3,1.3-3,3S7.8,17,9.5,17z M9.5,12c1.1,0,2,0.9,2,2c0,1.1-0.9,2-2,2s-2-0.9-2-2
		C7.5,12.9,8.4,12,9.5,12z"/>
	<path d="M22.5,5h-18C4.2,5,4,5.2,4,5.5V7H2.5C2.2,7,2,7.2,2,7.5V9H0.5C0.2,9,0,9.2,0,9.5v9C0,18.8,0.2,19,0.5,19h18
		c0.3,0,0.5-0.2,0.5-0.5V17l1.5,0c0,0,0,0,0,0c0.1,0,0.3-0.1,0.4-0.1c0.1-0.1,0.1-0.2,0.1-0.4V15h1.5c0.3,0,0.5-0.2,0.5-0.5v-9
		C23,5.2,22.8,5,22.5,5z M18,18H1v-8h17V18z M20,16l-1,0V9.5C19,9.2,18.8,9,18.5,9H3V8h17V16z M22,14h-1V7.5C21,7.2,20.8,7,20.5,7H5
		V6h17V14z"/>
</g>
</svg>
