<?xml version="1.0" encoding="utf-8"?>
<!-- Generator: Adobe Illustrator 22.0.1, SVG Export Plug-In . SVG Version: 6.00 Build 0)  -->
<svg version="1.1" id="Icon_build" xmlns="http://www.w3.org/2000/svg" xmlns:xlink="http://www.w3.org/1999/xlink" x="0px" y="0px"
	 width="24px" height="24px" viewBox="0 0 24 24" enable-background="new 0 0 24 24" xml:space="preserve">
<rect fill="none" width="24" height="24"/>
<path d="M20.5,11.9c-0.4,0-0.8,0.1-1.2,0.2l-0.8-1.5c0.2,0,0.4-0.1,0.6-0.1l0.4,0c0,0,0,0,0.1,0c0.6,0.1,1.5,0.3,1.7,0.4
	c0.2,0.1,0.5,0,0.7-0.2s0-0.5-0.2-0.7c-0.4-0.2-1.2-0.4-1.7-0.5l0-1c0-0.2-0.1-0.3-0.2-0.4l-1.9-1.1l-1-1.8C16.8,5.1,16.6,5,16.5,5
	h-3.7c-0.3,0-0.5,0.2-0.5,0.5S12.5,6,12.7,6H15l0,1l-0.9,0c-0.1,0-0.2,0-0.3,0.1L12.4,8L6.2,7.5L5.6,6.9C5.5,6.8,5.3,6.7,5.2,6.7
	H4.1c-0.1,0-0.1,0-0.2,0L3.4,7L2.5,7C2.2,7,2,7.2,2,7.5v2C2,9.8,2.2,10,2.5,10h1.9L9,11.8L9,13l-2.3,0.8c-0.6-1.2-1.8-2-3.2-2
	c-2,0-3.6,1.6-3.6,3.6S1.5,19,3.5,19c2,0,3.6-1.6,3.6-3.6c0-0.2,0-0.4,0-0.5l0-0.1l2-0.7l0,1.3C9,15.7,9.2,16,9.5,16l5.5,0
	c0,0,0,0,0,0c0.2,0,0.4-0.1,0.5-0.3l2.1-4.8l0.9,1.6c-0.9,0.7-1.5,1.7-1.5,2.9c0,2,1.6,3.6,3.6,3.6c2,0,3.6-1.6,3.6-3.6
	S22.5,11.9,20.5,11.9z M3.5,18c-1.4,0-2.6-1.1-2.6-2.6s1.1-2.6,2.6-2.6c0.9,0,1.8,0.5,2.2,1.3L3.3,15c-0.3,0.1-0.4,0.4-0.3,0.6
	c0.1,0.3,0.4,0.4,0.6,0.3L6,15.1c0,0.1,0,0.2,0,0.3C6,16.9,4.9,18,3.5,18z M16.9,10.2c-0.1,0-0.1,0.1-0.1,0.2L14.7,15L10,15l0-3.5
	c0-0.2-0.1-0.4-0.3-0.5l-5-2C4.6,9,4.6,9,4.5,9H3V8l0.5,0c0.1,0,0.1,0,0.2,0l0.5-0.2H5l0.6,0.6c0.1,0.1,0.2,0.1,0.3,0.1L12.5,9
	c0.1,0,0.2,0,0.3-0.1L14.2,8l1.3,0c0.1,0,0.3-0.1,0.4-0.1C16,7.7,16,7.6,16,7.5L16,6h0.2l0.9,1.7c0,0.1,0.1,0.1,0.2,0.2L19,8.9
	l0,0.6C17.9,9.6,17,10,16.9,10.2z M20.5,18c-1.4,0-2.6-1.1-2.6-2.6c0-0.8,0.4-1.5,1-2l1.1,2.3c0.1,0.2,0.4,0.3,0.7,0.2
	c0.2-0.1,0.3-0.4,0.2-0.7L19.8,13c0.2-0.1,0.5-0.1,0.7-0.1c1.4,0,2.6,1.1,2.6,2.6S21.9,18,20.5,18z"/>
</svg>
