<?xml version="1.0" encoding="utf-8"?>
<!-- Generator: Adobe Illustrator 22.0.1, SVG Export Plug-In . SVG Version: 6.00 Build 0)  -->
<svg version="1.1" id="Ebene_5" xmlns="http://www.w3.org/2000/svg" xmlns:xlink="http://www.w3.org/1999/xlink" x="0px" y="0px"
	 width="24px" height="24px" viewBox="0 0 24 24" enable-background="new 0 0 24 24" xml:space="preserve">
<rect fill="none" width="24" height="24"/>
<g>
	<path d="M12,0C8.1,0,5,3.3,5,7.4v9.2c0,4.1,3.1,7.4,7,7.4s7-3.3,7-7.4V7.4C19,3.3,15.9,0,12,0z M18,16.6c0,3.5-2.7,6.4-6,6.4
		s-6-2.9-6-6.4V7.4C6,3.9,8.7,1,12,1s6,2.9,6,6.4V16.6z"/>
	<path d="M12,4c-0.8,0-1.5,0.8-1.5,1.8v2.5c0,1,0.7,1.8,1.5,1.8s1.5-0.8,1.5-1.8V5.8C13.5,4.8,12.8,4,12,4z M12.5,8.2
		C12.5,8.6,12.3,9,12,9s-0.5-0.4-0.5-0.8V5.8C11.5,5.4,11.7,5,12,5s0.5,0.4,0.5,0.8V8.2z"/>
</g>
</svg>
