<?xml version="1.0" encoding="utf-8"?>
<!-- Generator: Adobe Illustrator 22.0.1, SVG Export Plug-In . SVG Version: 6.00 Build 0)  -->
<svg version="1.1" id="Ebene_5" xmlns="http://www.w3.org/2000/svg" xmlns:xlink="http://www.w3.org/1999/xlink" x="0px" y="0px"
	 width="24px" height="24px" viewBox="0 0 24 24" enable-background="new 0 0 24 24" xml:space="preserve">
<rect fill="none" width="24" height="24"/>
<g>
	<path d="M19.5,1h-15C3.7,1,3,1.7,3,2.5v15c0,0.1,0,0.1,0,0.2c0,0.1,0.1,0.1,0.1,0.2l5,5c0,0,0.1,0.1,0.2,0.1c0.1,0,0.1,0,0.2,0h11
		c0.8,0,1.5-0.7,1.5-1.5v-19C21,1.7,20.3,1,19.5,1z M8,21.3L4.7,18H8V21.3z M20,21.5c0,0.3-0.2,0.5-0.5,0.5H9v-4.5
		C9,17.2,8.8,17,8.5,17H4V2.5C4,2.2,4.2,2,4.5,2h15C19.8,2,20,2.2,20,2.5V21.5z"/>
	<path d="M6.5,9h4C10.8,9,11,8.8,11,8.5v-4C11,4.2,10.8,4,10.5,4h-4C6.2,4,6,4.2,6,4.5v4C6,8.8,6.2,9,6.5,9z M7,5h3v3H7V5z"/>
	<path d="M11,11H6.5C6.2,11,6,11.2,6,11.5S6.2,12,6.5,12H11c0.3,0,0.5-0.2,0.5-0.5S11.3,11,11,11z"/>
	<path d="M11,13H6.5C6.2,13,6,13.2,6,13.5S6.2,14,6.5,14H11c0.3,0,0.5-0.2,0.5-0.5S11.3,13,11,13z"/>
	<path d="M17.5,11h-4c-0.3,0-0.5,0.2-0.5,0.5s0.2,0.5,0.5,0.5h4c0.3,0,0.5-0.2,0.5-0.5S17.8,11,17.5,11z"/>
	<path d="M17.5,13h-4c-0.3,0-0.5,0.2-0.5,0.5s0.2,0.5,0.5,0.5h4c0.3,0,0.5-0.2,0.5-0.5S17.8,13,17.5,13z"/>
	<path d="M17.5,4h-4C13.2,4,13,4.2,13,4.5S13.2,5,13.5,5h4C17.8,5,18,4.8,18,4.5S17.8,4,17.5,4z"/>
	<path d="M17.5,6h-4C13.2,6,13,6.2,13,6.5S13.2,7,13.5,7h4C17.8,7,18,6.8,18,6.5S17.8,6,17.5,6z"/>
	<path d="M17.5,8h-4C13.2,8,13,8.2,13,8.5S13.2,9,13.5,9h4C17.8,9,18,8.8,18,8.5S17.8,8,17.5,8z"/>
</g>
</svg>
