<?xml version="1.0" encoding="utf-8"?>
<!-- Generator: Adobe Illustrator 22.0.1, SVG Export Plug-In . SVG Version: 6.00 Build 0)  -->
<svg version="1.1" id="Icon_build" xmlns="http://www.w3.org/2000/svg" xmlns:xlink="http://www.w3.org/1999/xlink" x="0px" y="0px"
	 width="24px" height="24px" viewBox="0 0 24 24" enable-background="new 0 0 24 24" xml:space="preserve">
<rect fill="none" width="24" height="24"/>
<g>
	<path d="M19.5,1h-15C3.7,1,3,1.7,3,2.5V5H2.5C2.2,5,2,5.2,2,5.5S2.2,6,2.5,6H3v3H2.5C2.2,9,2,9.2,2,9.5S2.2,10,2.5,10H3v3H2.5
		C2.2,13,2,13.2,2,13.5S2.2,14,2.5,14H3v3H2.5C2.2,17,2,17.2,2,17.5S2.2,18,2.5,18H3v3.5C3,22.3,3.7,23,4.5,23h15
		c0.8,0,1.5-0.7,1.5-1.5v-19C21,1.7,20.3,1,19.5,1z M20,21.5c0,0.3-0.2,0.5-0.5,0.5h-15C4.2,22,4,21.8,4,21.5V18h1.5
		C5.8,18,6,17.8,6,17.5S5.8,17,5.5,17H4v-3h1.5C5.8,14,6,13.8,6,13.5S5.8,13,5.5,13H4v-3h1.5C5.8,10,6,9.8,6,9.5S5.8,9,5.5,9H4V6
		h1.5C5.8,6,6,5.8,6,5.5S5.8,5,5.5,5H4V2.5C4,2.2,4.2,2,4.5,2h15C19.8,2,20,2.2,20,2.5V21.5z"/>
	<path d="M16.5,5h-7C9.2,5,9,5.2,9,5.5S9.2,6,9.5,6h7C16.8,6,17,5.8,17,5.5S16.8,5,16.5,5z"/>
	<path d="M9.5,8h6C15.8,8,16,7.8,16,7.5S15.8,7,15.5,7h-6C9.2,7,9,7.2,9,7.5S9.2,8,9.5,8z"/>
	<path d="M16.5,9h-7C9.2,9,9,9.2,9,9.5S9.2,10,9.5,10h7c0.3,0,0.5-0.2,0.5-0.5S16.8,9,16.5,9z"/>
</g>
</svg>
