<?xml version="1.0" encoding="utf-8"?>
<!-- Generator: Adobe Illustrator 22.0.1, SVG Export Plug-In . SVG Version: 6.00 Build 0)  -->
<svg version="1.1" id="Ebene_5" xmlns="http://www.w3.org/2000/svg" xmlns:xlink="http://www.w3.org/1999/xlink" x="0px" y="0px"
	 width="24px" height="24px" viewBox="0 0 24 24" enable-background="new 0 0 24 24" xml:space="preserve">
<rect fill="none" width="24" height="24"/>
<path d="M22.5,10h-2c-0.3,0-0.5,0.2-0.5,0.5s0.2,0.5,0.5,0.5H21v2.5c0,0.8-0.7,1.5-1.5,1.5h-1.6c-0.2-1.1-1.2-2-2.4-2h-3v-1h3
	c0.7,0,1.3-0.3,1.7-0.8c0.4-0.5,0.6-1.1,0.4-1.8l-1.3-7.1C16.1,1.1,14.8,0,13.5,0h-3C9.2,0,7.9,1.1,7.7,2.4L6.4,9.4
	c-0.1,0.7,0,1.3,0.4,1.8c0.4,0.5,1,0.8,1.7,0.8h3v1h-3c-1.2,0-2.2,0.9-2.4,2H4.5C3.7,15,3,14.3,3,13.5V11h0.5C3.8,11,4,10.8,4,10.5
	S3.8,10,3.5,10h-2C1.2,10,1,10.2,1,10.5S1.2,11,1.5,11H2v2.5C2,14.9,3.1,16,4.5,16h1.6c0.2,1.1,1.2,2,2.4,2h3v2.1L5.4,22
	C5.1,22.1,5,22.3,5,22.5v1C5,23.8,5.2,24,5.5,24S6,23.8,6,23.5v-0.6l5.5-1.7v2.3c0,0.3,0.2,0.5,0.5,0.5s0.5-0.2,0.5-0.5v-2.3
	l5.5,1.7v0.6c0,0.3,0.2,0.5,0.5,0.5s0.5-0.2,0.5-0.5v-1c0-0.2-0.1-0.4-0.4-0.5l-6.1-1.9V18h3c1.2,0,2.2-0.9,2.4-2h1.6
	c1.4,0,2.5-1.1,2.5-2.5V11h0.5c0.3,0,0.5-0.2,0.5-0.5S22.8,10,22.5,10z M8.5,11c-0.4,0-0.7-0.1-0.9-0.4c-0.2-0.3-0.3-0.6-0.2-1
	l1.3-7.1C8.8,1.7,9.6,1,10.5,1h3c0.9,0,1.7,0.7,1.9,1.6l1.3,7.1c0.1,0.4,0,0.7-0.2,1c-0.2,0.3-0.5,0.4-0.9,0.4H8.5z M15.5,17h-7
	C7.7,17,7,16.3,7,15.5S7.7,14,8.5,14h7c0.8,0,1.5,0.7,1.5,1.5S16.3,17,15.5,17z"/>
</svg>
