<?xml version="1.0" encoding="utf-8"?>
<!-- Generator: Adobe Illustrator 22.0.1, SVG Export Plug-In . SVG Version: 6.00 Build 0)  -->
<svg version="1.1" id="Ebene_5" xmlns="http://www.w3.org/2000/svg" xmlns:xlink="http://www.w3.org/1999/xlink" x="0px" y="0px"
	 width="24px" height="24px" viewBox="0 0 24 24" enable-background="new 0 0 24 24" xml:space="preserve">
<rect fill="none" width="24" height="24"/>
<g>
	<path d="M13.5,10h-8C5.2,10,5,10.2,5,10.5S5.2,11,5.5,11h8c0.3,0,0.5-0.2,0.5-0.5S13.8,10,13.5,10z"/>
	<path d="M13.5,13h-8C5.2,13,5,13.2,5,13.5S5.2,14,5.5,14h8c0.3,0,0.5-0.2,0.5-0.5S13.8,13,13.5,13z"/>
	<path d="M13.5,16h-8C5.2,16,5,16.2,5,16.5S5.2,17,5.5,17h8c0.3,0,0.5-0.2,0.5-0.5S13.8,16,13.5,16z"/>
	<path d="M19.5,1h-10C8.7,1,8,1.7,8,2.5V7H4.5C3.7,7,3,7.7,3,8.5v13C3,22.3,3.7,23,4.5,23h10c0.8,0,1.5-0.7,1.5-1.5V17h3.5
		c0.8,0,1.5-0.7,1.5-1.5v-13C21,1.7,20.3,1,19.5,1z M15,21.5c0,0.3-0.2,0.5-0.5,0.5h-10C4.2,22,4,21.8,4,21.5v-13C4,8.2,4.2,8,4.5,8
		h10C14.8,8,15,8.2,15,8.5V21.5z M20,15.5c0,0.3-0.2,0.5-0.5,0.5H16v-5h2.5c0.3,0,0.5-0.2,0.5-0.5S18.8,10,18.5,10H16V8.5
		c0-0.2,0-0.3-0.1-0.5h2.6C18.8,8,19,7.8,19,7.5S18.8,7,18.5,7h-4H9V2.5C9,2.2,9.2,2,9.5,2h10C19.8,2,20,2.2,20,2.5V15.5z"/>
	<path d="M18.5,4h-8C10.2,4,10,4.2,10,4.5S10.2,5,10.5,5h8C18.8,5,19,4.8,19,4.5S18.8,4,18.5,4z"/>
</g>
</svg>
