<?xml version="1.0" encoding="utf-8"?>
<!-- Generator: Adobe Illustrator 22.0.1, SVG Export Plug-In . SVG Version: 6.00 Build 0)  -->
<svg version="1.1" id="Ebene_5" xmlns="http://www.w3.org/2000/svg" xmlns:xlink="http://www.w3.org/1999/xlink" x="0px" y="0px"
	 width="24px" height="24px" viewBox="0 0 24 24" enable-background="new 0 0 24 24" xml:space="preserve">
<rect fill="none" width="24" height="24"/>
<g>
	<path d="M19.5,1h-15C3.7,1,3,1.7,3,2.5v19C3,22.3,3.7,23,4.5,23h15c0.8,0,1.5-0.7,1.5-1.5v-19C21,1.7,20.3,1,19.5,1z M20,21.5
		c0,0.3-0.2,0.5-0.5,0.5h-15C4.2,22,4,21.8,4,21.5v-19C4,2.2,4.2,2,4.5,2h15C19.8,2,20,2.2,20,2.5V21.5z"/>
	<path d="M17.5,5h-11C6.2,5,6,5.2,6,5.5S6.2,6,6.5,6h11C17.8,6,18,5.8,18,5.5S17.8,5,17.5,5z"/>
	<path d="M17.5,8h-11C6.2,8,6,8.2,6,8.5S6.2,9,6.5,9h11C17.8,9,18,8.8,18,8.5S17.8,8,17.5,8z"/>
	<path d="M17.5,11h-11C6.2,11,6,11.2,6,11.5S6.2,12,6.5,12h11c0.3,0,0.5-0.2,0.5-0.5S17.8,11,17.5,11z"/>
	<path d="M17.5,14h-11C6.2,14,6,14.2,6,14.5S6.2,15,6.5,15h11c0.3,0,0.5-0.2,0.5-0.5S17.8,14,17.5,14z"/>
</g>
</svg>
