<?xml version="1.0" encoding="utf-8"?>
<!-- Generator: Adobe Illustrator 22.0.1, SVG Export Plug-In . SVG Version: 6.00 Build 0)  -->
<svg version="1.1" id="Ebene_5" xmlns="http://www.w3.org/2000/svg" xmlns:xlink="http://www.w3.org/1999/xlink" x="0px" y="0px"
	 width="24px" height="24px" viewBox="0 0 24 24" enable-background="new 0 0 24 24" xml:space="preserve">
<rect fill="none" width="24" height="24"/>
<g>
	<path d="M21,6.3c0-0.1-0.1-0.1-0.1-0.2l-5-5c0,0-0.1-0.1-0.2-0.1c-0.1,0-0.1,0-0.2,0h-11C3.7,1,3,1.7,3,2.5v19
		C3,22.3,3.7,23,4.5,23h15c0.8,0,1.5-0.7,1.5-1.5v-15C21,6.4,21,6.4,21,6.3z M16,2.7L19.3,6H16V2.7z M19.5,22h-15
		C4.2,22,4,21.8,4,21.5v-19C4,2.2,4.2,2,4.5,2H15v4.5C15,6.8,15.2,7,15.5,7H20v14.5C20,21.8,19.8,22,19.5,22z"/>
	<path d="M15,11.1v-0.6C15,8.3,13.9,7,12,7s-3,1.3-3,3.5v0.6c-1.1,0.2-2,1.2-2,2.4v4C7,18.9,8.1,20,9.5,20h5c1.4,0,2.5-1.1,2.5-2.5
		v-4C17,12.3,16.1,11.3,15,11.1z M12,8c1.3,0,2,0.9,2,2.5V11h-4v-0.5C10,8.9,10.7,8,12,8z M16,17.5c0,0.8-0.7,1.5-1.5,1.5h-5
		C8.7,19,8,18.3,8,17.5v-4C8,12.7,8.7,12,9.5,12h5c0.8,0,1.5,0.7,1.5,1.5V17.5z"/>
	<path d="M12,13c-1.1,0-2,0.9-2,2c0,0.9,0.6,1.7,1.5,1.9v0.6c0,0.3,0.2,0.5,0.5,0.5s0.5-0.2,0.5-0.5v-0.6c0.9-0.2,1.5-1,1.5-1.9
		C14,13.9,13.1,13,12,13z M12,16c-0.6,0-1-0.4-1-1s0.4-1,1-1s1,0.4,1,1S12.6,16,12,16z"/>
</g>
</svg>
