<?xml version="1.0" encoding="utf-8"?>
<!-- Generator: Adobe Illustrator 22.0.1, SVG Export Plug-In . SVG Version: 6.00 Build 0)  -->
<svg version="1.1" id="Ebene_5" xmlns="http://www.w3.org/2000/svg" xmlns:xlink="http://www.w3.org/1999/xlink" x="0px" y="0px"
	 width="24px" height="24px" viewBox="0 0 24 24" enable-background="new 0 0 24 24" xml:space="preserve">
<rect fill="none" width="24" height="24"/>
<g>
	<path d="M23.9,9.1l-6-6c-0.2-0.2-0.5-0.2-0.7,0l-3,3c-0.2,0.2-0.2,0.5,0,0.7L14.3,7l-2.6,1.1l-2.1-1l0.2-0.2c0.2-0.2,0.2-0.5,0-0.7
		l-3-3C6.7,3,6.3,3,6.1,3.1l-6,6C0,9.3,0,9.7,0.1,9.9l3,3C3.2,13,3.4,13,3.5,13s0.3,0,0.4-0.1l0.4-0.4l1.5,2.2
		c-0.2,0.2-0.3,0.5-0.3,0.8c0,0.4,0.1,0.8,0.4,1c0.2,0.2,0.6,0.4,0.9,0.4c0,0.3,0.1,0.6,0.4,0.9c0.2,0.2,0.6,0.4,0.9,0.4
		c0,0.3,0.1,0.6,0.4,0.9c0.2,0.3,0.6,0.4,0.9,0.4c0,0.3,0.1,0.6,0.4,0.9c0.3,0.3,0.6,0.4,1,0.4c0,0,0,0,0,0c0.2,0,0.4-0.1,0.6-0.2
		l0.9,0.4c0.1,0,0.1,0,0.2,0c0.9,0,1.3-0.5,1.4-1.1c0.3-0.1,0.5-0.2,0.7-0.4c0.3-0.3,0.4-0.6,0.5-1c0.4,0,0.7-0.2,1-0.4
		c0.3-0.3,0.4-0.6,0.5-1c0.4,0,0.7-0.2,1-0.4c0.2-0.2,0.4-0.5,0.5-0.9c0-0.3,0-0.6-0.1-0.9l1.9-2.5l0.4,0.4c0.1,0.1,0.2,0.1,0.4,0.1
		s0.3,0,0.4-0.1l3-3C24,9.7,24,9.3,23.9,9.1z M1.2,9.5l5.3-5.3l2.3,2.3l-5.3,5.3L1.2,9.5z M6.5,15.5c0-0.1,0.1-0.3,0.2-0.4
		c0,0,0,0,0,0l0.5-0.5c0.1-0.1,0.2-0.2,0.4-0.2c0,0,0,0,0,0c0.1,0,0.2,0,0.3,0.1c0.1,0.1,0.1,0.2,0.1,0.3c0,0.1-0.1,0.3-0.2,0.3
		l-0.5,0.5c-0.1,0.1-0.2,0.2-0.4,0.2c-0.1,0-0.2,0-0.3-0.1C6.5,15.7,6.5,15.6,6.5,15.5z M7.8,16.8c0-0.1,0.1-0.3,0.2-0.4l0.5-0.5
		c0.1-0.1,0.2-0.2,0.4-0.2c0,0,0,0,0,0c0.1,0,0.2,0,0.3,0.1c0.1,0.1,0.1,0.2,0.1,0.3c0,0.1-0.1,0.3-0.2,0.4L8.5,17
		c-0.1,0.1-0.2,0.2-0.4,0.2c-0.1,0-0.2,0-0.3-0.1C7.8,17,7.8,16.9,7.8,16.8z M9,18.1c0-0.1,0.1-0.3,0.2-0.4c0,0,0,0,0,0l0.5-0.5
		C9.8,17.1,10,17,10.1,17c0,0,0,0,0,0c0.1,0,0.2,0,0.3,0.1c0.1,0.1,0.1,0.2,0.1,0.3c0,0.1-0.1,0.3-0.2,0.3l-0.5,0.5
		c-0.1,0.1-0.2,0.2-0.4,0.2c-0.1,0-0.2,0-0.3-0.1C9.1,18.2,9,18.1,9,18.1z M10.7,19.7c-0.1,0-0.2,0-0.3-0.1
		c-0.1-0.1-0.1-0.2-0.1-0.3c0-0.1,0.1-0.3,0.2-0.4l0.5-0.5c0.1-0.1,0.2-0.2,0.4-0.2c0,0,0,0,0,0c0.1,0,0.2,0,0.3,0.1
		c0.1,0.1,0.1,0.2,0.1,0.3c0,0.1-0.1,0.3-0.2,0.4L11,19.6C10.9,19.7,10.8,19.7,10.7,19.7z M16.8,16c-0.1,0.1-0.2,0.1-0.4,0.2l-0.4,0
		c-0.3,0-0.5,0.2-0.5,0.5l0,0.4c0,0.1-0.1,0.3-0.2,0.4c-0.1,0.1-0.2,0.2-0.4,0.2l-0.4,0c-0.3,0-0.5,0.2-0.5,0.5l0,0.4
		c0,0.1-0.1,0.3-0.2,0.4c-0.1,0.1-0.3,0.2-0.4,0.2c-0.3,0-0.5,0.2-0.5,0.5c0,0.2-0.1,0.5-0.4,0.5l-0.4-0.2l0,0
		c0.3-0.3,0.4-0.6,0.5-1c0-0.4-0.1-0.8-0.4-1c-0.2-0.3-0.6-0.4-0.9-0.4c0-0.3-0.1-0.6-0.4-0.9c-0.2-0.2-0.6-0.4-0.9-0.4
		c0-0.3-0.1-0.6-0.4-0.9c-0.2-0.3-0.5-0.4-0.9-0.4c0-0.3-0.1-0.6-0.4-0.9c-0.3-0.3-0.6-0.4-1-0.4c-0.4,0-0.7,0.2-1,0.4L5,11.7
		l3.9-3.9l1.9,0.9l-1.5,1.4c-0.6,0.6-0.6,1.5,0,2.1c0.3,0.3,0.6,0.4,1,0.5c0.4,0,0.8-0.1,1.1-0.4c0.3-0.3,0.6-0.6,0.7-0.7
		c0.2-0.1,0.6-0.2,0.8-0.2c0.1,0,0.4,0.2,1,0.7c0.8,0.7,3,3.1,3,3.1c0,0,0.1,0.1,0.1,0.1l0.1,0.1c0.1,0.1,0.1,0.2,0.1,0.3
		C17,15.8,16.9,15.9,16.8,16z M17.2,14.1c-0.7-0.7-2.1-2.3-2.8-2.9c-0.5-0.4-1-0.8-1.4-0.9c-0.5-0.1-1.1,0.2-1.4,0.3
		c-0.3,0.2-0.8,0.6-1,0.8c-0.1,0.1-0.2,0.1-0.3,0.1c-0.1,0-0.2-0.1-0.3-0.1c-0.2-0.2-0.2-0.5,0-0.7l1.7-1.6l0.3-0.2l3.2-1.3l3.9,3.9
		L17.2,14.1z M20.5,11.8l-5.3-5.3l2.3-2.3l5.3,5.3L20.5,11.8z"/>
	<path d="M3.5,9L3.5,9C3.2,9,3,9.2,3,9.5S3.2,10,3.5,10C3.8,10,4,9.8,4,9.5S3.8,9,3.5,9z"/>
</g>
</svg>
