<?xml version="1.0" encoding="utf-8"?>
<!-- Generator: Adobe Illustrator 22.0.1, SVG Export Plug-In . SVG Version: 6.00 Build 0)  -->
<svg version="1.1" id="Icon_build" xmlns="http://www.w3.org/2000/svg" xmlns:xlink="http://www.w3.org/1999/xlink" x="0px" y="0px"
	 width="24px" height="24px" viewBox="0 0 24 24" enable-background="new 0 0 24 24" xml:space="preserve">
<rect fill="none" width="24" height="24"/>
<path d="M21.8,4c0-0.1-0.1-0.3-0.1-0.4l-1.2-1.2c-0.2-0.2-0.5-0.2-0.7,0l-0.8,0.8L18.6,3c-0.2-0.2-0.5-0.2-0.7,0l-12,12
	c0,0,0,0,0,0.1c0,0,0,0,0,0l-3,5.4c-0.1,0.2-0.1,0.4,0.1,0.6c0.1,0.1,0.2,0.1,0.4,0.1c0.1,0,0.2,0,0.2-0.1l5.4-3c0,0,0,0,0,0
	c0,0,0,0,0.1,0L19.4,7.7l0.5,0.7l-4.3,4.2c-0.2,0.2-0.2,0.5,0,0.7c0.1,0.1,0.2,0.2,0.4,0.2c0.1,0,0.2,0,0.3-0.1l4.7-4.5
	c0.2-0.2,0.2-0.4,0.1-0.6L20.1,7L21,6.1c0.1-0.1,0.1-0.2,0.1-0.4S21.1,5.5,21,5.4l-0.2-0.2l0.8-0.8C21.7,4.2,21.8,4.1,21.8,4z
	 M18.2,4.1l0.2,0.2c0,0,0,0,0,0l1.2,1.2c0,0,0,0,0,0l0.2,0.2L8.7,17L7,15.3L18.2,4.1z M4.5,19.5l1.8-3.3l1.5,1.5L4.5,19.5z
	 M19.6,3.9L20,3.5L20.5,4L20,4.4L19.6,3.9z"/>
</svg>
