<?xml version="1.0" encoding="utf-8"?>
<!-- Generator: Adobe Illustrator 22.0.1, SVG Export Plug-In . SVG Version: 6.00 Build 0)  -->
<svg version="1.1" id="Icon_build" xmlns="http://www.w3.org/2000/svg" xmlns:xlink="http://www.w3.org/1999/xlink" x="0px" y="0px"
	 width="24px" height="24px" viewBox="0 0 24 24" enable-background="new 0 0 24 24" xml:space="preserve">
<rect fill="none" width="24" height="24"/>
<path d="M23.8,15.9c-0.2-0.1-0.5-0.1-0.7,0.1c-1,1.5-2.4,2.7-4.3,3.7l-1.3-4.7l0.7-0.1c0.1,0,0.3-0.1,0.3-0.2
	c0.1-0.1,0.1-0.2,0.1-0.4l-0.3-2.1c0-0.2-0.2-0.4-0.4-0.4l-0.4,0c-0.5-0.1-1.5-0.2-2.8-0.2c-0.9,0-1.9,0-2.8,0.1
	c-1,0.1-1.9,0.3-2.7,0.4l0,0c0-0.4-0.1-1-0.3-1.8l0,0c4-0.4,7.2-1.3,9-2.4c0.2-0.2,0.3-0.5,0.1-0.7c-0.2-0.2-0.5-0.3-0.7-0.1
	C15.8,8.2,12.8,9,8.8,9.3C8.6,8.6,8.4,7.9,8.1,7.3C7.4,5.7,6.7,4.5,6,3.6c-0.6-0.7-0.9-0.9-1-1C4.8,2.5,4.6,2.5,4.4,2.5L2.1,3.4
	C2,3.5,1.9,3.5,1.8,3.6C1.7,3.7,1.7,3.9,1.8,4.1l4.1,9.6l0.2,2l-0.7,4.8c-1.7-0.6-3.3-1.5-4.5-2.7c-0.2-0.2-0.4-0.2-0.7-0.1
	C0,17.9,0,18.3,0.2,18.5c2.7,2.5,6.7,4,11.1,4c2.7,0,5.3-0.6,7.5-1.6c2.2-1,4-2.5,5.1-4.2C24.1,16.4,24,16.1,23.8,15.9z M12.1,12.8
	c0.9-0.1,1.8-0.1,2.7-0.1c1.2,0,2.2,0.1,2.6,0.2l0.2,1.3L7,15.1l-0.1-1.2l0.1,0C7.7,13.6,9.6,13,12.1,12.8z M4.6,3.6
	c0.1,0.1,0.3,0.3,0.6,0.6c0.7,0.8,1.3,2,2,3.5c0.3,0.6,0.5,1.3,0.7,2L8,10c0,0,0,0,0,0l0.1,0.5c0.2,0.7,0.2,1.3,0.2,1.7l0,0.2
	c-0.8,0.2-1.4,0.4-1.7,0.5l0,0L2.9,4.2L4.6,3.6z M11.3,21.5c-1.7,0-3.4-0.2-4.9-0.7L7,16.2l9.4-1l1.4,5
	C15.9,21.1,13.6,21.5,11.3,21.5z"/>
</svg>
