<?xml version="1.0" encoding="utf-8"?>
<!-- Generator: Adobe Illustrator 22.0.1, SVG Export Plug-In . SVG Version: 6.00 Build 0)  -->
<svg version="1.1" id="Ebene_5" xmlns="http://www.w3.org/2000/svg" xmlns:xlink="http://www.w3.org/1999/xlink" x="0px" y="0px"
	 width="24px" height="24px" viewBox="0 0 24 24" enable-background="new 0 0 24 24" xml:space="preserve">
<rect fill="none" width="24" height="24"/>
<g>
	<path d="M6.9,2.2c0.1,0,0.1,0,0.2-0.1c3-1.5,6.6-1.5,9.6,0c0.2,0.1,0.5,0,0.7-0.2c0.1-0.2,0-0.5-0.2-0.7c-3.3-1.6-7.2-1.6-10.5,0
		C6.5,1.3,6.4,1.6,6.5,1.9C6.6,2.1,6.7,2.2,6.9,2.2z"/>
	<path d="M19.8,19.8C17.7,21.9,14.9,23,12,23c-2.9,0-5.6-1.1-7.7-3.1c-0.2-0.2-0.5-0.2-0.7,0c-0.2,0.2-0.2,0.5,0,0.7
		C5.9,22.8,8.8,24,12,24c3.2,0,6.2-1.2,8.5-3.5c0.2-0.2,0.2-0.5,0-0.7S20,19.6,19.8,19.8z"/>
	<path d="M10,13.9v4.6c0,0.3,0.2,0.5,0.5,0.5s0.5-0.2,0.5-0.5v-4.6c0-1.6-1.3-2.9-2.9-2.9H2.9C1.3,11,0,12.3,0,13.9v4.6
		C0,18.8,0.2,19,0.5,19S1,18.8,1,18.5v-4.6c0-1,0.8-1.9,1.9-1.9h5.3C9.2,12,10,12.8,10,13.9z"/>
	<path d="M5.5,10C7.4,10,9,8.4,9,6.5S7.4,3,5.5,3S2,4.6,2,6.5S3.6,10,5.5,10z M5.5,4C6.9,4,8,5.1,8,6.5S6.9,9,5.5,9S3,7.9,3,6.5
		S4.1,4,5.5,4z"/>
	<path d="M15,6.5c0,1.9,1.6,3.5,3.5,3.5S22,8.4,22,6.5S20.4,3,18.5,3S15,4.6,15,6.5z M18.5,4C19.9,4,21,5.1,21,6.5S19.9,9,18.5,9
		S16,7.9,16,6.5S17.1,4,18.5,4z"/>
	<path d="M21.1,11h-5.3c-1.6,0-2.9,1.3-2.9,2.9v4.6c0,0.3,0.2,0.5,0.5,0.5s0.5-0.2,0.5-0.5v-4.6c0-1,0.8-1.9,1.9-1.9h5.3
		c1,0,1.9,0.8,1.9,1.9v4.6c0,0.3,0.2,0.5,0.5,0.5s0.5-0.2,0.5-0.5v-4.6C24,12.3,22.7,11,21.1,11z"/>
</g>
</svg>
