<?xml version="1.0" encoding="utf-8"?>
<!-- Generator: Adobe Illustrator 22.0.1, SVG Export Plug-In . SVG Version: 6.00 Build 0)  -->
<svg version="1.1" id="Ebene_5" xmlns="http://www.w3.org/2000/svg" xmlns:xlink="http://www.w3.org/1999/xlink" x="0px" y="0px"
	 width="24px" height="24px" viewBox="0 0 24 24" enable-background="new 0 0 24 24" xml:space="preserve">
<rect fill="none" width="24" height="24"/>
<g>
	<path d="M5,8c1.4,0,2.5-1.1,2.5-2.5C7.5,4.1,6.4,3,5,3S2.5,4.1,2.5,5.5C2.5,6.9,3.6,8,5,8z M5,4c0.8,0,1.5,0.7,1.5,1.5
		C6.5,6.3,5.8,7,5,7S3.5,6.3,3.5,5.5C3.5,4.7,4.2,4,5,4z"/>
	<path d="M8,13.6c0,0.3,0.2,0.5,0.5,0.5S9,13.9,9,13.6v-2.5C9,10,8,9,6.9,9H3.1C2,9,1,10,1,11.1v2.5c0,0.3,0.2,0.5,0.5,0.5
		S2,13.9,2,13.6v-2.5C2,10.5,2.5,10,3.1,10h3.7C7.5,10,8,10.5,8,11.1V13.6z"/>
	<path d="M19,8c1.4,0,2.5-1.1,2.5-2.5C21.5,4.1,20.4,3,19,3s-2.5,1.1-2.5,2.5C16.5,6.9,17.6,8,19,8z M19,4c0.8,0,1.5,0.7,1.5,1.5
		C20.5,6.3,19.8,7,19,7s-1.5-0.7-1.5-1.5C17.5,4.7,18.2,4,19,4z"/>
	<path d="M20.9,9h-3.7C16,9,15,10,15,11.1v2.5c0,0.3,0.2,0.5,0.5,0.5s0.5-0.2,0.5-0.5v-2.5c0-0.6,0.5-1.1,1.1-1.1h3.7
		c0.6,0,1.1,0.5,1.1,1.1v2.5c0,0.3,0.2,0.5,0.5,0.5s0.5-0.2,0.5-0.5v-2.5C23,10,22,9,20.9,9z"/>
	<path d="M10.4,2.9l1.1-1.1v3.8C11.5,5.8,11.7,6,12,6s0.5-0.2,0.5-0.5V1.7l1.1,1.1C13.7,3,13.9,3,14,3s0.3,0,0.4-0.1
		c0.2-0.2,0.2-0.5,0-0.7l-2-2c0,0-0.1-0.1-0.2-0.1C12.1,0,11.9,0,11.8,0c-0.1,0-0.1,0.1-0.2,0.1l-2,2c-0.2,0.2-0.2,0.5,0,0.7
		S10.2,3,10.4,2.9z"/>
	<path d="M12,18c1.4,0,2.5-1.1,2.5-2.5S13.4,13,12,13s-2.5,1.1-2.5,2.5S10.6,18,12,18z M12,14c0.8,0,1.5,0.7,1.5,1.5S12.8,17,12,17
		s-1.5-0.7-1.5-1.5S11.2,14,12,14z"/>
	<path d="M13.9,19h-3.7C9,19,8,20,8,21.1v2.5c0,0.3,0.2,0.5,0.5,0.5S9,23.9,9,23.6v-2.5c0-0.6,0.5-1.1,1.1-1.1h3.7
		c0.6,0,1.1,0.5,1.1,1.1v2.5c0,0.3,0.2,0.5,0.5,0.5s0.5-0.2,0.5-0.5v-2.5C16,20,15,19,13.9,19z"/>
	<path d="M22.5,17c-0.3,0-0.5,0.2-0.5,0.5v1.8l-3.1-3.1c-0.2-0.2-0.5-0.2-0.7,0s-0.2,0.5,0,0.7l3.1,3.1h-1.8c-0.3,0-0.5,0.2-0.5,0.5
		s0.2,0.5,0.5,0.5h3c0.1,0,0.1,0,0.2,0c0.1-0.1,0.2-0.1,0.3-0.3c0-0.1,0-0.1,0-0.2v-3C23,17.2,22.8,17,22.5,17z"/>
	<path d="M5.1,16.1L2,19.3v-1.8C2,17.2,1.8,17,1.5,17S1,17.2,1,17.5v3c0,0.1,0,0.1,0,0.2c0.1,0.1,0.1,0.2,0.3,0.3c0.1,0,0.1,0,0.2,0
		h3C4.8,21,5,20.8,5,20.5S4.8,20,4.5,20H2.7l3.1-3.1c0.2-0.2,0.2-0.5,0-0.7S5.3,16,5.1,16.1z"/>
</g>
</svg>
