<?xml version="1.0" encoding="utf-8"?>
<!-- Generator: Adobe Illustrator 22.0.1, SVG Export Plug-In . SVG Version: 6.00 Build 0)  -->
<svg version="1.1" id="Ebene_5" xmlns="http://www.w3.org/2000/svg" xmlns:xlink="http://www.w3.org/1999/xlink" x="0px" y="0px"
	 width="24px" height="24px" viewBox="0 0 24 24" enable-background="new 0 0 24 24" xml:space="preserve">
<rect fill="none" width="24" height="24"/>
<g>
	<path d="M5,8c1.4,0,2.5-1.1,2.5-2.5C7.5,4.1,6.4,3,5,3S2.5,4.1,2.5,5.5C2.5,6.9,3.6,8,5,8z M5,4c0.8,0,1.5,0.7,1.5,1.5
		C6.5,6.3,5.8,7,5,7S3.5,6.3,3.5,5.5C3.5,4.7,4.2,4,5,4z"/>
	<path d="M8,13.6c0,0.3,0.2,0.5,0.5,0.5S9,13.9,9,13.6v-2.5C9,10,8,9,6.9,9H3.1C2,9,1,10,1,11.1v2.5c0,0.3,0.2,0.5,0.5,0.5
		S2,13.9,2,13.6v-2.5C2,10.5,2.5,10,3.1,10h3.7C7.5,10,8,10.5,8,11.1V13.6z"/>
	<path d="M19,8c1.4,0,2.5-1.1,2.5-2.5C21.5,4.1,20.4,3,19,3s-2.5,1.1-2.5,2.5C16.5,6.9,17.6,8,19,8z M19,4c0.8,0,1.5,0.7,1.5,1.5
		C20.5,6.3,19.8,7,19,7s-1.5-0.7-1.5-1.5C17.5,4.7,18.2,4,19,4z"/>
	<path d="M22,11.1v2.5c0,0.3,0.2,0.5,0.5,0.5s0.5-0.2,0.5-0.5v-2.5C23,10,22,9,20.9,9h-3.7C16,9,15,10,15,11.1v2.5
		c0,0.3,0.2,0.5,0.5,0.5s0.5-0.2,0.5-0.5v-2.5c0-0.6,0.5-1.1,1.1-1.1h3.7C21.5,10,22,10.5,22,11.1z"/>
	<path d="M9.5,3h3.8l-1.1,1.1c-0.2,0.2-0.2,0.5,0,0.7C12.2,5,12.4,5,12.5,5s0.3,0,0.4-0.1l2-2c0,0,0.1-0.1,0.1-0.2
		C15,2.6,15,2.4,15,2.3c0-0.1-0.1-0.1-0.1-0.2l-2-2c-0.2-0.2-0.5-0.2-0.7,0s-0.2,0.5,0,0.7L13.3,2H9.5C9.2,2,9,2.2,9,2.5
		S9.2,3,9.5,3z"/>
	<path d="M23.9,16.1c-0.2-0.2-0.5-0.2-0.7,0L20,19.3v-1.8c0-0.3-0.2-0.5-0.5-0.5S19,17.2,19,17.5v3c0,0.1,0,0.1,0,0.2
		c0.1,0.1,0.1,0.2,0.3,0.3c0.1,0,0.1,0,0.2,0h3c0.3,0,0.5-0.2,0.5-0.5S22.8,20,22.5,20h-1.8l3.1-3.1C24,16.7,24,16.3,23.9,16.1z"/>
	<path d="M9.5,15.5c0,1.4,1.1,2.5,2.5,2.5s2.5-1.1,2.5-2.5S13.4,13,12,13S9.5,14.1,9.5,15.5z M13.5,15.5c0,0.8-0.7,1.5-1.5,1.5
		s-1.5-0.7-1.5-1.5S11.2,14,12,14S13.5,14.7,13.5,15.5z"/>
	<path d="M13.9,19h-3.7C9,19,8,20,8,21.1v2.5c0,0.3,0.2,0.5,0.5,0.5S9,23.9,9,23.6v-2.5c0-0.6,0.5-1.1,1.1-1.1h3.7
		c0.6,0,1.1,0.5,1.1,1.1v2.5c0,0.3,0.2,0.5,0.5,0.5s0.5-0.2,0.5-0.5v-2.5C16,20,15,19,13.9,19z"/>
	<path d="M2.7,17h1.8C4.8,17,5,16.8,5,16.5S4.8,16,4.5,16h-3c-0.1,0-0.1,0-0.2,0c-0.1,0.1-0.2,0.1-0.3,0.3c0,0.1,0,0.1,0,0.2v3
		C1,19.8,1.2,20,1.5,20S2,19.8,2,19.5v-1.8l3.1,3.1C5.2,21,5.4,21,5.5,21s0.3,0,0.4-0.1c0.2-0.2,0.2-0.5,0-0.7L2.7,17z"/>
</g>
</svg>
