<?xml version="1.0" encoding="utf-8"?>
<!-- Generator: Adobe Illustrator 22.0.1, SVG Export Plug-In . SVG Version: 6.00 Build 0)  -->
<svg version="1.1" id="Icon_build" xmlns="http://www.w3.org/2000/svg" xmlns:xlink="http://www.w3.org/1999/xlink" x="0px" y="0px"
	 width="24px" height="24px" viewBox="0 0 24 24" enable-background="new 0 0 24 24" xml:space="preserve">
<rect fill="none" width="24" height="24"/>
<g>
	<path d="M15.3,15.7c-0.9-0.8-2.3-0.9-3.3-0.1c-0.9-0.8-2.4-0.7-3.3,0.1c-0.5,0.4-0.7,1-0.7,1.7C8,18,8.3,18.6,8.7,19l2.8,2.7
		l0.1,0.1C11.8,22,11.9,22,12,22c0.1,0,0.2,0,0.3-0.1l2.9-2.8c0.5-0.4,0.7-1,0.7-1.7C16,16.7,15.7,16.1,15.3,15.7
		C15.3,15.7,15.3,15.7,15.3,15.7z M14.6,18.3L12,20.8l-2.6-2.5c-0.3-0.3-0.4-0.6-0.4-1c0-0.4,0.1-0.7,0.4-1c0.3-0.3,0.6-0.4,1-0.4
		s0.8,0.1,1,0.4l0.2,0.2c0.2,0.2,0.5,0.2,0.7,0l0.2-0.2c0.5-0.5,1.5-0.5,2,0c0.3,0.3,0.4,0.6,0.4,1C15,17.7,14.9,18.1,14.6,18.3z"/>
	<path d="M16.5,12h-9C5,12,3,14,3,16.5v6C3,22.8,3.2,23,3.5,23S4,22.8,4,22.5v-6C4,14.6,5.6,13,7.5,13h9c1.9,0,3.5,1.6,3.5,3.5v6
		c0,0.3,0.2,0.5,0.5,0.5s0.5-0.2,0.5-0.5v-6C21,14,19,12,16.5,12z"/>
	<path d="M12,11c2.8,0,5-2.2,5-5s-2.2-5-5-5S7,3.2,7,6S9.2,11,12,11z M12,2c2.2,0,4,1.8,4,4s-1.8,4-4,4S8,8.2,8,6S9.8,2,12,2z"/>
</g>
</svg>
