<?xml version="1.0" encoding="utf-8"?>
<!-- Generator: Adobe Illustrator 22.0.1, SVG Export Plug-In . SVG Version: 6.00 Build 0)  -->
<svg version="1.1" id="Icon_build" xmlns="http://www.w3.org/2000/svg" xmlns:xlink="http://www.w3.org/1999/xlink" x="0px" y="0px"
	 width="24px" height="24px" viewBox="0 0 24 24" enable-background="new 0 0 24 24" xml:space="preserve">
<rect fill="none" width="24" height="24"/>
<g>
	<g>
		<path d="M12,11c-2.8,0-5-2.2-5-5s2.2-5,5-5s5,2.2,5,5S14.8,11,12,11z M12,2C9.8,2,8,3.8,8,6s1.8,4,4,4s4-1.8,4-4S14.2,2,12,2z"/>
	</g>
	<g>
		<path d="M20.5,23c-0.3,0-0.5-0.2-0.5-0.5v-6c0-1.9-1.6-3.5-3.5-3.5h-9C5.6,13,4,14.6,4,16.5v6C4,22.8,3.8,23,3.5,23S3,22.8,3,22.5
			v-6C3,14,5,12,7.5,12h9c2.5,0,4.5,2,4.5,4.5v6C21,22.8,20.8,23,20.5,23z"/>
	</g>
</g>
</svg>
