<?xml version="1.0" encoding="utf-8"?>
<!-- Generator: Adobe Illustrator 22.0.1, SVG Export Plug-In . SVG Version: 6.00 Build 0)  -->
<svg version="1.1" id="Icon_build" xmlns="http://www.w3.org/2000/svg" xmlns:xlink="http://www.w3.org/1999/xlink" x="0px" y="0px"
	 width="24px" height="24px" viewBox="0 0 24 24" enable-background="new 0 0 24 24" xml:space="preserve">
<rect fill="none" width="24" height="24"/>
<path d="M21.8,17.9l-3.7-4c-0.3-0.3-0.6-0.5-1.1-0.5c-0.4,0-0.8,0.2-1,0.5l-1.3,1.5L8.9,9.1l1.4-1.5c0.6-0.6,0.6-1.6,0-2.2l-3.7-4
	C6.3,1.2,6,1,5.6,1c0,0,0,0,0,0C5.2,1,4.8,1.2,4.5,1.5L2.9,3.2C1.8,4.4,1.5,6.5,2.2,8c0.1,0.2,1.6,4.2,5.5,8.4
	c4.2,4.6,7.7,6.1,8,6.3c0.5,0.3,1,0.4,1.6,0.4c1.1,0,2.2-0.4,2.9-1.2l1.6-1.8C22.3,19.4,22.3,18.5,21.8,17.9z M21,19.4l-1.6,1.8
	c-0.8,0.9-2.3,1.1-3.3,0.6l0,0c0,0-3.5-1.4-7.7-6c-3.8-4.1-5.3-8.1-5.3-8.1C2.6,6.5,2.8,4.8,3.6,3.9l1.6-1.8C5.3,2.1,5.4,2,5.6,2
	c0.1,0,0.2,0.1,0.3,0.1l3.7,4c0.2,0.2,0.2,0.6,0,0.8L8.1,8.4c-0.4,0.4-0.4,1,0,1.4l5.9,6.3c0.2,0.2,0.4,0.3,0.7,0.3c0,0,0,0,0,0
	c0.3,0,0.5-0.1,0.7-0.3l1.4-1.5c0.1-0.1,0.2-0.1,0.3-0.1c0.1,0,0.2,0,0.3,0.1l3.7,4C21.2,18.8,21.2,19.1,21,19.4z"/>
</svg>
