<?xml version="1.0" encoding="utf-8"?>
<!-- Generator: Adobe Illustrator 22.0.1, SVG Export Plug-In . SVG Version: 6.00 Build 0)  -->
<svg version="1.1" id="Icon_build" xmlns="http://www.w3.org/2000/svg" xmlns:xlink="http://www.w3.org/1999/xlink" x="0px" y="0px"
	 width="24px" height="24px" viewBox="0 0 24 24" enable-background="new 0 0 24 24" xml:space="preserve">
<rect fill="none" width="24" height="24"/>
<g>
	<path d="M6.6,24c-0.2,0-0.4-0.1-0.4-0.3l-2-3.8l-3.8-2C0.1,17.8,0,17.7,0,17.5c0-0.2,0-0.3,0.1-0.4l1-1c0.1-0.1,0.2-0.1,0.4-0.2
		L5.2,16l2.9-2.9l-7.3-2.5c-0.3-0.1-0.5-0.3-0.6-0.6c-0.1-0.3,0-0.6,0.2-0.8L1.8,8c0.3-0.3,0.7-0.4,1.1-0.4l9.7,1.1l5.6-5.6
		c0.7-0.7,2-0.7,2.8,0c0.4,0.4,0.6,0.9,0.6,1.4c0,0.5-0.2,1-0.6,1.4l-5.6,5.6l1,9.7c0,0.4-0.1,0.9-0.4,1.2l-1.1,1.1
		c-0.4,0.4-1.2,0.3-1.3-0.3l-2.5-7.3L8,18.8l0,3.8c0,0.1-0.1,0.3-0.1,0.4l-0.9,0.9c-0.1,0.1-0.1,0.1-0.2,0.1C6.7,24,6.6,24,6.6,24z
		 M1.3,17.3l3.4,1.8c0.1,0,0.2,0.1,0.2,0.2l1.8,3.4L7,22.4l0-3.8c0-0.1,0.1-0.3,0.1-0.4l3.7-3.7c0.1-0.1,0.3-0.2,0.5-0.1
		c0.2,0,0.3,0.2,0.4,0.3l2.6,7.8l0.9-0.9c0.1-0.1,0.2-0.3,0.2-0.4l-1-9.9c0-0.1,0-0.3,0.1-0.4l5.8-5.8c0.2-0.2,0.3-0.4,0.3-0.7
		c0-0.3-0.1-0.5-0.3-0.7c-0.4-0.4-1-0.4-1.3,0l-5.8,5.8c-0.1,0.1-0.3,0.2-0.4,0.1L2.9,8.5c-0.1,0-0.3,0.1-0.3,0.1L1.4,9.8l7.8,2.6
		c0.2,0.1,0.3,0.2,0.3,0.4c0,0.2,0,0.3-0.1,0.5l-3.7,3.7C5.7,17,5.5,17,5.4,17l-3.7-0.1L1.3,17.3z"/>
</g>
</svg>
