<?xml version="1.0" encoding="utf-8"?>
<!-- Generator: Adobe Illustrator 22.0.1, SVG Export Plug-In . SVG Version: 6.00 Build 0)  -->
<svg version="1.1" id="Icon_build" xmlns="http://www.w3.org/2000/svg" xmlns:xlink="http://www.w3.org/1999/xlink" x="0px" y="0px"
	 width="24px" height="24px" viewBox="0 0 24 24" enable-background="new 0 0 24 24" xml:space="preserve">
<rect fill="none" width="24" height="24"/>
<g>
	<path d="M10.5,11H6V6c0-0.3-0.2-0.5-0.5-0.5S5,5.7,5,6v5H0.5C0.2,11,0,11.2,0,11.5S0.2,12,0.5,12H5v5c0,0.3,0.2,0.5,0.5,0.5
		S6,17.3,6,17v-5h4.5c0.3,0,0.5-0.2,0.5-0.5S10.8,11,10.5,11z"/>
	<path d="M23.5,11h-9c-0.3,0-0.5,0.2-0.5,0.5s0.2,0.5,0.5,0.5h9c0.3,0,0.5-0.2,0.5-0.5S23.8,11,23.5,11z"/>
</g>
</svg>
