<?xml version="1.0" encoding="utf-8"?>
<!-- Generator: Adobe Illustrator 22.0.1, SVG Export Plug-In . SVG Version: 6.00 Build 0)  -->
<svg version="1.1" id="Icon_build" xmlns="http://www.w3.org/2000/svg" xmlns:xlink="http://www.w3.org/1999/xlink" x="0px" y="0px"
	 width="24px" height="24px" viewBox="0 0 24 24" enable-background="new 0 0 24 24" xml:space="preserve">
<rect fill="none" width="24" height="24"/>
<path d="M20.5,6h-2.4c0.2-0.4,0.4-0.9,0.4-1.5C18.5,2.6,16.9,1,15,1c-1.3,0-2.4,0.7-3,1.7C11.4,1.7,10.3,1,9,1
	C7.1,1,5.5,2.6,5.5,4.5c0,0.6,0.1,1.1,0.4,1.5H3.5C2.7,6,2,6.7,2,7.5v2c0,0.7,0.4,1.2,1,1.4v10.6C3,22.3,3.7,23,4.5,23h15
	c0.8,0,1.5-0.7,1.5-1.5V10.9c0.6-0.2,1-0.8,1-1.4v-2C22,6.7,21.3,6,20.5,6z M15,2c1.4,0,2.5,1.1,2.5,2.5c0,0.6-0.2,1.1-0.6,1.5h-4.4
	V4.5C12.5,3.1,13.6,2,15,2z M6.5,4.5C6.5,3.1,7.6,2,9,2s2.5,1.1,2.5,2.5v1V6H7.1C6.7,5.6,6.5,5.1,6.5,4.5z M3,7.5C3,7.2,3.2,7,3.5,7
	h8v3h-8C3.2,10,3,9.8,3,9.5V7.5z M4,21.5V11h7.5v11h-7C4.2,22,4,21.8,4,21.5z M19.5,22h-7V11H20v10.5C20,21.8,19.8,22,19.5,22z
	 M21,9.5c0,0.3-0.2,0.5-0.5,0.5h-8V7h8C20.8,7,21,7.2,21,7.5V9.5z"/>
</svg>
