<?xml version="1.0" encoding="utf-8"?>
<!-- Generator: Adobe Illustrator 22.0.1, SVG Export Plug-In . SVG Version: 6.00 Build 0)  -->
<svg version="1.1" id="Icon_build" xmlns="http://www.w3.org/2000/svg" xmlns:xlink="http://www.w3.org/1999/xlink" x="0px" y="0px"
	 width="24px" height="24px" viewBox="0 0 24 24" enable-background="new 0 0 24 24" xml:space="preserve">
<rect fill="none" width="24" height="24"/>
<path d="M20.5,13.4h-1c-0.2,0-0.4,0.1-0.4,0.2c-0.3,0.5-0.8,0.7-1.3,0.7c-0.9,0-1.6-0.7-1.6-1.6c0-0.4,0.2-0.8,0.5-1.1
	c0.7-0.7,1.9-0.5,2.4,0.3c0.1,0.2,0.3,0.3,0.4,0.3h1c0.2,0,0.4-0.1,0.5-0.3c0-0.1,0.1-0.2,0.1-0.2c0-3.5,0-5.2-0.1-6
	c0-0.1,0-0.1,0.1-0.2l-0.1,0C20.8,5,20.7,5,20.5,5c0,0-0.1,0-0.1,0h-5.9V4.6l0,0c0.6-0.5,0.9-1.2,0.9-2c0-1.4-1.2-2.6-2.6-2.6
	c-1.4,0-2.6,1.2-2.6,2.6c0,0.8,0.4,1.5,1,2l0,0.4H5.6c0,0-0.1,0-0.1,0h0C5.2,5,5.1,5,5.1,5.5L5,5.5c0,0.1,0,0.1,0,0.2
	c0,0.5,0,1.4,0,2.9v2.6H4.6l0,0c-0.5-0.6-1.2-1-2-1c-0.7,0-1.3,0.3-1.8,0.8C0.3,11.5,0,12.1,0,12.8c0,1.4,1.2,2.6,2.6,2.6
	c0.8,0,1.5-0.3,2-1l0.4,0v6.1c0,0.1,0.1,0.3,0.1,0.4C5.3,21,5.3,21,11.7,21c0.2,0,0.4-0.1,0.5-0.3c0-0.1,0.1-0.2,0.1-0.2v-0.9
	c0-0.1,0-0.2-0.1-0.2c0-0.1-0.1-0.2-0.2-0.2c-0.5-0.3-0.7-0.8-0.7-1.3c0-0.9,0.7-1.6,1.5-1.6c0.9,0,1.6,0.7,1.6,1.6
	c0,0.5-0.3,1-0.7,1.3c-0.1,0.1-0.2,0.2-0.2,0.3c0,0.1,0,0.1,0,0.2v0.9c0,0,0,0.1,0,0.2c0.1,0.2,0.3,0.4,0.5,0.4h6.5
	c0.2,0,0.4-0.1,0.5-0.3c0-0.1,0.1-0.2,0.1-0.2v-6.5c0-0.1,0-0.2-0.1-0.2C20.8,13.5,20.6,13.4,20.5,13.4z M20,20h-5.5v-0.3
	c0.6-0.5,0.9-1.2,0.9-2c0-1.4-1.1-2.6-2.6-2.6c-1.4,0-2.5,1.1-2.5,2.6c0,0.8,0.3,1.5,1,2V20C9.4,20,7,20,6,20v-6.1
	c0-0.3-0.2-0.5-0.5-0.5H4.4c-0.2,0-0.3,0.1-0.4,0.2l-0.2,0.2c-0.3,0.4-0.7,0.6-1.2,0.6c-0.9,0-1.6-0.7-1.6-1.6
	c0-0.4,0.2-0.8,0.5-1.1c0.6-0.6,1.8-0.6,2.4,0.1L4,12c0.1,0.1,0.2,0.2,0.4,0.2h1.1c0.1,0,0.3-0.1,0.4-0.1S6,11.8,6,11.7
	c0,0,0-4.2,0-5.7h5.7c0.3,0,0.5-0.2,0.5-0.5V4.4c0-0.2-0.1-0.3-0.2-0.4l-0.2-0.2c-0.4-0.3-0.6-0.7-0.6-1.2C11.3,1.7,12,1,12.8,1
	c0.9,0,1.6,0.7,1.6,1.6c0,0.5-0.2,0.9-0.6,1.2L13.7,4c-0.1,0.1-0.2,0.2-0.2,0.4v1.1C13.5,5.8,13.7,6,14,6h6c0,1,0,3.4,0,5.2h-0.3
	c-0.5-0.6-1.2-1-2-1c-0.7,0-1.3,0.3-1.8,0.7c-0.5,0.5-0.7,1.1-0.7,1.8c0,1.4,1.1,2.6,2.6,2.6c0.8,0,1.5-0.3,2-1H20V20z"/>
</svg>
