<?xml version="1.0" encoding="utf-8"?>
<!-- Generator: Adobe Illustrator 22.0.1, SVG Export Plug-In . SVG Version: 6.00 Build 0)  -->
<svg version="1.1" id="Ebene_5" xmlns="http://www.w3.org/2000/svg" xmlns:xlink="http://www.w3.org/1999/xlink" x="0px" y="0px"
	 width="24px" height="24px" viewBox="0 0 24 24" enable-background="new 0 0 24 24" xml:space="preserve">
<rect fill="none" width="24" height="24"/>
<path d="M20.5,2h-9C11.2,2,11,2.2,11,2.5V6c0,0.3,0.2,0.5,0.5,0.5h0.8c0.2,0,0.3-0.1,0.4-0.2C13,5.8,13.5,5.5,14,5.5
	c0.8,0,1.5,0.7,1.5,1.5S14.8,8.5,14,8.5c-0.5,0-1-0.3-1.3-0.8c-0.1-0.2-0.3-0.2-0.4-0.2h-0.8C11.2,7.5,11,7.7,11,8v3H8.5v0
	c0.6-0.5,1-1.2,1-2c0-1.4-1.1-2.5-2.5-2.5S4.5,7.6,4.5,9c0,0.8,0.4,1.5,1,2l-3,0C2.2,11,2,11.2,2,11.5v9C2,20.8,2.2,21,2.5,21h9h9
	c0.3,0,0.5-0.2,0.5-0.5v-9v-9C21,2.2,20.8,2,20.5,2z M12,8.5c0.5,0.6,1.2,1,2,1c1.4,0,2.5-1.1,2.5-2.5S15.4,4.5,14,4.5
	c-0.8,0-1.5,0.4-2,1L12,3h8v8h-3c-0.3,0-0.5,0.2-0.5,0.5v0.8c0,0.2,0.1,0.3,0.2,0.4c0.5,0.3,0.8,0.8,0.8,1.3c0,0.8-0.7,1.5-1.5,1.5
	s-1.5-0.7-1.5-1.5c0-0.5,0.3-1,0.8-1.3c0.2-0.1,0.2-0.3,0.2-0.4v-0.8c0-0.3-0.2-0.5-0.5-0.5h-3L12,8.5L12,8.5z M3,12h3
	c0.3,0,0.5-0.2,0.5-0.5v-0.8c0-0.2-0.1-0.3-0.2-0.4C5.8,10,5.5,9.5,5.5,9c0-0.8,0.7-1.5,1.5-1.5S8.5,8.2,8.5,9c0,0.5-0.3,1-0.8,1.3
	c-0.2,0.1-0.2,0.3-0.2,0.4v0.8C7.5,11.8,7.7,12,8,12h3v2.5h0c-0.5-0.6-1.2-1-2-1c-1.4,0-2.5,1.1-2.5,2.5s1.1,2.5,2.5,2.5
	c0.8,0,1.5-0.4,2-1l0,2.5H3V12z M20,20h-8v-3c0-0.3-0.2-0.5-0.5-0.5h-0.8c-0.2,0-0.3,0.1-0.4,0.2C10,17.2,9.5,17.5,9,17.5
	c-0.8,0-1.5-0.7-1.5-1.5s0.7-1.5,1.5-1.5c0.5,0,1,0.3,1.3,0.8c0.1,0.2,0.3,0.2,0.4,0.2h0.8c0.3,0,0.5-0.2,0.5-0.5v-3h2.5v0
	c-0.6,0.5-1,1.2-1,2c0,1.4,1.1,2.5,2.5,2.5s2.5-1.1,2.5-2.5c0-0.8-0.4-1.5-1-2l2.5,0V20z"/>
</svg>
