<?xml version="1.0" encoding="utf-8"?>
<!-- Generator: Adobe Illustrator 22.0.1, SVG Export Plug-In . SVG Version: 6.00 Build 0)  -->
<svg version="1.1" id="Icon_build" xmlns="http://www.w3.org/2000/svg" xmlns:xlink="http://www.w3.org/1999/xlink" x="0px" y="0px"
	 width="24px" height="24px" viewBox="0 0 24 24" enable-background="new 0 0 24 24" xml:space="preserve">
<rect fill="none" width="24" height="24"/>
<g>
	<path d="M14.5,11h5c0.3,0,0.5-0.2,0.5-0.5S19.8,10,19.5,10h-5c-0.3,0-0.5,0.2-0.5,0.5S14.2,11,14.5,11z"/>
	<path d="M14.5,14h5c0.3,0,0.5-0.2,0.5-0.5S19.8,13,19.5,13h-5c-0.3,0-0.5,0.2-0.5,0.5S14.2,14,14.5,14z"/>
	<path d="M14.5,17h5c0.3,0,0.5-0.2,0.5-0.5S19.8,16,19.5,16h-5c-0.3,0-0.5,0.2-0.5,0.5S14.2,17,14.5,17z"/>
	<path d="M7.5,18c2.5,0,4.5-2,4.5-4.5S10,9,7.5,9S3,11,3,13.5S5,18,7.5,18z M7.5,10c1.9,0,3.5,1.6,3.5,3.5S9.4,17,7.5,17
		S4,15.4,4,13.5S5.6,10,7.5,10z"/>
	<path d="M18.5,6H8.9l6-5.1c0.2-0.2,0.2-0.5,0.1-0.7c-0.2-0.2-0.5-0.2-0.7-0.1L7.3,6H5.5C3,6,1,8,1,10.5v10C1,20.8,1.2,21,1.5,21H3
		v0.5C3,21.8,3.2,22,3.5,22S4,21.8,4,21.5V21h16v0.5c0,0.3,0.2,0.5,0.5,0.5s0.5-0.2,0.5-0.5V21h1.5c0.3,0,0.5-0.2,0.5-0.5v-10
		C23,8,21,6,18.5,6z M5.5,7h13c1.9,0,3.5,1.6,3.5,3.5V20H2v-9.5C2,8.6,3.6,7,5.5,7z"/>
</g>
</svg>
