<?xml version="1.0" encoding="utf-8"?>
<!-- Generator: Adobe Illustrator 22.1.0, SVG Export Plug-In . SVG Version: 6.00 Build 0)  -->
<svg version="1.1" xmlns="http://www.w3.org/2000/svg" xmlns:xlink="http://www.w3.org/1999/xlink" x="0px" y="0px" width="24px"
	 height="24px" viewBox="0 0 24 24" enable-background="new 0 0 24 24" xml:space="preserve">
<g id="raster">
</g>
<g id="Guides" display="none">
</g>
<g id="Ebene_4">
</g>
<g id="Icon_build">
	<g>
		<path d="M21.8,5.1c-1.4-2-3.2-3.4-5.2-4.1c-0.3-0.1-0.5,0-0.6,0.3s0,0.5,0.3,0.6c1.8,0.6,3.5,2,4.7,3.8c1.3,1.8,2,3.8,2,5.7
			c0,0.3,0.2,0.5,0.5,0.5c0,0,0,0,0,0c0.3,0,0.5-0.2,0.5-0.5C23.9,9.3,23.2,7.1,21.8,5.1z"/>
		<path d="M15.9,4.3c1.3,0.5,2.4,1.4,3.3,2.7c0.9,1.3,1.4,2.7,1.4,4c0,0.3,0.2,0.5,0.5,0.5c0,0,0,0,0,0c0.3,0,0.5-0.2,0.5-0.5
			c0-1.5-0.6-3.2-1.6-4.6c-1-1.4-2.4-2.5-3.8-3c-0.3-0.1-0.5,0-0.6,0.3C15.5,3.9,15.6,4.2,15.9,4.3z"/>
		<path d="M18.7,12.1c-1.7-1-3.6-1.7-4.8-1.5c-0.1-0.6-0.4-1-0.9-1.3C13.7,8.4,14,6.7,14,5c0-2.4-0.6-5-2-5s-2,2.6-2,5
			c0,1.7,0.3,3.4,0.9,4.3c-0.5,0.3-0.8,0.8-0.9,1.3c-1.2-0.2-3.1,0.5-4.8,1.5c-2.2,1.3-4.3,3.2-3.6,4.4c0.2,0.4,0.7,0.6,1.3,0.6
			c1.2,0,2.8-0.7,4.3-1.5c1.5-0.9,2.9-2,3.5-3c0.2,0.2,0.5,0.3,0.7,0.4v8.8c-0.1-0.1-0.2-0.1-0.2-0.1C10.8,21.3,10.4,21,10,21
			c-0.4,0-0.8,0.3-1.3,0.6C8.5,21.7,8.1,22,8,22c-0.1,0-0.5-0.3-0.7-0.4C6.8,21.3,6.4,21,6,21c-0.4,0-1,0.4-1.8,1.1
			c-0.2,0.2-0.2,0.5,0,0.7c0.2,0.2,0.5,0.2,0.7,0C5.3,22.4,5.9,22,6,22c0.1,0,0.5,0.3,0.7,0.4C7.2,22.7,7.6,23,8,23
			c0.4,0,0.8-0.3,1.3-0.6C9.5,22.3,9.9,22,10,22c0.1,0,0.5,0.3,0.7,0.4c0.5,0.3,0.9,0.6,1.3,0.6s0.8-0.3,1.3-0.6
			c0.2-0.1,0.6-0.4,0.7-0.4c0.1,0,0.5,0.3,0.7,0.4c0.4,0.3,0.9,0.6,1.3,0.6s0.8-0.3,1.3-0.6c0.2-0.1,0.6-0.4,0.7-0.4
			c0.2,0,0.8,0.5,1.3,0.9c0.2,0.2,0.5,0.2,0.7-0.1c0.2-0.2,0.2-0.5-0.1-0.7c-0.6-0.5-1.4-1.1-1.9-1.1c-0.4,0-0.8,0.3-1.3,0.6
			C16.5,21.7,16.1,22,16,22c-0.1,0-0.5-0.3-0.7-0.4C14.8,21.3,14.4,21,14,21c-0.4,0-0.8,0.3-1.3,0.6c-0.1,0-0.1,0.1-0.2,0.1v-8.8
			c0.3-0.1,0.5-0.2,0.7-0.4c0.6,1,2,2.2,3.5,3c1.5,0.8,3.2,1.5,4.3,1.5c0.6,0,1.1-0.2,1.3-0.6C23,15.3,20.9,13.4,18.7,12.1z M11,5
			c0-2.6,0.7-4,1-4s1,1.4,1,4s-0.7,4-1,4S11,7.6,11,5z M6.8,14.7c-2.5,1.4-4.1,1.5-4.2,1.3c-0.1-0.3,0.8-1.6,3.2-3
			c1.9-1.1,3.2-1.4,3.9-1.4c0.2,0,0.3,0,0.4,0.1C10.1,11.9,9.2,13.3,6.8,14.7z M12,12c-0.6,0-1-0.4-1-1s0.4-1,1-1s1,0.4,1,1
			S12.6,12,12,12z M17.2,14.7c-2.5-1.4-3.3-2.8-3.2-3c0.2-0.2,1.8-0.1,4.2,1.3c2.5,1.4,3.3,2.8,3.2,3C21.3,16.2,19.7,16.1,17.2,14.7
			z"/>
	</g>
	<rect fill="none" width="24" height="24"/>
</g>
</svg>
