<?xml version="1.0" encoding="utf-8"?>
<!-- Generator: Adobe Illustrator 22.1.0, SVG Export Plug-In . SVG Version: 6.00 Build 0)  -->
<svg version="1.1" xmlns="http://www.w3.org/2000/svg" xmlns:xlink="http://www.w3.org/1999/xlink" x="0px" y="0px" width="24px"
	 height="24px" viewBox="0 0 24 24" enable-background="new 0 0 24 24" xml:space="preserve">
<g id="raster">
</g>
<g id="Guides" display="none">
</g>
<g id="Ebene_4">
</g>
<g id="Icon_build">
	<g>
		<path d="M21,7.5C21,5,19,3,16.5,3S12,5,12,7.5c0,0.2,0,0.3,0,0.5H3.5C3.3,8,3,8.2,3,8.4l-2,12c0,0.1,0,0.3,0.1,0.4
			C1.2,20.9,1.4,21,1.5,21H9v2H6.5C6.2,23,6,23.2,6,23.5S6.2,24,6.5,24h3h3h2h1c0.3,0,0.5-0.2,0.5-0.5S15.8,23,15.5,23h-1H13v-2h7.5
			c0.1,0,0.3-0.1,0.4-0.2c0.1-0.1,0.1-0.3,0.1-0.4l-1.6-9.5C20.4,10.1,21,8.8,21,7.5z M12.5,20h-1v-3h4l0.3,3H12.5z M6.1,20l0.4-3h4
			v3h-1H6.1z M3.3,12.5H6L5.6,16H2.8L3.3,12.5z M7,12.5h3.5V16H6.6L7,12.5z M7.1,11.5L7.4,9h3v2.5H7.1z M11.5,16v-3.5H15l0.4,3.5
			H11.5z M16,12.5h2.7l0.6,3.5h-2.9L16,12.5z M18.5,11.5h-2.6L15.6,9h2.5L18.5,11.5z M14.6,9l0.3,2.5h-3.4V9H14.6z M6.4,9l-0.3,2.5
			H3.5L3.9,9H6.4z M2.6,17h2.8l-0.4,3h-3L2.6,17z M12,23h-2v-2h2V23z M16.8,20l-0.3-3h2.9l0.5,3H16.8z M19,8.4C19,8.2,18.7,8,18.5,8
			h-5.4C13,7.8,13,7.7,13,7.5C13,5.6,14.6,4,16.5,4S20,5.6,20,7.5c0,0.8-0.3,1.6-0.8,2.2L19,8.4z"/>
		<path d="M23.5,7h-1C22.2,7,22,7.2,22,7.5S22.2,8,22.5,8h1C23.8,8,24,7.8,24,7.5S23.8,7,23.5,7z"/>
		<path d="M22.8,10.7l-0.9-0.5c-0.2-0.1-0.5-0.1-0.7,0.2c-0.1,0.2-0.1,0.5,0.2,0.7l0.9,0.5c0.1,0,0.2,0.1,0.3,0.1
			c0.2,0,0.3-0.1,0.4-0.2C23.1,11.1,23,10.8,22.8,10.7z"/>
		<path d="M21.6,4.9c0.1,0,0.2,0,0.3-0.1l0.9-0.5c0.2-0.1,0.3-0.4,0.2-0.7c-0.1-0.2-0.4-0.3-0.7-0.2L21.4,4
			c-0.2,0.1-0.3,0.4-0.2,0.7C21.3,4.8,21.5,4.9,21.6,4.9z"/>
		<path d="M19.6,2.7c0.2,0,0.3-0.1,0.4-0.2l0.6-0.8c0.2-0.2,0.1-0.5-0.1-0.7c-0.2-0.2-0.5-0.1-0.7,0.1l-0.6,0.8
			C19,2.2,19,2.5,19.3,2.6C19.4,2.7,19.5,2.7,19.6,2.7z"/>
		<path d="M16.6,2C16.6,2,16.6,2,16.6,2c0.3,0,0.5-0.3,0.5-0.5l-0.1-1C17,0.2,16.7,0,16.5,0C16.2,0,16,0.3,16,0.5l0.1,1
			C16.1,1.8,16.3,2,16.6,2z"/>
		<path d="M12.7,2.8C12.8,2.9,13,3,13.1,3c0.1,0,0.2,0,0.3-0.1c0.2-0.2,0.3-0.5,0.1-0.7L13,1.4c-0.2-0.2-0.5-0.3-0.7-0.1
			C12.1,1.4,12,1.7,12.2,2L12.7,2.8z"/>
		<path d="M9.9,5l0.9,0.4c0.1,0,0.1,0,0.2,0c0.2,0,0.4-0.1,0.5-0.3c0.1-0.3,0-0.5-0.2-0.7l-0.9-0.4c-0.2-0.1-0.5,0-0.7,0.2
			C9.6,4.6,9.7,4.9,9.9,5z"/>
	</g>
	<rect fill="none" width="24" height="24"/>
</g>
</svg>
