<?xml version="1.0" encoding="utf-8"?>
<!-- Generator: Adobe Illustrator 22.1.0, SVG Export Plug-In . SVG Version: 6.00 Build 0)  -->
<svg version="1.1" xmlns="http://www.w3.org/2000/svg" xmlns:xlink="http://www.w3.org/1999/xlink" x="0px" y="0px" width="24px"
	 height="24px" viewBox="0 0 24 24" enable-background="new 0 0 24 24" xml:space="preserve">
<g id="raster">
</g>
<g id="Guides" display="none">
</g>
<g id="Ebene_4">
</g>
<g id="Icon_build">
	<rect fill="none" width="24" height="24"/>
	<g>
		<path d="M21.8,5.1c-1.4-2-3.2-3.4-5.2-4.1c-0.3-0.1-0.5,0-0.6,0.3s0,0.5,0.3,0.6c1.8,0.6,3.5,2,4.7,3.8c1.3,1.8,2,3.8,2,5.7
			c0,0.3,0.2,0.5,0.5,0.5c0,0,0,0,0,0c0.3,0,0.5-0.2,0.5-0.5C23.9,9.3,23.2,7.1,21.8,5.1z"/>
		<path d="M15.9,4.3c1.3,0.5,2.4,1.4,3.3,2.7c0.9,1.3,1.4,2.7,1.4,4c0,0.3,0.2,0.5,0.5,0.5c0,0,0,0,0,0c0.3,0,0.5-0.2,0.5-0.5
			c0-1.5-0.6-3.2-1.6-4.6c-1-1.4-2.4-2.5-3.8-3c-0.3-0.1-0.5,0-0.6,0.3C15.5,3.9,15.6,4.2,15.9,4.3z"/>
		<path d="M18.7,12.1c-1.7-1-3.6-1.7-4.8-1.5c-0.1-0.6-0.4-1-0.9-1.3C13.7,8.4,14,6.7,14,5c0-2.4-0.6-5-2-5s-2,2.6-2,5
			c0,1.7,0.3,3.4,0.9,4.3c-0.5,0.3-0.8,0.8-0.9,1.3c-1.2-0.2-3.1,0.5-4.8,1.5c-2.2,1.3-4.3,3.2-3.6,4.4c0.2,0.4,0.7,0.6,1.3,0.6
			c1.2,0,2.8-0.7,4.3-1.5c1.2-0.7,2.2-1.4,2.9-2.2c0.3-0.3,0.5-0.6,0.6-0.8c0.2,0.2,0.5,0.3,0.7,0.4V22h-2C9.2,22,9,22.2,9,22.5
			S9.2,23,9.5,23h5c0.3,0,0.5-0.2,0.5-0.5S14.8,22,14.5,22h-2v-9.1c0.3-0.1,0.5-0.2,0.7-0.4c0.1,0.2,0.3,0.5,0.6,0.8
			c0.7,0.7,1.7,1.5,2.9,2.2c1.5,0.8,3.2,1.5,4.3,1.5c0.6,0,1.1-0.2,1.3-0.6C23,15.3,20.9,13.4,18.7,12.1z M11,5c0-2.6,0.7-4,1-4
			s1,1.4,1,4s-0.7,4-1,4S11,7.6,11,5z M6.8,14.7c-2.5,1.4-4.1,1.5-4.2,1.3c-0.1-0.3,0.8-1.6,3.2-3c1.9-1.1,3.2-1.4,3.9-1.4
			c0.2,0,0.3,0,0.4,0.1C10.1,11.9,9.2,13.3,6.8,14.7z M12,12c-0.6,0-1-0.4-1-1s0.4-1,1-1s1,0.4,1,1S12.6,12,12,12z M17.2,14.7
			c-2.5-1.4-3.3-2.8-3.2-3c0.2-0.2,1.8-0.1,4.2,1.3c2.5,1.4,3.3,2.8,3.2,3C21.3,16.2,19.7,16.1,17.2,14.7z"/>
	</g>
</g>
</svg>
