<?xml version="1.0" encoding="utf-8"?>
<!-- Generator: Adobe Illustrator 22.1.0, SVG Export Plug-In . SVG Version: 6.00 Build 0)  -->
<svg version="1.1" xmlns="http://www.w3.org/2000/svg" xmlns:xlink="http://www.w3.org/1999/xlink" x="0px" y="0px" width="24px"
	 height="24px" viewBox="0 0 24 24" enable-background="new 0 0 24 24" xml:space="preserve">
<g id="raster">
</g>
<g id="Guides" display="none">
</g>
<g id="Ebene_4">
</g>
<g id="Icon_build">
	<path d="M23,9.5L23,9.5C23,9.5,23,9.5,23,9.5c0-0.1,0-0.1,0-0.2c0,0,0-0.1-0.1-0.1c0,0,0-0.1-0.1-0.1c0,0-0.1-0.1-0.1-0.1
		c0,0,0,0,0,0l0,0c0,0,0,0,0,0L16,6.2V5h6v0.5C22,5.8,22.2,6,22.5,6S23,5.8,23,5.5v-1c0,0,0,0,0,0v0c0,0,0,0,0,0c0-0.1,0-0.1,0-0.2
		c0,0,0-0.1-0.1-0.1c0,0,0-0.1-0.1-0.1c0,0-0.1-0.1-0.1-0.1c0,0,0,0,0,0l0,0c0,0,0,0,0,0l-7-3c0,0,0,0,0,0c0,0,0,0-0.1,0
		c0,0-0.1,0-0.1,0h-7c0,0,0,0,0,0c0,0-0.1,0-0.1,0c0,0-0.1,0-0.1,0c0,0,0,0,0,0l-7,3c0,0,0,0,0,0l0,0c0,0,0,0,0,0
		c0,0-0.1,0.1-0.1,0.1c0,0,0,0.1-0.1,0.1c0,0,0,0-0.1,0.1c0,0.1,0,0.1,0,0.2c0,0,0,0,0,0v0c0,0,0,0,0,0v1C1,5.8,1.2,6,1.5,6
		S2,5.8,2,5.5V5h6v1.2L1.3,9c0,0,0,0,0,0l0,0c0,0,0,0,0,0c0,0-0.1,0.1-0.1,0.1c0,0,0,0.1-0.1,0.1c0,0,0,0-0.1,0.1c0,0.1,0,0.1,0,0.2
		c0,0,0,0,0,0v0c0,0,0,0,0,0v1C1,10.8,1.2,11,1.5,11S2,10.8,2,10.5V10h5.8L3,22.3c0,0,0,0,0,0.1c0,0,0,0.1,0,0.1c0,0,0,0.1,0,0.1
		c0,0,0,0.1,0,0.1c0,0,0,0.1,0,0.1c0,0,0,0,0,0.1c0,0,0,0,0,0c0,0,0.1,0.1,0.1,0.1c0,0,0,0,0.1,0c0,0,0,0,0,0c0.1,0,0.1,0,0.2,0
		c0.1,0,0.2,0,0.3-0.1c0,0,0,0,0,0l8.2-6.3l8.2,6.3c0,0,0,0,0,0c0.1,0.1,0.2,0.1,0.3,0.1c0.1,0,0.1,0,0.2,0c0,0,0,0,0,0
		c0,0,0,0,0.1,0c0,0,0.1-0.1,0.1-0.1c0,0,0,0,0,0c0,0,0,0,0-0.1c0,0,0-0.1,0-0.1c0,0,0-0.1,0-0.1c0,0,0-0.1,0-0.1c0,0,0-0.1,0-0.1
		c0,0,0,0,0-0.1L16.2,10H22v0.5c0,0.3,0.2,0.5,0.5,0.5s0.5-0.2,0.5-0.5V9.5C23,9.5,23,9.5,23,9.5z M15.2,10l0.9,2.2l-4,3.1l-4-3.1
		L8.8,10H15.2z M9,9V7h6v2H9z M8,9H3.9L8,7.3V9z M16,7.3L20.1,9H16V7.3z M15,2v2H9V2H15z M16,2.3L20.1,4H16V2.3z M3.9,4L8,2.3V4H3.9
		z M15,5v1H9V5H15z M4.6,21l3-7.8l3.6,2.7L4.6,21z M16.4,13.2l3,7.8L12.8,16L16.4,13.2z"/>
	<rect fill="none" width="24" height="24"/>
</g>
</svg>
