<?xml version="1.0" encoding="utf-8"?>
<!-- Generator: Adobe Illustrator 22.1.0, SVG Export Plug-In . SVG Version: 6.00 Build 0)  -->
<svg version="1.1" xmlns="http://www.w3.org/2000/svg" xmlns:xlink="http://www.w3.org/1999/xlink" x="0px" y="0px" width="24px"
	 height="24px" viewBox="0 0 24 24" enable-background="new 0 0 24 24" xml:space="preserve">
<g id="raster">
</g>
<g id="Guides" display="none">
</g>
<g id="Ebene_4">
</g>
<g id="Icon_build">
	<rect fill="none" width="24" height="24"/>
	<g>
		<path d="M5.5,3C5.8,3,6,2.8,6,2.5C6,2.2,6.2,2,6.5,2h1C8.3,2,9,1.3,9,0.5C9,0.2,8.8,0,8.5,0S8,0.2,8,0.5C8,0.8,7.8,1,7.5,1h-1
			C5.7,1,5,1.7,5,2.5C5,2.8,5.2,3,5.5,3z"/>
		<path d="M9.5,3C9.8,3,10,2.8,10,2.5C10,2.2,10.2,2,10.5,2h1C12.3,2,13,1.3,13,0.5C13,0.2,12.8,0,12.5,0S12,0.2,12,0.5
			C12,0.8,11.8,1,11.5,1h-1C9.7,1,9,1.7,9,2.5C9,2.8,9.2,3,9.5,3z"/>
		<path d="M15.5,6C15.8,6,16,5.8,16,5.5C16,5.2,16.2,5,16.5,5h1C18.3,5,19,4.3,19,3.5C19,3.2,18.8,3,18.5,3S18,3.2,18,3.5
			C18,3.8,17.8,4,17.5,4h-1C15.7,4,15,4.7,15,5.5C15,5.8,15.2,6,15.5,6z"/>
		<path d="M19.5,6C19.8,6,20,5.8,20,5.5C20,5.2,20.2,5,20.5,5h1C22.3,5,23,4.3,23,3.5C23,3.2,22.8,3,22.5,3S22,3.2,22,3.5
			C22,3.8,21.8,4,21.5,4h-1C19.7,4,19,4.7,19,5.5C19,5.8,19.2,6,19.5,6z"/>
		<path d="M23,18.6C23,18.5,23,18.5,23,18.6C23,18.5,23,18.5,23,18.6c0-0.1,0-0.1,0-0.1l-2-11c0,0,0,0,0-0.1c0,0,0-0.1,0-0.1
			c0,0,0,0,0-0.1c0,0-0.1-0.1-0.1-0.1c0,0,0,0-0.1,0c0,0-0.1,0-0.1-0.1c0,0,0,0-0.1,0c0,0,0,0-0.1,0h-5c0,0,0,0-0.1,0
			c0,0-0.1,0-0.1,0c0,0-0.1,0-0.1,0c0,0,0,0-0.1,0c0,0-0.1,0-0.1,0.1c0,0,0,0,0,0.1c0,0,0,0.1,0,0.1c0,0,0,0,0,0.1L13.4,16L12,4.4
			c0,0,0,0,0-0.1c0,0,0-0.1,0-0.1c0,0,0-0.1-0.1-0.1c0,0,0,0-0.1-0.1c0,0-0.1,0-0.1-0.1c0,0,0,0-0.1,0c0,0-0.1,0-0.1,0
			c0,0,0,0-0.1,0h-8c0,0,0,0-0.1,0c0,0-0.1,0-0.1,0c0,0,0,0-0.1,0c0,0-0.1,0-0.1,0.1c0,0,0,0-0.1,0.1c0,0,0,0.1-0.1,0.1
			c0,0,0,0.1,0,0.1c0,0,0,0,0,0.1l-2,16c0,0,0,0,0,0c0,0,0,0,0,0c0,0,0,0,0,0.1c0,0,0,0.1,0,0.1c0,0,0,0.1,0,0.1c0,0,0,0.1,0.1,0.1
			c0,0,0,0,0.1,0.1c0,0,0,0,0.1,0.1c0,0,0.1,0,0.1,0c0,0,0,0,0.1,0c0,0,0,0,0.1,0c0,0,0,0,0,0h12c0,0,0,0,0,0c0,0,0,0,0.1,0
			c0,0,0,0,0.1,0c0,0,0.1,0,0.1,0c0,0,0.1,0,0.1-0.1c0,0,0.1,0,0.1-0.1c0,0,0,0,0.1-0.1c0,0,0-0.1,0-0.1c0,0,0-0.1,0-0.1
			c0,0,0,0,0-0.1c0,0,0,0,0,0c0,0,0,0,0,0L13.8,19h8.7c0,0,0,0,0,0c0,0,0.1,0,0.1,0c0,0,0,0,0.1,0c0,0,0.1,0,0.1,0
			c0,0,0.1,0,0.1-0.1c0,0,0,0,0.1-0.1c0,0,0-0.1,0.1-0.1C22.9,18.7,23,18.7,23,18.6C23,18.6,23,18.6,23,18.6z M15.9,8h4.2l1.8,10
			h-7.8L15.9,8z M3.9,5h7.1l1.9,15H2.1L3.9,5z"/>
	</g>
</g>
</svg>
