<?xml version="1.0" encoding="utf-8"?>
<!-- Generator: Adobe Illustrator 22.1.0, SVG Export Plug-In . SVG Version: 6.00 Build 0)  -->
<svg version="1.1" xmlns="http://www.w3.org/2000/svg" xmlns:xlink="http://www.w3.org/1999/xlink" x="0px" y="0px" width="24px"
	 height="24px" viewBox="0 0 24 24" enable-background="new 0 0 24 24" xml:space="preserve">
<g id="raster">
</g>
<g id="Guides" display="none">
</g>
<g id="Ebene_4">
</g>
<g id="Icon_build">
	<g>
		<path d="M6,9.8c0.1,0.4,0.2,0.7,0.4,1.1l-1.1,1.1c-0.1,0.1-0.1,0.2-0.1,0.4s0.1,0.3,0.1,0.4l0.2,0.2C6.4,13.7,7.8,14,9,13.5
			c0.3,0.2,0.6,0.3,1,0.4v1.6c0,0.3,0.2,0.5,0.5,0.5h0.3c1.3,0,2.5-0.8,2.9-2c0.4-0.1,0.7-0.2,1.1-0.4l1.1,1.1
			c0.1,0.1,0.2,0.1,0.4,0.1s0.3-0.1,0.4-0.1l0.2-0.2c0.9-0.9,1.2-2.3,0.6-3.5c0.2-0.3,0.3-0.6,0.4-1h1.6c0.3,0,0.5-0.2,0.5-0.5V9.2
			c0-1.3-0.8-2.5-2-2.9c-0.1-0.4-0.2-0.7-0.4-1.1l1.1-1.1c0.1-0.1,0.1-0.2,0.1-0.4s-0.1-0.3-0.1-0.4l-0.2-0.2
			C17.6,2.3,16.2,2,15,2.6c-0.3-0.2-0.6-0.3-1-0.4V0.5c0-0.1-0.1-0.3-0.1-0.4S13.6,0,13.5,0l-0.3,0c-1.3,0-2.5,0.8-3,2
			C9.9,2.1,9.5,2.3,9.2,2.5L8.1,1.3C8,1.2,7.9,1.2,7.7,1.2h0c-0.1,0-0.3,0.1-0.4,0.1L7.2,1.5C6.3,2.4,6,3.8,6.5,5
			C6.4,5.3,6.2,5.7,6.1,6H4.5C4.2,6,4,6.2,4,6.5v0.3C4,8.1,4.8,9.3,6,9.8z M6.5,7C6.7,7,6.9,6.8,7,6.6c0.1-0.5,0.3-0.9,0.6-1.3
			c0.1-0.2,0.1-0.3,0-0.5C7.1,4,7.2,3.1,7.7,2.4l1,1c0.2,0.2,0.4,0.2,0.6,0.1c0.4-0.3,0.9-0.4,1.4-0.6c0.2,0,0.3-0.2,0.4-0.4
			c0.2-0.9,1-1.5,1.9-1.6v1.5c0,0.2,0.2,0.4,0.4,0.5c0.5,0.1,0.9,0.3,1.3,0.6c0.2,0.1,0.3,0.1,0.5,0c0.7-0.4,1.7-0.3,2.4,0.2l-1,1
			c-0.2,0.2-0.2,0.4-0.1,0.6c0.3,0.4,0.5,0.9,0.6,1.4c0,0.2,0.2,0.3,0.4,0.4c0.9,0.2,1.5,1,1.6,1.9h-1.5c-0.2,0-0.4,0.2-0.5,0.4
			c-0.1,0.5-0.3,0.9-0.6,1.4c-0.1,0.2-0.1,0.4,0,0.5c0.4,0.8,0.4,1.7-0.2,2.4l-1-1c-0.2-0.2-0.4-0.2-0.6-0.1
			c-0.4,0.3-0.9,0.5-1.4,0.6c-0.2,0-0.3,0.2-0.4,0.4c-0.2,0.9-1,1.5-1.9,1.6v-1.5c0-0.2-0.2-0.4-0.4-0.5c-0.5-0.1-0.9-0.3-1.3-0.5
			c-0.1,0-0.2-0.1-0.3-0.1c-0.1,0-0.2,0-0.2,0.1c-0.7,0.4-1.7,0.3-2.4-0.2l1-1c0.2-0.2,0.2-0.4,0.1-0.6C7.2,10.2,7,9.7,6.9,9.2
			c0-0.2-0.2-0.3-0.4-0.4C5.7,8.6,5.1,7.9,5,7H6.5z"/>
		<path d="M18.7,21c-0.4,0-0.9,0.3-1.4,0.6c-0.3,0.2-0.7,0.4-0.9,0.4c-0.1,0-0.6-0.3-0.9-0.4c-0.5-0.3-1-0.6-1.4-0.6
			c-0.4,0-0.9,0.3-1.4,0.6C12.6,21.7,12.2,22,12,22c-0.2,0-0.6-0.3-0.9-0.4c-0.5-0.3-1-0.6-1.4-0.6c-0.4,0-0.9,0.3-1.4,0.6
			C8.1,21.7,7.6,22,7.4,22c-0.2,0-0.6-0.3-0.9-0.4c-0.5-0.3-1-0.6-1.4-0.6c-0.5,0-1.5,0.7-2,1.1c-0.2,0.2-0.3,0.5-0.1,0.7
			c0.2,0.2,0.5,0.3,0.7,0.1C4.4,22.5,5,22,5.2,22c0.2,0,0.6,0.3,0.9,0.4C6.6,22.7,7,23,7.4,23c0.4,0,0.9-0.3,1.4-0.6
			C9.1,22.3,9.6,22,9.7,22c0.2,0,0.6,0.3,0.9,0.4c0.5,0.3,1,0.6,1.4,0.6s0.9-0.3,1.4-0.6c0.3-0.2,0.7-0.4,0.9-0.4
			c0.1,0,0.6,0.3,0.9,0.4c0.5,0.3,1,0.6,1.4,0.6s0.9-0.3,1.4-0.6c0.3-0.2,0.7-0.4,0.9-0.4c0.2,0,0.9,0.4,1.5,0.9
			c0.2,0.2,0.5,0.1,0.7-0.1c0.2-0.2,0.1-0.5-0.1-0.7C20.2,21.7,19.3,21,18.7,21z"/>
		<path d="M18.7,19c-0.4,0-0.9,0.3-1.4,0.6c-0.3,0.2-0.7,0.4-0.9,0.4c-0.1,0-0.6-0.3-0.9-0.4c-0.5-0.3-1-0.6-1.4-0.6
			c-0.4,0-0.9,0.3-1.4,0.6C12.6,19.7,12.2,20,12,20c-0.2,0-0.6-0.3-0.9-0.4c-0.5-0.3-1-0.6-1.4-0.6c-0.4,0-0.9,0.3-1.4,0.6
			C8.1,19.7,7.6,20,7.4,20c-0.2,0-0.6-0.3-0.9-0.4c-0.5-0.3-1-0.6-1.4-0.6c-0.5,0-1.5,0.7-2,1.1c-0.2,0.2-0.3,0.5-0.1,0.7
			c0.2,0.2,0.5,0.3,0.7,0.1C4.4,20.5,5,20,5.2,20c0.2,0,0.6,0.3,0.9,0.4C6.6,20.7,7,21,7.4,21c0.4,0,0.9-0.3,1.4-0.6
			C9.1,20.3,9.6,20,9.7,20c0.2,0,0.6,0.3,0.9,0.4c0.5,0.3,1,0.6,1.4,0.6s0.9-0.3,1.4-0.6c0.3-0.2,0.7-0.4,0.9-0.4
			c0.1,0,0.6,0.3,0.9,0.4c0.5,0.3,1,0.6,1.4,0.6s0.9-0.3,1.4-0.6c0.3-0.2,0.7-0.4,0.9-0.4c0.2,0,0.9,0.4,1.5,0.9
			c0.2,0.2,0.5,0.1,0.7-0.1c0.2-0.2,0.1-0.5-0.1-0.7C20.2,19.7,19.3,19,18.7,19z"/>
		<path d="M3.8,18.9C4.4,18.5,5,18,5.2,18c0.2,0,0.6,0.3,0.9,0.4C6.6,18.7,7,19,7.4,19c0.4,0,0.9-0.3,1.4-0.6
			C9.1,18.3,9.6,18,9.7,18c0.2,0,0.6,0.3,0.9,0.4c0.5,0.3,1,0.6,1.4,0.6s0.9-0.3,1.4-0.6c0.3-0.2,0.7-0.4,0.9-0.4
			c0.1,0,0.6,0.3,0.9,0.4c0.5,0.3,1,0.6,1.4,0.6s0.9-0.3,1.4-0.6c0.3-0.2,0.7-0.4,0.9-0.4c0.2,0,0.9,0.4,1.5,0.9
			c0.2,0.2,0.5,0.1,0.7-0.1c0.2-0.2,0.1-0.5-0.1-0.7c-0.5-0.4-1.5-1.1-2.1-1.1c-0.4,0-0.9,0.3-1.4,0.6c-0.3,0.2-0.7,0.4-0.9,0.4
			c-0.1,0-0.6-0.3-0.9-0.4c-0.5-0.3-1-0.6-1.4-0.6c-0.4,0-0.9,0.3-1.4,0.6C12.6,17.7,12.2,18,12,18c-0.2,0-0.6-0.3-0.9-0.4
			c-0.5-0.3-1-0.6-1.4-0.6c-0.4,0-0.9,0.3-1.4,0.6C8.1,17.7,7.6,18,7.4,18c-0.2,0-0.6-0.3-0.9-0.4c-0.5-0.3-1-0.6-1.4-0.6
			c-0.5,0-1.5,0.7-2,1.1c-0.2,0.2-0.3,0.5-0.1,0.7C3.3,19,3.6,19.1,3.8,18.9z"/>
		<path d="M12,12c2.2,0,4-1.8,4-4s-1.8-4-4-4S8,5.8,8,8S9.8,12,12,12z M12,5c1.7,0,3,1.3,3,3s-1.3,3-3,3S9,9.7,9,8S10.3,5,12,5z"/>
	</g>
	<rect fill="none" width="24" height="24"/>
</g>
</svg>
