<?xml version="1.0" encoding="utf-8"?>
<!-- Generator: Adobe Illustrator 22.0.1, SVG Export Plug-In . SVG Version: 6.00 Build 0)  -->
<svg version="1.1" id="Icon_build" xmlns="http://www.w3.org/2000/svg" xmlns:xlink="http://www.w3.org/1999/xlink" x="0px" y="0px"
	 width="24px" height="24px" viewBox="0 0 24 24" enable-background="new 0 0 24 24" xml:space="preserve">
<rect fill="none" width="24" height="24"/>
<path d="M23.5,13.4h-2.6c-0.5,0-0.9-0.4-0.9-0.8v-1.3c0-0.4,0.4-0.8,0.9-0.8h2.6c0.2,0,0.3-0.1,0.4-0.3s0.1-0.3,0-0.5
	c-0.8-1.3-2.2-2.1-3.7-2.1c-1.5,0-2.8,1.1-3.6,2.3H7.3c-0.7-1.2-2-2.3-3.6-2.3c-1.5,0-2.9,0.8-3.7,2.1C0,10,0,10.2,0.1,10.4
	s0.3,0.3,0.4,0.3h2.6C3.6,10.6,4,11,4,11.4v1.3c0,0.4-0.4,0.8-0.9,0.8H0.5c-0.2,0-0.3,0.1-0.4,0.3C0,13.8,0,14,0.1,14.2
	c0.8,1.3,2.2,2.1,3.7,2.1c1.5,0,2.8-1.1,3.6-2.3h9.4c0.7,1.2,2,2.3,3.6,2.3c1.5,0,2.9-0.8,3.7-2.1c0.1-0.2,0.1-0.3,0-0.5
	C23.8,13.5,23.7,13.4,23.5,13.4z M20.2,15.3c-1.2,0-2.3-1.1-2.8-2C17.3,13.1,17.1,13,17,13H7c-0.2,0-0.3,0.1-0.4,0.2
	c-0.6,0.9-1.6,2-2.8,2c-0.9,0-1.6-0.3-2.2-0.9h1.6c1,0,1.9-0.8,1.9-1.8v-1.3c0-1-0.9-1.8-1.9-1.8H1.5C2.1,9,2.9,8.7,3.8,8.7
	c1.2,0,2.3,1.1,2.8,2C6.7,10.9,6.9,11,7,11H17c0.2,0,0.3-0.1,0.4-0.2c0.6-0.9,1.6-2,2.8-2c0.9,0,1.6,0.3,2.2,0.9h-1.6
	c-1,0-1.9,0.8-1.9,1.8v1.3c0,1,0.9,1.8,1.9,1.8h1.6C21.9,15,21.1,15.3,20.2,15.3z"/>
</svg>
