<?xml version="1.0" encoding="utf-8"?>
<!-- Generator: Adobe Illustrator 22.0.1, SVG Export Plug-In . SVG Version: 6.00 Build 0)  -->
<svg version="1.1" id="Ebene_5" xmlns="http://www.w3.org/2000/svg" xmlns:xlink="http://www.w3.org/1999/xlink" x="0px" y="0px"
	 width="24px" height="24px" viewBox="0 0 24 24" enable-background="new 0 0 24 24" xml:space="preserve">
<rect fill="none" width="24" height="24"/>
<g>
	<path d="M20.7,8.1l-0.6-0.7c-0.2-0.2-0.3-0.7-0.3-1l0.2-1c0.1-0.6-0.3-1.3-0.9-1.6l-0.9-0.3c-0.3-0.1-0.6-0.4-0.7-0.7l-0.3-0.9
		c-0.2-0.6-0.9-1-1.6-0.9l-1,0.2c-0.3,0-0.7-0.1-1-0.3l-0.7-0.6c-0.5-0.4-1.3-0.4-1.8,0c0,0,0,0,0,0l-0.7,0.6
		c-0.2,0.2-0.7,0.3-1,0.3L8.4,1C7.8,0.9,7.1,1.3,6.9,1.9L6.5,2.8C6.4,3.1,6.1,3.4,5.8,3.5L4.9,3.9C4.3,4.1,3.9,4.8,4,5.4l0.2,1
		c0,0.3-0.1,0.7-0.3,1L3.3,8.1c-0.4,0.5-0.4,1.3,0,1.8l0.6,0.7c0.2,0.2,0.3,0.7,0.3,1l-0.2,1c-0.1,0.6,0.3,1.3,0.9,1.6l0.9,0.3
		c0.3,0.1,0.6,0.4,0.7,0.7l0.3,0.9C7,16.5,7.5,16.9,8,17v6.5c0,0.2,0.1,0.3,0.2,0.4s0.3,0.1,0.5,0l3.3-1.9l3.3,1.9
		c0.1,0,0.2,0.1,0.2,0.1c0.1,0,0.2,0,0.3-0.1c0.2-0.1,0.2-0.3,0.2-0.4V17c0.5-0.1,0.9-0.4,1.1-0.9l0.3-0.9c0.1-0.3,0.4-0.6,0.7-0.7
		l0.9-0.3c0.6-0.2,1-0.9,0.9-1.6l-0.2-1c0-0.3,0.1-0.7,0.3-1l0.6-0.7C21.1,9.4,21.1,8.6,20.7,8.1z M12.2,21.1
		c-0.2-0.1-0.3-0.1-0.5,0L9,22.6v-5.7l0.4-0.1c0.3,0,0.7,0.1,1,0.3l0.7,0.6c0.3,0.2,0.6,0.3,0.9,0.3s0.7-0.1,0.9-0.3l0.7-0.6
		c0.2-0.2,0.7-0.3,1-0.3l0.4,0.1v5.7L12.2,21.1z M19.9,9.3L19.3,10c-0.4,0.4-0.6,1.2-0.5,1.7l0.2,1c0,0.2-0.1,0.4-0.3,0.5l-0.9,0.3
		c-0.5,0.2-1.1,0.7-1.3,1.3l-0.3,0.9c-0.1,0.2-0.3,0.3-0.5,0.3l-1-0.2c-0.6-0.1-1.3,0.1-1.7,0.5l-0.7,0.6c-0.1,0.1-0.4,0.1-0.6,0
		L11,16.3c-0.4-0.3-1-0.5-1.5-0.5c-0.1,0-0.2,0-0.3,0l-1,0.2c-0.2,0-0.4-0.1-0.5-0.3l-0.3-0.9c-0.2-0.5-0.7-1.1-1.3-1.3l-0.9-0.3
		C5.1,13.1,5,12.9,5,12.7l0.2-1C5.3,11.2,5,10.5,4.7,10L4.1,9.3C4,9.1,4,8.9,4.1,8.7L4.7,8C5,7.5,5.3,6.8,5.2,6.2L5,5.3
		c0-0.2,0.1-0.4,0.3-0.5l0.9-0.3c0.5-0.2,1.1-0.7,1.3-1.3l0.3-0.9C7.9,2.1,8.1,2,8.3,2l1,0.2C9.8,2.2,10.5,2,11,1.7l0.7-0.6
		c0.1-0.1,0.4-0.1,0.6,0L13,1.7c0.4,0.4,1.2,0.6,1.7,0.5l1-0.2c0.2,0,0.4,0.1,0.5,0.3l0.3,0.9c0.2,0.5,0.7,1.1,1.3,1.3l0.9,0.3
		C18.9,4.9,19,5.1,19,5.3l-0.2,1C18.7,6.8,19,7.5,19.3,8l0.6,0.7C20,8.9,20,9.1,19.9,9.3z"/>
	<path d="M12,3C8.7,3,6,5.7,6,9s2.7,6,6,6s6-2.7,6-6S15.3,3,12,3z M12,14c-2.8,0-5-2.2-5-5s2.2-5,5-5s5,2.2,5,5S14.8,14,12,14z"/>
</g>
</svg>
