<?xml version="1.0" encoding="utf-8"?>
<!-- Generator: Adobe Illustrator 22.0.1, SVG Export Plug-In . SVG Version: 6.00 Build 0)  -->
<svg version="1.1" id="Icon_build" xmlns="http://www.w3.org/2000/svg" xmlns:xlink="http://www.w3.org/1999/xlink" x="0px" y="0px"
	 width="24px" height="24px" viewBox="0 0 24 24" enable-background="new 0 0 24 24" xml:space="preserve">
<rect fill="none" width="24" height="24"/>
<g>
	<path d="M12,6c-1.4,0-2.5,1.1-2.5,2.5S10.6,11,12,11s2.5-1.1,2.5-2.5S13.4,6,12,6z M12,10c-0.8,0-1.5-0.7-1.5-1.5S11.2,7,12,7
		s1.5,0.7,1.5,1.5S12.8,10,12,10z"/>
	<path d="M17.8,13.1c0.4-2.5,0.2-4.8-0.5-6.9c-1.5-4.4-4.9-6.1-5.1-6.2C12.1,0,11.9,0,11.8,0c-0.1,0.1-3.6,1.7-5.1,6.2
		C6,8.3,5.8,10.6,6.2,13.1C3.1,14.4,3,21.7,3,22.5c0,0.2,0.1,0.3,0.2,0.4C3.3,23,3.4,23,3.5,23c0.1,0,0.1,0,0.2,0l5-2c0,0,0,0,0,0
		c0.1,0.3,0.2,0.5,0.4,0.8C9.1,21.9,9.3,22,9.5,22h2v1.5c0,0.3,0.2,0.5,0.5,0.5s0.5-0.2,0.5-0.5V22h2c0.2,0,0.4-0.1,0.4-0.3
		c0.1-0.3,0.2-0.5,0.4-0.8c0,0,0,0,0,0l5,2c0.1,0,0.1,0,0.2,0c0.1,0,0.2,0,0.3-0.1c0.1-0.1,0.2-0.2,0.2-0.4
		C21,21.7,20.9,14.4,17.8,13.1z M12,1.1c0.5,0.3,1.9,1.2,3.1,2.9H8.9C10.1,2.3,11.5,1.4,12,1.1z M4,21.8c0.1-2.3,0.6-6.6,2.3-7.6
		C6.7,16,7.4,18,8.3,20L4,21.8z M14.2,21h-1.7v-6.5c0-0.3-0.2-0.5-0.5-0.5s-0.5,0.2-0.5,0.5V21H9.8C7,15.3,6.3,10.5,7.6,6.6
		C7.8,6,8.1,5.5,8.3,5c0,0,0.1,0,0.2,0h7c0.1,0,0.1,0,0.2,0c0.3,0.5,0.5,1,0.7,1.6C17.7,10.5,17,15.3,14.2,21z M15.7,20
		c0.9-2.1,1.6-4.1,1.9-5.9c1.7,1,2.3,5.3,2.3,7.6L15.7,20z"/>
</g>
</svg>
