<?xml version="1.0" encoding="utf-8"?>
<!-- Generator: Adobe Illustrator 22.0.1, SVG Export Plug-In . SVG Version: 6.00 Build 0)  -->
<svg version="1.1" id="Icon_build" xmlns="http://www.w3.org/2000/svg" xmlns:xlink="http://www.w3.org/1999/xlink" x="0px" y="0px"
	 width="24px" height="24px" viewBox="0 0 24 24" enable-background="new 0 0 24 24" xml:space="preserve">
<rect fill="none" width="24" height="24"/>
<g>
	<path d="M24,12.7c0-0.9-0.8-1.7-1.8-1.7l-0.3,0c-0.2-0.7-0.6-1.8-1.7-2.9l-0.2-0.2c0-0.1,0-0.2,0.1-0.3c0.2-0.7,0.4-2-0.4-2.6
		c0,0-0.1-0.1-0.1-0.1c-1-0.3-2,0.4-2.8,1.1c-0.8-0.2-2-0.3-2.9-0.3C13.8,5.4,14,4.9,14,4.4C14,2.6,12.4,1,10.6,1S7.2,2.6,7.2,4.4
		c0,0.4,0.1,0.8,0.2,1.2c0.2,0.5,0.5,0.9,0.9,1.3c-2.1,1-3.7,2.7-4.3,4.7c-0.1,0.2-0.1,0.4-0.1,0.6c-0.2,0.1-0.5,0.1-0.7,0.1
		c0.3-0.6,0.4-1.3,0.3-1.9C3.2,9.9,2.9,9.6,2.4,9.5c-0.4,0-0.7,0.1-0.9,0.3C1.1,10.3,1,11,1.3,12c0.1,0.3,0.2,0.5,0.3,0.7
		c-0.2,0.1-0.4,0-0.7-0.2c-0.2-0.2-0.5-0.2-0.7,0c-0.2,0.2-0.2,0.5,0,0.7c0.4,0.4,0.8,0.5,1.2,0.5c0.3,0,0.6-0.1,0.7-0.2
		c0.1-0.1,0.3-0.2,0.4-0.3c0.4,0.1,0.8,0.1,1.2,0c0,0,0,0.1,0,0.1c0,2.1,1,4,2.8,5.4c-0.1,0.3-0.3,0.9-0.5,1.5
		c-0.5,1.5,0.6,1.9,1,2.1l0.4,0.1c0.3,0.1,0.5,0.2,0.9,0.4C8.4,22.9,8.6,23,8.8,23c0.6,0,1.2-0.4,1.4-1.1l0.4-1.1
		c1.5,0.3,3.2,0.2,4.3,0l0.4,1.1c0.2,0.4,0.4,0.7,0.8,0.9c0.4,0.2,0.8,0.2,1.2,0l1.3-0.5c0.4-0.2,0.7-0.4,0.9-0.8
		c0.2-0.4,0.2-0.8,0.1-1.2L19.2,19c0.9-0.5,1.6-1.2,2.2-2.1l0.9,0c0.9,0,1.7-0.8,1.7-1.6L24,12.7z M2.2,11.8c-0.2-1.1,0-1.3,0.1-1.3
		C2.4,10.6,2.5,11.2,2.2,11.8z M10.6,2C11.9,2,13,3.1,13,4.4C13,5,12.7,5.6,12.4,6c0,0,0,0,0,0c-0.5,0.6-1.2,0.8-1.9,0.8
		c-0.1,0-0.3,0-0.4-0.1c-0.1,0-0.1,0-0.2,0C9.6,6.6,9.4,6.6,9.3,6.5c-0.4-0.3-0.8-0.7-1-1.2C8.2,5,8.2,4.7,8.2,4.4
		C8.2,3.1,9.2,2,10.6,2z M22.2,15.8l-1.2,0c-0.2,0-0.3,0.1-0.4,0.3c-0.6,1-1.3,1.7-2.3,2.2c-0.2,0.1-0.3,0.4-0.2,0.6l0.6,1.7
		c0.1,0.2,0.1,0.4,0,0.5c-0.1,0.2-0.2,0.3-0.3,0.3l-1.3,0.5c-0.2,0.1-0.4,0.1-0.5,0c-0.2-0.1-0.3-0.2-0.3-0.3l-0.5-1.5
		c-0.1-0.2-0.3-0.4-0.6-0.3c-0.9,0.2-3,0.5-4.6,0c-0.2-0.1-0.5,0.1-0.6,0.3l-0.6,1.5c-0.1,0.4-0.4,0.5-0.8,0.4
		c-0.4-0.2-0.6-0.2-0.9-0.3l-0.4-0.1c-0.4-0.2-0.6-0.2-0.4-0.8c0.3-0.9,0.7-1.8,0.7-1.8c0.1-0.2,0-0.4-0.2-0.6
		c-1.7-1.3-2.6-3-2.6-4.8c0,0,0-0.9,0.2-1.5C5.5,10,7.1,8.4,9.2,7.5c0.2,0.1,0.3,0.1,0.5,0.2c0,0,0,0,0,0c0.3,0.1,0.5,0.1,0.8,0.1
		c0,0,0.1,0,0.1,0c0,0,0.1,0,0.1,0c0.3,0,0.6-0.1,0.9-0.2c0,0,0,0,0,0c0.1-0.1,0.3-0.1,0.4-0.2c0,0,0.1,0,0.1,0
		c0.1-0.1,0.3-0.1,0.4-0.2c0,0,0,0,0,0C12.7,7,12.9,6.9,13,6.8c1.1,0,2.8,0.1,3.6,0.4c0.2,0,0.3,0,0.5-0.1C17.9,6.3,18.5,5.9,19,6
		c0.2,0.3,0,1.1,0,1.5c-0.1,0.5-0.2,0.8,0.1,1l0.4,0.4c1,0.9,1.3,1.9,1.5,2.5c0,0.1,0.1,0.2,0.1,0.3c0.1,0.2,0.3,0.3,0.5,0.3l0.7,0
		c0.4,0,0.8,0.3,0.8,0.7l0,2.5C23,15.5,22.6,15.8,22.2,15.8z"/>
	<path d="M13.9,8.1c-0.1,0-0.9-0.3-2.7-0.1c-2.1,0.3-2.7,1-2.8,1.2C8.3,9.5,8.3,9.8,8.6,9.9C8.6,10,8.7,10,8.8,10
		C9,10,9.1,9.9,9.2,9.8c0,0,0.4-0.5,2.1-0.8c1.5-0.2,2.2,0,2.2,0c0.3,0.1,0.5,0,0.6-0.3S14.1,8.2,13.9,8.1z"/>
	<path d="M18.5,10c-0.8,0-1.5,0.7-1.5,1.5c0,0.8,0.7,1.5,1.5,1.5s1.5-0.7,1.5-1.5C20,10.7,19.3,10,18.5,10z M18.5,12
		c-0.3,0-0.5-0.2-0.5-0.5c0-0.3,0.2-0.5,0.5-0.5s0.5,0.2,0.5,0.5C19,11.8,18.8,12,18.5,12z"/>
</g>
</svg>
