<?xml version="1.0" encoding="utf-8"?>
<!-- Generator: Adobe Illustrator 22.0.1, SVG Export Plug-In . SVG Version: 6.00 Build 0)  -->
<svg version="1.1" id="Icon_build" xmlns="http://www.w3.org/2000/svg" xmlns:xlink="http://www.w3.org/1999/xlink" x="0px" y="0px"
	 width="24px" height="24px" viewBox="0 0 24 24" enable-background="new 0 0 24 24" xml:space="preserve">
<rect fill="none" width="24" height="24"/>
<path d="M21,20.3l-4.5-4.5c1.5-1.7,2.5-3.9,2.5-6.4C19,4.3,14.7,0,9.5,0S0,4.3,0,9.5S4.3,19,9.5,19c2.4,0,4.6-0.9,6.3-2.4l4.5,4.5
	c0.1,0.1,0.2,0.1,0.4,0.1s0.3,0,0.4-0.1C21.2,20.8,21.2,20.5,21,20.3z M1,9.5C1,4.8,4.8,1,9.5,1S18,4.8,18,9.5
	c0,4.7-3.8,8.5-8.5,8.5S1,14.2,1,9.5z"/>
</svg>
