<?xml version="1.0" encoding="utf-8"?>
<!-- Generator: Adobe Illustrator 22.0.1, SVG Export Plug-In . SVG Version: 6.00 Build 0)  -->
<svg version="1.1" id="Ebene_5" xmlns="http://www.w3.org/2000/svg" xmlns:xlink="http://www.w3.org/1999/xlink" x="0px" y="0px"
	 width="24px" height="24px" viewBox="0 0 24 24" enable-background="new 0 0 24 24" xml:space="preserve">
<rect fill="none" width="24" height="24"/>
<g>
	<path d="M22.5,20H2V3.5C2,3.2,1.8,3,1.5,3S1,3.2,1,3.5v17C1,20.8,1.2,21,1.5,21h21c0.3,0,0.5-0.2,0.5-0.5S22.8,20,22.5,20z"/>
	<path d="M4.5,17c0.1,0,0.2,0,0.3-0.1l5.6-4.7l2.7,2.7c0.2,0.2,0.5,0.2,0.7,0L20,8.7v1.8c0,0.3,0.2,0.5,0.5,0.5s0.5-0.2,0.5-0.5v-3
		c0-0.1,0-0.1,0-0.2c-0.1-0.1-0.1-0.2-0.3-0.3c-0.1,0-0.1,0-0.2,0h-3C17.2,7,17,7.2,17,7.5S17.2,8,17.5,8h1.8l-5.8,5.8l-2.6-2.6
		c-0.2-0.2-0.5-0.2-0.7,0l-6,5c-0.2,0.2-0.2,0.5-0.1,0.7C4.2,16.9,4.4,17,4.5,17z"/>
</g>
</svg>
