<?xml version="1.0" encoding="utf-8"?>
<!-- Generator: Adobe Illustrator 22.0.1, SVG Export Plug-In . SVG Version: 6.00 Build 0)  -->
<svg version="1.1" id="Ebene_5" xmlns="http://www.w3.org/2000/svg" xmlns:xlink="http://www.w3.org/1999/xlink" x="0px" y="0px"
	 width="24px" height="24px" viewBox="0 0 24 24" enable-background="new 0 0 24 24" xml:space="preserve">
<rect fill="none" width="24" height="24"/>
<g>
	<path d="M21.5,3H18V1.5C18,1.2,17.8,1,17.5,1S17,1.2,17,1.5V3H7V1.5C7,1.2,6.8,1,6.5,1S6,1.2,6,1.5V3H2.5C1.7,3,1,3.7,1,4.5v15
		C1,20.3,1.7,21,2.5,21h19c0.8,0,1.5-0.7,1.5-1.5v-15C23,3.7,22.3,3,21.5,3z M22,19.5c0,0.3-0.2,0.5-0.5,0.5h-19
		C2.2,20,2,19.8,2,19.5v-15C2,4.2,2.2,4,2.5,4H6v1.5C6,5.8,6.2,6,6.5,6S7,5.8,7,5.5V4h10v1.5C17,5.8,17.2,6,17.5,6S18,5.8,18,5.5V4
		h3.5C21.8,4,22,4.2,22,4.5V19.5z"/>
	<path d="M18.1,8.1l-4.7,4.7l-3.7-2.7c-0.2-0.2-0.5-0.1-0.7,0l-4,4c-0.2,0.2-0.2,0.5,0,0.7C5.2,15,5.4,15,5.5,15s0.3,0,0.4-0.1
		l3.7-3.7l3.7,2.7c0.2,0.1,0.5,0.1,0.7,0l5-5c0.2-0.2,0.2-0.5,0-0.7S18.3,8,18.1,8.1z"/>
</g>
</svg>
