<?xml version="1.0" encoding="utf-8"?>
<!-- Generator: Adobe Illustrator 22.0.1, SVG Export Plug-In . SVG Version: 6.00 Build 0)  -->
<svg version="1.1" id="Ebene_5" xmlns="http://www.w3.org/2000/svg" xmlns:xlink="http://www.w3.org/1999/xlink" x="0px" y="0px"
	 width="24px" height="24px" viewBox="0 0 24 24" enable-background="new 0 0 24 24" xml:space="preserve">
<rect fill="none" width="24" height="24"/>
<g>
	<path d="M22.5,20H2V3.5C2,3.2,1.8,3,1.5,3S1,3.2,1,3.5v17C1,20.8,1.2,21,1.5,21h21c0.3,0,0.5-0.2,0.5-0.5S22.8,20,22.5,20z"/>
	<path d="M10.2,12.9c0.2,0.2,0.5,0.2,0.7,0l2.6-2.6l5.8,5.8h-1.8c-0.3,0-0.5,0.2-0.5,0.5s0.2,0.5,0.5,0.5h3c0.1,0,0.1,0,0.2,0
		c0.1-0.1,0.2-0.1,0.3-0.3c0-0.1,0-0.1,0-0.2v-3c0-0.3-0.2-0.5-0.5-0.5S20,13.2,20,13.5v1.8l-6.1-6.1c-0.2-0.2-0.5-0.2-0.7,0
		l-2.7,2.7L4.8,7.1C4.6,6.9,4.3,7,4.1,7.2C3.9,7.4,4,7.7,4.2,7.9L10.2,12.9z"/>
</g>
</svg>
