<?xml version="1.0" encoding="utf-8"?>
<!-- Generator: Adobe Illustrator 22.0.1, SVG Export Plug-In . SVG Version: 6.00 Build 0)  -->
<svg version="1.1" id="Ebene_5" xmlns="http://www.w3.org/2000/svg" xmlns:xlink="http://www.w3.org/1999/xlink" x="0px" y="0px"
	 width="24px" height="24px" viewBox="0 0 24 24" enable-background="new 0 0 24 24" xml:space="preserve">
<rect fill="none" width="24" height="24"/>
<path d="M16,16c-1.2,0-2.3,0.5-3,1.4l-5.4-3.6C7.8,13.2,8,12.6,8,12c0-0.6-0.2-1.2-0.4-1.8L13,6.6C13.7,7.5,14.8,8,16,8
	c2.2,0,4-1.8,4-4s-1.8-4-4-4s-4,1.8-4,4c0,0.6,0.2,1.2,0.4,1.8L7,9.4C6.3,8.5,5.2,8,4,8c-2.2,0-4,1.8-4,4c0,2.2,1.8,4,4,4
	c1.2,0,2.3-0.5,3-1.4l5.4,3.6C12.2,18.8,12,19.4,12,20c0,2.2,1.8,4,4,4s4-1.8,4-4S18.2,16,16,16z M16,1c1.7,0,3,1.3,3,3s-1.3,3-3,3
	s-3-1.3-3-3S14.3,1,16,1z M4,15c-1.7,0-3-1.3-3-3s1.3-3,3-3s3,1.3,3,3S5.7,15,4,15z M16,23c-1.7,0-3-1.3-3-3s1.3-3,3-3s3,1.3,3,3
	S17.7,23,16,23z"/>
</svg>
