<?xml version="1.0" encoding="utf-8"?>
<!-- Generator: Adobe Illustrator 22.0.1, SVG Export Plug-In . SVG Version: 6.00 Build 0)  -->
<svg version="1.1" id="Ebene_5" xmlns="http://www.w3.org/2000/svg" xmlns:xlink="http://www.w3.org/1999/xlink" x="0px" y="0px"
	 width="24px" height="24px" viewBox="0 0 24 24" enable-background="new 0 0 24 24" xml:space="preserve">
<rect fill="none" width="24" height="24"/>
<path d="M20.5,4c-4.6,0-8.1-3.8-8.1-3.8C12.3,0.1,12.1,0,12,0s-0.3,0.1-0.4,0.2c0,0-3.6,3.8-8.1,3.8C3.2,4,3,4.2,3,4.5v7
	c0,6.6,8.4,12.2,8.7,12.5C11.8,24,11.9,24,12,24s0.2,0,0.3-0.1c0.4-0.2,8.7-5.9,8.7-12.5v-7C21,4.2,20.8,4,20.5,4z M20,11.5
	c0,5.4-6.6,10.4-8,11.4c-1.4-1-8-6-8-11.4V5c3.9-0.2,7-2.8,8-3.8c1,1,4.1,3.6,8,3.8V11.5z"/>
</svg>
