<?xml version="1.0" encoding="utf-8"?>
<!-- Generator: Adobe Illustrator 22.0.1, SVG Export Plug-In . SVG Version: 6.00 Build 0)  -->
<svg version="1.1" id="Ebene_5" xmlns="http://www.w3.org/2000/svg" xmlns:xlink="http://www.w3.org/1999/xlink" x="0px" y="0px"
	 width="24px" height="24px" viewBox="0 0 24 24" enable-background="new 0 0 24 24" xml:space="preserve">
<rect fill="none" width="24" height="24"/>
<g>
	<path d="M20.5,4c-4.6,0-8.1-3.8-8.1-3.8C12.3,0.1,12.1,0,12,0s-0.3,0.1-0.4,0.2c0,0-3.6,3.8-8.1,3.8C3.2,4,3,4.2,3,4.5v7
		c0,6.6,8.4,12.2,8.7,12.5C11.8,24,11.9,24,12,24s0.2,0,0.3-0.1c0.4-0.2,8.7-5.9,8.7-12.5v-7C21,4.2,20.8,4,20.5,4z M20,11.5
		c0,5.4-6.6,10.4-8,11.4c-1.4-1-8-6-8-11.4V5c3.9-0.2,7-2.8,8-3.8c1,1,4.1,3.6,8,3.8V11.5z"/>
	<path d="M11.6,5.1c-0.5,0.1-0.9,0.5-1,0.9c-0.1,0-0.2-0.1-0.3-0.1C9.6,5.9,9,6.3,8.8,6.9c0,0.2,0,0.3,0,0.4v3.8
		c-0.1-0.1-0.2-0.3-0.4-0.4c-0.5-0.4-1-0.4-1.3-0.3c-0.6,0.2-1,0.7-1,1.3c0,0.2,0.1,0.4,0.2,0.7l0.6,1.2c0.3,0.6,0.6,1.3,0.9,1.9
		C8,16.1,8.4,16.6,8.8,17c0.7,0.7,1.5,1,2.3,1l0.7,0c0.2,0,0.4,0,0.7,0c0.3,0,0.7,0,1,0c0.4,0,0.8-0.1,1.1-0.2
		c0.7-0.2,1.3-0.7,1.7-1.3c0.4-0.6,0.6-1.3,0.6-2l0-0.7l0-1l0-0.5l0-0.9c0-0.9,0-2.4,0-2.4c0-0.8-0.3-1.2-0.6-1.4
		c-0.4-0.2-0.8-0.2-1.2-0.1l0-0.5c0-0.4-0.2-0.8-0.5-1C14.4,6,14,5.8,13.6,5.9c-0.1,0-0.2,0-0.3,0.1c-0.1-0.3-0.3-0.6-0.6-0.8
		C12.4,5,12,4.9,11.6,5.1z M12.2,6.1c0.1,0.1,0.2,0.1,0.2,0.2c0,0.1,0,0.6,0,0.9c0,0,0,0.1,0,0.1c0,0.2,0,4.1,0,4.2V12
		c0,0.3,0.2,0.5,0.5,0.5c0.4,0,0.5-0.2,0.5-0.5l0-0.1c0-0.1,0-0.2,0-0.3l0-4.1c0-0.1,0-0.1,0-0.2c0-0.2,0.2-0.3,0.4-0.3
		c0.1,0,0.2,0,0.3,0.1c0.1,0.1,0.1,0.2,0.1,0.3l0,4.7c0,0,0,0.1,0,0.1c0,0.1,0,0.2,0,0.3v0c0,0.2,0.1,0.3,0.2,0.4
		c0.2,0.1,0.3,0.1,0.5,0c0.2-0.1,0.3-0.3,0.3-0.5v-0.4c0-0.4,0-1.4,0-2.3l0-0.8c0.3-0.1,0.6-0.2,0.7-0.1c0.1,0,0.1,0.2,0.1,0.5
		c0,0.1,0,1.5,0,2.5l0,0.7l0,0.4l0,1.2l0,0.7c0,0.5-0.2,1-0.5,1.4c-0.3,0.4-0.7,0.7-1.2,0.9c-0.2,0.1-0.5,0.1-0.8,0.1
		c-0.6,0-1.1,0-1.7,0l-0.7,0c-0.6,0-1.1-0.2-1.6-0.7c-0.4-0.4-0.7-0.8-0.9-1.3c-0.3-0.6-0.6-1.3-1-1.9L7.1,12C7,11.9,7,11.8,7,11.8
		c0-0.2,0.1-0.3,0.3-0.4c0,0,0.1,0,0.1,0c0.1,0,0.2,0.1,0.3,0.2C8,11.8,8.2,12,8.4,12.4c0.1,0.2,0.2,0.5,0.3,0.7
		c0.1,0.2,0.4,0.4,0.6,0.3l0.1,0c0.2-0.1,0.3-0.3,0.3-0.5l0-5.6c0-0.1,0-0.1,0-0.2c0-0.2,0.2-0.3,0.4-0.3c0.2,0,0.3,0.1,0.3,0.3
		c0,0.1,0,0.1,0,0.2V12c0,0.3,0.2,0.5,0.5,0.5s0.5-0.2,0.5-0.5l0-0.9c0-0.3,0-4.3,0-4.6c0-0.2,0.2-0.4,0.4-0.4C12,6,12.1,6,12.2,6.1
		z"/>
</g>
</svg>
