<?xml version="1.0" encoding="utf-8"?>
<!-- Generator: Adobe Illustrator 22.0.1, SVG Export Plug-In . SVG Version: 6.00 Build 0)  -->
<svg version="1.1" id="Ebene_5" xmlns="http://www.w3.org/2000/svg" xmlns:xlink="http://www.w3.org/1999/xlink" x="0px" y="0px"
	 width="24px" height="24px" viewBox="0 0 24 24" enable-background="new 0 0 24 24" xml:space="preserve">
<rect fill="none" width="24" height="24"/>
<path d="M23,3.4c-0.1-0.3-0.3-0.4-0.6-0.4l-4,1C18.2,4.1,18,4.3,18,4.5V7H0.5C0.3,7,0.2,7.1,0.1,7.2C0,7.4,0,7.6,0.1,7.7l4,7
	C4.2,14.9,4.3,15,4.5,15H17v2H7.5c-0.1,0-0.1,0-0.2,0c-0.1,0-0.2,0-0.3,0c-1.1,0-2,0.9-2,2s0.9,2,2,2s2-0.9,2-2c0-0.4-0.1-0.7-0.3-1
	h6.6c-0.2,0.3-0.3,0.6-0.3,1c0,1.1,0.9,2,2,2s2-0.9,2-2c0-0.7-0.4-1.4-1-1.7V15h0.5c0.3,0,0.5-0.2,0.5-0.5v-6v-1V4.9L22.6,4
	C22.9,3.9,23.1,3.6,23,3.4z M7,20c-0.6,0-1-0.4-1-1s0.4-1,1-1s1,0.4,1,1S7.6,20,7,20z M17,20c-0.6,0-1-0.4-1-1s0.4-1,1-1s1,0.4,1,1
	S17.6,20,17,20z M18,14H4.8L1.4,8H18v0.5V14z"/>
</svg>
