<?xml version="1.0" encoding="utf-8"?>
<!-- Generator: Adobe Illustrator 22.0.1, SVG Export Plug-In . SVG Version: 6.00 Build 0)  -->
<svg version="1.1" id="Icon_build" xmlns="http://www.w3.org/2000/svg" xmlns:xlink="http://www.w3.org/1999/xlink" x="0px" y="0px"
	 width="24px" height="24px" viewBox="0 0 24 24" enable-background="new 0 0 24 24" xml:space="preserve">
<rect fill="none" width="24" height="24"/>
<g>
	<path d="M16.5,0h-9C6.1,0,5,1.1,5,2.5v19C5,22.9,6.1,24,7.5,24h9c1.4,0,2.5-1.1,2.5-2.5v-19C19,1.1,17.9,0,16.5,0z M7.5,1h9
		C17.3,1,18,1.7,18,2.5V4H6V2.5C6,1.7,6.7,1,7.5,1z M18,5v14H6V5H18z M16.5,23h-9C6.7,23,6,22.3,6,21.5V20h12v1.5
		C18,22.3,17.3,23,16.5,23z"/>
	<path d="M10.5,3h3C13.8,3,14,2.8,14,2.5S13.8,2,13.5,2h-3C10.2,2,10,2.2,10,2.5S10.2,3,10.5,3z"/>
	<circle cx="12" cy="21.5" r="0.5"/>
</g>
</svg>
