<?xml version="1.0" encoding="utf-8"?>
<!-- Generator: Adobe Illustrator 22.0.1, SVG Export Plug-In . SVG Version: 6.00 Build 0)  -->
<svg version="1.1" id="Icon_build" xmlns="http://www.w3.org/2000/svg" xmlns:xlink="http://www.w3.org/1999/xlink" x="0px" y="0px"
	 width="24px" height="24px" viewBox="0 0 24 24" enable-background="new 0 0 24 24" xml:space="preserve">
<rect fill="none" width="24" height="24"/>
<g>
	<path d="M23.9,10.3c-0.4-2.7-1.6-5.1-3.5-7c-0.3-0.3-0.6-0.5-0.9-0.8c0,0,0,0,0,0c0,0,0,0,0,0c0,0,0,0,0,0c0,0,0,0,0,0c0,0,0,0,0,0
		c0,0,0,0,0,0c0,0,0,0,0,0v0c-0.1-0.1-0.1-0.1-0.2-0.2c0,0,0,0,0,0c0,0,0,0,0,0c0,0,0,0,0,0c0,0,0,0,0,0c0,0,0,0,0,0c0,0,0,0,0,0
		c0,0,0,0,0,0c-0.4-0.3-0.8-0.6-1.2-0.8c-2.3-1.3-4.9-1.8-7.6-1.5C9,0.3,7.7,0.7,6.5,1.3C5.2,2,4,2.9,3,4.1C2.8,4.3,2.6,4.5,2.4,4.8
		c0,0,0,0,0,0c0,0,0,0,0,0c-1.9,2.6-2.7,5.7-2.3,8.9c0,0,0,0,0,0c0,0,0,0,0,0c0.4,3.2,2.1,6,4.7,7.9C6.9,23.2,9.4,24,12,24
		c0.5,0,1.1,0,1.6-0.1c0,0,0,0,0,0c0,0,0,0,0,0c3.2-0.5,6-2.1,7.9-4.7c0,0,0,0,0,0c1.1-1.4,1.8-3,2.2-4.7
		C24,13.2,24.1,11.8,23.9,10.3z M16.5,1.9c0.8,0.3,1.5,0.8,2.1,1.3c0.6,0.5,1.2,1,1.7,1.6c0.1,0.1,0.2,0.3,0.3,0.4l-1,0l-3.4-2.5
		l-0.2-1C16.2,1.8,16.3,1.9,16.5,1.9z M7.2,2.1C7.5,2,7.7,1.9,7.9,1.8l-0.2,1L4.8,4.9l-1-0.1C4.7,3.6,5.9,2.7,7.2,2.1z M2.6,17.7
		c-0.7-1.2-1.2-2.6-1.5-4.1c0,0,0,0,0,0c0,0,0,0,0,0c0,0,0,0,0,0v0C1.1,13.2,1,12.8,1,12.4L1.9,13l1,3.9L2.6,17.7z M13.5,22.9
		C13.5,22.9,13.5,22.9,13.5,22.9c-1.5,0.2-3,0.1-4.4-0.3L9.8,22l4-0.1l0.8,0.7C14.3,22.8,13.9,22.8,13.5,22.9z M22.8,14.1
		c-0.1,0.6-0.3,1.2-0.5,1.8c-0.3,0.7-0.6,1.4-1,2l-0.4-0.9l1.2-3.4l0.9-0.5C22.9,13.5,22.9,13.8,22.8,14.1z M21.4,12.8
		c-0.1,0.1-0.2,0.2-0.2,0.3l-1.3,3.8c0,0.1,0,0.3,0,0.4l0.7,1.6c-1.3,1.6-3,2.8-4.8,3.5l-1.4-1.3c-0.1-0.1-0.2-0.1-0.3-0.1
		c0,0,0,0,0,0L9.6,21c-0.1,0-0.2,0-0.3,0.1l-1.2,1.1c-0.9-0.4-1.8-0.9-2.7-1.5c-0.8-0.6-1.6-1.4-2.2-2.2l0.7-1.5C4,17,4,16.9,4,16.8
		l-1.1-4.3c0-0.1-0.1-0.2-0.2-0.3l-1.6-1c0.1-2,0.8-3.9,2-5.6l1.8,0.3c0.1,0,0.3,0,0.4-0.1l3.2-2.3c0.1-0.1,0.2-0.2,0.2-0.3L9,1.4
		c0.5-0.1,1-0.2,1.5-0.3C12,0.9,13.5,1,15,1.4l0.4,1.8c0,0.1,0.1,0.2,0.2,0.3l3.7,2.8c0.1,0.1,0.2,0.1,0.3,0.1l1.8-0.1
		c0.8,1.3,1.3,2.7,1.5,4.2C23,11,23,11.5,23,12L21.4,12.8z"/>
	<path d="M12.3,7.4c-0.2-0.1-0.4-0.1-0.6,0l-4.1,2.9c-0.2,0.1-0.3,0.4-0.2,0.6L9,15.7C9.1,15.9,9.3,16,9.5,16h5
		c0.2,0,0.4-0.1,0.5-0.3l1.5-4.7c0.1-0.2,0-0.4-0.2-0.6L12.3,7.4z M14.1,15H9.9l-1.3-4.1L12,8.4l3.4,2.6L14.1,15z"/>
</g>
</svg>
