<?xml version="1.0" encoding="utf-8"?>
<!-- Generator: Adobe Illustrator 22.0.1, SVG Export Plug-In . SVG Version: 6.00 Build 0)  -->
<svg version="1.1" id="Ebene_5" xmlns="http://www.w3.org/2000/svg" xmlns:xlink="http://www.w3.org/1999/xlink" x="0px" y="0px"
	 width="24px" height="24px" viewBox="0 0 24 24" enable-background="new 0 0 24 24" xml:space="preserve">
<rect fill="none" width="24" height="24"/>
<g>
	<path d="M19.6,7.5c-0.2-0.2-0.4-0.3-0.6-0.1l-5.1,2.8l-2.6-2.7c-0.1-0.1-0.2-0.2-0.4-0.2c-0.1,0-0.3,0.1-0.4,0.2l-6,6.3
		c-0.2,0.2-0.2,0.5,0,0.6c0.1,0.1,0.2,0.2,0.4,0.2c0.1,0,0.2,0,0.2-0.1l5.1-2.8l2.6,2.7c0.1,0.1,0.2,0.2,0.4,0.2
		c0.1,0,0.3-0.1,0.4-0.2l6-6.3C19.7,8,19.7,7.7,19.6,7.5z M13.2,13.4l-2.5-2.6c-0.1-0.1-0.2-0.2-0.4-0.2c-0.1,0-0.2,0-0.2,0.1
		l-2.7,1.5l3.4-3.6l2.5,2.6c0.2,0.2,0.4,0.2,0.6,0.1l2.7-1.5L13.2,13.4z"/>
	<path d="M12,0C5.7,0,0.5,4.8,0.5,10.7c0,3.2,1.5,6.1,4.1,8.2v3.7c0,0.2,0.1,0.3,0.2,0.4C4.9,23,5,23,5.1,23c0.1,0,0.2,0,0.2-0.1
		l3.6-2c1,0.3,2,0.4,3.1,0.4c6.3,0,11.5-4.8,11.5-10.7S18.3,0,12,0z M12,20.4c-1,0-2-0.1-3-0.4c-0.1,0-0.3,0-0.4,0l-3,1.7v-3.1
		c0-0.2-0.1-0.3-0.2-0.4c-2.5-1.8-3.9-4.6-3.9-7.5C1.5,5.3,6.2,1,12,1s10.5,4.3,10.5,9.7S17.8,20.4,12,20.4z"/>
</g>
</svg>
