<?xml version="1.0" encoding="utf-8"?>
<!-- Generator: Adobe Illustrator 22.0.1, SVG Export Plug-In . SVG Version: 6.00 Build 0)  -->
<svg version="1.1" id="Ebene_5" xmlns="http://www.w3.org/2000/svg" xmlns:xlink="http://www.w3.org/1999/xlink" x="0px" y="0px"
	 width="24px" height="24px" viewBox="0 0 24 24" enable-background="new 0 0 24 24" xml:space="preserve">
<rect fill="none" width="24" height="24"/>
<path d="M17.9,7.6c-0.1-0.1-0.2-0.2-0.4-0.2h-3.2V5.6c0-0.3,0.1-0.6,0.5-0.6h2.6c0.3,0,0.5-0.2,0.5-0.5V0.5c0-0.3-0.2-0.5-0.5-0.5
	l-3.6,0c-4,0-5.5,2.7-5.5,5.3v2.1H6.5C6.2,7.4,6,7.7,6,7.9V12c0,0.3,0.2,0.5,0.5,0.5h1.8v11c0,0.3,0.2,0.5,0.5,0.5h4.9
	c0.3,0,0.5-0.2,0.5-0.5v-11h2.8c0.3,0,0.5-0.2,0.5-0.4L18,8C18,7.9,18,7.7,17.9,7.6z M16.6,11.5h-2.9c-0.3,0-0.5,0.2-0.5,0.5v11H9.3
	V12c0-0.3-0.2-0.5-0.5-0.5H7V8.4h1.8c0.3,0,0.5-0.2,0.5-0.5V5.3c0-1,0.3-4.3,4.5-4.3l3.1,0V4h-2.1c-0.7,0-1.5,0.4-1.5,1.6V8
	c0,0.3,0.2,0.5,0.5,0.5h3.2L16.6,11.5z"/>
</svg>
