<?xml version="1.0" encoding="utf-8"?>
<!-- Generator: Adobe Illustrator 22.0.1, SVG Export Plug-In . SVG Version: 6.00 Build 0)  -->
<svg version="1.1" id="Ebene_5" xmlns="http://www.w3.org/2000/svg" xmlns:xlink="http://www.w3.org/1999/xlink" x="0px" y="0px"
	 width="24px" height="24px" viewBox="0 0 24 24" enable-background="new 0 0 24 24" xml:space="preserve">
<rect fill="none" width="24" height="24"/>
<g>
	<path d="M19.4,3.1c-2-2-4.6-3.1-7.4-3.1C6.2,0,1.5,4.7,1.5,10.5c0,2,0.6,3.9,1.6,5.6l0.1,0.2l-1,3.5c0,0.2,0,0.4,0.1,0.5
		c0.1,0.1,0.3,0.2,0.5,0.1l3.6-0.9l0.2,0.1c1.6,1,3.5,1.5,5.3,1.5h0c5.8,0,10.5-4.7,10.5-10.5C22.5,7.7,21.4,5.1,19.4,3.1z M12,20
		L12,20c-1.7,0-3.4-0.5-4.8-1.3l-0.4-0.2c-0.1,0-0.2-0.1-0.3-0.1c0,0-0.1,0-0.1,0l-2.9,0.8l0.8-2.9c0-0.1,0-0.3-0.1-0.4L4,15.5
		c-1-1.5-1.5-3.3-1.5-5.1C2.5,5.3,6.8,1,12,1c2.5,0,4.9,1,6.7,2.8c1.8,1.8,2.8,4.2,2.8,6.7C21.5,15.7,17.2,20,12,20z"/>
	<path d="M17.4,12.4l-0.1-0.1c0,0-1.6-0.8-1.9-0.9c-0.2-0.1-0.8-0.3-1.2,0.3c-0.1,0.2-0.6,0.7-0.8,1c0,0,0,0,0,0
		c-0.1,0-0.1-0.1-0.2-0.1c-0.4-0.2-1.1-0.5-1.9-1.2c-0.7-0.6-1.2-1.4-1.4-1.7c0,0,0,0,0,0c0.1-0.1,0.2-0.2,0.3-0.3l0.1-0.2
		c0.2-0.2,0.2-0.3,0.3-0.6c0.1-0.3,0.1-0.6,0-0.9C10.5,7.6,10.2,7,10,6.4L9.7,5.7C9.4,5,9,4.9,8.6,4.9c0,0,0,0,0,0
		c-0.2,0-0.4,0-0.6,0c-0.2,0-0.7,0-1.2,0.6c-0.3,0.3-1,1.1-1,2.6c0,1.4,0.9,2.7,1.3,3.2c0.8,1.2,2.5,3.3,4.9,4.3
		c0.6,0.3,1.2,0.5,1.6,0.6c0.4,0.1,0.8,0.2,1.2,0.2c0.2,0,0.5,0,0.7-0.1c0.6-0.1,1.9-0.7,2.3-1.6c0.2-0.6,0.3-1.4,0.1-1.7
		C17.9,12.7,17.7,12.6,17.4,12.4z M16.9,14.3c-0.1,0.4-1,0.9-1.5,1c-0.4,0.1-0.9,0.1-1.5-0.1c-0.4-0.1-0.9-0.3-1.5-0.6
		c-2.1-0.9-3.7-2.9-4.5-3.9c0,0-0.1-0.1-0.1-0.1c-0.2-0.3-1-1.5-1-2.6c0-1.1,0.5-1.6,0.8-2C7.9,5.9,8,5.9,8.1,5.9c0.2,0,0.4,0,0.6,0
		c0,0,0,0,0.1,0.2l0.3,0.7C9.3,7.4,9.6,8,9.6,8.1l0,0.1C9.6,8.4,9.5,8.5,9.5,8.5L9.3,8.7C9.2,8.8,9.1,8.9,9.1,9
		c-0.1,0.1-0.6,0.6-0.2,1.2c0.2,0.4,0.8,1.3,1.6,2c0.9,0.8,1.8,1.2,2.2,1.4l0.2,0.1c0.5,0.2,0.9,0.2,1.2-0.2c0,0,0.6-0.7,0.9-1.1
		c0,0,0,0,0.1,0c0.2,0.1,1.4,0.7,1.8,0.9c0,0,0,0,0,0l0.2,0.1c0,0,0.1,0,0.1,0.1C17.1,13.6,17.1,13.9,16.9,14.3z"/>
</g>
</svg>
