<?xml version="1.0" encoding="utf-8"?>
<!-- Generator: Adobe Illustrator 22.0.1, SVG Export Plug-In . SVG Version: 6.00 Build 0)  -->
<svg version="1.1" id="Ebene_5" xmlns="http://www.w3.org/2000/svg" xmlns:xlink="http://www.w3.org/1999/xlink" x="0px" y="0px"
	 width="24px" height="24px" viewBox="0 0 24 24" enable-background="new 0 0 24 24" xml:space="preserve">
<rect fill="none" width="24" height="24"/>
<g>
	<path d="M19.7,2.5H4.3c-1,0-1.8,0.8-1.8,1.8v15.4c0,1,0.8,1.8,1.8,1.8h15.3c1,0,1.8-0.8,1.8-1.8V4.3C21.5,3.3,20.7,2.5,19.7,2.5z
		 M20.5,19.7c0,0.4-0.4,0.8-0.8,0.8H4.3c-0.5,0-0.8-0.4-0.8-0.8V4.3c0-0.4,0.4-0.8,0.8-0.8h15.3c0.5,0,0.8,0.4,0.8,0.8V19.7z"/>
	<path d="M8.3,9.5H5.7c-0.3,0-0.5,0.2-0.5,0.5v8.6c0,0.3,0.2,0.5,0.5,0.5h2.7c0.3,0,0.5-0.2,0.5-0.5V10C8.8,9.7,8.6,9.5,8.3,9.5z
		 M7.8,18.1H6.2v-7.6h1.7V18.1z"/>
	<path d="M7,5C5.9,5,5,5.9,5,7s0.9,2,2,2c1.1,0,2-0.9,2-2S8.1,5,7,5z M7,8.1c-0.6,0-1-0.5-1-1c0-0.6,0.5-1,1-1s1,0.5,1,1
		C8.1,7.6,7.6,8.1,7,8.1z"/>
	<path d="M15.5,9.2c-0.9,0-1.6,0.3-2.1,0.6c0-0.2-0.2-0.4-0.5-0.4h-2.6c-0.3,0-0.5,0.2-0.5,0.5v8.6c0,0.3,0.2,0.5,0.5,0.5H13
		c0.3,0,0.5-0.2,0.5-0.5v-4.2c0-1.4,0.4-1.7,1.1-1.7s0.9,0.4,0.9,1.8v4.2c0,0.3,0.2,0.5,0.5,0.5h2.7c0.3,0,0.5-0.2,0.5-0.5v-4.7
		C19.2,11.7,18.7,9.2,15.5,9.2z M18.2,18.1h-1.7v-3.7c0-0.9,0-2.8-1.9-2.8c-2.1,0-2.1,2-2.1,2.7v3.7h-1.7v-7.6h1.6v0.7
		c0,0.3,0.3,0.5,0.5,0.5c0.2,0,0.4-0.1,0.4-0.3c0.3-0.5,1-1.1,2.1-1.1c2,0,2.7,0.9,2.7,3.6V18.1z"/>
</g>
</svg>
