<?xml version="1.0" encoding="utf-8"?>
<!-- Generator: Adobe Illustrator 22.0.1, SVG Export Plug-In . SVG Version: 6.00 Build 0)  -->
<svg version="1.1" id="Ebene_5" xmlns="http://www.w3.org/2000/svg" xmlns:xlink="http://www.w3.org/1999/xlink" x="0px" y="0px"
	 width="24px" height="24px" viewBox="0 0 24 24" enable-background="new 0 0 24 24" xml:space="preserve">
<rect fill="none" width="24" height="24"/>
<path d="M22.9,5.2C22.7,5,22.5,5,22.3,5.1c-0.2,0.1-0.4,0.2-0.6,0.2C22,4.9,22.2,4.4,22.4,4c0.1-0.2,0-0.4-0.2-0.5
	c-0.2-0.1-0.4-0.1-0.6,0c-0.7,0.4-1.5,0.7-2.3,0.9C18.5,3.5,17.3,3,16,3c-2.7,0-4.8,2.1-4.8,4.8c0,0.1,0,0.3,0,0.4
	C8.2,7.9,5.3,6.4,3.3,4C3.2,3.8,3.1,3.8,2.9,3.8C2.8,3.8,2.6,3.9,2.5,4C2.1,4.8,1.9,5.6,1.9,6.4c0,1,0.3,1.9,0.8,2.6
	c0,0-0.1,0-0.1,0C2.4,9,2.3,9,2.1,9C2,9.1,1.9,9.2,1.9,9.4c0,0,0,0.1,0,0.1c0,1.5,0.7,2.9,1.9,3.8c-0.1,0-0.2,0.1-0.2,0.2
	c-0.1,0.1-0.2,0.3-0.1,0.5c0.5,1.5,1.7,2.7,3.2,3.1c-1.5,0.8-3.3,1.2-5,1c-0.2,0-0.5,0.1-0.5,0.3C1,18.6,1,18.9,1.2,19
	c2.1,1.3,4.4,2,6.9,2c8,0,12.8-6.5,12.8-12.7c0-0.1,0-0.2,0-0.3c0.8-0.6,1.5-1.3,2.1-2.2C23,5.6,23,5.4,22.9,5.2z M20.1,7.3
	c-0.1,0.1-0.2,0.3-0.2,0.4c0,0.2,0,0.4,0,0.5C19.9,14,15.5,20,8.1,20c-1.6,0-3.1-0.3-4.6-0.9c1.7-0.2,3.3-0.8,4.7-1.9
	c0.2-0.1,0.2-0.4,0.2-0.6c-0.1-0.2-0.3-0.3-0.5-0.3c-1.4,0-2.6-0.8-3.2-1.9c0.5,0,0.9-0.1,1.3-0.2c0.2-0.1,0.4-0.3,0.4-0.5
	c0-0.2-0.2-0.4-0.4-0.5c-1.5-0.3-2.7-1.5-3-3c0.4,0.1,0.9,0.2,1.4,0.2c0.2,0,0.4-0.1,0.5-0.3c0.1-0.2,0-0.4-0.2-0.6
	C3.5,8.9,2.9,7.7,2.9,6.4c0-0.4,0.1-0.8,0.2-1.2c2.3,2.4,5.4,3.9,8.7,4.1c0.2,0,0.3-0.1,0.4-0.2c0.1-0.1,0.1-0.3,0.1-0.4
	c-0.1-0.3-0.1-0.6-0.1-0.9C12.2,5.7,13.9,4,16,4c1.1,0,2.1,0.4,2.8,1.2c0.1,0.1,0.3,0.2,0.5,0.1c0.5-0.1,1-0.2,1.5-0.4
	c-0.3,0.3-0.6,0.6-1,0.8c-0.2,0.1-0.3,0.4-0.2,0.6c0.1,0.2,0.3,0.4,0.5,0.3c0.3,0,0.6-0.1,0.9-0.2C20.7,6.8,20.4,7.1,20.1,7.3z"/>
</svg>
