<?xml version="1.0" encoding="utf-8"?>
<!-- Generator: Adobe Illustrator 22.0.1, SVG Export Plug-In . SVG Version: 6.00 Build 0)  -->
<svg version="1.1" id="Icon_build" xmlns="http://www.w3.org/2000/svg" xmlns:xlink="http://www.w3.org/1999/xlink" x="0px" y="0px"
	 width="24px" height="24px" viewBox="0 0 24 24" enable-background="new 0 0 24 24" xml:space="preserve">
<rect fill="none" width="24" height="24"/>
<path d="M23.9,15.2c-0.1-0.1-0.2-0.2-0.4-0.2H14v-1h6.5c0.2,0,0.3-0.1,0.4-0.3c0.1-0.2,0.1-0.4,0-0.5L14.1,2C14.1,2,14,2,14,1.9V0.5
	C14,0.2,13.8,0,13.5,0c0,0,0,0,0,0c-0.1,0-0.3,0-0.4,0.2l-10.9,12C2,12.3,2,12.5,2,12.7C2.1,12.9,2.3,13,2.5,13H13v2H0.5
	c-0.2,0-0.3,0.1-0.4,0.2C0,15.3,0,15.5,0,15.7c1.7,5,6.5,8.3,12,8.3s10.3-3.4,12-8.3C24,15.5,24,15.3,23.9,15.2z M19.6,13H14V3.8
	L19.6,13z M3.6,12L13,1.7V12H3.6z M12,23c-4.8,0-9.1-2.8-10.8-7h21.6C21.1,20.2,16.8,23,12,23z"/>
</svg>
