<?xml version="1.0" encoding="utf-8"?>
<!-- Generator: Adobe Illustrator 22.0.1, SVG Export Plug-In . SVG Version: 6.00 Build 0)  -->
<svg version="1.1" id="Icon_build" xmlns="http://www.w3.org/2000/svg" xmlns:xlink="http://www.w3.org/1999/xlink" x="0px" y="0px"
	 width="24px" height="24px" viewBox="0 0 24 24" enable-background="new 0 0 24 24" xml:space="preserve">
<rect fill="none" width="24" height="24"/>
<path fill="#211915" d="M23.6,11.4L23,10.7l-0.5-2c-0.1-0.3-0.3-0.5-0.6-0.5l-6.7-0.6l-1.9-1.9C12.8,5,11.5,5,10.5,5
	c-0.2,0-1.7,0-2.3,0.2C6.4,5.5,4.9,6.7,3.6,7.7L3.1,8H1.8L0.9,6.3C0.8,6,0.5,5.9,0.3,6.1C0,6.2-0.1,6.5,0.1,6.7l1,2
	C1.1,8.9,1.3,9,1.5,9h0.6L1.7,9.5C1.3,9.9,1,10.3,0.6,10.7c-0.1,0.1-0.1,0.3-0.1,0.4V12L0,13.3c0,0.1,0,0.1,0,0.2
	C0,14.5,0.7,15,1.4,15h2.7c0,0,0,0,0,0c0.5,0.6,1.2,1,2,1c0.8,0,1.6-0.4,2-1c0,0,0.1,0,0.1,0h8c0.1,0,0.2,0,0.2,0c0.5,0.6,1.2,1,2,1
	c0.8,0,1.5-0.4,2-1c0,0,0,0,0,0h1.8c1,0,1.3-0.6,1.4-1.1l0.3-1.4C24.1,12.1,23.9,11.6,23.6,11.4z M6.1,15c-0.8,0-1.5-0.7-1.5-1.5
	c0-0.8,0.7-1.5,1.5-1.5c0.8,0,1.5,0.7,1.5,1.5C7.6,14.3,6.9,15,6.1,15z M18.5,15c-0.8,0-1.5-0.7-1.5-1.5c0-0.8,0.7-1.5,1.5-1.5
	c0.8,0,1.5,0.7,1.5,1.5C20,14.3,19.3,15,18.5,15z M22.7,13.7c0,0.2-0.1,0.3-0.4,0.3H21c0-0.2,0-0.3,0-0.5c0-1.4-1.1-2.5-2.5-2.5
	c-1.4,0-2.5,1.1-2.5,2.5c0,0.2,0,0.3,0,0.5H8.6c0-0.2,0-0.3,0-0.5c0-1.4-1.1-2.5-2.5-2.5c-1.4,0-2.5,1.1-2.5,2.5c0,0.2,0,0.3,0,0.5
	H1.4C1.2,14,1,13.9,1,13.5l0.4-1.3c0-0.1,0-0.1,0-0.2v-0.8c0.3-0.4,0.6-0.8,0.9-1.1l1.1-1.2l0.6-0.4C5.7,7.3,7,6.4,8.4,6.1
	C8.8,6,10.1,6,10.5,6c1.2,0,1.8,0.1,2,0.3l2.1,2.1c0.1,0.1,0.2,0.1,0.3,0.1l6.6,0.6l0.5,1.9c0,0.1,0.1,0.2,0.1,0.2l0.8,0.7
	c0,0,0.1,0.1,0,0.2L22.7,13.7z"/>
</svg>
