<?xml version="1.0" encoding="utf-8"?>
<!-- Generator: Adobe Illustrator 22.0.1, SVG Export Plug-In . SVG Version: 6.00 Build 0)  -->
<svg version="1.1" id="Ebene_5" xmlns="http://www.w3.org/2000/svg" xmlns:xlink="http://www.w3.org/1999/xlink" x="0px" y="0px"
	 width="24px" height="24px" viewBox="0 0 24 24" enable-background="new 0 0 24 24" xml:space="preserve">
<rect fill="none" width="24" height="24"/>
<g>
	<path d="M23,12c0-2.5-1.8-4.5-4.2-4.9L18.1,4H19c0.1,1,0.5,2,1.5,2h2C22.8,6,23,5.8,23,5.5S22.8,5,22.5,5h-2
		c-0.2,0-0.4-0.6-0.5-1.1c0.6-0.2,1-0.8,1-1.4C21,1.7,20.3,1,19.5,1h-4C14.7,1,14,1.7,14,2.5c0,0.7,0.5,1.3,1.1,1.4l0.8,3.6
		c-1,0.4-1.7,1.2-2.2,2.1L7.9,9.1L7.1,5h0.5C8.4,5,9,4.4,9,3.6V3.4C9,2.7,8.4,2,7.7,2l-4-1C3.5,1,3.3,1,3.2,1.1C3.1,1.2,3,1.3,3,1.5
		v2.1C3,4.3,3.5,4.8,4.1,5l0.2,1H1.5C1.2,6,1,6.2,1,6.5S1.2,7,1.5,7H2v0.5C2,7.8,2.2,8,2.5,8S3,7.8,3,7.5V7h1.5L5,9.4
		c-1.2,0.6-2,1.8-2,3.1c0,1,0.5,2,1.2,2.6c0,0-0.1,0.1-0.1,0.1L2.2,18C1.5,18.2,1,18.8,1,19.5C1,20.3,1.7,21,2.5,21h19
		c0.8,0,1.5-0.7,1.5-1.5S22.3,18,21.5,18h-0.2l-0.4-1.9C22.1,15.2,23,13.7,23,12z M15.5,2h4C19.8,2,20,2.2,20,2.5S19.8,3,19.5,3h-4
		C15.2,3,15,2.8,15,2.5S15.2,2,15.5,2z M16.1,4h1l0.7,3c-0.3,0-0.6,0.1-0.9,0.1L16.1,4z M18,8c2.2,0,4,1.8,4,4c0,2.2-1.8,4-4,4
		c-1.2,0-2.3-0.6-3-1.4l3.5-0.6c1.1,0,2-0.9,2-2c0-1.1-0.9-2-2-2c0,0,0,0,0,0l-3.8-0.3C15.5,8.7,16.7,8,18,8z M6.8,16l7.1-1.2
		c0.9,1.3,2.4,2.2,4.2,2.2c0,0,0,0,0,0l0.2,1H5.4L6.8,16z M14,12c0-0.5,0.1-0.9,0.3-1.4l4.2,0.4c0.6,0,1,0.4,1,1s-0.4,1-1.1,1
		l-4,0.7C14.1,13.2,14,12.6,14,12z M4,2.1L7.5,3c0,0,0.1,0,0.1,0C7.8,3,8,3.2,8,3.4v0.2C8,3.8,7.8,4,7.6,4H4.4C4.2,4,4,3.8,4,3.6
		V2.1z M5.1,5h1l0.8,4L6.5,9C6.3,9,6.1,9,5.9,9.1L5.1,5z M4,12.5C4,11.1,5.1,10,6.5,10l6.8,0.6C13.1,11,13,11.5,13,12
		c0,0.7,0.1,1.3,0.4,1.8L6.5,15C5.1,15,4,13.9,4,12.5z M4.9,15.8c0,0,0-0.1,0.1-0.1c0.2,0.1,0.4,0.2,0.7,0.2L4.2,18H3.4L4.9,15.8z
		 M22,19.5c0,0.3-0.2,0.5-0.5,0.5h-19C2.2,20,2,19.8,2,19.5S2.2,19,2.5,19h19C21.8,19,22,19.2,22,19.5z M20.3,18h-1L19,16.9
		c0.3-0.1,0.6-0.2,0.9-0.3L20.3,18z"/>
	<path d="M6.5,14C7.3,14,8,13.3,8,12.5S7.3,11,6.5,11S5,11.7,5,12.5S5.7,14,6.5,14z M6.5,12C6.8,12,7,12.2,7,12.5S6.8,13,6.5,13
		S6,12.8,6,12.5S6.2,12,6.5,12z"/>
</g>
</svg>
