<?xml version="1.0" encoding="utf-8"?>
<!-- Generator: Adobe Illustrator 22.0.1, SVG Export Plug-In . SVG Version: 6.00 Build 0)  -->
<svg version="1.1" id="Ebene_5" xmlns="http://www.w3.org/2000/svg" xmlns:xlink="http://www.w3.org/1999/xlink" x="0px" y="0px"
	 width="24px" height="24px" viewBox="0 0 24 24" enable-background="new 0 0 24 24" xml:space="preserve">
<rect fill="none" width="24" height="24"/>
<g>
	<path d="M22.9,15.1c-0.9-0.9-1.8-1.5-2.5-1.9c-0.6-0.4-1.1-0.7-1.5-1.1c-0.5-0.5-1.4-2-2.1-3.3c0,0,0-0.1,0-0.1
		c-0.2-0.6-0.5-1.1-0.8-1.6C15.7,6.4,14.7,3,12.5,3c-1.2,0-1.5,1.1-1.6,1.9c-0.2,1-0.4,1.9-1.7,2.1C9.1,7,9.1,7,9,7
		C8.9,7,8.7,7,8.5,7c0,0,0,0,0,0C8.2,7,7.1,6.5,6.6,5.5C6.1,4.7,6.3,3.8,6.9,2.8c0.4-0.6,0.1-1,0-1.1C6.1,1,3.8,2.5,3.1,3.1
		c-0.4,0.4-1,1.2-1.3,2.1C1.7,5.8,1.6,6.3,1.6,6.8C1.5,6.9,1.3,7,1.1,7.1C0,8.3,0,9.5,0,9.5c0,0.2,0.1,0.3,0.2,0.4
		c0.4,0.3,10.9,7.9,15.2,9.1c0.7,0.2,1.9,0.3,3.1,0.3c2.3,0,4.9-0.2,5.1-0.2c0.3,0,0.5-0.2,0.5-0.5C24,18.4,24,16.3,22.9,15.1z
		 M22.5,16.4c-1.6,0.4-4.9,0.1-6.6-0.3l1.8-1.2c0.1,0,0.1-0.1,0.2-0.2c0.1,0.1,0.2,0.1,0.3,0.2c0.5,0.3,0.9,0.4,1.3,0.4
		c0.8,0,1.3-0.4,1.3-0.5c0,0,0,0,0.1-0.1c0.4,0.3,0.8,0.6,1.3,1.1C22.3,16,22.4,16.2,22.5,16.4z M14.8,12.4L12.3,14
		c-0.4-0.3-0.8-0.7-1.3-1.1c0,0,0,0,0,0c0,0,0,0,0,0l2.5-1.8C13.9,11.5,14.3,12,14.8,12.4z M15.5,13.1c0.5,0.4,1,0.8,1.5,1.1
		l-2.2,1.5c-0.4-0.2-0.8-0.4-1.1-0.6c-0.2-0.1-0.4-0.3-0.6-0.4L15.5,13.1z M19.8,14.1c0.1,0,0.2,0.1,0.2,0.2
		c-0.2,0.1-0.6,0.2-1.3-0.1c-3.8-2.3-5-4-4.9-4.9c0.1-0.5,0.7-0.9,1.4-1.1c0.5,1,2,3.9,2.9,4.8C18.6,13.3,19.2,13.7,19.8,14.1z
		 M11.9,5.1C12,4.2,12.1,4,12.5,4c0.8,0,1.4,1,1.9,1.9c0,0,0,0,0,0c-0.7-0.3-1.4-0.2-2.1,0.1c-0.3,0.1-0.5,0.2-0.8,0.3
		C11.7,6,11.8,5.5,11.9,5.1z M2.8,5.6c0.3-0.7,0.7-1.4,1.1-1.7c0.5-0.5,1.4-1,2-1.2C5,4.1,5.3,5.3,5.7,6c0.6,1.2,2,2,2.8,2
		c0.1,0,2.1,0,4.2-1.1c0.4-0.2,0.9-0.2,1.3-0.1c0.2,0.1,0.4,0.2,0.6,0.4c-1,0.4-1.6,1-1.7,1.8c-0.1,0.4,0,0.8,0.2,1.2l-2.6,1.9
		c-0.1,0.1-0.1,0.1-0.2,0.2c-0.6-0.5-1.1-0.9-1.5-1.2c-0.5-0.4-1.3-0.9-2.1-1.4C5.2,8.8,3.6,7.8,2.9,7.2C2.9,7.1,2.8,7,2.7,7
		C2.5,6.5,2.7,5.9,2.8,5.6z M15.6,18c-3.7-1-13-7.6-14.6-8.8C1.1,9,1.3,8.4,1.9,7.9C1.9,7.8,2,7.7,2,7.7c0,0,0.1,0.1,0.1,0.1
		c0,0,0,0,0,0c0.7,0.7,2.4,1.7,4,2.7c0.8,0.5,1.6,1,2.1,1.3c0.6,0.4,1.4,1.1,2.2,1.8c1,0.9,2,1.7,2.8,2.2c0.5,0.3,1.5,0.9,2.1,1.1
		c1.5,0.5,5.5,0.9,7.5,0.4c0.1,0.3,0.1,0.5,0.1,0.7C21.5,18.2,17.1,18.4,15.6,18z"/>
	<path d="M0.5,15h2C2.8,15,3,14.8,3,14.5S2.8,14,2.5,14h-2C0.2,14,0,14.2,0,14.5S0.2,15,0.5,15z"/>
	<path d="M0.5,17h5C5.8,17,6,16.8,6,16.5S5.8,16,5.5,16h-5C0.2,16,0,16.2,0,16.5S0.2,17,0.5,17z"/>
	<path d="M8.5,18h-8C0.2,18,0,18.2,0,18.5S0.2,19,0.5,19h8C8.8,19,9,18.8,9,18.5S8.8,18,8.5,18z"/>
</g>
</svg>
