<?xml version="1.0" encoding="utf-8"?>
<!-- Generator: Adobe Illustrator 22.0.1, SVG Export Plug-In . SVG Version: 6.00 Build 0)  -->
<svg version="1.1" id="Icon_build" xmlns="http://www.w3.org/2000/svg" xmlns:xlink="http://www.w3.org/1999/xlink" x="0px" y="0px"
	 width="24px" height="24px" viewBox="0 0 24 24" enable-background="new 0 0 24 24" xml:space="preserve">
<rect fill="none" width="24" height="24"/>
<path d="M23.5,8.8c-0.1-0.2-0.2-0.3-0.4-0.3l-7.3-1.2l-3.2-7C12.4,0.1,12.3,0,12.1,0c-0.2,0-0.4,0.1-0.5,0.3l-3.3,7L0.9,8.3
	c-0.2,0-0.3,0.2-0.4,0.3C0.5,8.8,0.5,9,0.6,9.2l5.3,5.5l-1.3,7.7c0,0.2,0,0.4,0.2,0.5c0.2,0.1,0.4,0.1,0.5,0l6.6-3.6l6.5,3.7
	c0.1,0,0.2,0.1,0.2,0.1c0.1,0,0.2,0,0.3-0.1c0.2-0.1,0.2-0.3,0.2-0.5L18,14.7l5.4-5.4C23.5,9.2,23.5,9,23.5,8.8z M17.1,14.2
	c-0.1,0.1-0.2,0.3-0.1,0.4l1.1,6.9l-5.9-3.3c-0.1,0-0.2-0.1-0.2-0.1c-0.1,0-0.2,0-0.2,0.1l-5.9,3.2L7,14.6c0-0.2,0-0.3-0.1-0.4
	L2,9.2l6.6-1c0.2,0,0.3-0.1,0.4-0.3l3-6.2L15,8c0.1,0.2,0.2,0.3,0.4,0.3L22,9.3L17.1,14.2z"/>
</svg>
