<?xml version="1.0" encoding="utf-8"?>
<!-- Generator: Adobe Illustrator 22.0.1, SVG Export Plug-In . SVG Version: 6.00 Build 0)  -->
<svg version="1.1" id="Icon_build" xmlns="http://www.w3.org/2000/svg" xmlns:xlink="http://www.w3.org/1999/xlink" x="0px" y="0px"
	 width="24px" height="24px" viewBox="0 0 24 24" enable-background="new 0 0 24 24" xml:space="preserve">
<rect fill="none" width="24" height="24"/>
<g>
	<path d="M10.6,18L7,17l-1-3.7c-0.1-0.4-0.8-0.4-1,0L4,17l-3.7,1C0.2,18.1,0,18.3,0,18.5c0,0.2,0.2,0.4,0.4,0.5L4,20l1,3.7
		C5.1,23.8,5.3,24,5.5,24c0.2,0,0.4-0.2,0.5-0.4L7,20l3.7-1c0.2-0.1,0.4-0.3,0.4-0.5C11,18.3,10.8,18.1,10.6,18z M6.4,19.1
		c-0.2,0-0.3,0.2-0.4,0.4l-0.6,2.1l-0.6-2.1c0-0.2-0.2-0.3-0.4-0.4l-2.1-0.6l2.1-0.6c0.2,0,0.3-0.2,0.4-0.4l0.6-2.1l0.6,2.1
		c0,0.2,0.2,0.3,0.4,0.4l2.1,0.6L6.4,19.1z"/>
	<path d="M17,5.5c0-0.2-0.2-0.4-0.4-0.5L13,4l-1-3.7c-0.1-0.4-0.8-0.4-1,0L10,4L6.4,5C6.2,5.1,6,5.3,6,5.5S6.2,5.9,6.4,6L10,7l1,3.7
		c0.1,0.2,0.3,0.4,0.5,0.4c0.2,0,0.4-0.2,0.5-0.4L13,7l3.7-1C16.8,5.9,17,5.7,17,5.5z M12.4,6.1c-0.2,0-0.3,0.2-0.4,0.4l-0.6,2.1
		l-0.6-2.1c0-0.2-0.2-0.3-0.4-0.4L8.4,5.5l2.1-0.6c0.2,0,0.3-0.2,0.4-0.4l0.6-2.1l0.6,2.1c0,0.2,0.2,0.3,0.4,0.4l2.1,0.6L12.4,6.1z"
		/>
	<path d="M23.6,14.7l-3.7-1l-1-3.7c-0.1-0.2-0.3-0.4-0.5-0.4c-0.2,0-0.4,0.2-0.5,0.4l-1,3.7l-3.7,1C13.2,14.8,13,15,13,15.2
		c0,0.2,0.2,0.4,0.4,0.5l3.7,1l1,3.7c0.1,0.2,0.3,0.4,0.5,0.4c0.2,0,0.4-0.2,0.5-0.4l1-3.7l3.7-1c0.2-0.1,0.4-0.3,0.4-0.5
		C24,15,23.8,14.8,23.6,14.7z M19.4,15.8c-0.2,0-0.3,0.2-0.4,0.4l-0.6,2.1l-0.6-2.1c0-0.2-0.2-0.3-0.4-0.4l-2.1-0.6l2.1-0.6
		c0.2,0,0.3-0.2,0.4-0.4l0.6-2.1l0.6,2.1c0,0.2,0.2,0.3,0.4,0.4l2.1,0.6L19.4,15.8z"/>
</g>
</svg>
