<?xml version="1.0" encoding="utf-8"?>
<!-- Generator: Adobe Illustrator 22.0.1, SVG Export Plug-In . SVG Version: 6.00 Build 0)  -->
<svg version="1.1" id="Icon_build" xmlns="http://www.w3.org/2000/svg" xmlns:xlink="http://www.w3.org/1999/xlink" x="0px" y="0px"
	 width="24px" height="24px" viewBox="0 0 24 24" enable-background="new 0 0 24 24" xml:space="preserve">
<rect fill="none" width="24" height="24"/>
<g>
	<path d="M3.6,9.7C9,8.3,15,8.3,20.4,9.7c0,0,0.1,0,0.1,0c0.1,0,0.3-0.1,0.4-0.2C21,9.5,21,9.3,21,9.1c-1.3-3.9-4.9-6.6-9-6.6
		S4.3,5.2,3,9.1C3,9.3,3,9.5,3.1,9.6S3.4,9.8,3.6,9.7z M12,3.6c3.4,0,6.4,2,7.7,5C17.2,8,14.6,7.7,12,7.7S6.8,8,4.3,8.5
		C5.6,5.5,8.6,3.6,12,3.6z"/>
	<path d="M3.2,10.3c-0.1,0-0.3,0-0.4,0.1c-0.1,0.1-0.2,0.2-0.2,0.3c-0.1,0.4-0.1,0.8-0.1,1.2c0,4.7,3.4,8.6,8,9.3c0,0,0,0,0.1,0
		c0.1,0,0.2,0,0.3-0.1c0.1-0.1,0.2-0.2,0.2-0.3c0.1-0.4,0.1-0.8,0.1-1.2C11.2,15,7.9,11.1,3.2,10.3z M10.2,20.2
		C6.3,19.4,3.6,16,3.6,12c0-0.2,0-0.4,0-0.6c3.9,0.8,6.6,4.2,6.6,8.2C10.2,19.9,10.2,20,10.2,20.2z"/>
	<path d="M12,0C5.4,0,0,5.4,0,12c0,6.6,5.4,12,12,12s12-5.4,12-12C24,5.4,18.6,0,12,0z M12,23C5.9,23,1,18.1,1,12S5.9,1,12,1
		s11,4.9,11,11S18.1,23,12,23z"/>
	<path d="M21.3,10.7c0-0.3-0.3-0.5-0.6-0.4c-4.7,0.6-8.3,4.6-8.3,9.4c0,0.4,0,0.8,0.1,1.3c0,0.2,0.2,0.4,0.5,0.4c0,0,0,0,0.1,0
		c4.7-0.6,8.3-4.6,8.3-9.4C21.4,11.6,21.4,11.2,21.3,10.7z M13.5,20.3c0-0.2,0-0.4,0-0.6c0-4.1,2.9-7.6,6.9-8.3c0,0.2,0,0.4,0,0.6
		C20.4,16.1,17.5,19.6,13.5,20.3z"/>
	<path d="M14,12c0-1.1-0.9-2-2-2s-2,0.9-2,2c0,1.1,0.9,2,2,2S14,13.1,14,12z M12,13c-0.6,0-1-0.4-1-1s0.4-1,1-1s1,0.4,1,1
		S12.6,13,12,13z"/>
</g>
</svg>
