<?xml version="1.0" encoding="utf-8"?>
<!-- Generator: Adobe Illustrator 22.0.1, SVG Export Plug-In . SVG Version: 6.00 Build 0)  -->
<svg version="1.1" id="Ebene_5" xmlns="http://www.w3.org/2000/svg" xmlns:xlink="http://www.w3.org/1999/xlink" x="0px" y="0px"
	 width="24px" height="24px" viewBox="0 0 24 24" enable-background="new 0 0 24 24" xml:space="preserve">
<rect fill="none" width="24" height="24"/>
<g>
	<path d="M5.5,7h-5C0.2,7,0,7.2,0,7.5v11C0,18.8,0.2,19,0.5,19h5C5.8,19,6,18.8,6,18.5v-11C6,7.2,5.8,7,5.5,7z M5,18H1V8h4V18z"/>
	<path d="M14.5,0h-5C9.2,0,9,0.2,9,0.5v18C9,18.8,9.2,19,9.5,19h5c0.3,0,0.5-0.2,0.5-0.5v-18C15,0.2,14.8,0,14.5,0z M14,18h-4V1h4
		V18z"/>
	<path d="M23.5,9h-5C18.2,9,18,9.2,18,9.5v9c0,0.3,0.2,0.5,0.5,0.5h5c0.3,0,0.5-0.2,0.5-0.5v-9C24,9.2,23.8,9,23.5,9z M23,18h-4v-8
		h4V18z"/>
</g>
</svg>
