<?xml version="1.0" encoding="utf-8"?>
<!-- Generator: Adobe Illustrator 22.0.1, SVG Export Plug-In . SVG Version: 6.00 Build 0)  -->
<svg version="1.1" id="Icon_build" xmlns="http://www.w3.org/2000/svg" xmlns:xlink="http://www.w3.org/1999/xlink" x="0px" y="0px"
	 width="24px" height="24px" viewBox="0 0 24 24" enable-background="new 0 0 24 24" xml:space="preserve">
<rect fill="none" width="24" height="24"/>
<g>
	<path d="M20.5,3h-17C3.2,3,3,3.2,3,3.5v17C3,20.8,3.2,21,3.5,21h17c0.3,0,0.5-0.2,0.5-0.5v-17C21,3.2,20.8,3,20.5,3z M20,4v3H4V4
		H20z M4,20V8h16v12H4z"/>
	<path d="M17.5,10h-11C6.2,10,6,10.2,6,10.5v7C6,17.8,6.2,18,6.5,18h11c0.3,0,0.5-0.2,0.5-0.5v-7C18,10.2,17.8,10,17.5,10z M17,17H7
		v-6h10V17z"/>
	<path d="M5.5,6h3C8.8,6,9,5.8,9,5.5S8.8,5,8.5,5h-3C5.2,5,5,5.2,5,5.5S5.2,6,5.5,6z"/>
	<circle cx="16.5" cy="5.5" r="0.5"/>
	<circle cx="18.5" cy="5.5" r="0.5"/>
</g>
</svg>
