<?xml version="1.0" encoding="utf-8"?>
<!-- Generator: Adobe Illustrator 22.0.1, SVG Export Plug-In . SVG Version: 6.00 Build 0)  -->
<svg version="1.1" id="Ebene_5" xmlns="http://www.w3.org/2000/svg" xmlns:xlink="http://www.w3.org/1999/xlink" x="0px" y="0px"
	 width="24px" height="24px" viewBox="0 0 24 24" enable-background="new 0 0 24 24" xml:space="preserve">
<rect fill="none" width="24" height="24"/>
<g>
	<path d="M22.5,15h-2v-3.5c0-0.3-0.2-0.5-0.5-0.5h-7.5V9c0,0,0,0,0,0c2.2-0.2,4-2.1,4-4.5C16.5,2,14.5,0,12,0S7.5,2,7.5,4.5
		c0,2.3,1.8,4.2,4,4.5c0,0,0,0,0,0v2H4c-0.3,0-0.5,0.2-0.5,0.5V15h-2C1.2,15,1,15.2,1,15.5v5C1,20.8,1.2,21,1.5,21h5
		C6.8,21,7,20.8,7,20.5v-5C7,15.2,6.8,15,6.5,15h-2v-3h7v3h-2C9.2,15,9,15.2,9,15.5v5C9,20.8,9.2,21,9.5,21h5c0.3,0,0.5-0.2,0.5-0.5
		v-5c0-0.3-0.2-0.5-0.5-0.5h-2v-3h7v3h-2c-0.3,0-0.5,0.2-0.5,0.5v5c0,0.3,0.2,0.5,0.5,0.5h5c0.3,0,0.5-0.2,0.5-0.5v-5
		C23,15.2,22.8,15,22.5,15z M8.5,4.5C8.5,2.6,10.1,1,12,1s3.5,1.6,3.5,3.5S13.9,8,12,8S8.5,6.4,8.5,4.5z M6,20H2v-4h4V20z M14,20h-4
		v-4h4V20z M22,20h-4v-4h4V20z"/>
	<path d="M14.5,4.5C14.5,3.1,13.4,2,12,2S9.5,3.1,9.5,4.5S10.6,7,12,7S14.5,5.9,14.5,4.5z M10.5,4.5C10.5,3.7,11.2,3,12,3
		s1.5,0.7,1.5,1.5S12.8,6,12,6S10.5,5.3,10.5,4.5z"/>
</g>
</svg>
