<?xml version="1.0" encoding="utf-8"?>
<!-- Generator: Adobe Illustrator 22.0.1, SVG Export Plug-In . SVG Version: 6.00 Build 0)  -->
<svg version="1.1" id="Ebene_5" xmlns="http://www.w3.org/2000/svg" xmlns:xlink="http://www.w3.org/1999/xlink" x="0px" y="0px"
	 width="24px" height="24px" viewBox="0 0 24 24" enable-background="new 0 0 24 24" xml:space="preserve">
<rect fill="none" width="24" height="24"/>
<path d="M23.3,7.6L13.2,2.3c-0.7-0.3-1.7-0.3-2.4,0L0.7,7.6C0.2,7.8,0,8.1,0,8.5s0.2,0.7,0.7,0.9l2.3,1.2l-1.8,5.4
	C0.5,16.2,0,16.8,0,17.5c0,0.7,0.4,1.2,1,1.4v1.6C1,20.8,1.2,21,1.5,21S2,20.8,2,20.5v-1.6c0.6-0.2,1-0.8,1-1.4
	c0-0.6-0.4-1.1-0.9-1.3l1.7-5.1l1.1,0.6L4,14.5c-0.2,0.8,0.2,1.7,0.9,2.1l5.9,3.2c0.3,0.2,0.7,0.3,1.1,0.3s0.8-0.1,1.1-0.3l5.9-3.2
	c0.7-0.4,1.1-1.3,0.9-2.1l-0.9-2.8l4.3-2.2C23.8,9.2,24,8.9,24,8.5S23.8,7.8,23.3,7.6z M1.5,18C1.2,18,1,17.8,1,17.5S1.2,17,1.5,17
	S2,17.2,2,17.5S1.8,18,1.5,18z M19,14.8c0.1,0.3-0.1,0.8-0.4,0.9l-5.9,3.2c-0.4,0.2-1,0.2-1.3,0l-5.9-3.2c-0.3-0.2-0.5-0.6-0.4-0.9
	l0.8-2.7l5,2.6c0.3,0.2,0.8,0.3,1.2,0.3c0.4,0,0.8-0.1,1.2-0.3l5-2.6L19,14.8z M22.9,8.6l-10.2,5.3c-0.4,0.2-1.1,0.2-1.4,0l-6.2-3.2
	l7-1.6c0.3-0.1,0.4-0.3,0.4-0.6C12.4,8.1,12.2,8,11.9,8L3.8,9.9L1.1,8.6c0,0-0.1,0-0.1,0c0,0,0,0,0.1-0.1l10.2-5.3
	c0.4-0.2,1.1-0.2,1.4,0l10.2,5.3C22.9,8.5,22.9,8.5,22.9,8.6C22.9,8.5,22.9,8.5,22.9,8.6z"/>
</svg>
