<?xml version="1.0" encoding="utf-8"?>
<!-- Generator: Adobe Illustrator 22.0.1, SVG Export Plug-In . SVG Version: 6.00 Build 0)  -->
<svg version="1.1" id="Icon_build" xmlns="http://www.w3.org/2000/svg" xmlns:xlink="http://www.w3.org/1999/xlink" x="0px" y="0px"
	 width="24px" height="24px" viewBox="0 0 24 24" enable-background="new 0 0 24 24" xml:space="preserve">
<rect fill="none" width="24" height="24"/>
<g>
	<path d="M18.4,10.8c0.1-0.1,0.1-0.3,0.1-0.4l-0.7-4.6c-0.1-0.5-0.5-0.8-1-0.8H7.2c-0.5,0-0.9,0.3-1,0.8l-0.7,4.6
		c0,0.1,0,0.3,0.1,0.4S5.9,11,6,11h12C18.1,11,18.3,10.9,18.4,10.8z M6.6,10l0.6-4l9.6,0l0.6,4H6.6z"/>
	<path d="M20.9,14.2v-1.3c0-0.2,0-0.3-0.1-0.4c-0.2-1.9-1.2-7.4-1.7-9.7C19,1.6,18.3,1,17.4,1H6.6C5.7,1,5,1.6,4.8,2.8
		c-0.4,2.3-1.4,7.8-1.6,9.6c0,0.2-0.1,0.3-0.1,0.5L3,15.9c0,0,0,0,0,0v0c0,0,0,0,0,0l0,5.4C3,22.3,3.8,23,4.7,23s1.7-0.7,1.7-1.6V21
		h11.2v0.4c0,0.9,0.8,1.6,1.7,1.6s1.7-0.7,1.7-1.6l0-5.4c0,0,0,0,0,0v0c0,0,0,0,0,0L20.9,14.2z M20,15.4h-1.8
		c-0.1,0-0.1-0.1-0.1-0.1v-0.2c0.6-0.1,1.3-0.2,1.9-0.3L20,15.4z M4,14.7c0.6,0.1,1.2,0.3,1.9,0.4v0.3c0,0.1-0.1,0.1-0.1,0.1H4
		L4,14.7z M20,21.3c0,0.4-0.3,0.7-0.7,0.7c-0.4,0-0.7-0.3-0.7-0.7v-0.8c0-0.3-0.2-0.5-0.5-0.5H5.9c-0.3,0-0.5,0.2-0.5,0.5v0.8
		c0,0.4-0.3,0.7-0.7,0.7C4.3,22,4,21.7,4,21.3l0-4.9h1.8c0.6,0,1.1-0.5,1.1-1.1l0-0.7c0-0.2-0.2-0.4-0.4-0.5
		c-0.8-0.1-1.6-0.3-2.4-0.5v-0.9c0-0.1,0-0.1,0-0.3c0.2-1.9,1.3-7.8,1.6-9.7C5.9,2,6.4,2,6.6,2h10.8c0.2,0,0.7,0,0.9,1
		c0.3,1.8,1.4,7.7,1.6,9.7c0,0.1,0,0.1,0,0.2v0.9c-0.8,0.2-1.6,0.3-2.4,0.4c-0.2,0-0.4,0.2-0.4,0.5v0.6c0,0.6,0.5,1.1,1.1,1.1H20
		L20,21.3z"/>
	<path d="M15.7,14H8.3c-0.2,0-0.3,0.1-0.4,0.2c-0.1,0.1-0.1,0.3-0.1,0.4C9,18,9.2,18,9.5,18h4.9c0.4,0,0.5,0,1.7-3.3
		c0.1-0.2,0-0.3-0.1-0.4S15.9,14,15.7,14z M14.2,17H9.8c-0.2-0.4-0.5-1.2-0.8-2H15C14.7,15.8,14.4,16.7,14.2,17z"/>
</g>
</svg>
