<?xml version="1.0" encoding="utf-8"?>
<!-- Generator: Adobe Illustrator 22.0.1, SVG Export Plug-In . SVG Version: 6.00 Build 0)  -->
<svg version="1.1" id="Icon_build" xmlns="http://www.w3.org/2000/svg" xmlns:xlink="http://www.w3.org/1999/xlink" x="0px" y="0px"
	 width="24px" height="24px" viewBox="0 0 24 24" enable-background="new 0 0 24 24" xml:space="preserve">
<rect fill="none" width="24" height="24"/>
<g>
	<path d="M18.5,1h-13C4.1,1,3,2,3,3.3v0.2v14v3.2C3,22,4.1,23,5.5,23h13c1.4,0,2.5-1,2.5-2.3v-3.2v-14V3.3C21,2,19.9,1,18.5,1z M4,4
		h16v13H4V4z M5.5,2h13c0.7,0,1.3,0.4,1.4,1H4.1C4.2,2.4,4.8,2,5.5,2z M18.5,22h-13C4.7,22,4,21.4,4,20.7V18h16v2.7
		C20,21.4,19.3,22,18.5,22z"/>
	<path d="M12,18.4c-0.9,0-1.6,0.7-1.6,1.6s0.7,1.6,1.6,1.6s1.6-0.7,1.6-1.6S12.9,18.4,12,18.4z M12,20.6c-0.3,0-0.6-0.3-0.6-0.6
		c0-0.3,0.3-0.6,0.6-0.6s0.6,0.3,0.6,0.6C12.6,20.3,12.3,20.6,12,20.6z"/>
	<path d="M8,5H6C5.4,5,5,5.4,5,6v2c0,0.6,0.4,1,1,1h2c0.6,0,1-0.4,1-1V6C9,5.4,8.6,5,8,5z M8,8H6V6h2V8z"/>
	<path d="M13,5h-2c-0.6,0-1,0.4-1,1v2c0,0.6,0.4,1,1,1h2c0.6,0,1-0.4,1-1V6C14,5.4,13.6,5,13,5z M13,8h-2V6h2V8z"/>
	<path d="M18,5h-2c-0.6,0-1,0.4-1,1v2c0,0.6,0.4,1,1,1h2c0.6,0,1-0.4,1-1V6C19,5.4,18.6,5,18,5z M18,8h-2V6h2V8z"/>
	<path d="M8,10H6c-0.6,0-1,0.4-1,1v2c0,0.6,0.4,1,1,1h2c0.6,0,1-0.4,1-1v-2C9,10.4,8.6,10,8,10z M8,13H6v-2h2V13z"/>
	<path d="M13,10h-2c-0.6,0-1,0.4-1,1v2c0,0.6,0.4,1,1,1h2c0.6,0,1-0.4,1-1v-2C14,10.4,13.6,10,13,10z M13,13h-2v-2h2V13z"/>
</g>
</svg>
