<?xml version="1.0" encoding="utf-8"?>
<!-- Generator: Adobe Illustrator 22.0.1, SVG Export Plug-In . SVG Version: 6.00 Build 0)  -->
<svg version="1.1" id="Ebene_5" xmlns="http://www.w3.org/2000/svg" xmlns:xlink="http://www.w3.org/1999/xlink" x="0px" y="0px"
	 width="24px" height="24px" viewBox="0 0 24 24" enable-background="new 0 0 24 24" xml:space="preserve">
<rect fill="none" width="24" height="24"/>
<path d="M23.5,11.5H21c-0.3-4.6-3.9-8.2-8.5-8.5V0.5C12.5,0.2,12.3,0,12,0s-0.5,0.2-0.5,0.5V3C6.9,3.3,3.3,6.9,3,11.5H0.5
	C0.2,11.5,0,11.7,0,12s0.2,0.5,0.5,0.5H3c0.3,4.6,3.9,8.2,8.5,8.5v2.5c0,0.3,0.2,0.5,0.5,0.5s0.5-0.2,0.5-0.5V21
	c4.6-0.3,8.2-3.9,8.5-8.5h2.5c0.3,0,0.5-0.2,0.5-0.5S23.8,11.5,23.5,11.5z M20,11.5h-7.5V4C16.5,4.3,19.7,7.5,20,11.5z M11.5,4v7.5
	H4C4.3,7.5,7.5,4.3,11.5,4z M4,12.5h7.5V20C7.5,19.7,4.3,16.5,4,12.5z M12.5,20v-7.5H20C19.7,16.5,16.5,19.7,12.5,20z"/>
</svg>
