<?xml version="1.0" encoding="utf-8"?>
<!-- Generator: Adobe Illustrator 22.0.1, SVG Export Plug-In . SVG Version: 6.00 Build 0)  -->
<svg version="1.1" id="Icon_build" xmlns="http://www.w3.org/2000/svg" xmlns:xlink="http://www.w3.org/1999/xlink" x="0px" y="0px"
	 width="24px" height="24px" viewBox="0 0 24 24" enable-background="new 0 0 24 24" xml:space="preserve">
<rect fill="none" width="24" height="24"/>
<g>
	<g>
		<g>
			<path d="M8.7,11.7C7.2,11.7,6,10.5,6,9c0-1.1,0.6-2,1.6-2.5c0.2-0.1,0.4,0,0.6,0.1L11,9.6c0.1,0.1,0.2,0.4,0.1,0.6
				C10.7,11.1,9.7,11.7,8.7,11.7z M7.7,7.6C7.3,7.9,7,8.4,7,9c0,1,0.8,1.7,1.7,1.7c0.5,0,1.1-0.3,1.4-0.7L7.7,7.6z"/>
		</g>
		<g>
			<path d="M15.3,11.7c-1.1,0-2-0.6-2.4-1.6c-0.1-0.2,0-0.4,0.1-0.6l2.9-2.9c0.1-0.2,0.4-0.2,0.6-0.1C17.4,7,18,7.9,18,9
				C18,10.5,16.8,11.7,15.3,11.7z M14,10c0.3,0.5,0.8,0.7,1.4,0.7C16.3,10.7,17,10,17,9c0-0.6-0.3-1.1-0.7-1.4L14,10z"/>
		</g>
		<g>
			<path d="M14,18h-4c-1.1,0-2-0.9-2-2s0.9-2,2-2h4c1.1,0,2,0.9,2,2S15.1,18,14,18z M10,15c-0.5,0-1,0.4-1,1s0.4,1,1,1h4
				c0.5,0,1-0.4,1-1s-0.4-1-1-1H10z"/>
		</g>
		<g>
			<path d="M15.5,24h-7c-0.9,0-1.6-0.7-1.7-1.7c0,0,0-0.1,0-0.1V22c0,0,0-0.1,0-0.1c0-0.3,0.1-0.6,0.3-0.8c-2.5-2.1-4-7-4-10.6
				C3,4.7,7.1,0,12,0s9,4.7,9,10.5c0,3.6-1.5,8.5-4,10.6c0.1,0.2,0.2,0.5,0.3,0.8c0,0,0,0.1,0,0.1v0.2c0,0,0,0.1,0,0.1
				C17.1,23.3,16.4,24,15.5,24z M7.7,22.1c0,0.5,0.4,0.9,0.8,0.9h7c0.4,0,0.7-0.4,0.8-0.9c0-0.3-0.1-0.6-0.3-0.7
				c-0.1-0.1-0.2-0.3-0.2-0.4c0-0.2,0.1-0.3,0.2-0.4c2.4-1.6,4-6.5,4-10.1C20,5.3,16.4,1,12,1s-8,4.3-8,9.5c0,3.5,1.6,8.4,4,10.1
				c0.1,0.1,0.2,0.2,0.2,0.4c0,0.2,0,0.3-0.2,0.4C7.9,21.5,7.8,21.8,7.7,22.1z"/>
		</g>
	</g>
</g>
</svg>
