<?xml version="1.0" encoding="utf-8"?>
<!-- Generator: Adobe Illustrator 22.0.1, SVG Export Plug-In . SVG Version: 6.00 Build 0)  -->
<svg version="1.1" id="Ebene_5" xmlns="http://www.w3.org/2000/svg" xmlns:xlink="http://www.w3.org/1999/xlink" x="0px" y="0px"
	 width="24px" height="24px" viewBox="0 0 24 24" enable-background="new 0 0 24 24" xml:space="preserve">
<rect fill="none" width="24" height="24"/>
<g>
	<path d="M19.5,1h-15C3.7,1,3,1.7,3,2.5v19C3,22.3,3.7,23,4.5,23h15c0.8,0,1.5-0.7,1.5-1.5v-19C21,1.7,20.3,1,19.5,1z M20,21.5
		c0,0.3-0.2,0.5-0.5,0.5h-15C4.2,22,4,21.8,4,21.5v-19C4,2.2,4.2,2,4.5,2h15C19.8,2,20,2.2,20,2.5V21.5z"/>
	<path d="M7.5,5C6.7,5,6,5.7,6,6.5S6.7,8,7.5,8S9,7.3,9,6.5S8.3,5,7.5,5z M7.5,7C7.2,7,7,6.8,7,6.5S7.2,6,7.5,6S8,6.2,8,6.5
		S7.8,7,7.5,7z"/>
	<path d="M7.5,10C6.7,10,6,10.7,6,11.5S6.7,13,7.5,13S9,12.3,9,11.5S8.3,10,7.5,10z M7.5,12C7.2,12,7,11.8,7,11.5S7.2,11,7.5,11
		S8,11.2,8,11.5S7.8,12,7.5,12z"/>
	<path d="M7.5,15C6.7,15,6,15.7,6,16.5S6.7,18,7.5,18S9,17.3,9,16.5S8.3,15,7.5,15z M7.5,17C7.2,17,7,16.8,7,16.5S7.2,16,7.5,16
		S8,16.2,8,16.5S7.8,17,7.5,17z"/>
	<path d="M17.5,6h-6C11.2,6,11,6.2,11,6.5S11.2,7,11.5,7h6C17.8,7,18,6.8,18,6.5S17.8,6,17.5,6z"/>
	<path d="M17.5,11h-6c-0.3,0-0.5,0.2-0.5,0.5s0.2,0.5,0.5,0.5h6c0.3,0,0.5-0.2,0.5-0.5S17.8,11,17.5,11z"/>
	<path d="M17.5,16h-6c-0.3,0-0.5,0.2-0.5,0.5s0.2,0.5,0.5,0.5h6c0.3,0,0.5-0.2,0.5-0.5S17.8,16,17.5,16z"/>
</g>
</svg>
