<?xml version="1.0" encoding="utf-8"?>
<!-- Generator: Adobe Illustrator 22.0.1, SVG Export Plug-In . SVG Version: 6.00 Build 0)  -->
<svg version="1.1" id="Icon_build" xmlns="http://www.w3.org/2000/svg" xmlns:xlink="http://www.w3.org/1999/xlink" x="0px" y="0px"
	 width="24px" height="24px" viewBox="0 0 24 24" enable-background="new 0 0 24 24" xml:space="preserve">
<rect fill="none" width="24" height="24"/>
<g>
	<path d="M16.9,23.2c-1.4,0-1.7-1.9-1.9-4l-0.1-0.6c-0.4-2.9-0.8-4.9-2.9-4.9c-2.2,0-2.6,2-3,4.9l-0.1,0.8c-0.2,2-0.5,3.9-1.9,3.9
		c-1.8,0-2.5-5.5-2.5-8.4c0-1,0.1-2,0.2-3.1c0-0.1,0-0.1,0-0.1c-1.3-2.4-2.6-6-1.7-7.9c0.7-1.4,1.9-2.1,3.7-2.1C7.2,1.5,8,1.7,9.4,2
		c1,0.2,2.2,0.5,2.6,0.5c0.4,0,1.5-0.3,2.6-0.5c1.4-0.3,2.3-0.5,2.7-0.5c1.8,0,3,0.7,3.7,2.1c0.9,1.9-0.3,5.5-1.7,7.9
		c0,0,0,0.1,0,0.1c0.1,1,0.2,2,0.2,3.1C19.4,17.7,18.7,23.2,16.9,23.2z M7.1,22.2L7.1,22.2L7.1,22.2z M12,12.6
		c3.2,0,3.6,3.3,3.9,5.7l0.1,0.7c0.1,1.2,0.4,3.1,0.9,3.1c0.5-0.2,1.5-3.4,1.5-7.4c0-1-0.1-2-0.2-2.9c-0.1-0.2,0-0.5,0.1-0.8
		c1.6-2.8,2.2-5.7,1.6-7c-0.5-1.1-1.3-1.5-2.8-1.5c-0.4,0-1.5,0.2-2.5,0.5c-1.2,0.3-2.3,0.5-2.8,0.5c-0.5,0-1.6-0.2-2.8-0.5
		c-1-0.2-2.1-0.5-2.5-0.5C5.3,2.5,4.5,3,4,4.1C3.4,5.3,4,8.2,5.6,11c0.1,0.2,0.2,0.5,0.1,0.8c-0.1,1-0.2,2-0.2,2.9
		c0,4,1,7.2,1.5,7.4c0.5,0,0.7-1.9,0.9-3.1L8,18.5C8.3,15.9,8.8,12.6,12,12.6z"/>
</g>
</svg>
