<?xml version="1.0" encoding="utf-8"?>
<!-- Generator: Adobe Illustrator 22.0.1, SVG Export Plug-In . SVG Version: 6.00 Build 0)  -->
<svg version="1.1" id="Icon_build" xmlns="http://www.w3.org/2000/svg" xmlns:xlink="http://www.w3.org/1999/xlink" x="0px" y="0px"
	 width="24px" height="24px" viewBox="0 0 24 24" enable-background="new 0 0 24 24" xml:space="preserve">
<rect fill="none" width="24" height="24"/>
<g>
	<path d="M22.2,3H1.8C1.4,3,1,3.4,1,3.8v13.7C1,17.8,1.2,18,1.5,18h7.9v0.9c0,0,0,1.1-0.9,1.1C8.2,20,8,20.2,8,20.5S8.2,21,8.5,21h7
		c0.3,0,0.5-0.2,0.5-0.5S15.8,20,15.5,20c-0.4,0-0.9-0.8-0.9-1.1V18h7.9c0.3,0,0.5-0.2,0.5-0.5V3.8C23,3.4,22.6,3,22.2,3z M10.1,20
		c0.2-0.3,0.3-0.7,0.3-1.1V18h3.3v0.9c0,0.3,0.1,0.7,0.4,1.1H10.1z M22,17h-7.9H2V4h20V17z"/>
	<path d="M5.5,8H7v5.5C7,13.8,7.2,14,7.5,14S8,13.8,8,13.5V8h1.5C9.8,8,10,7.8,10,7.5S9.8,7,9.5,7h-4C5.2,7,5,7.2,5,7.5S5.2,8,5.5,8
		z"/>
	<path d="M15.1,13.7c0.1,0.2,0.3,0.3,0.4,0.3s0.4-0.1,0.4-0.3l3-6c0.1-0.2,0-0.5-0.2-0.7c-0.2-0.1-0.5,0-0.7,0.2l-2.6,5.1l-2.6-5.1
		c-0.1-0.2-0.4-0.3-0.7-0.2c-0.2,0.1-0.3,0.4-0.2,0.7L15.1,13.7z"/>
</g>
</svg>
