<?xml version="1.0" encoding="utf-8"?>
<!-- Generator: Adobe Illustrator 21.0.2, SVG Export Plug-In . SVG Version: 6.00 Build 0)  -->
<svg version="1.1" id="Ebene_1" xmlns="http://www.w3.org/2000/svg" xmlns:xlink="http://www.w3.org/1999/xlink" x="0px" y="0px"
	 viewBox="0 0 24 24" style="enable-background:new 0 0 24 24;" xml:space="preserve">
<style type="text/css">
	.st0{fill:none;}
</style>
<path d="M16.5,6.7l0,10.6c0,2.1-1.5,4-3.6,4.2c-2.4,0.2-4.4-1.6-4.4-4l0-12.4c0-1.3,0.9-2.5,2.2-2.6c1.5-0.2,2.8,1,2.8,2.5v10.5
	c0,0.5-0.4,1-1,1s-1-0.5-1-1V6.7c0-0.4-0.3-0.7-0.7-0.7h0C10.3,6,10,6.3,10,6.7l0,8.6c0,1.3,0.9,2.5,2.2,2.6c1.5,0.2,2.8-1,2.8-2.5
	l0-10.3c0-2.1-1.5-4-3.6-4.2C9,0.8,7,2.7,7,5l0,12.3c0,2.9,2.1,5.4,5,5.7c3.3,0.3,6-2.3,6-5.5V6.7C18,6.3,17.7,6,17.2,6l0,0
	C16.8,6,16.5,6.3,16.5,6.7z"/>
<path class="st0" d="M0,0h24v24H0V0z"/>
</svg>
