<?xml version="1.0" encoding="utf-8"?>
<!-- Generator: Adobe Illustrator 21.1.0, SVG Export Plug-In . SVG Version: 6.00 Build 0)  -->
<svg version="1.1" id="Ebene_1" xmlns="http://www.w3.org/2000/svg" xmlns:xlink="http://www.w3.org/1999/xlink" x="0px" y="0px"
	 viewBox="0 0 24 24" style="enable-background:new 0 0 24 24;" xml:space="preserve">
<style type="text/css">
	.st0{fill:none;}
</style>
<path class="st0" d="M0,0h24v24H0V0z"/>
<g>
	<path d="M10.3,7.3c0.4-0.4,1-0.4,1.4,0c0.4,0.4,0.4,1,0,1.4L9.4,11H20c0.6,0,1,0.4,1,1s-0.4,1-1,1H9.4l2.3,2.3c0.4,0.4,0.4,1,0,1.4
		C11.5,16.9,11.3,17,11,17s-0.5-0.1-0.7-0.3l-4-4C6.1,12.5,6,12.3,6,12s0.1-0.5,0.3-0.7L10.3,7.3z"/>
	<path d="M4,6c0.6,0,1,0.4,1,0.9v10.3C5,17.6,4.6,18,4,18s-1-0.4-1-0.9V6.9C3,6.4,3.4,6,4,6z"/>
</g>
</svg>
