<?xml version="1.0" encoding="utf-8"?>
<!-- Generator: Adobe Illustrator 21.1.0, SVG Export Plug-In . SVG Version: 6.00 Build 0)  -->
<svg version="1.1" id="Ebene_1" xmlns="http://www.w3.org/2000/svg" xmlns:xlink="http://www.w3.org/1999/xlink" x="0px" y="0px"
	 viewBox="0 0 24 24" style="enable-background:new 0 0 24 24;" xml:space="preserve">
<style type="text/css">
	.st0{fill:none;}
</style>
<path class="st0" d="M0,0h24v24H0V0z"/>
<g>
	<path d="M13.7,7.3c-0.4-0.4-1-0.4-1.4,0c-0.4,0.4-0.4,1,0,1.4l2.3,2.3H4c-0.6,0-1,0.4-1,1s0.4,1,1,1h10.6l-2.3,2.3
		c-0.4,0.4-0.4,1,0,1.4c0.2,0.2,0.4,0.3,0.7,0.3s0.5-0.1,0.7-0.3l4-4c0.2-0.2,0.3-0.4,0.3-0.7s-0.1-0.5-0.3-0.7L13.7,7.3z"/>
	<path d="M20,6c-0.6,0-1,0.4-1,0.9v10.3c0,0.5,0.4,0.9,1,0.9s1-0.4,1-0.9V6.9C21,6.4,20.6,6,20,6z"/>
</g>
</svg>
