<?xml version="1.0" encoding="utf-8"?>
<!-- Generator: Adobe Illustrator 21.0.2, SVG Export Plug-In . SVG Version: 6.00 Build 0)  -->
<svg version="1.1" id="Ebene_1" xmlns="http://www.w3.org/2000/svg" xmlns:xlink="http://www.w3.org/1999/xlink" x="0px" y="0px"
	 viewBox="0 0 24 24" style="enable-background:new 0 0 24 24;" xml:space="preserve">
<style type="text/css">
	.st0{fill:none;}
</style>
<path d="M7,15c0-0.3,0.1-0.5,0.3-0.7c0.4-0.4,1-0.4,1.4,0l2.3,2.3V6c0-0.6,0.4-1,1-1s1,0.4,1,1v10.6l2.3-2.3c0.4-0.4,1-0.4,1.4,0
	s0.4,1,0,1.4l-4,4C12.5,19.9,12.3,20,12,20l0,0c-0.3,0-0.5-0.1-0.7-0.3l-4-4C7.1,15.5,7,15.3,7,15z"/>
<path class="st0" d="M24,0v24H0V0H24z"/>
</svg>
