<?xml version="1.0" encoding="utf-8"?>
<!-- Generator: Adobe Illustrator 21.0.2, SVG Export Plug-In . SVG Version: 6.00 Build 0)  -->
<svg version="1.1" id="Ebene_1" xmlns="http://www.w3.org/2000/svg" xmlns:xlink="http://www.w3.org/1999/xlink" x="0px" y="0px"
	 viewBox="0 0 24 24" style="enable-background:new 0 0 24 24;" xml:space="preserve">
<style type="text/css">
	.st0{fill:none;}
</style>
<path d="M17,9c0,0.3-0.1,0.5-0.3,0.7c-0.4,0.4-1,0.4-1.4,0L13,7.4V18c0,0.6-0.4,1-1,1s-1-0.4-1-1V7.4L8.7,9.7c-0.4,0.4-1,0.4-1.4,0
	s-0.4-1,0-1.4l4-4C11.5,4.1,11.7,4,12,4l0,0c0.3,0,0.5,0.1,0.7,0.3l4,4C16.9,8.5,17,8.7,17,9z"/>
<path class="st0" d="M0,24V0h24v24H0z"/>
</svg>
