<?xml version="1.0" encoding="utf-8"?>
<!-- Generator: Adobe Illustrator 21.0.2, SVG Export Plug-In . SVG Version: 6.00 Build 0)  -->
<svg version="1.1" id="Ebene_1" xmlns="http://www.w3.org/2000/svg" xmlns:xlink="http://www.w3.org/1999/xlink" x="0px" y="0px"
	 viewBox="0 0 32 32" style="enable-background:new 0 0 32 32;" xml:space="preserve">
<g>
	<path d="M27,3h5v26c0,1.7-1.3,3-3,3H3c-1.7,0-3-1.3-3-3V3h7l0,0V0h3v3l0,0h14l0,0V0h3L27,3L27,3z M2,11v18c0,0.6,0.4,1,1,1h26
		c0.6,0,1-0.4,1-1V11H2z"/>
</g>
<path d="M14,26H7c-0.5,0-1-0.4-1-1v-7c0-0.5,0.4-1,1-1h7c0.5,0,1,0.4,1,1v7C15,25.6,14.6,26,14,26z"/>
</svg>
