<?xml version="1.0" encoding="utf-8"?>
<!-- Generator: Adobe Illustrator 21.1.0, SVG Export Plug-In . SVG Version: 6.00 Build 0)  -->
<svg version="1.1" id="Ebene_1" xmlns="http://www.w3.org/2000/svg" xmlns:xlink="http://www.w3.org/1999/xlink" x="0px" y="0px"
	 viewBox="0 0 24 24" style="enable-background:new 0 0 24 24;" xml:space="preserve">
<style type="text/css">
	.st0{fill:none;}
</style>
<path class="st0" d="M0,24V0h24"/>
<g>
	<g>
		<path d="M18.8,14.5c-0.7-0.7-1.6-0.7-2.3,0c-0.5,0.5-1.1,1.1-1.6,1.6c-0.1,0.2-0.3,0.2-0.5,0.1c-0.4-0.2-0.7-0.3-1.1-0.6
			c-1.6-1-2.9-2.3-4.1-3.7c-0.6-0.7-1.1-1.5-1.5-2.4C7.7,9.4,7.7,9.3,7.8,9.2c0.5-0.5,1.1-1.1,1.6-1.6c0.8-0.8,0.8-1.6,0-2.4
			C9,4.7,8.6,4.3,8.2,3.9C7.7,3.4,7.3,3,6.8,2.5c-0.7-0.7-1.6-0.7-2.3,0C3.9,3.1,3.4,3.6,2.9,4.2C2.3,4.7,2.1,5.3,2,6
			C1.9,7.1,2.2,8.2,2.6,9.2c0.8,2.2,2,4.1,3.5,5.9c2,2.4,4.4,4.3,7.3,5.7c1.3,0.6,2.6,1.1,4,1.2c1,0.1,1.8-0.2,2.5-1
			c0.5-0.5,1-1,1.5-1.5c0.7-0.7,0.7-1.6,0-2.4C20.6,16.3,19.7,15.4,18.8,14.5L18.8,14.5z M18.8,14.5"/>
	</g>
</g>
<path class="st0" d="M0,0h24v24H0V0z"/>
</svg>
