<?xml version="1.0" encoding="utf-8"?>
<!-- Generator: Adobe Illustrator 21.0.2, SVG Export Plug-In . SVG Version: 6.00 Build 0)  -->
<svg version="1.1" id="Ebene_1" xmlns="http://www.w3.org/2000/svg" xmlns:xlink="http://www.w3.org/1999/xlink" x="0px" y="0px"
	 viewBox="0 0 24 24" style="enable-background:new 0 0 24 24;" xml:space="preserve">
<style type="text/css">
	.st0{fill:none;}
</style>
<path d="M17,21H7c-1.7,0-3-1.3-3-3V7h16v11C20,19.7,18.7,21,17,21z M6,9v9c0,0.6,0.4,1,1,1h10c0.6,0,1-0.4,1-1V9H6z"/>
<path class="st0" d="M0,0h24v24H0V0z"/>
<path d="M8.5,17C8.2,17,8,16.8,8,16.6v-5.1C8,11.2,8.2,11,8.5,11S9,11.2,9,11.4v5.1C9,16.8,8.8,17,8.5,17z"/>
<path d="M12,17c-0.3,0-0.5-0.2-0.5-0.4v-5.1c0-0.2,0.2-0.4,0.5-0.4s0.5,0.2,0.5,0.4v5.1C12.5,16.8,12.3,17,12,17z"/>
<path d="M15.5,17c-0.3,0-0.5-0.2-0.5-0.4v-5.1c0-0.2,0.2-0.4,0.5-0.4s0.5,0.2,0.5,0.4v5.1C16,16.8,15.8,17,15.5,17z"/>
<path d="M20,6H4V5c0-0.6,0.4-1,1-1h5V3l4,0v1l5,0c0.6,0,1,0.4,1,1V6z"/>
</svg>
