<?xml version="1.0" encoding="utf-8"?>
<!-- Generator: Adobe Illustrator 21.1.0, SVG Export Plug-In . SVG Version: 6.00 Build 0)  -->
<svg version="1.1" id="Ebene_1" xmlns="http://www.w3.org/2000/svg" xmlns:xlink="http://www.w3.org/1999/xlink" x="0px" y="0px"
	 viewBox="0 0 24 24" style="enable-background:new 0 0 24 24;" xml:space="preserve">
<style type="text/css">
	.st0{clip-path:url(#SVGID_2_);}
	.st1{clip-path:url(#SVGID_4_);}
	.st2{clip-path:url(#SVGID_6_);}
	.st3{clip-path:url(#SVGID_8_);fill:#FFFFFF;}
	.st4{clip-path:url(#SVGID_10_);}
	.st5{clip-path:url(#SVGID_14_);}
	.st6{clip-path:url(#SVGID_18_);}
	.st7{clip-path:url(#SVGID_22_);}
	.st8{clip-path:url(#SVGID_26_);}
	.st9{clip-path:url(#SVGID_30_);}
	.st10{clip-path:url(#SVGID_34_);}
	.st11{clip-path:url(#SVGID_38_);}
	.st12{clip-path:url(#SVGID_42_);}
	.st13{clip-path:url(#SVGID_46_);}
	.st14{clip-path:url(#SVGID_50_);}
	.st15{clip-path:url(#SVGID_54_);}
	.st16{clip-path:url(#SVGID_58_);}
	.st17{clip-path:url(#SVGID_62_);}
	.st18{clip-path:url(#SVGID_66_);}
	.st19{fill:none;}
</style>
<g>
	<defs>
		<circle id="SVGID_1_" cx="-48" cy="198" r="10"/>
	</defs>
	<clipPath id="SVGID_2_">
		<use xlink:href="#SVGID_1_"  style="overflow:visible;"/>
	</clipPath>
	<g class="st0">
		<defs>
			<rect id="SVGID_3_" x="-599" y="-211" width="800" height="461"/>
		</defs>
		<clipPath id="SVGID_4_">
			<use xlink:href="#SVGID_3_"  style="overflow:visible;"/>
		</clipPath>
	</g>
</g>
<g>
	<defs>
		<path id="SVGID_5_" d="M-49.2,200.4l3.6-2.4l-3.6-2.4V200.4z M-42.1,200.2c-0.1,0.8-0.7,1.8-1.5,2c-2.7,0.2-5.9,0.2-8.8,0
			c-0.9-0.1-1.5-1.2-1.5-2c-0.1-1.7-0.1-2.6,0-4.3c0.1-0.8,0.7-1.9,1.5-2c2.8-0.2,6-0.2,8.8,0c1,0,1.5,1,1.5,1.8
			C-42,197.4-42,198.5-42.1,200.2z"/>
	</defs>
	<clipPath id="SVGID_6_">
		<use xlink:href="#SVGID_5_"  style="overflow:visible;"/>
	</clipPath>
	<g class="st2">
		<defs>
			<rect id="SVGID_7_" x="-599" y="-211" width="800" height="461"/>
		</defs>
		<clipPath id="SVGID_8_">
			<use xlink:href="#SVGID_7_"  style="overflow:visible;"/>
		</clipPath>
	</g>
</g>
<g>
	<defs>
		<rect id="SVGID_9_" x="-599" y="-211" width="800" height="461"/>
	</defs>
	<clipPath id="SVGID_10_">
		<use xlink:href="#SVGID_9_"  style="overflow:visible;"/>
	</clipPath>
</g>
<g>
	<defs>
		<rect id="SVGID_13_" x="-599" y="-211" width="800" height="461"/>
	</defs>
	<clipPath id="SVGID_12_">
		<use xlink:href="#SVGID_13_"  style="overflow:visible;"/>
	</clipPath>
</g>
<g>
	<defs>
		<rect id="SVGID_17_" x="-599" y="-211" width="800" height="461"/>
	</defs>
	<clipPath id="SVGID_14_">
		<use xlink:href="#SVGID_17_"  style="overflow:visible;"/>
	</clipPath>
</g>
<g>
	<defs>
		<rect id="SVGID_21_" x="-671" y="-211" width="800" height="461"/>
	</defs>
	<clipPath id="SVGID_16_">
		<use xlink:href="#SVGID_21_"  style="overflow:visible;"/>
	</clipPath>
</g>
<g>
	<defs>
		<rect id="SVGID_25_" x="-671" y="-211" width="800" height="461"/>
	</defs>
	<clipPath id="SVGID_18_">
		<use xlink:href="#SVGID_25_"  style="overflow:visible;"/>
	</clipPath>
</g>
<g>
	<defs>
		<rect id="SVGID_29_" x="-671" y="-211" width="800" height="461"/>
	</defs>
	<clipPath id="SVGID_20_">
		<use xlink:href="#SVGID_29_"  style="overflow:visible;"/>
	</clipPath>
</g>
<g>
	<defs>
		<rect id="SVGID_33_" x="-567" y="-211" width="800" height="461"/>
	</defs>
	<clipPath id="SVGID_22_">
		<use xlink:href="#SVGID_33_"  style="overflow:visible;"/>
	</clipPath>
</g>
<g>
	<defs>
		<rect id="SVGID_37_" x="-567" y="-211" width="800" height="461"/>
	</defs>
	<clipPath id="SVGID_24_">
		<use xlink:href="#SVGID_37_"  style="overflow:visible;"/>
	</clipPath>
</g>
<g>
	<defs>
		<rect id="SVGID_41_" x="-567" y="-211" width="800" height="461"/>
	</defs>
	<clipPath id="SVGID_26_">
		<use xlink:href="#SVGID_41_"  style="overflow:visible;"/>
	</clipPath>
</g>
<g>
	<defs>
		<rect id="SVGID_45_" x="-536" y="-211" width="800" height="461"/>
	</defs>
	<clipPath id="SVGID_28_">
		<use xlink:href="#SVGID_45_"  style="overflow:visible;"/>
	</clipPath>
</g>
<g>
	<defs>
		<rect id="SVGID_49_" x="-536" y="-211" width="800" height="461"/>
	</defs>
	<clipPath id="SVGID_30_">
		<use xlink:href="#SVGID_49_"  style="overflow:visible;"/>
	</clipPath>
</g>
<g>
	<defs>
		<rect id="SVGID_53_" x="-536" y="-211" width="800" height="461"/>
	</defs>
	<clipPath id="SVGID_32_">
		<use xlink:href="#SVGID_53_"  style="overflow:visible;"/>
	</clipPath>
</g>
<g>
	<defs>
		<rect id="SVGID_57_" x="-506" y="-211" width="800" height="461"/>
	</defs>
	<clipPath id="SVGID_34_">
		<use xlink:href="#SVGID_57_"  style="overflow:visible;"/>
	</clipPath>
</g>
<g>
	<defs>
		<rect id="SVGID_61_" x="-506" y="-211" width="800" height="461"/>
	</defs>
	<clipPath id="SVGID_36_">
		<use xlink:href="#SVGID_61_"  style="overflow:visible;"/>
	</clipPath>
</g>
<g>
	<defs>
		<rect id="SVGID_65_" x="-506" y="-211" width="800" height="461"/>
	</defs>
	<clipPath id="SVGID_38_">
		<use xlink:href="#SVGID_65_"  style="overflow:visible;"/>
	</clipPath>
</g>
<g id="Page-1">
	<g id="NDBX_Functional-Icons_overview" transform="translate(-747.000000, -177.000000)">
		<g id="Icons_Navigation" transform="translate(69.000000, 174.000000)">
			
				<g id="icon_arrow_first_page_24px" transform="translate(684.000000, 12.000000) rotate(-90.000000) translate(-684.000000, -12.000000) translate(672.000000, 0.000000)">
				<polygon id="Shape" class="st19" points="-3,6 21,6 21,30 -3,30 				"/>
				<g id="Group" transform="translate(3.000000, 6.000000)">
					<path id="Shape_1_" d="M5.3,7.3c0.4-0.4,1-0.4,1.4,0c0.4,0.4,0.4,1,0,1.4L4.4,11H13c0.6,0,1,0.4,1,1s-0.4,1-1,1H4.4l2.3,2.3
						c0.4,0.4,0.4,1,0,1.4C6.5,16.9,6.3,17,6,17s-0.5-0.1-0.7-0.3l-4-4C1.1,12.5,1,12.3,1,12s0.1-0.5,0.3-0.7L5.3,7.3z"/>
					<path id="Shape_2_" d="M-1,6c0.6,0,1,0.4,1,0.9v10.3C0,17.6-0.4,18-1,18s-1-0.4-1-0.9V6.9C-2,6.4-1.6,6-1,6z"/>
				</g>
			</g>
		</g>
	</g>
</g>
<path class="st19" d="M0,0h24v24H0V0z"/>
</svg>
