<?xml version="1.0" encoding="utf-8"?>
<!-- Generator: Adobe Illustrator 21.0.2, SVG Export Plug-In . SVG Version: 6.00 Build 0)  -->
<svg version="1.1" id="Ebene_1" xmlns="http://www.w3.org/2000/svg" xmlns:xlink="http://www.w3.org/1999/xlink" x="0px" y="0px"
	 viewBox="0 0 24 24" style="enable-background:new 0 0 24 24;" xml:space="preserve">
<style type="text/css">
	.st0{fill:none;}
	.st1{fill-rule:evenodd;clip-rule:evenodd;fill:#1A171B;}
</style>
<path class="st0" d="M0,0h24v24H0V0z"/>
<g>
	<g>
		<defs>
			<rect id="SVGID_1_" x="-91.2" y="-317" width="966.8" height="642"/>
		</defs>
		<clipPath id="SVGID_2_">
			<use xlink:href="#SVGID_1_"  style="overflow:visible;"/>
		</clipPath>
	</g>
</g>
<path class="st1" d="M11.4,22c0,0-0.1,0-0.1,0c-0.3-0.1-0.5-0.3-0.5-0.6l0-7.8l-4.3,0c-0.2,0-0.4-0.1-0.5-0.3C6,13.2,6,13,6.1,12.8
	l5.8-10.5C12,2.1,12.3,2,12.5,2C12.8,2.1,13,2.3,13,2.6l0,6.8h4.4c0.2,0,0.4,0.1,0.5,0.3c0.1,0.2,0.1,0.4,0,0.6l-6,11.4
	C11.8,21.9,11.6,22,11.4,22z M7.5,12.5l3.9,0c0.3,0,0.6,0.3,0.6,0.6l0,5.7l4.5-8.2h-4.1c-0.2,0-0.3-0.1-0.4-0.2
	c-0.1-0.1-0.2-0.3-0.2-0.4l0-4.8L7.5,12.5z"/>
</svg>
