<?xml version="1.0" encoding="utf-8"?>
<!-- Generator: Adobe Illustrator 21.1.0, SVG Export Plug-In . SVG Version: 6.00 Build 0)  -->
<svg version="1.1" id="Ebene_1" xmlns="http://www.w3.org/2000/svg" xmlns:xlink="http://www.w3.org/1999/xlink" x="0px" y="0px"
	 viewBox="0 0 24 24" style="enable-background:new 0 0 24 24;" xml:space="preserve">
<path d="M12,2C6.5,2,2,6.5,2,12s4.5,10,10,10s10-4.5,10-10S17.5,2,12,2z M13,17h-2v-2h2V17z M13,13.6L13,13.6l-1.9,0.1v-0.1
	c0-2.3,2.7-2.2,2.7-3.6c0-0.6-0.6-1.1-1.6-1.1c-0.8,0-1.5,0.3-2,0.7L9.7,7.8C10.3,7.3,11.3,7,12.3,7c2,0,3.4,1.1,3.4,2.9
	C15.8,12.4,13,12.2,13,13.6z"/>
</svg>
