<?xml version="1.0" encoding="utf-8"?>
<!-- Generator: Adobe Illustrator 21.1.0, SVG Export Plug-In . SVG Version: 6.00 Build 0)  -->
<svg version="1.1" id="Ebene_1" xmlns="http://www.w3.org/2000/svg" xmlns:xlink="http://www.w3.org/1999/xlink" x="0px" y="0px"
	 viewBox="0 0 24 24" style="enable-background:new 0 0 24 24;" xml:space="preserve">
<g>
	<path d="M12,2C6.5,2,2,6.5,2,12s4.5,10,10,10s10-4.5,10-10S17.5,2,12,2z M12,20c-4.4,0-8-3.6-8-8c0-4.4,3.6-8,8-8s8,3.6,8,8
		C20,16.4,16.4,20,12,20z"/>
	<path d="M12.3,7c-1,0-2,0.3-2.7,0.8l0.6,1.7c0.5-0.4,1.1-0.7,2-0.7c1,0,1.6,0.5,1.6,1.1c0,1.3-2.7,1.3-2.7,3.6v0.1H13v-0.1
		c0-1.4,2.8-1.2,2.8-3.7C15.8,8.1,14.4,7,12.3,7z"/>
	<rect x="11" y="15" width="2" height="2"/>
</g>
</svg>
