<?xml version="1.0" encoding="utf-8"?>
<!-- Generator: Adobe Illustrator 21.0.2, SVG Export Plug-In . SVG Version: 6.00 Build 0)  -->
<svg version="1.1" id="Ebene_1" xmlns="http://www.w3.org/2000/svg" xmlns:xlink="http://www.w3.org/1999/xlink" x="0px" y="0px"
	 viewBox="0 0 24 24" style="enable-background:new 0 0 24 24;" xml:space="preserve">
<style type="text/css">
	.st0{fill:none;}
</style>
<path class="st0" d="M0,0v24h24V0H0z M13,18h-2v-4h2V18z"/>
<rect x="11" y="14" class="st0" width="2" height="4"/>
<path d="M18,8h-1V6c0-2.8-2.2-5-5-5S7,3.2,7,6v2H6c-1.1,0-2,0.9-2,2v10c0,1.1,0.9,2,2,2h12c1.1,0,2-0.9,2-2V10C20,8.9,19.1,8,18,8z
	 M13,18h-2v-4h2V18z M15.1,8H8.9V6c0-1.7,1.4-3.1,3.1-3.1s3.1,1.4,3.1,3.1V8z"/>
</svg>
