<?xml version="1.0" encoding="utf-8"?>
<!-- Generator: Adobe Illustrator 21.0.2, SVG Export Plug-In . SVG Version: 6.00 Build 0)  -->
<svg version="1.1" id="Ebene_1" xmlns="http://www.w3.org/2000/svg" xmlns:xlink="http://www.w3.org/1999/xlink" x="0px" y="0px"
	 viewBox="0 0 24 24" style="enable-background:new 0 0 24 24;" xml:space="preserve">
<style type="text/css">
	.st0{fill:none;}
</style>
<g>
	<path d="M12,15.6c3.4,0,6.2,2.8,6.4,6.4H20c-0.2-3.4-2.2-6.2-5-7.4c1.1-0.9,1.8-2.2,1.8-3.8C16.8,8.2,14.6,6,12,6s-4.8,2.2-4.8,4.8
		c0,1.5,0.7,2.9,1.8,3.8c-2.8,1.2-4.9,4.1-5,7.4h1.6C5.8,18.4,8.6,15.6,12,15.6z M8.8,10.8c0-1.8,1.4-3.2,3.2-3.2s3.2,1.4,3.2,3.2
		S13.8,14,12,14S8.8,12.6,8.8,10.8z"/>
	<polygon points="11.2,17.2 9.6,22 14.4,22 12.8,17.2 13.6,15.6 10.4,15.6 	"/>
</g>
<path class="st0" d="M0,0h24v24H0V0z"/>
</svg>
