<?xml version="1.0" encoding="utf-8"?>
<!-- Generator: Adobe Illustrator 21.0.2, SVG Export Plug-In . SVG Version: 6.00 Build 0)  -->
<svg version="1.1" id="Ebene_1" xmlns="http://www.w3.org/2000/svg" xmlns:xlink="http://www.w3.org/1999/xlink" x="0px" y="0px"
	 viewBox="0 0 24 24" style="enable-background:new 0 0 24 24;" xml:space="preserve">
<style type="text/css">
	.st0{fill:none;}
</style>
<path d="M13,22c-0.1-2.3-1.5-4.3-3.4-5.1c0.8-0.6,1.2-1.5,1.2-2.6c0-1.8-1.5-3.3-3.3-3.3s-3.3,1.5-3.3,3.3c0,1,0.5,2,1.2,2.6
	C3.5,17.7,2.1,19.7,2,22H13z"/>
<path d="M22,22c-0.1-2.3-1.5-4.3-3.4-5.1c0.8-0.6,1.2-1.5,1.2-2.6c0-1.8-1.5-3.3-3.3-3.3s-3.3,1.5-3.3,3.3c0,1,0.5,2,1.2,2.6
	c-0.6,0.2-1.1,0.6-1.5,1c1,1.1,1.7,2.5,2,4.1H22z"/>
<path class="st0" d="M0,0h24v24H0V0z"/>
</svg>
