<?xml version="1.0" encoding="utf-8"?>
<!-- Generator: Adobe Illustrator 21.1.0, SVG Export Plug-In . SVG Version: 6.00 Build 0)  -->
<svg version="1.1" id="Ebene_1" xmlns="http://www.w3.org/2000/svg" xmlns:xlink="http://www.w3.org/1999/xlink" x="0px" y="0px"
	 viewBox="0 0 24 24" style="enable-background:new 0 0 24 24;" xml:space="preserve">
<style type="text/css">
	.st0{fill:none;}
</style>
<path d="M16.8,22c-2,0-5-1.1-9.4-5.4C4.1,13.3,2.3,10.3,2,7.8C1.8,5.7,2.8,4.6,2.9,4.5l1.9-1.9c0.8-0.8,2-0.8,2.8,0l3.3,3.3
	c0.4,0.4,0.6,0.9,0.6,1.4s-0.2,1-0.6,1.4l-1,1l4.4,4.4l1-1c0.8-0.8,2-0.8,2.8,0l3.3,3.3c0.8,0.8,0.8,2,0,2.8l-1.9,1.9
	C19.3,21.2,18.5,22,16.8,22z M6.2,4L4.3,5.9c0,0-2.1,2.6,4.5,9.2s9.2,4.5,9.3,4.5l1.9-1.9l-3.3-3.3l-1,1c-0.8,0.8-2,0.8-2.8,0
	L8.5,11c-0.4-0.4-0.6-0.9-0.6-1.4s0.2-1,0.6-1.4l1-1L6.2,4z"/>
<path class="st0" d="M0,0h24v24H0V0z"/>
</svg>
