<?xml version="1.0" encoding="utf-8"?>
<!-- Generator: Adobe Illustrator 21.0.2, SVG Export Plug-In . SVG Version: 6.00 Build 0)  -->
<svg version="1.1" id="Ebene_1" xmlns="http://www.w3.org/2000/svg" xmlns:xlink="http://www.w3.org/1999/xlink" x="0px" y="0px"
	 viewBox="0 0 24 24" style="enable-background:new 0 0 24 24;" xml:space="preserve">
<style type="text/css">
	.st0{fill:none;}
</style>
<path d="M7.5,17.6c2.3,0,4.3,1.9,4.4,4.4H13c-0.1-2.3-1.5-4.3-3.4-5.1c0.8-0.6,1.2-1.5,1.2-2.6c0-1.8-1.5-3.3-3.3-3.3
	s-3.3,1.5-3.3,3.3c0,1,0.5,2,1.2,2.6C3.5,17.7,2.1,19.7,2,22h1.1C3.2,19.5,5.2,17.6,7.5,17.6z M5.3,14.3c0-1.2,1-2.2,2.2-2.2
	s2.2,1,2.2,2.2s-1,2.2-2.2,2.2S5.3,15.5,5.3,14.3z"/>
<path d="M18.6,17c0.8-0.6,1.2-1.5,1.2-2.6c0-1.8-1.5-3.3-3.3-3.3s-3.3,1.5-3.3,3.3c0,1,0.5,2,1.2,2.6c-0.6,0.3-1.2,0.7-1.7,1.1
	c0.2,0.3,0.4,0.6,0.6,0.9c0.8-0.8,1.9-1.4,3.1-1.4c2.3,0,4.3,1.9,4.4,4.4H22C21.9,19.8,20.5,17.8,18.6,17z M16.5,16.6
	c-1.2,0-2.2-1-2.2-2.2s1-2.2,2.2-2.2s2.2,1,2.2,2.2S17.7,16.6,16.5,16.6z"/>
<path class="st0" d="M0,0h24v24H0V0z"/>
</svg>
