<?xml version="1.0" encoding="utf-8"?>
<!-- Generator: Adobe Illustrator 21.0.2, SVG Export Plug-In . SVG Version: 6.00 Build 0)  -->
<svg version="1.1" id="Ebene_1" xmlns="http://www.w3.org/2000/svg" xmlns:xlink="http://www.w3.org/1999/xlink" x="0px" y="0px"
	 viewBox="0 0 24 24" style="enable-background:new 0 0 24 24;" xml:space="preserve">
<style type="text/css">
	.st0{fill:none;}
</style>
<path class="st0" d="M0,0h24v24H0V0z"/>
<g>
	<g>
		<path d="M20,9v4H4V9H20 M21,7H3C2.4,7,2,7.4,2,8v7h20V8C22,7.4,21.6,7,21,7L21,7z"/>
	</g>
	<g>
		<path d="M16,15v4H8v-4H16 M18,13H6v8h12V13L18,13z"/>
	</g>
	<g>
		<path d="M16,5v2H8V5H16 M18,3H6v6h12V3L18,3z"/>
	</g>
	<g>
		<polygon points="19,10 17,10 17,12 19,12 19,10 		"/>
	</g>
</g>
</svg>
