<?xml version="1.0" encoding="utf-8"?>
<!-- Generator: Adobe Illustrator 21.1.0, SVG Export Plug-In . SVG Version: 6.00 Build 0)  -->
<svg version="1.1" id="Layer_1" xmlns="http://www.w3.org/2000/svg" xmlns:xlink="http://www.w3.org/1999/xlink" x="0px" y="0px"
	 viewBox="0 0 24 24" style="enable-background:new 0 0 24 24;" xml:space="preserve">
<style type="text/css">
	.st0{fill:none;}
</style>
<g>
	<g>
		<path d="M17.7,15.2c-0.5,0-0.5,0.6-0.5,0.6v0.7h1v-0.7C18.2,15.8,18.2,15.2,17.7,15.2z"/>
		<path d="M18,11.1c-4-0.1-8-0.1-12,0c-1.4,0-2.5,1.1-2.5,2.4v6c0,1.3,1.1,2.4,2.5,2.4c4,0.1,8,0.1,12,0c1.4,0,2.5-1.1,2.5-2.4v-6
			C20.5,12.2,19.4,11.1,18,11.1z M8.4,13.5H7.2V20H6.1v-6.5H4.9v-1h3.5V13.5z M11.6,20h-1v-0.6c0,0-1.9,1.7-1.9-0.3
			c0-2.1,0-4.7,0-4.7h1V19c0,0,0,0.7,0.9-0.2v-4.4h1V20z M15.4,19c0,0-0.1,2-1.9,0.4V20h-1v-7.5h1v2.4c0,0,1.8-1.7,1.9,0.6V19z
			 M19.2,17.3h-2c0,0,0,0.5,0,1.1c0,0.7,0.5,0.6,0.5,0.6c0.4,0,0.5-0.5,0.5-0.5V18h1v0.8c0,1.2-1.4,1.2-1.4,1.2
			c-1.6,0-1.6-1.4-1.6-1.4s0-1.2,0-2.8c0-1.6,1.5-1.5,1.5-1.5c1.4,0,1.5,1.5,1.5,1.5V17.3z"/>
		<path d="M13.4,15.4v3.4c0.8,0.5,0.9-0.1,0.9-0.1s0-2.1,0-3C14.4,14.7,13.4,15.4,13.4,15.4z"/>
	</g>
	<g>
		<polygon points="8.8,2 8,5 7.3,2 6,2 7.5,6.5 7.5,9.5 8.6,9.5 8.6,6.5 9.9,2 		"/>
		<path d="M15.7,3.9v4.3c-0.9,0.9-0.9,0.2-0.9,0.2V3.9h-1v4.7c0,0.5,0.2,0.7,0.2,0.7c0.7,0.8,1.7-0.4,1.7-0.4v0.6h1V3.9H15.7z"/>
		<path d="M11.4,3.8c-0.8,0-1.4,0.6-1.4,1.5v2.8c0,0.8,0.6,1.4,1.4,1.4c0.8,0,1.5-0.6,1.5-1.4V5.3C12.9,4.4,12.2,3.8,11.4,3.8
			L11.4,3.8z M11.9,8.1c0,0.2-0.2,0.4-0.4,0.4s-0.4-0.2-0.4-0.4v-3c0-0.2,0.2-0.4,0.4-0.4s0.4,0.2,0.4,0.4V8.1z"/>
	</g>
</g>
<path class="st0" d="M0,0h24v24H0V0z"/>
</svg>
