<?xml version="1.0" encoding="utf-8"?>
<!-- Generator: Adobe Illustrator 21.1.0, SVG Export Plug-In . SVG Version: 6.00 Build 0)  -->
<svg version="1.1" id="Layer_1" xmlns="http://www.w3.org/2000/svg" xmlns:xlink="http://www.w3.org/1999/xlink" x="0px" y="0px"
	 viewBox="0 0 24 24" style="enable-background:new 0 0 24 24;" xml:space="preserve">
<style type="text/css">
	.st0{fill:none;}
	.st1{fill:#1A171B;}
</style>
<path class="st0" d="M0,0h24v24H0V0z"/>
<g>
	<g>
		<path d="M12,2C6.5,2,2,6.5,2,12s4.5,10,10,10s10-4.5,10-10S17.5,2,12,2z M17.5,15.8c0,0.3-0.2,0.5-0.5,0.5H7.1
			c-0.3,0-0.5-0.2-0.5-0.5V8.2c0-0.3,0.2-0.5,0.5-0.5h9.9c0.3,0,0.5,0.2,0.5,0.5V15.8z"/>
	</g>
	<path class="st0" d="M16.9,7.6H7.1c-0.3,0-0.5,0.2-0.5,0.5v7.7c0,0.3,0.2,0.5,0.5,0.5h9.9c0.3,0,0.5-0.2,0.5-0.5V8.2
		C17.5,7.8,17.3,7.6,16.9,7.6z"/>
	<g>
		<path d="M12,2C6.5,2,2,6.5,2,12s4.5,10,10,10s10-4.5,10-10S17.5,2,12,2z M17.5,15.8c0,0.3-0.2,0.5-0.5,0.5H7.1
			c-0.3,0-0.5-0.2-0.5-0.5V8.2c0-0.3,0.2-0.5,0.5-0.5h9.9c0.3,0,0.5,0.2,0.5,0.5V15.8z"/>
	</g>
	<path class="st1" d="M7.6,15.3h8.8v-3.6l-4.2,1.9c-0.2,0.1-0.3,0.1-0.4,0l-4.2-1.9V15.3z M7.6,10.6l4.4,2l4.4-2V8.7H7.6V10.6z"/>
</g>
</svg>
