<?xml version="1.0" encoding="utf-8"?>
<!-- Generator: Adobe Illustrator 21.1.0, SVG Export Plug-In . SVG Version: 6.00 Build 0)  -->
<svg version="1.1" id="Layer_1" xmlns="http://www.w3.org/2000/svg" xmlns:xlink="http://www.w3.org/1999/xlink" x="0px" y="0px"
	 viewBox="0 0 24 24" style="enable-background:new 0 0 24 24;" xml:space="preserve">
<style type="text/css">
	.st0{fill:none;}
</style>
<path d="M12,2C6.5,2,2,6.5,2,12c0,5.5,4.5,10,10,10s10-4.5,10-10C22,6.5,17.5,2,12,2z M14.6,12h-1.7c0,2.8,0,6.2,0,6.2h-2.6
	c0,0,0-3.4,0-6.2H9.1V9.8h1.2V8.4c0-1,0.5-2.6,2.6-2.6l1.9,0v2.1c0,0-1.2,0-1.4,0c-0.2,0-0.5,0.1-0.5,0.6v1.3h2L14.6,12z"/>
<path class="st0" d="M0,0h24v24H0V0z"/>
</svg>
