<?xml version="1.0" encoding="utf-8"?>
<!-- Generator: Adobe Illustrator 21.0.2, SVG Export Plug-In . SVG Version: 6.00 Build 0)  -->
<svg version="1.1" id="Ebene_1" xmlns="http://www.w3.org/2000/svg" xmlns:xlink="http://www.w3.org/1999/xlink" x="0px" y="0px"
	 viewBox="0 0 24 24" style="enable-background:new 0 0 24 24;" xml:space="preserve">
<style type="text/css">
	.st0{fill-rule:evenodd;clip-rule:evenodd;}
	.st1{fill:none;}
</style>
<g>
	<g>
		<defs>
			<rect id="SVGID_1_" x="-273.1" y="-552.1" width="1280" height="850"/>
		</defs>
		<clipPath id="SVGID_2_">
			<use xlink:href="#SVGID_1_"  style="overflow:visible;"/>
		</clipPath>
	</g>
</g>
<path class="st0" d="M21.4,4.7c-0.8,0.5-1.7,0.8-2.6,1c-0.7-0.8-1.8-1.3-3-1.3c-2.3,0-4.1,1.9-4.1,4.2c0,0.3,0,0.6,0.1,1
	C8.4,9.3,5.4,7.7,3.4,5.1C3,5.7,2.8,6.5,2.8,7.2c0,1.5,0.7,2.7,1.8,3.5c-0.7,0-1.3-0.2-1.9-0.5v0.1c0,2,1.4,3.7,3.3,4.1
	c-0.3,0.1-0.7,0.1-1.1,0.1c-0.3,0-0.5,0-0.8-0.1c0.5,1.7,2,2.9,3.8,2.9c-1.4,1.1-3.2,1.8-5.1,1.8c-0.3,0-0.7,0-1-0.1
	C3.8,20.3,6,21,8.3,21C15.8,21,20,14.6,20,9c0-0.2,0-0.4,0-0.5c0.8-0.6,1.5-1.3,2-2.2c-0.7,0.3-1.5,0.6-2.4,0.7
	C20.5,6.5,21.1,5.6,21.4,4.7"/>
<path class="st1" d="M0,0h24v24H0V0z"/>
</svg>
