<?xml version="1.0" encoding="utf-8"?>
<!-- Generator: Adobe Illustrator 21.0.2, SVG Export Plug-In . SVG Version: 6.00 Build 0)  -->
<svg version="1.1" id="Ebene_1" xmlns="http://www.w3.org/2000/svg" xmlns:xlink="http://www.w3.org/1999/xlink" x="0px" y="0px"
	 viewBox="0 0 24 24" style="enable-background:new 0 0 24 24;" xml:space="preserve">
<style type="text/css">
	.st0{fill-rule:evenodd;clip-rule:evenodd;}
	.st1{fill:none;}
</style>
<g>
	<g>
		<defs>
			<rect id="SVGID_1_" x="-179.7" y="-577.2" width="1280" height="850"/>
		</defs>
		<clipPath id="SVGID_2_">
			<use xlink:href="#SVGID_1_"  style="overflow:visible;"/>
		</clipPath>
	</g>
</g>
<path class="st0" d="M20,21h-4.6v-7h2.3l0.4-2.7h-2.7V9.6c0-0.8,0.2-1.3,1.3-1.3l1.4,0V5.8c-0.2,0-1.1-0.1-2.1-0.1
	c-2.1,0-3.5,1.3-3.5,3.6v2h-2.3V14h2.3v7H4c-0.5,0-1-0.4-1-1V4c0-0.5,0.4-1,1-1h16c0.5,0,1,0.4,1,1v16C21,20.6,20.6,21,20,21z"/>
<path class="st1" d="M0,0h24v24H0V0z"/>
</svg>
