<?xml version="1.0" encoding="utf-8"?>
<!-- Generator: Adobe Illustrator 21.1.0, SVG Export Plug-In . SVG Version: 6.00 Build 0)  -->
<svg version="1.1" id="Layer_1" xmlns="http://www.w3.org/2000/svg" xmlns:xlink="http://www.w3.org/1999/xlink" x="0px" y="0px"
	 viewBox="0 0 24 24" style="enable-background:new 0 0 24 24;" xml:space="preserve">
<style type="text/css">
	.st0{fill:none;}
</style>
<path class="st0" d="M0,0h24v24H0V0z"/>
<path d="M12,2C6.5,2,2,6.5,2,12c0,5.5,4.5,10,10,10s10-4.5,10-10C22,6.5,17.5,2,12,2z M17,10c0,0.1,0,0.2,0,0.3
	c0,3.3-2.5,7.2-7.2,7.2c-1.4,0-2.7-0.4-3.9-1.1c0.2,0,0.4,0,0.6,0c1.2,0,2.3-0.4,3.1-1.1c-1.1,0-2-0.7-2.4-1.8c0.2,0,0.3,0,0.5,0
	c0.2,0,0.5,0,0.7-0.1c-1.2-0.2-2-1.3-2-2.5c0,0,0,0,0,0c0.3,0.2,0.7,0.3,1.1,0.3C7,10.9,6.5,10.1,6.5,9.2c0-0.5,0.1-0.9,0.3-1.3
	c1.2,1.5,3.1,2.5,5.2,2.6c0-0.2-0.1-0.4-0.1-0.6c0-1.4,1.1-2.5,2.5-2.5c0.7,0,1.4,0.3,1.8,0.8C16.9,8.2,17.5,8,18,7.7
	c-0.2,0.6-0.6,1.1-1.1,1.4c0.5-0.1,1-0.2,1.4-0.4C18,9.2,17.5,9.6,17,10z"/>
</svg>
