<?xml version="1.0" encoding="utf-8"?>
<!-- Generator: Adobe Illustrator 21.0.2, SVG Export Plug-In . SVG Version: 6.00 Build 0)  -->
<svg version="1.1" id="Ebene_1" xmlns="http://www.w3.org/2000/svg" xmlns:xlink="http://www.w3.org/1999/xlink" x="0px" y="0px"
	 viewBox="0 0 24 24" style="enable-background:new 0 0 24 24;" xml:space="preserve">
<style type="text/css">
	.st0{fill:none;}
</style>
<path d="M20.6,11.7H23v1.7h-2.4v2.5h-1.7v-2.5h-2.5v-1.7h2.5V9.3h1.7V11.7z M8,11.6h6.7c0.4,3.3-1,8.4-6.7,8.4c-3.9,0-7-3.1-7-7
	s3.1-7,7-7c1.8,0,3.5,0.7,4.7,1.8c-1.5,1.4-1.4,1.5-2,2c-0.7-0.6-1.5-1-2.7-1c-2.3,0-4.1,1.9-4.1,4.1C3.9,15.3,5.7,17,8,17
	s3.2-1,3.8-2.8c-1.1,0-3.8,0-3.8,0V11.6z"/>
<path class="st0" d="M0,0h24v24H0V0z"/>
</svg>
