<svg id="Ebene_1" data-name="Ebene 1" xmlns="http://www.w3.org/2000/svg" viewBox="0 0 24 24"><defs><style>.cls-1{fill:none;}</style></defs><title>icon_xing_24px</title><rect class="cls-1" width="24" height="24"/><path d="M8.74,6.49a.92.92,0,0,0-.8-.54H5a.41.41,0,0,0-.39.18.4.4,0,0,0,0,.45L6.62,9.94s0,0,0,0L3.56,15.37a.42.42,0,0,0,0,.44.41.41,0,0,0,.38.21H6.83a.93.93,0,0,0,.79-.56l3.11-5.51Zm0,0"/><path d="M20.47,2.63a.41.41,0,0,0,0-.45A.4.4,0,0,0,20.09,2H17.18a.89.89,0,0,0-.77.54L10,13.93l4.1,7.52a.88.88,0,0,0,.8.54h2.89a.4.4,0,0,0,.37-.63l-4.06-7.44h0Zm0,0"/></svg>