<svg id="Ebene_1" data-name="Ebene 1" xmlns="http://www.w3.org/2000/svg" viewBox="0 0 24 24"><defs><style>.cls-1{fill:none;}</style></defs><title>icon_googleplus_24px</title><rect class="cls-1" width="24" height="24"/><path d="M12,2A10,10,0,1,0,22,12,10,10,0,0,0,12,2ZM9.45,16.36a4.45,4.45,0,1,1,0-8.91,4.47,4.47,0,0,1,3,1.15c-1,.89-.89,1-1.27,1.27a2.47,2.47,0,0,0-1.72-.64,2.62,2.62,0,0,0-2.61,2.61,2.54,2.54,0,0,0,2.61,2.61,2.21,2.21,0,0,0,2.42-1.78H9.45V11h4.26C14,13.12,13.08,16.36,9.45,16.36ZM19,12.16H17.47v1.59H16.39V12.16H14.8V11.08h1.59V9.55h1.08v1.53H19Z"/></svg>