<svg id="Ebene_1" data-name="Ebene 1" xmlns="http://www.w3.org/2000/svg" viewBox="0 0 24 24"><defs><style>.cls-1{fill:none;}</style></defs><title>icon_social_whatsapp_circ_24px</title><rect class="cls-1" width="24" height="24"/><path d="M12.06,7.15a4.7,4.7,0,0,0-4.73,4.73,5.2,5.2,0,0,0,.6,2.34l.12.24-.6,2,2-.6.24.12a4.8,4.8,0,0,0,2.4.66,4.73,4.73,0,0,0,0-9.46Zm2.87,6.77a1.55,1.55,0,0,1-1,.72,1.78,1.78,0,0,1-1-.06,4.9,4.9,0,0,1-.84-.3A6.24,6.24,0,0,1,9.6,12,3.28,3.28,0,0,1,9,10.44a1.59,1.59,0,0,1,.48-1.2A1,1,0,0,1,10.2,9a.28.28,0,0,1,.3.24c.12.3.42,1.08.48,1.14s.06.12,0,.24l-.42.6a.26.26,0,0,0-.06.3c.12.12.42.6.84,1a5.13,5.13,0,0,0,1.2.72c.12.06.24.06.3-.06s.36-.48.48-.6a.28.28,0,0,1,.36-.06l1,.48a.64.64,0,0,1,.3.18A1,1,0,0,1,14.93,13.92Z"/><path d="M12,2A10,10,0,1,0,22,12,10,10,0,0,0,12,2Zm.06,15.81a6.22,6.22,0,0,1-2.75-.66L6,18l.78-3.35a6.17,6.17,0,0,1-.66-2.69,5.93,5.93,0,1,1,5.93,5.87Z"/></svg>