<svg id="Ebene_1" data-name="Ebene 1" xmlns="http://www.w3.org/2000/svg" viewBox="0 0 24 24"><defs><style>.cls-1{fill:none;}</style></defs><title>icon_social_messenger_circ_24px</title><rect class="cls-1" width="24" height="24"/><polygon points="11.39 10.6 8.08 14.09 11.08 12.44 12.61 14.03 15.92 10.54 12.92 12.19 11.39 10.6"/><path d="M12,2A10,10,0,1,0,22,12,10,10,0,0,0,12,2Zm0,15.7a5.28,5.28,0,0,1-1.71-.24L8.2,18.62V16.48A5.36,5.36,0,0,1,6,12.13,5.82,5.82,0,0,1,12,6.5a5.77,5.77,0,0,1,6,5.57A5.82,5.82,0,0,1,12,17.7Z"/></svg>