<?xml version="1.0" encoding="utf-8"?>
<!-- Generator: Adobe Illustrator 21.0.2, SVG Export Plug-In . SVG Version: 6.00 Build 0)  -->
<svg version="1.1" id="Ebene_1" xmlns="http://www.w3.org/2000/svg" xmlns:xlink="http://www.w3.org/1999/xlink" x="0px" y="0px"
	 viewBox="0 0 24 24" style="enable-background:new 0 0 24 24;" xml:space="preserve">
<style type="text/css">
	.st0{fill:none;}
</style>
<path class="st0" d="M0,0h24v24H0V0z"/>
<path d="M16,11.9c0,2.2-1.8,4-4,4s-4-1.8-4-4s1.8-4,4-4S16,9.8,16,11.9z M21.5,10.1l-2.1-0.5c-0.1-0.5-0.3-0.9-0.5-1.3l1-1.7
	c0.1-0.4,0.1-0.8-0.1-1l-1.7-1.7c-0.2-0.2-0.6-0.3-0.9-0.1l-1.8,1.1c-0.3-0.2-0.7-0.3-1-0.4l-0.5-2c-0.1-0.4-0.4-0.6-0.7-0.6h-2.4
	c-0.3,0-0.6,0.2-0.7,0.5l-0.5,2C9.2,4.6,8.8,4.8,8.4,4.9l-1.8-1C6.4,3.7,6,3.8,5.8,4L4.1,5.8C3.9,5.9,3.8,6.3,4,6.6l1.1,1.8
	C4.9,8.8,4.7,9.1,4.6,9.6l-2.1,0.5c-0.3,0-0.5,0.3-0.5,0.7v2.4c0,0.3,0.2,0.6,0.5,0.7l2.1,0.5C4.8,14.7,4.9,15,5,15.3l-1.2,2
	c-0.2,0.3-0.1,0.6,0.1,0.9l1.7,1.7c0.1,0.1,0.3,0.2,0.5,0.2c0.1,0,0.3,0,0.4-0.1l1.9-1.1c0.4,0.2,0.7,0.3,1.1,0.5l0.6,2.2
	c0.1,0.3,0.4,0.5,0.7,0.5h2.4c0.3,0,0.6-0.2,0.7-0.5l0.6-2.2c0.3-0.1,0.7-0.2,1-0.4l1.9,1.1c0.1,0.1,0.2,0.1,0.4,0.1
	c0.2,0,0.4-0.1,0.5-0.2l1.7-1.7c0.2-0.2,0.3-0.6,0.1-0.9l-1.1-2c0.2-0.3,0.3-0.7,0.4-1l2.1-0.5c0.3-0.1,0.5-0.4,0.5-0.7v-2.4
	C22,10.4,21.8,10.1,21.5,10.1z"/>
<path class="st0" d="M0,0h24v24H0V0z"/>
</svg>
