<?xml version="1.0" encoding="utf-8"?>
<!-- Generator: Adobe Illustrator 21.1.0, SVG Export Plug-In . SVG Version: 6.00 Build 0)  -->
<svg version="1.1" id="Ebene_1" xmlns="http://www.w3.org/2000/svg" xmlns:xlink="http://www.w3.org/1999/xlink" x="0px" y="0px"
	 viewBox="0 0 24 24" style="enable-background:new 0 0 24 24;" xml:space="preserve">
<style type="text/css">
	.st0{fill:none;}
	.st1{fill-rule:evenodd;clip-rule:evenodd;}
</style>
<path class="st0" d="M0,0h24v24H0V0z"/>
<g>
	<path d="M2,22l1.3-5.6c-0.7-1.4-1.1-3-1.1-4.5c0-5.5,4.4-9.9,9.9-9.9S22,6.4,22,11.8s-4.4,9.9-9.9,9.9c-1.6,0-3.2-0.4-4.6-1.1L2,22
		z M7.7,18.4l0.4,0.2c1.2,0.7,2.6,1.1,4,1.1c4.4,0,7.9-3.5,7.9-7.9s-3.5-7.9-7.9-7.9s-7.9,3.5-7.9,7.9c0,1.4,0.4,2.7,1,3.9l0.2,0.4
		l-1,3.3L7.7,18.4z"/>
</g>
<path class="st1" d="M10.3,9.7c0.1-0.2,0-0.3,0-0.4c-0.1-0.1-0.6-1.4-0.8-1.9C9.4,7,9.1,7,9,7C8.5,7,8.1,7.1,7.8,7.4
	C7.6,7.6,7,8.2,7,9.4c0,1.2,0.9,2.4,1,2.6c0.1,0.2,1.7,2.7,4.2,3.8c0.6,0.3,1.1,0.4,1.4,0.5c0.6,0.2,1.1,0.2,1.6,0.1
	c0.5-0.1,1.5-0.6,1.7-1.2c0.2-0.6,0.2-1.1,0.1-1.2c-0.1-0.1-0.2-0.2-0.5-0.3c-0.2-0.1-1.5-0.7-1.7-0.8c-0.2-0.1-0.4-0.1-0.6,0.1
	c-0.2,0.2-0.6,0.8-0.8,1c-0.1,0.2-0.3,0.2-0.5,0.1c-0.2-0.1-1-0.4-2-1.2c-0.7-0.7-1.2-1.5-1.4-1.7c-0.1-0.2,0-0.4,0.1-0.5L10.3,9.7z
	"/>
</svg>
