<?xml version="1.0" encoding="utf-8"?>
<!-- Generator: Adobe Illustrator 21.1.0, SVG Export Plug-In . SVG Version: 6.00 Build 0)  -->
<svg version="1.1" id="Layer_1" xmlns="http://www.w3.org/2000/svg" xmlns:xlink="http://www.w3.org/1999/xlink" x="0px" y="0px"
	 viewBox="0 0 24 24" style="enable-background:new 0 0 24 24;" xml:space="preserve">
<style type="text/css">
	.st0{fill:none;}
</style>
<path class="st0" d="M0,0h24v24H0V0z"/>
<g>
	<circle cx="11.9" cy="12.1" r="1.8"/>
	<path d="M14.2,7.7H9.7C9,7.7,8.5,7.9,8.1,8.3C7.7,8.6,7.5,9.2,7.5,9.8v4.5c0,0.7,0.2,1.2,0.6,1.6c0.4,0.4,0.9,0.6,1.6,0.6h4.4
		c0.7,0,1.2-0.2,1.6-0.6c0.4-0.4,0.6-0.9,0.6-1.6V9.9c0-0.7-0.2-1.2-0.6-1.6C15.4,7.9,14.8,7.7,14.2,7.7z M11.9,14.8
		c-1.5,0-2.8-1.3-2.8-2.8c0-1.5,1.3-2.8,2.8-2.8s2.8,1.2,2.8,2.8S13.5,14.8,11.9,14.8z M14.8,9.8c-0.4,0-0.7-0.3-0.7-0.7
		s0.3-0.7,0.7-0.7s0.7,0.3,0.7,0.7S15.2,9.8,14.8,9.8z"/>
	<path d="M12,2C6.5,2,2,6.5,2,12s4.5,10,10,10s10-4.5,10-10C22,6.5,17.5,2,12,2z M17.3,14.4c0,0.9-0.3,1.7-0.9,2.3
		c-0.6,0.6-1.4,0.9-2.3,0.9H9.7c-0.9,0-1.7-0.3-2.3-0.9c-0.6-0.6-0.9-1.4-0.9-2.3V9.9c0-1.9,1.3-3.2,3.2-3.2h4.5
		c0.9,0,1.7,0.3,2.3,0.9C17,8.2,17.3,9,17.3,9.9C17.3,9.9,17.3,14.4,17.3,14.4z"/>
</g>
</svg>
