<?xml version="1.0" encoding="utf-8"?>
<!-- Generator: Adobe Illustrator 21.1.0, SVG Export Plug-In . SVG Version: 6.00 Build 0)  -->
<svg version="1.1" id="Ebene_1" xmlns="http://www.w3.org/2000/svg" xmlns:xlink="http://www.w3.org/1999/xlink" x="0px" y="0px"
	 viewBox="0 0 24 24" style="enable-background:new 0 0 24 24;" xml:space="preserve">
<style type="text/css">
	.st0{fill:none;}
</style>
<path class="st0" d="M0,0h24v24H0V0z"/>
<g>
	<g>
		<path d="M20.5,2.1H3.5c-0.8,0-1.5,0.6-1.5,1.4v17c0,0.8,0.7,1.4,1.5,1.4h16.9c0.8,0,1.5-0.6,1.5-1.4v-17
			C21.9,2.7,21.3,2.1,20.5,2.1z M8,19H5V9.5H8V19z M6.5,8.2c-0.9,0-1.7-0.8-1.7-1.7c0-0.9,0.8-1.7,1.7-1.7c0.9,0,1.7,0.8,1.7,1.7
			C8.2,7.5,7.4,8.2,6.5,8.2z M19,19H16v-4.6c0-1.1,0-2.5-1.5-2.5c-1.5,0-1.8,1.2-1.8,2.4V19H9.8V9.5h2.8v1.3h0
			c0.4-0.7,1.4-1.5,2.8-1.5c3,0,3.5,2,3.5,4.5V19z"/>
	</g>
</g>
</svg>
