<?xml version="1.0" encoding="utf-8"?>
<!-- Generator: Adobe Illustrator 21.0.2, SVG Export Plug-In . SVG Version: 6.00 Build 0)  -->
<svg version="1.1" id="Ebene_1" xmlns="http://www.w3.org/2000/svg" xmlns:xlink="http://www.w3.org/1999/xlink" x="0px" y="0px"
	 viewBox="0 0 24 24" style="enable-background:new 0 0 24 24;" xml:space="preserve">
<style type="text/css">
	.st0{fill:none;}
	.st1{fill-rule:evenodd;clip-rule:evenodd;}
</style>
<g>
	<g>
		<defs>
			<rect id="SVGID_1_" x="-273.1" y="-552.1" width="1280" height="850"/>
		</defs>
		<clipPath id="SVGID_2_">
			<use xlink:href="#SVGID_1_"  style="overflow:visible;"/>
		</clipPath>
	</g>
</g>
<path class="st0" d="M0,0h24v24H0V0z"/>
<g>
	<g>
		<defs>
			<rect id="SVGID_3_" x="-330" y="-576" width="1280" height="850"/>
		</defs>
		<clipPath id="SVGID_4_">
			<use xlink:href="#SVGID_3_"  style="overflow:visible;"/>
		</clipPath>
	</g>
</g>
<path class="st1" d="M19.3,18.7c0,0.3-0.3,0.6-0.6,0.6H5.3c-0.3,0-0.6-0.3-0.6-0.6v-8.4h2.3c-0.3,0.4-0.4,1.2-0.4,1.7
	c0,3,2.5,5.5,5.5,5.5c3,0,5.5-2.5,5.5-5.5c0-0.5-0.1-1.3-0.4-1.7h2.3V18.7z M12,8.6c1.9,0,3.5,1.5,3.5,3.5c0,1.9-1.5,3.5-3.5,3.5
	c-1.9,0-3.5-1.5-3.5-3.5C8.6,10.1,10.1,8.6,12,8.6z M15.9,5.8c0-0.3,0.3-0.6,0.6-0.6h1.7c0.3,0,0.6,0.3,0.6,0.6v1.7
	c0,0.3-0.3,0.6-0.6,0.6h-1.7c-0.3,0-0.6-0.3-0.6-0.6V5.8z M5.1,3C4,3,3,4,3,5.1v13.7C3,20,4,21,5.1,21h13.7c1.2,0,2.1-1,2.1-2.1V5.1
	C21,4,20,3,18.9,3H5.1z"/>
</svg>
