<?xml version="1.0" encoding="utf-8"?>
<!-- Generator: Adobe Illustrator 21.0.2, SVG Export Plug-In . SVG Version: 6.00 Build 0)  -->
<svg version="1.1" id="Ebene_1" xmlns="http://www.w3.org/2000/svg" xmlns:xlink="http://www.w3.org/1999/xlink" x="0px" y="0px"
	 viewBox="0 0 24 24" style="enable-background:new 0 0 24 24;" xml:space="preserve">
<style type="text/css">
	.st0{fill:none;}
</style>
<path class="st0" d="M0,0h24v24H0V0z"/>
<g>
	<g>
		<defs>
			<rect id="SVGID_1_" x="-566.6" y="-187.6" width="1355.3" height="900"/>
		</defs>
		<clipPath id="SVGID_2_">
			<use xlink:href="#SVGID_1_"  style="overflow:visible;"/>
		</clipPath>
	</g>
</g>
<path d="M11.2,16.8c-3.4,0-6.1-2.6-6.1-5.9s2.7-5.9,6.1-5.9s6.1,2.6,6.1,5.9S14.6,16.8,11.2,16.8z M17.5,16c1.2-1.4,1.9-3.1,1.9-5.1
	c0-4.4-3.7-8-8.2-8S3,6.6,3,11s3.7,8,8.2,8c1.8,0,3.4-0.5,4.8-1.5c0,0,0,0,0,0l3.2,3.2c0.4,0.4,1.1,0.4,1.5,0c0.4-0.4,0.4-1.1,0-1.5
	L17.5,16z"/>
</svg>
