<svg id="Ebene_1" data-name="Ebene 1" xmlns="http://www.w3.org/2000/svg" viewBox="0 0 24 24"><defs><style>.cls-1{fill:none;}</style></defs><title>icon_linkedIn_circ_24px</title><rect class="cls-1" width="24" height="24"/><path d="M12,2A10,10,0,1,0,22,12,10,10,0,0,0,12,2ZM9.18,17H6.85V9.64H9.18ZM8,8.63A1.36,1.36,0,0,1,6.7,7.32a1.32,1.32,0,0,1,2.63,0A1.31,1.31,0,0,1,8,8.63ZM15.38,17V13.44c0-.85,0-1.94-1.16-1.94s-1.39.93-1.39,1.86V17H10.57V9.64h2.17v1a2.51,2.51,0,0,1,2.17-1.16c2.32,0,2.71,1.55,2.71,3.49v4Z"/></svg>