<?xml version="1.0" encoding="utf-8"?>
<!-- Generator: Adobe Illustrator 21.0.2, SVG Export Plug-In . SVG Version: 6.00 Build 0)  -->
<svg version="1.1" id="Ebene_1" xmlns="http://www.w3.org/2000/svg" xmlns:xlink="http://www.w3.org/1999/xlink" x="0px" y="0px"
	 viewBox="0 0 24 24" style="enable-background:new 0 0 24 24;" xml:space="preserve">
<style type="text/css">
	.st0{fill:none;}
</style>
<path class="st0" d="M24,0v24H0V0"/>
<g>
	<g>
		<defs>
			<rect id="SVGID_1_" x="-564" y="-1127.4" width="1170" height="2918"/>
		</defs>
		<clipPath id="SVGID_2_">
			<use xlink:href="#SVGID_1_"  style="overflow:visible;"/>
		</clipPath>
	</g>
</g>
<g>
	<path d="M12,4c1.1,0,2,0.9,2,2v4c0,1.1-0.9,2-2,2s-2-0.9-2-2V6C10,4.9,10.9,4,12,4 M12,2C9.8,2,8,3.8,8,6v4c0,2.2,1.8,4,4,4
		s4-1.8,4-4V6C16,3.8,14.2,2,12,2L12,2z"/>
	<path d="M17,22H7v-2h4v-3.1c-3.4-0.5-6-3.4-6-6.9h2c0,2.8,2.2,5,5,5s5-2.2,5-5h2c0,3.5-2.6,6.4-6,6.9V20h4V22z"/>
</g>
</svg>
