<?xml version="1.0" encoding="utf-8"?>
<!-- Generator: Adobe Illustrator 22.0.1, SVG Export Plug-In . SVG Version: 6.00 Build 0)  -->
<svg version="1.1" id="Icon_build" xmlns="http://www.w3.org/2000/svg" xmlns:xlink="http://www.w3.org/1999/xlink" x="0px" y="0px"
	 width="24px" height="24px" viewBox="0 0 24 24" enable-background="new 0 0 24 24" xml:space="preserve">
<rect fill="none" width="24" height="24"/>
<path d="M20.6,5.6c-2.1-2.2-5-3.5-8.1-3.6V0.5C12.5,0.2,12.3,0,12,0s-0.5,0.2-0.5,0.5V2c-3.1,0.1-6,1.4-8.1,3.6
	C1,8.1-0.1,11.3,0,14.8c0,0.2,0.2,0.5,0.5,0.5c0.3,0,0.5-0.1,0.5-0.4C1,14.8,1.5,13,3.1,13c1.7,0,2.1,1.8,2.1,1.9
	c0.1,0.2,0.2,0.4,0.4,0.4c0.2,0,0.4-0.1,0.5-0.3c0,0,0.9-1.9,2.7-1.9c1.5,0,2.4,1.5,2.6,1.9v7.5c0,0.6-0.7,0.6-0.8,0.6
	c-0.1,0-0.8,0-0.8-0.6c0-0.3-0.2-0.5-0.5-0.5s-0.5,0.2-0.5,0.5c0,1.1,0.9,1.6,1.8,1.6c0.9,0,1.8-0.6,1.8-1.6v-7.6
	c0.1-0.3,0.6-1.8,2.6-1.8c2.2,0,2.6,1.8,2.6,1.8c0.1,0.2,0.3,0.4,0.5,0.4c0,0,0,0,0.1,0c0.3,0,0.4-0.2,0.4-0.5c0-0.1,0-1.7,2.1-1.7
	c2,0,2.1,1.6,2.1,1.7c0,0.3,0.2,0.5,0.5,0.5c0.2,0,0.5-0.2,0.5-0.5C24.1,11.3,23,8.1,20.6,5.6z M20.9,12c-1.5,0-2.3,0.7-2.8,1.4
	c-0.6-0.7-1.5-1.4-3-1.4c-1.7,0-2.7,0.9-3.2,1.7c-0.6-0.7-1.6-1.7-3.1-1.7c-1.5,0-2.5,0.9-3,1.7C5.4,12.8,4.5,12,3.1,12
	c-0.9,0-1.5,0.3-2,0.8c0.3-2.5,1.3-4.7,3-6.5C6.1,4.2,8.9,3,12,3c3.1,0,5.9,1.2,7.9,3.3c1.6,1.7,2.7,3.9,3,6.3
	C22.4,12.2,21.7,12,20.9,12z"/>
</svg>
