<?xml version="1.0" encoding="utf-8"?>
<!-- Generator: Adobe Illustrator 22.0.1, SVG Export Plug-In . SVG Version: 6.00 Build 0)  -->
<svg version="1.1" id="Icon_build" xmlns="http://www.w3.org/2000/svg" xmlns:xlink="http://www.w3.org/1999/xlink" x="0px" y="0px"
	 width="24px" height="24px" viewBox="0 0 24 24" enable-background="new 0 0 24 24" xml:space="preserve">
<rect fill="none" width="24" height="24"/>
<path d="M23.7,9.1c-0.2-0.1-0.4-0.1-0.5,0L20,11.4C19.9,10.1,18.8,9,17.5,9h-0.2c1-0.8,1.7-2.1,1.7-3.5C19,3,17,1,14.5,1
	c-1.8,0-3.3,1-4,2.5C9.8,2,8.3,1,6.5,1C4,1,2,3,2,5.5C2,6.9,2.7,8.2,3.7,9H2.5C1.1,9,0,10.1,0,11.5v5C0,17.9,1.1,19,2.5,19h15
	c1.4,0,2.5-1.1,2.5-2.5l3.2,2.4c0.1,0.1,0.2,0.1,0.3,0.1c0.1,0,0.2,0,0.2-0.1c0.2-0.1,0.3-0.3,0.3-0.4v-9C24,9.3,23.9,9.1,23.7,9.1z
	 M14.5,2C16.4,2,18,3.6,18,5.5S16.4,9,14.5,9S11,7.4,11,5.5S12.6,2,14.5,2z M11.7,9H9.3c0.5-0.4,0.9-0.9,1.2-1.5
	C10.8,8.1,11.2,8.6,11.7,9z M3,5.5C3,3.6,4.6,2,6.5,2S10,3.6,10,5.5S8.4,9,6.5,9S3,7.4,3,5.5z M19,16.5c0,0.8-0.7,1.5-1.5,1.5h-15
	C1.7,18,1,17.3,1,16.5v-5C1,10.7,1.7,10,2.5,10h15c0.8,0,1.5,0.7,1.5,1.5v0.9v3.1V16.5z M23,17.5l-3-2.2v-2.6l3-2.1V17.5z"/>
</svg>
