<?xml version="1.0" encoding="utf-8"?>
<!-- Generator: Adobe Illustrator 22.1.0, SVG Export Plug-In . SVG Version: 6.00 Build 0)  -->
<svg version="1.1" id="Icon_build" xmlns="http://www.w3.org/2000/svg" xmlns:xlink="http://www.w3.org/1999/xlink" x="0px" y="0px"
	 width="24px" height="24px" viewBox="0 0 24 24" enable-background="new 0 0 24 24" xml:space="preserve">
<g>
	<path d="M6.8,18l-1.1-0.2l-0.5-1.1c-0.1-0.2-0.3-0.3-0.5-0.3c0,0,0,0,0,0c-0.2,0-0.4,0.1-0.5,0.3l-0.5,1.1L2.7,18
		c-0.2,0-0.3,0.2-0.4,0.3c-0.1,0.2,0,0.4,0.1,0.5l0.8,0.8L3,20.9c0,0.2,0,0.4,0.2,0.5c0.2,0.1,0.4,0.1,0.5,0l1-0.5l1,0.6
		c0.1,0,0.2,0.1,0.2,0.1c0.1,0,0.2,0,0.3-0.1c0.2-0.1,0.2-0.3,0.2-0.5l-0.2-1.2l0.8-0.8c0.1-0.1,0.2-0.3,0.1-0.5
		C7.2,18.2,7,18.1,6.8,18z M5.4,19.2c-0.1,0.1-0.2,0.3-0.1,0.4l0.1,0.4L5,19.9c-0.1,0-0.2-0.1-0.2-0.1c-0.1,0-0.2,0-0.2,0.1
		l-0.3,0.2l0.1-0.4c0-0.2,0-0.3-0.1-0.4l-0.3-0.3l0.4-0.1c0.2,0,0.3-0.1,0.4-0.3l0.2-0.4l0.2,0.4c0.1,0.2,0.2,0.3,0.4,0.3l0.4,0.1
		L5.4,19.2z"/>
	<path d="M21.3,18l-1.1-0.2l-0.5-1.1c-0.1-0.2-0.3-0.3-0.5-0.3c-0.2,0-0.4,0.1-0.5,0.3l-0.5,1.1L17.2,18c-0.2,0-0.3,0.2-0.4,0.3
		c-0.1,0.2,0,0.4,0.1,0.5l0.8,0.8l-0.2,1.2c0,0.2,0,0.4,0.2,0.5c0.2,0.1,0.4,0.1,0.5,0l1-0.5l1,0.6c0.1,0,0.2,0.1,0.2,0.1
		c0.1,0,0.2,0,0.3-0.1c0.2-0.1,0.2-0.3,0.2-0.5l-0.2-1.2l0.8-0.8c0.1-0.1,0.2-0.3,0.1-0.5C21.7,18.2,21.5,18.1,21.3,18z M19.9,19.2
		c-0.1,0.1-0.2,0.3-0.1,0.4l0.1,0.4l-0.3-0.2c-0.1,0-0.2-0.1-0.2-0.1c-0.1,0-0.2,0-0.2,0.1l-0.3,0.2l0.1-0.4c0-0.2,0-0.3-0.1-0.4
		l-0.3-0.3l0.4-0.1c0.2,0,0.3-0.1,0.4-0.3l0.2-0.4l0.2,0.4c0.1,0.2,0.2,0.3,0.4,0.3l0.4,0.1L19.9,19.2z"/>
	<path d="M15.6,18.7l-2.2-0.3l-1-2.1C12.4,16.1,12.2,16,12,16c0,0,0,0,0,0c-0.2,0-0.4,0.1-0.5,0.3l-1,2.1l-2.2,0.3
		c-0.2,0-0.3,0.2-0.4,0.3c-0.1,0.2,0,0.4,0.1,0.5l1.6,1.6l-0.4,2.3c0,0.2,0,0.4,0.2,0.5c0.2,0.1,0.4,0.1,0.5,0l1.9-1l1.9,1.1
		c0.1,0,0.2,0.1,0.2,0.1c0.1,0,0.2,0,0.3-0.1c0.2-0.1,0.2-0.3,0.2-0.5l-0.4-2.3l1.6-1.6C16,19.4,16,19.2,16,19
		C15.9,18.9,15.8,18.7,15.6,18.7z M13.4,20.6c-0.1,0.1-0.2,0.3-0.1,0.4l0.2,1.5l-1.3-0.7c-0.1,0-0.2-0.1-0.2-0.1
		c-0.1,0-0.2,0-0.2,0.1l-1.3,0.7l0.3-1.5c0-0.2,0-0.3-0.1-0.4l-1.1-1.1l1.5-0.2c0.2,0,0.3-0.1,0.4-0.3l0.6-1.3l0.6,1.3
		c0.1,0.2,0.2,0.3,0.4,0.3l1.5,0.2L13.4,20.6z"/>
	<path d="M17,17v-2.7c0-1.3-1.1-2.4-2.4-2.4H9.4C8.1,11.9,7,13,7,14.3V17c0,0.3,0.2,0.5,0.5,0.5S8,17.3,8,17v-2.7
		c0-0.8,0.6-1.4,1.4-1.4h5.2c0.8,0,1.4,0.6,1.4,1.4V17c0,0.3,0.2,0.5,0.5,0.5S17,17.3,17,17z"/>
	<path d="M9,8c0,1.7,1.3,3,3,3s3-1.3,3-3s-1.3-3-3-3S9,6.3,9,8z M14,8c0,1.1-0.9,2-2,2s-2-0.9-2-2s0.9-2,2-2S14,6.9,14,8z"/>
	<path d="M2.6,16.6c0.3-0.1,0.4-0.4,0.3-0.7C1.4,12.7,1.9,8.9,4,6l0,0.1c0,0.3,0.2,0.5,0.5,0.5c0,0,0,0,0,0C4.8,6.6,5,6.4,5,6.1
		L4.9,4.7c0-0.3-0.3-0.5-0.5-0.5L3,4.3c-0.3,0-0.5,0.3-0.5,0.5c0,0.3,0.3,0.5,0.5,0.5l0.3,0c-2.4,3.1-3,7.4-1.4,11.1
		c0.1,0.2,0.3,0.3,0.5,0.3C2.4,16.7,2.5,16.7,2.6,16.6z"/>
	<path d="M6.2,3.7c0.1,0,0.2,0,0.3-0.1c3-2,6.8-2.2,10-0.6l-0.1,0c-0.3,0.1-0.4,0.3-0.4,0.6c0.1,0.2,0.3,0.4,0.5,0.4
		c0,0,0.1,0,0.1,0L18,3.8c0.3-0.1,0.4-0.3,0.4-0.6L18,1.8c-0.1-0.3-0.3-0.4-0.6-0.4C17.1,1.5,17,1.8,17,2l0.1,0.3
		C13.6,0.4,9.3,0.6,5.9,2.8C5.7,3,5.6,3.3,5.8,3.5C5.9,3.7,6,3.7,6.2,3.7z"/>
	<path d="M23.4,15.5c-0.1-0.3-0.4-0.4-0.7-0.3l-0.3,0.1c1.2-3.8,0.3-8-2.5-10.9c-0.2-0.2-0.5-0.2-0.7,0c-0.2,0.2-0.2,0.5,0,0.7
		c2.5,2.6,3.3,6.4,2.3,9.8l-0.1-0.1c-0.1-0.3-0.4-0.4-0.7-0.3c-0.3,0.1-0.4,0.4-0.3,0.7l0.6,1.3c0.1,0.1,0.2,0.2,0.3,0.3
		c0.1,0,0.1,0,0.2,0c0.1,0,0.1,0,0.2,0l1.3-0.6C23.4,16,23.5,15.7,23.4,15.5z"/>
</g>
</svg>
