<?xml version="1.0" encoding="utf-8"?>
<!-- Generator: Adobe Illustrator 22.0.1, SVG Export Plug-In . SVG Version: 6.00 Build 0)  -->
<svg version="1.1" id="Icon_build" xmlns="http://www.w3.org/2000/svg" xmlns:xlink="http://www.w3.org/1999/xlink" x="0px" y="0px"
	 width="24px" height="24px" viewBox="0 0 24 24" enable-background="new 0 0 24 24" xml:space="preserve">
<rect fill="none" width="24" height="24"/>
<g>
	<path d="M6.5,8h11C17.8,8,18,7.8,18,7.5v-5C18,2.2,17.8,2,17.5,2h-11C6.2,2,6,2.2,6,2.5v5C6,7.8,6.2,8,6.5,8z M7,3h10v4H7V3z"/>
	<path d="M17.5,16h-11C6.2,16,6,16.2,6,16.5v5C6,21.8,6.2,22,6.5,22h11c0.3,0,0.5-0.2,0.5-0.5v-5C18,16.2,17.8,16,17.5,16z M17,21H7
		v-4h10V21z"/>
	<path d="M11.5,14.5v-5C11.5,9.2,11.3,9,11,9H0.5C0.2,9,0,9.2,0,9.5v5C0,14.8,0.2,15,0.5,15H11C11.3,15,11.5,14.8,11.5,14.5z
		 M10.5,14H1v-4h9.5V14z"/>
	<path d="M23.5,9H13c-0.3,0-0.5,0.2-0.5,0.5v5c0,0.3,0.2,0.5,0.5,0.5h10.5c0.3,0,0.5-0.2,0.5-0.5v-5C24,9.2,23.8,9,23.5,9z M23,14
		h-9.5v-4H23V14z"/>
</g>
</svg>
