<?xml version="1.0" encoding="utf-8"?>
<!-- Generator: Adobe Illustrator 22.0.1, SVG Export Plug-In . SVG Version: 6.00 Build 0)  -->
<svg version="1.1" id="Icon_build" xmlns="http://www.w3.org/2000/svg" xmlns:xlink="http://www.w3.org/1999/xlink" x="0px" y="0px"
	 width="24px" height="24px" viewBox="0 0 24 24" enable-background="new 0 0 24 24" xml:space="preserve">
<rect fill="none" width="24" height="24"/>
<g>
	<path d="M19.5,1h-15C3.7,1,3,1.7,3,2.5v19C3,22.3,3.7,23,4.5,23h15c0.8,0,1.5-0.7,1.5-1.5v-19C21,1.7,20.3,1,19.5,1z M4.5,2h15
		C19.8,2,20,2.2,20,2.5V5H4V2.5C4,2.2,4.2,2,4.5,2z M19.5,22h-15C4.2,22,4,21.8,4,21.5V6h16v15.5C20,21.8,19.8,22,19.5,22z"/>
	<path d="M5.5,4h4C9.8,4,10,3.8,10,3.5S9.8,3,9.5,3h-4C5.2,3,5,3.2,5,3.5S5.2,4,5.5,4z"/>
	<path d="M12,8c-3.3,0-6,2.7-6,6s2.7,6,6,6s6-2.7,6-6S15.3,8,12,8z M12,19c-2.8,0-5-2.2-5-5s2.2-5,5-5s5,2.2,5,5S14.8,19,12,19z"/>
	<path d="M12,11c-1.7,0-3,1.3-3,3s1.3,3,3,3s3-1.3,3-3S13.7,11,12,11z M12,16c-1.1,0-2-0.9-2-2c0-1.1,0.9-2,2-2s2,0.9,2,2
		C14,15.1,13.1,16,12,16z"/>
	<circle cx="17.5" cy="3.5" r="0.5"/>
</g>
</svg>
