<?xml version="1.0" encoding="utf-8"?>
<!-- Generator: Adobe Illustrator 22.0.1, SVG Export Plug-In . SVG Version: 6.00 Build 0)  -->
<svg version="1.1" id="Icon_build" xmlns="http://www.w3.org/2000/svg" xmlns:xlink="http://www.w3.org/1999/xlink" x="0px" y="0px"
	 width="24px" height="24px" viewBox="0 0 24 24" enable-background="new 0 0 24 24" xml:space="preserve">
<rect fill="none" width="24" height="24"/>
<path d="M22,5.2C20.2,1.3,16-0.5,12.3,1C10.1,2,8.5,4.5,7.7,8.6c-0.1,0.6-0.2,1.2-0.3,1.9c0,0.3-0.1,0.6-0.1,0.8
	c0,0.3-0.1,0.5-0.1,0.7c-0.4-0.3-1.4-1.2-2.8-2.4L2.8,8.1C2.7,8,2.6,8,2.5,8h-2C0.3,8,0.1,8.1,0.1,8.3C0,8.4,0,8.6,0.1,8.8
	c0,0,3.3,4.6,6.3,8C6.5,16.9,6.6,17,6.7,17c0,0,0,0.2,0,0.4c-0.1,0.6-0.2,1.2-0.3,1.9C6.2,20,6.1,20.7,6,21.4
	c-0.1,0.5,0.1,0.9,0.3,1.1C6.6,22.8,7,23,7.5,23h12c0.5,0,0.9-0.2,1.2-0.5c0.3-0.3,0.4-0.7,0.3-1.1c0-0.3-0.4-2.4-0.9-5.9
	c0.7-0.8,1.9-2.3,2.3-3.4C23.2,9.8,23.1,7.4,22,5.2z M19.9,21.9c-0.1,0.1-0.2,0.1-0.4,0.1h-12c-0.2,0-0.4-0.1-0.4-0.1
	c0,0-0.1-0.1-0.1-0.3c0.1-0.7,0.2-1.4,0.3-2c0.1-0.6,0.2-1.3,0.3-2c0.1-0.7,0-0.9-0.4-1.4C4.9,13.6,2.5,10.4,1.5,9h0.8l1.5,1.4
	c2.6,2.5,3.2,3,3.8,2.7c0.5-0.2,0.6-0.8,0.7-1.7c0-0.2,0.1-0.5,0.1-0.8C8.5,10,8.6,9.4,8.7,8.8C8.8,8.5,8.8,8.3,8.9,8h8.6
	C17.9,8,18,8.1,18,8.8l0,0.2c0,0.4,0.5,3.3,1,6.4c0,0.1,0,0.1,0,0.2c0,0,0,0,0,0c0.4,2.7,0.9,5.8,0.9,6C20,21.7,20,21.8,19.9,21.9z
	 M21.4,11.9c-0.2,0.6-0.9,1.5-1.5,2.4c-0.4-2.6-0.8-5.1-0.8-5.5l0-0.1C19,8.1,18.9,7,17.5,7H9.1c0.8-2.7,2-4.4,3.6-5
	c3.2-1.3,6.9,0.3,8.4,3.7C22.1,7.6,22.2,9.7,21.4,11.9z"/>
</svg>
