<?xml version="1.0" encoding="utf-8"?>
<!-- Generator: Adobe Illustrator 22.0.1, SVG Export Plug-In . SVG Version: 6.00 Build 0)  -->
<svg version="1.1" id="Icon_build" xmlns="http://www.w3.org/2000/svg" xmlns:xlink="http://www.w3.org/1999/xlink" x="0px" y="0px"
	 width="24px" height="24px" viewBox="0 0 24 24" enable-background="new 0 0 24 24" xml:space="preserve">
<rect fill="none" width="24" height="24"/>
<g>
	<path d="M19,18.1V15v-1v-1.5c0-1.4-1.1-2.5-2.5-2.5h-7C8.7,10,8,9.3,8,8.5V8h5.5c1.3,0,2-0.8,2-1.5S14.8,5,13.5,5H8V3.5
		C8,2.1,6.9,1,5.5,1h-2C3.2,1,3,1.2,3,1.5S3.2,2,3.5,2h2C6.3,2,7,2.7,7,3.5v5C7,9.1,7.2,9.6,7.5,10c0,0,0,0,0,0
		C3.9,10,1,12.9,1,16.5S3.9,23,7.5,23s6.5-2.9,6.5-6.5c0-0.5-0.1-1-0.2-1.5H18v3.1c-1.1,0.2-2,1.2-2,2.4c0,1.4,1.1,2.5,2.5,2.5
		s2.5-1.1,2.5-2.5C21,19.3,20.1,18.3,19,18.1z M13.5,6c0.6,0,1,0.3,1,0.5S14.1,7,13.5,7H8V6H13.5z M11.7,13c0.7,0.8,1.1,1.9,1.3,3
		H8.7L11.7,13z M8,15.3V11c1.1,0.1,2.2,0.6,3,1.3L8,15.3z M7,15.3l-3-3c0.8-0.7,1.9-1.1,3-1.3V15.3z M3.3,13l3,3H2
		C2.1,14.9,2.6,13.8,3.3,13z M2,17h4.3l-3,3C2.6,19.2,2.1,18.1,2,17z M7,17.7V22c-1.1-0.1-2.2-0.6-3-1.3L7,17.7z M8,17.7l3,3
		c-0.8,0.7-1.9,1.1-3,1.3V17.7z M11.7,20l-3-3H13C12.9,18.1,12.4,19.2,11.7,20z M13.5,14L13.5,14c-0.5-1.2-1.4-2.3-2.6-3h5.6
		c0.8,0,1.5,0.7,1.5,1.5V14H13.5z M18.5,22c-0.8,0-1.5-0.7-1.5-1.5s0.7-1.5,1.5-1.5s1.5,0.7,1.5,1.5S19.3,22,18.5,22z"/>
	<circle cx="18.5" cy="20.5" r="0.5"/>
</g>
</svg>
