<?xml version="1.0" encoding="utf-8"?>
<!-- Generator: Adobe Illustrator 22.0.1, SVG Export Plug-In . SVG Version: 6.00 Build 0)  -->
<svg version="1.1" id="Icon_build" xmlns="http://www.w3.org/2000/svg" xmlns:xlink="http://www.w3.org/1999/xlink" x="0px" y="0px"
	 width="24px" height="24px" viewBox="0 0 24 24" enable-background="new 0 0 24 24" xml:space="preserve">
<rect fill="none" width="24" height="24"/>
<path d="M12,0C8.8,0,5.8,1.2,3.5,3.5S0,8.8,0,12c0,3.2,1.2,6.2,3.5,8.5C5.8,22.8,8.8,24,12,24c0,0,0,0,0,0c3.2,0,6.2-1.2,8.5-3.5
	c2.3-2.3,3.5-5.3,3.5-8.5C24,5.4,18.6,0,12,0z M17.8,16.3c0.3-1.1,0.5-2.4,0.6-3.8H23c-0.1,2.2-0.8,4.3-2.1,6
	C20.4,17.9,19.4,17,17.8,16.3z M12.5,23C12.5,23,12.5,23,12.5,23l0-6.8c1.7,0,3,0.3,4.1,0.7C15.3,20.4,13,22.5,12.5,23z M7.4,16.9
	c1.1-0.4,2.4-0.6,4.1-0.7V23c0,0,0,0,0,0C11,22.5,8.7,20.4,7.4,16.9z M3.1,18.5c-1.3-1.7-2-3.8-2.1-6h4.6c0,1.4,0.3,2.6,0.6,3.8
	C4.6,17,3.6,17.9,3.1,18.5z M6.2,7.7c-0.3,1.1-0.5,2.4-0.6,3.8H1c0.1-2.2,0.8-4.3,2.1-6C3.6,6.1,4.6,7,6.2,7.7z M11.5,1
	C11.5,1,11.5,1,11.5,1l0,6.8c-1.7,0-3-0.3-4.1-0.7C8.7,3.6,11,1.5,11.5,1z M16.6,7.1c-1.1,0.4-2.4,0.6-4.1,0.7V1c0,0,0,0,0,0
	C13,1.5,15.3,3.6,16.6,7.1z M12.5,8.8c1.8,0,3.2-0.3,4.4-0.7c0.3,1,0.5,2.2,0.5,3.4h-4.9V8.8z M11.5,8.8v2.7H6.6
	c0-1.2,0.2-2.4,0.5-3.4C8.3,8.5,9.7,8.7,11.5,8.8z M6.6,12.5h4.9v2.7c-1.8,0-3.2,0.3-4.4,0.7C6.8,14.9,6.6,13.7,6.6,12.5z
	 M12.5,15.2v-2.7h4.9c0,1.2-0.2,2.4-0.5,3.4C15.7,15.5,14.3,15.3,12.5,15.2z M18.4,11.5c0-1.4-0.3-2.6-0.6-3.8
	c1.6-0.7,2.5-1.6,3-2.2c1.2,1.7,2,3.8,2.1,6H18.4z M20.2,4.7c-0.3,0.5-1.2,1.3-2.7,2c-0.9-2.6-2.4-4.5-3.3-5.5
	C16.6,1.7,18.7,3,20.2,4.7z M9.8,1.2c-1,1.1-2.4,2.9-3.4,5.6C4.9,6.1,4.1,5.2,3.8,4.7c0.1-0.2,0.3-0.3,0.4-0.5
	C5.8,2.7,7.7,1.6,9.8,1.2z M3.8,19.3c0.3-0.5,1.2-1.3,2.7-2.1c0.9,2.6,2.4,4.5,3.4,5.5c-2.1-0.4-4.1-1.5-5.6-3
	C4.1,19.6,3.9,19.5,3.8,19.3z M14.2,22.8c1-1.1,2.4-2.9,3.4-5.6c1.6,0.7,2.4,1.6,2.7,2.1c-0.1,0.2-0.3,0.3-0.4,0.5
	C18.2,21.3,16.3,22.4,14.2,22.8z"/>
</svg>
