<?xml version="1.0" encoding="utf-8"?>
<!-- Generator: Adobe Illustrator 22.0.1, SVG Export Plug-In . SVG Version: 6.00 Build 0)  -->
<svg version="1.1" id="Icon_build" xmlns="http://www.w3.org/2000/svg" xmlns:xlink="http://www.w3.org/1999/xlink" x="0px" y="0px"
	 width="24px" height="24px" viewBox="0 0 24 24" enable-background="new 0 0 24 24" xml:space="preserve">
<rect fill="none" width="24" height="24"/>
<g>
	<g>
		<path d="M5.5,15H4.8c-0.2,0-0.4-0.2-0.5-0.4l-0.6-3l-0.6,3C3,14.8,2.8,15,2.5,15H1.8c-0.2,0-0.4-0.2-0.5-0.4L0,9.3
			C-0.1,9,0.1,8.8,0.3,8.7C0.6,8.6,0.9,8.8,1,9.1l1.2,4.9l1-4.8c0-0.2,0.3-0.4,0.5-0.4l0,0c0.2,0,0.4,0.2,0.5,0.4l1,4.9l1.2-4.9
			C6.4,8.8,6.7,8.6,7,8.7C7.2,8.8,7.4,9,7.3,9.3L6,14.6C6,14.8,5.8,15,5.5,15z"/>
	</g>
</g>
<g>
	<g>
		<path d="M13.9,15h-0.8c-0.2,0-0.4-0.2-0.5-0.4l-0.6-3l-0.6,3c0,0.2-0.3,0.4-0.5,0.4h-0.8c-0.2,0-0.4-0.2-0.5-0.4L8.3,9.3
			C8.3,9,8.4,8.8,8.7,8.7C9,8.6,9.2,8.8,9.3,9.1l1.2,4.9l1-4.8c0-0.2,0.3-0.4,0.5-0.4l0,0c0.2,0,0.4,0.2,0.5,0.4l1,4.9l1.2-4.9
			c0.1-0.3,0.3-0.4,0.6-0.4c0.3,0.1,0.4,0.3,0.4,0.6l-1.3,5.3C14.3,14.8,14.1,15,13.9,15z"/>
	</g>
</g>
<g>
	<g>
		<path d="M22.2,15h-0.8c-0.2,0-0.4-0.2-0.5-0.4l-0.6-3l-0.6,3c0,0.2-0.3,0.4-0.5,0.4h-0.8c-0.2,0-0.4-0.2-0.5-0.4l-1.3-5.3
			C16.6,9,16.8,8.8,17,8.7c0.3-0.1,0.5,0.1,0.6,0.4l1.2,4.9l1-4.8c0-0.2,0.3-0.4,0.5-0.4l0,0c0.2,0,0.4,0.2,0.5,0.4l1,4.9L23,9.1
			c0.1-0.3,0.3-0.4,0.6-0.4C23.9,8.8,24.1,9,24,9.3l-1.3,5.3C22.7,14.8,22.5,15,22.2,15z"/>
	</g>
</g>
</svg>
